<svg width="375" height="298" viewBox="0 0 375 298" fill="none" xmlns="http://www.w3.org/2000/svg">
<path d="M275.2 131.984C275.2 131.984 304.166 122.12 319.08 104.181C319.08 104.181 296.188 106.267 275.2 131.984Z" fill="#6AAF3F"/>
<path d="M167.644 143.576L176.753 135.799H286.513L292.913 143.576H167.644Z" fill="#333333"/>
<path d="M291.663 156.182C291.663 156.182 294.699 194.236 297.438 206.693C300.177 219.179 305.029 242.602 305.356 249.307C305.654 256.012 311.727 258.426 310.834 262.687C309.911 266.948 156.689 262.687 156.689 262.687C156.689 262.687 152.432 258.724 159.13 248.979C165.828 239.234 164.608 217.033 164.905 208.809C165.203 200.584 167.942 182.942 167.644 177.757C167.317 172.631 291.663 156.182 291.663 156.182Z" fill="#D1AE75"/>
<path d="M267.043 145.633C267.043 145.633 284.369 141.371 290.442 128.587C296.515 115.803 290.442 106.356 294.401 99.979C298.361 93.6018 304.434 91.1582 305.356 82.9334C306.279 74.7086 303.898 67.497 295.026 68.0334C285.203 68.6294 287.971 82.3374 279.517 85.7644C275.468 87.4034 266.15 91.784 261.268 104.866C256.416 117.948 257.309 145.037 267.043 145.633Z" fill="#6AAF3F"/>
<path d="M299.045 68.4208C300.742 69.4936 302.022 71.1326 302.886 72.9504C303.868 74.9768 304.344 77.2714 304.285 79.5064C304.255 80.6686 304.076 81.8308 303.749 82.9334C303.332 84.3638 302.618 85.7048 301.844 86.9564C300.206 89.6384 298.033 91.933 296.009 94.317C294.967 95.5686 293.925 96.8202 293.092 98.2506C292.347 99.532 291.752 100.933 291.365 102.363C290.591 105.254 290.591 108.263 290.829 111.214C290.978 112.882 291.216 114.551 291.395 116.22C291.573 117.978 291.663 119.766 291.633 121.524C291.603 123.253 291.454 125.011 291.157 126.71C291.067 127.216 290.948 127.723 290.799 128.229C296.575 115.654 290.65 106.326 294.58 100.009C298.539 93.6316 304.612 91.188 305.535 82.9632C306.279 76.139 304.761 69.9704 299.045 68.4208Z" fill="#98DF25"/>
<path d="M195.002 149.805C195.002 149.805 205.957 139.464 205.332 130.643C204.737 121.822 195.895 113.3 196.52 106.893C197.146 100.486 206.731 84.2148 195.3 79.8044C178.897 73.4868 179.79 59.5703 170.383 56.6797C162.196 54.1765 159.13 63.6827 160.946 71.5797C162.762 79.4767 158.207 87.4034 153.95 93.8104C149.693 100.188 152.7 113.27 159.726 118.932C171.723 128.587 161.482 134.219 170.681 141.52C176.575 146.199 186.786 153.47 195.002 149.805Z" fill="#6AAF3F"/>
<path d="M259.422 121.644C259.422 121.644 286.78 78.4336 287.346 39.5148C287.346 39.5148 259.78 66.1858 259.422 121.644Z" fill="#469F62"/>
<path d="M264.751 230.771H189.048C183.421 230.771 178.867 226.212 178.867 220.58V37.6672C178.867 32.035 183.421 27.4756 189.048 27.4756H264.751C270.377 27.4756 274.932 32.035 274.932 37.6672V220.58C274.932 226.182 270.377 230.771 264.751 230.771Z" fill="#333333"/>
<path d="M260.762 223.47H192.888C187.262 223.47 182.707 218.911 182.707 213.279V41.9286C182.707 36.2964 187.262 31.737 192.888 31.737H260.762C266.388 31.737 270.943 36.2964 270.943 41.9286V213.279C270.973 218.911 266.388 223.47 260.762 223.47Z" fill="white"/>
<path d="M253.201 152.427C257.492 152.427 260.971 148.945 260.971 144.649C260.971 140.354 257.492 136.871 253.201 136.871C248.91 136.871 245.431 140.354 245.431 144.649C245.431 148.945 248.91 152.427 253.201 152.427Z" fill="#F94848"/>
<path d="M258.083 136.275C258.083 136.275 255.791 137.587 253.945 137.527C253.945 137.527 255.195 136.216 258.083 136.275Z" fill="#82A30A"/>
<path d="M256.088 133.742C256.088 133.742 255.344 136.275 253.945 137.527C253.945 137.527 253.945 135.739 256.088 133.742Z" fill="#82A30A"/>
<path d="M249.896 136.275C249.896 136.275 252.189 137.587 254.034 137.527C254.034 137.527 252.784 136.216 249.896 136.275Z" fill="#82A30A"/>
<path d="M251.891 133.742C251.891 133.742 252.635 136.275 254.034 137.527C254.034 137.527 254.034 135.739 251.891 133.742Z" fill="#82A30A"/>
<path d="M247.813 143.636C248.319 143.07 248.438 142.176 248.855 141.52C249.063 141.192 249.271 140.865 249.569 140.626C249.867 140.358 250.194 140.209 250.403 139.851C250.492 139.643 250.432 139.315 250.165 139.255C248.497 138.987 246.92 142.176 247.456 143.547C247.485 143.696 247.694 143.785 247.813 143.636Z" fill="white"/>
<path d="M247.575 145.066L247.545 145.037C247.485 145.007 247.426 144.977 247.366 144.977C247.277 144.947 247.158 144.947 247.069 144.977C247.009 144.977 246.95 145.007 246.89 145.037C246.801 145.066 246.711 145.126 246.652 145.186C246.622 145.245 246.563 145.275 246.533 145.335C246.503 145.394 246.473 145.454 246.473 145.513C246.443 145.603 246.443 145.722 246.473 145.811C246.473 145.901 246.503 145.99 246.563 146.08L246.592 146.109C246.652 146.229 246.741 146.318 246.86 146.378C246.979 146.437 247.098 146.467 247.247 146.467C247.307 146.467 247.366 146.437 247.456 146.437C247.575 146.407 247.694 146.348 247.783 146.258C247.843 146.199 247.902 146.109 247.932 146.02C247.991 145.931 247.991 145.841 247.991 145.722C247.991 145.603 247.962 145.454 247.902 145.335C247.753 145.215 247.664 145.126 247.575 145.066Z" fill="white"/>
<path d="M236.649 146.527C238.622 146.527 240.221 144.926 240.221 142.951C240.221 140.976 238.622 139.375 236.649 139.375C234.676 139.375 233.077 140.976 233.077 142.951C233.077 144.926 234.676 146.527 236.649 146.527Z" fill="#BCBCBC"/>
<path d="M236.649 144.411C237.454 144.411 238.108 143.757 238.108 142.951C238.108 142.144 237.454 141.49 236.649 141.49C235.843 141.49 235.19 142.144 235.19 142.951C235.19 143.757 235.843 144.411 236.649 144.411Z" fill="white"/>
<path d="M219.026 148.583C219.026 148.583 230.427 136.037 225.634 133.057C220.842 130.077 206.493 141.043 201.462 146.974C196.431 152.934 219.026 148.583 219.026 148.583Z" fill="#F2BD66"/>
<path d="M195.299 146.527C197.272 146.527 198.872 144.926 198.872 142.951C198.872 140.976 197.272 139.375 195.299 139.375C193.326 139.375 191.727 140.976 191.727 142.951C191.727 144.926 193.326 146.527 195.299 146.527Z" fill="#BCBCBC"/>
<path d="M195.299 144.411C196.105 144.411 196.758 143.757 196.758 142.951C196.758 142.144 196.105 141.49 195.299 141.49C194.494 141.49 193.841 142.144 193.841 142.951C193.841 143.757 194.494 144.411 195.299 144.411Z" fill="white"/>
<path d="M225.634 133.057C225.277 132.848 224.89 132.699 224.443 132.64C224.503 132.699 224.563 132.759 224.622 132.819C225.545 133.772 225.843 135.083 225.575 136.365C225.485 136.752 225.366 137.11 225.188 137.467C225.009 137.795 224.801 138.123 224.592 138.421C224.056 139.166 223.461 139.881 222.836 140.537C222.211 141.192 221.526 141.818 220.782 142.325C220.127 142.772 219.412 143.129 218.668 143.427C216.703 144.202 214.56 144.411 212.506 144.888C212 145.007 211.494 145.126 211.018 145.305C210.482 145.484 209.976 145.722 209.44 145.931C208.249 146.407 207.028 146.884 205.838 147.301C204.2 147.897 202.563 148.434 200.896 148.97C202.652 151.712 219.025 148.553 219.025 148.553C219.025 148.553 230.397 136.037 225.634 133.057Z" fill="#DDA14A"/>
<path d="M228.939 53.64H225.277C223.312 53.64 221.734 52.0606 221.734 50.0938V46.4284C221.734 44.4616 223.312 42.8822 225.277 42.8822H228.939C230.903 42.8822 232.481 44.4616 232.481 46.4284V50.0938C232.451 52.0606 230.874 53.64 228.939 53.64Z" fill="#6AAF3F"/>
<path d="M227.063 45.6238V50.9878" stroke="white" stroke-width="2" stroke-miterlimit="10" stroke-linecap="round" stroke-linejoin="round"/>
<path d="M229.742 48.3057H224.384" stroke="white" stroke-width="2" stroke-miterlimit="10" stroke-linecap="round" stroke-linejoin="round"/>
<path d="M214.054 85.1981C214.114 85.1981 214.173 85.2279 214.233 85.2279C214.173 84.7809 214.144 84.3041 214.144 83.8273C214.144 84.2743 214.114 84.7213 214.054 85.1981Z" fill="#A8E580"/>
<path d="M293.299 144H168V248.479H293.299V144Z" fill="#D1AE75"/>
<path d="M235.25 237.774C248.666 237.774 259.542 226.887 259.542 213.457C259.542 200.028 248.666 189.141 235.25 189.141C221.834 189.141 210.958 200.028 210.958 213.457C210.958 226.887 221.834 237.774 235.25 237.774Z" fill="#C19B65"/>
<path d="M233.911 235.092C246.587 235.092 256.863 224.806 256.863 212.116C256.863 199.427 246.587 189.141 233.911 189.141C221.235 189.141 210.958 199.427 210.958 212.116C210.958 224.806 221.235 235.092 233.911 235.092Z" fill="white"/>
<path d="M233.91 189.141C246.592 189.141 256.862 199.422 256.862 212.116C256.862 216.676 255.523 220.937 253.23 224.513" stroke="#333333" stroke-miterlimit="10" stroke-linecap="round" stroke-linejoin="round"/>
<path d="M242.752 206.007C239.745 204.815 236.262 206.067 233.791 208.868C231.32 206.067 227.837 204.815 224.831 206.007C220.723 207.646 219.055 213.219 221.139 218.464C223.223 223.709 228.224 226.629 232.333 225.02C232.333 225.02 232.333 225.02 232.362 225.02C233.285 224.632 234.327 224.632 235.25 225.02C235.25 225.02 235.25 225.02 235.28 225.02C239.388 226.659 244.419 223.709 246.473 218.464C248.527 213.219 246.89 207.617 242.752 206.007Z" fill="#F94848"/>
<path d="M233.881 204.666C233.881 204.666 238.971 206.097 241.502 199.928C241.502 199.928 234.625 198.379 233.881 204.666Z" fill="#6AAF3F"/>
<path d="M233.851 202.67L233.821 209.107" stroke="#333333" stroke-miterlimit="10" stroke-linecap="round" stroke-linejoin="round"/>
<path d="M165.798 56.6796L180.713 131.686" stroke="#333333" stroke-width="0.5" stroke-miterlimit="10" stroke-linecap="round" stroke-linejoin="round"/>
<path d="M172.586 90.3536L180.237 68.689" stroke="#333333" stroke-width="0.5" stroke-miterlimit="10" stroke-linecap="round" stroke-linejoin="round"/>
<path d="M171.812 86.0326L179.344 65.7388" stroke="#333333" stroke-width="0.5" stroke-miterlimit="10" stroke-linecap="round" stroke-linejoin="round"/>
<path d="M164.965 124.385L179.79 133.057" stroke="#333333" stroke-width="0.5" stroke-miterlimit="10" stroke-linecap="round" stroke-linejoin="round"/>
<path d="M191.489 43.8954H203.189" stroke="#333333" stroke-width="0.7" stroke-miterlimit="10" stroke-linecap="round" stroke-linejoin="round"/>
<path d="M191.489 46.637H203.189" stroke="#333333" stroke-width="0.7" stroke-miterlimit="10" stroke-linecap="round" stroke-linejoin="round"/>
<path d="M191.489 49.3787H203.189" stroke="#333333" stroke-width="0.7" stroke-miterlimit="10" stroke-linecap="round" stroke-linejoin="round"/>
<path d="M191.489 52.1202H203.189" stroke="#333333" stroke-width="0.7" stroke-miterlimit="10" stroke-linecap="round" stroke-linejoin="round"/>
<path d="M300.325 68.838L272.223 120.899" stroke="#333333" stroke-width="0.5" stroke-miterlimit="10" stroke-linecap="round" stroke-linejoin="round"/>
<path d="M293.181 113.449L275.409 115.117" stroke="#333333" stroke-width="0.5" stroke-miterlimit="10" stroke-linecap="round" stroke-linejoin="round"/>
<path d="M293.24 110.886L276.927 112.167" stroke="#333333" stroke-width="0.5" stroke-miterlimit="10" stroke-linecap="round" stroke-linejoin="round"/>
<path d="M278.594 86.2114L280.112 105.671" stroke="#333333" stroke-width="0.5" stroke-miterlimit="10" stroke-linecap="round" stroke-linejoin="round"/>
<path d="M286.363 95.0322L300.801 92.5886" stroke="#333333" stroke-width="0.5" stroke-miterlimit="10" stroke-linecap="round" stroke-linejoin="round"/>
<path d="M291.007 69.6724L291.662 84.8405" stroke="#333333" stroke-width="0.5" stroke-miterlimit="10" stroke-linecap="round" stroke-linejoin="round"/>
<path d="M293.3 68.4506L293.895 80.6686" stroke="#333333" stroke-width="0.5" stroke-miterlimit="10" stroke-linecap="round" stroke-linejoin="round"/>
<path d="M287.346 39.5148L272.223 81.0262" stroke="#333333" stroke-width="0.5" stroke-miterlimit="10" stroke-linecap="round" stroke-linejoin="round"/>
<path d="M225.426 98.1611C225.575 99.5915 220.336 101.171 214.025 101.171C207.713 101.171 202.712 101.111 202.593 98.5783C202.504 96.7307 207.713 95.9857 214.025 95.9857C220.336 95.9857 225.188 95.6579 225.426 98.1611Z" fill="#333333"/>
<path d="M225.248 98.2204C225.397 99.6508 220.127 100.813 213.816 100.813C207.505 100.813 202.504 100.753 202.385 98.2204C202.296 96.3728 207.505 95.6278 213.816 95.6278C220.127 95.6278 225.01 95.7172 225.248 98.2204Z" fill="#469F62"/>
<path d="M203.249 97.2373C204.053 97.0287 204.917 96.9393 205.75 96.8499C206.524 96.7903 207.298 96.7605 208.072 96.7307C209.233 96.7009 210.424 96.6413 211.585 96.5519C213.937 96.4029 216.318 96.1943 218.67 96.3433C219.712 96.4029 220.754 96.5221 221.796 96.6711C222.778 96.7903 223.76 96.9691 224.713 97.2075C224.743 97.2075 224.802 97.2373 224.832 97.2373C223.522 95.6579 219.176 95.5983 213.788 95.5983C208.548 95.5983 204.083 96.1049 202.743 97.3565C202.922 97.3267 203.101 97.2671 203.249 97.2373Z" fill="#398E51"/>
<path d="M225.188 98.4293C223.045 98.2505 220.901 98.1611 218.758 98.1313C217.686 98.1313 216.615 98.1313 215.543 98.1611C214.531 98.1909 213.519 98.2208 212.477 98.2506C210.72 98.2804 208.964 98.2207 207.208 98.2803C205.66 98.3399 204.082 98.4889 202.623 99.0253C202.951 99.5617 203.635 99.9492 204.588 100.188C205.719 100.158 206.85 100.128 207.981 99.9789C208.845 99.8597 209.708 99.7107 210.601 99.6213C211.494 99.5319 212.358 99.4426 213.251 99.383C215.067 99.2638 216.882 99.2637 218.698 99.3531C220.455 99.4127 222.211 99.5022 223.997 99.4128C224.712 99.1148 225.158 98.7869 225.277 98.4293C225.218 98.4293 225.188 98.4293 225.188 98.4293Z" fill="#398E51"/>
<path d="M228.641 100.307C228.79 101.737 223.551 103.317 217.24 103.317C210.929 103.317 205.928 103.257 205.809 100.724C205.719 98.8763 210.929 98.1313 217.24 98.1313C223.551 98.1313 228.374 97.8035 228.641 100.307Z" fill="#333333"/>
<path d="M228.671 100.247C228.82 101.677 223.551 102.839 217.24 102.839C210.929 102.839 205.928 102.78 205.809 100.247C205.719 98.3992 210.929 97.6542 217.24 97.6542C223.551 97.6542 228.433 97.7436 228.671 100.247Z" fill="#469F62"/>
<path d="M206.673 99.2637C207.477 99.0551 208.34 98.9657 209.174 98.8763C209.948 98.8167 210.722 98.7869 211.496 98.7571C212.657 98.7273 213.847 98.6677 215.008 98.5783C217.36 98.4293 219.742 98.2207 222.094 98.3697C223.135 98.4293 224.177 98.5485 225.219 98.6975C226.202 98.8167 227.184 98.9955 228.137 99.2339C228.166 99.2339 228.226 99.2637 228.256 99.2637C226.946 97.6843 222.6 97.6247 217.211 97.6247C211.972 97.6247 207.507 98.1313 206.167 99.3829C206.346 99.3531 206.494 99.2935 206.673 99.2637Z" fill="#398E51"/>
<path d="M228.582 100.456C226.439 100.277 224.295 100.188 222.152 100.158C221.08 100.158 220.009 100.158 218.937 100.188C217.925 100.217 216.913 100.247 215.871 100.277C214.114 100.307 212.358 100.247 210.602 100.307C209.054 100.366 207.476 100.515 206.017 101.052C206.345 101.588 207.029 101.976 207.982 102.214C209.113 102.184 210.244 102.154 211.376 102.005C212.239 101.886 213.102 101.737 213.995 101.648C214.888 101.558 215.752 101.469 216.645 101.409C218.461 101.29 220.276 101.29 222.092 101.38C223.849 101.439 225.605 101.529 227.391 101.439C228.106 101.141 228.552 100.813 228.671 100.456C228.612 100.456 228.612 100.456 228.582 100.456Z" fill="#398E51"/>
<path d="M228.671 100.247C228.671 100.247 229.088 98.1909 224.384 97.8631C219.681 97.5353 207.654 97.2373 205.927 99.5915C204.201 101.946 210.155 102.81 210.155 102.81" stroke="#333333" stroke-width="0.5" stroke-miterlimit="10" stroke-linecap="round" stroke-linejoin="round"/>
<path d="M245.937 80.5494C245.937 80.5494 248.438 83.8274 253.796 82.0394C259.869 80.013 259.125 65.1131 254.243 65.0535C249.39 65.0237 244.746 78.1058 245.937 80.5494Z" fill="#6AAF3F"/>
<path d="M254.243 65.0534C254.243 65.0534 252.04 64.0998 249.063 67.497C246.086 70.924 244.716 73.5762 244.329 76.5264C243.883 79.9534 248.021 83.7976 253.082 81.1752C258.142 78.5528 258.38 66.6328 254.243 65.0534Z" fill="#A8E580"/>
<path d="M250.76 76.3476C252.108 76.3476 253.201 75.2536 253.201 73.904C253.201 72.5544 252.108 71.4604 250.76 71.4604C249.412 71.4604 248.319 72.5544 248.319 73.904C248.319 75.2536 249.412 76.3476 250.76 76.3476Z" fill="#996A3C"/>
<path d="M252.069 71.8478C252.307 72.2352 252.456 72.6524 252.456 73.1292C252.456 74.4702 251.355 75.5728 250.015 75.5728C249.539 75.5728 249.092 75.4238 248.735 75.1854C249.152 75.8708 249.926 76.3178 250.789 76.3178C252.129 76.3178 253.23 75.2152 253.23 73.8742C253.201 73.0398 252.754 72.265 252.069 71.8478Z" fill="#87582E"/>
<path d="M214.352 79.566L215.066 83.0526L211.762 83.5294L212.417 80.311L214.352 79.566Z" fill="#6AAF3F"/>
<path d="M213.31 80.9368C217.963 80.9368 221.735 77.161 221.735 72.5034C221.735 67.8458 217.963 64.07 213.31 64.07C208.657 64.07 204.885 67.8458 204.885 72.5034C204.885 77.161 208.657 80.9368 213.31 80.9368Z" fill="#A8E580"/>
<path d="M221.735 72.5034C221.735 72.116 221.705 71.7584 221.646 71.371C221.318 71.3412 220.991 71.3114 220.663 71.3114C215.989 71.3114 212.239 75.096 212.239 79.7448C212.239 80.1322 212.268 80.4898 212.328 80.8772C212.655 80.907 212.983 80.9368 213.31 80.9368C217.984 80.9368 221.735 77.1522 221.735 72.5034Z" fill="#99D871"/>
<path d="M204.945 71.4008C204.885 71.7584 204.885 72.116 204.885 72.5034C204.885 76.7946 208.071 80.311 212.179 80.8772C212.238 80.5196 212.238 80.162 212.238 79.7746C212.238 75.4834 209.083 71.967 204.945 71.4008Z" fill="#99D871"/>
<path d="M214.798 73.6954C214.798 73.6954 214.024 67.4672 206.374 67.646" stroke="#6AAF3F" stroke-miterlimit="10" stroke-linecap="round" stroke-linejoin="round"/>
<path d="M215.185 64.2488C215.185 64.2488 213.578 65.0832 212.715 69.6426" stroke="#6AAF3F" stroke-miterlimit="10" stroke-linecap="round" stroke-linejoin="round"/>
<path d="M221.675 71.3709C221.675 71.3709 212.566 70.7749 212.625 80.6388" stroke="#6AAF3F" stroke-miterlimit="10" stroke-linecap="round" stroke-linejoin="round"/>
<path d="M204.945 71.4008C204.945 71.4008 212.655 71.818 212.655 81.0262" stroke="#6AAF3F" stroke-miterlimit="10" stroke-linecap="round" stroke-linejoin="round"/>
<path d="M256.178 118.962C254.898 118.366 253.35 118.336 252.308 119.707C251.266 118.306 249.837 118.366 248.557 118.962C246.8 119.766 246.116 122.538 246.979 125.16C247.872 127.753 249.867 128.259 251.742 128.408C252.189 128.438 256.476 128.915 257.726 125.16C258.619 122.538 257.934 119.796 256.178 118.962Z" fill="#99D871"/>
<path d="M252.278 118.336C252.278 118.336 254.451 118.932 255.493 116.339C255.523 116.339 252.605 115.654 252.278 118.336Z" fill="#6AAF3F"/>
<path d="M252.278 117.472L252.248 120.213" stroke="#333333" stroke-width="0.5" stroke-miterlimit="10" stroke-linecap="round" stroke-linejoin="round"/>
<path d="M217.864 127.037C218.95 127.037 219.829 126.157 219.829 125.071C219.829 123.984 218.95 123.104 217.864 123.104C216.779 123.104 215.9 123.984 215.9 125.071C215.9 126.157 216.779 127.037 217.864 127.037Z" fill="#469F62"/>
<path d="M217.21 123.938C219.215 123.938 220.841 122.31 220.841 120.303C220.841 118.295 219.215 116.667 217.21 116.667C215.204 116.667 213.578 118.295 213.578 120.303C213.578 122.31 215.204 123.938 217.21 123.938Z" fill="#6AAF3F"/>
<path d="M213.191 119.319C214.243 119.319 215.096 118.465 215.096 117.412C215.096 116.359 214.243 115.505 213.191 115.505C212.138 115.505 211.285 116.359 211.285 117.412C211.285 118.465 212.138 119.319 213.191 119.319Z" fill="#6AAF3F"/>
<path d="M209.827 121.852C211.356 121.852 212.595 120.611 212.595 119.081C212.595 117.55 211.356 116.309 209.827 116.309C208.298 116.309 207.058 117.55 207.058 119.081C207.058 120.611 208.298 121.852 209.827 121.852Z" fill="#6AAF3F"/>
<path d="M207.296 123.283C208.151 123.283 208.844 122.589 208.844 121.733C208.844 120.877 208.151 120.183 207.296 120.183C206.441 120.183 205.748 120.877 205.748 121.733C205.748 122.589 206.441 123.283 207.296 123.283Z" fill="#6AAF3F"/>
<path d="M214.649 127.455C215.883 127.455 216.882 126.454 216.882 125.22C216.882 123.985 215.883 122.985 214.649 122.985C213.416 122.985 212.417 123.985 212.417 125.22C212.417 126.454 213.416 127.455 214.649 127.455Z" fill="#469F62"/>
<path d="M212.804 124.802C214.645 124.802 216.138 123.308 216.138 121.465C216.138 119.622 214.645 118.127 212.804 118.127C210.962 118.127 209.469 119.622 209.469 121.465C209.469 123.308 210.962 124.802 212.804 124.802Z" fill="#6AAF3F"/>
<path d="M211.94 127.037C212.845 127.037 213.578 126.304 213.578 125.398C213.578 124.493 212.845 123.759 211.94 123.759C211.036 123.759 210.303 124.493 210.303 125.398C210.303 126.304 211.036 127.037 211.94 127.037Z" fill="#469F62"/>
<path d="M208.577 127.455C209.826 127.455 210.839 126.441 210.839 125.19C210.839 123.939 209.826 122.925 208.577 122.925C207.327 122.925 206.314 123.939 206.314 125.19C206.314 126.441 207.327 127.455 208.577 127.455Z" fill="#6AAF3F"/>
<path d="M209.797 125.547C211.162 125.547 212.268 124.44 212.268 123.074C212.268 121.708 211.162 120.601 209.797 120.601C208.432 120.601 207.326 121.708 207.326 123.074C207.326 124.44 208.432 125.547 209.797 125.547Z" fill="#6AAF3F"/>
<path d="M206.523 125.994C207.476 125.994 208.249 125.221 208.249 124.266C208.249 123.311 207.476 122.538 206.523 122.538C205.569 122.538 204.796 123.311 204.796 124.266C204.796 125.221 205.569 125.994 206.523 125.994Z" fill="#6AAF3F"/>
<path d="M216.971 123.551C216.971 123.551 215.036 125.726 214.768 127.544C214.5 129.362 214.5 129.719 214.5 129.719L212.506 129.451L212.327 127.961C212.327 127.961 211.821 126.322 210.243 125.875L210.303 125.13C210.303 125.13 211.881 125.577 212.327 126.233L212.089 123.074C212.089 123.074 212.833 123.312 213.131 123.342C213.429 123.372 213.429 125.994 213.429 125.994L216.376 122.836L216.971 123.551Z" fill="#99D871"/>
<path d="M194.466 77.3609C196.439 77.3609 198.038 75.7598 198.038 73.7849C198.038 71.8099 196.439 70.2089 194.466 70.2089C192.493 70.2089 190.894 71.8099 190.894 73.7849C190.894 75.7598 192.493 77.3609 194.466 77.3609Z" fill="#BCBCBC"/>
<path d="M194.466 75.245C195.271 75.245 195.924 74.5913 195.924 73.7848C195.924 72.9784 195.271 72.3246 194.466 72.3246C193.66 72.3246 193.007 72.9784 193.007 73.7848C193.007 74.5913 193.66 75.245 194.466 75.245Z" fill="white"/>
<path d="M236.649 77.3609C238.622 77.3609 240.221 75.7598 240.221 73.7849C240.221 71.8099 238.622 70.2089 236.649 70.2089C234.676 70.2089 233.077 71.8099 233.077 73.7849C233.077 75.7598 234.676 77.3609 236.649 77.3609Z" fill="#BCBCBC"/>
<path d="M236.649 75.245C237.454 75.245 238.108 74.5913 238.108 73.7848C238.108 72.9784 237.454 72.3246 236.649 72.3246C235.843 72.3246 235.19 72.9784 235.19 73.7848C235.19 74.5913 235.843 75.245 236.649 75.245Z" fill="white"/>
<path d="M237.244 104.002C239.217 104.002 240.817 102.401 240.817 100.426C240.817 98.451 239.217 96.85 237.244 96.85C235.271 96.85 233.672 98.451 233.672 100.426C233.672 102.401 235.271 104.002 237.244 104.002Z" fill="#BCBCBC"/>
<path d="M237.244 101.886C238.05 101.886 238.703 101.232 238.703 100.426C238.703 99.6196 238.05 98.9658 237.244 98.9658C236.438 98.9658 235.785 99.6196 235.785 100.426C235.785 101.232 236.438 101.886 237.244 101.886Z" fill="white"/>
<path d="M195.895 104.002C197.868 104.002 199.467 102.401 199.467 100.426C199.467 98.451 197.868 96.85 195.895 96.85C193.922 96.85 192.323 98.451 192.323 100.426C192.323 102.401 193.922 104.002 195.895 104.002Z" fill="#BCBCBC"/>
<path d="M195.895 101.886C196.701 101.886 197.354 101.232 197.354 100.426C197.354 99.6196 196.701 98.9658 195.895 98.9658C195.089 98.9658 194.436 99.6196 194.436 100.426C194.436 101.232 195.089 101.886 195.895 101.886Z" fill="white"/>
<path d="M236.649 127.663C238.622 127.663 240.221 126.062 240.221 124.087C240.221 122.112 238.622 120.511 236.649 120.511C234.676 120.511 233.077 122.112 233.077 124.087C233.077 126.062 234.676 127.663 236.649 127.663Z" fill="#BCBCBC"/>
<path d="M236.649 125.547C237.454 125.547 238.108 124.894 238.108 124.087C238.108 123.281 237.454 122.627 236.649 122.627C235.843 122.627 235.19 123.281 235.19 124.087C235.19 124.894 235.843 125.547 236.649 125.547Z" fill="white"/>
<path d="M195.299 127.663C197.272 127.663 198.872 126.062 198.872 124.087C198.872 122.112 197.272 120.511 195.299 120.511C193.326 120.511 191.727 122.112 191.727 124.087C191.727 126.062 193.326 127.663 195.299 127.663Z" fill="#BCBCBC"/>
<path d="M195.299 125.547C196.105 125.547 196.758 124.894 196.758 124.087C196.758 123.281 196.105 122.627 195.299 122.627C194.494 122.627 193.841 123.281 193.841 124.087C193.841 124.894 194.494 125.547 195.299 125.547Z" fill="white"/>
<path d="M261 96.0156C261 96.0156 256.475 102.87 246.89 103.525C245.967 103.585 245.193 102.75 245.342 101.827C245.788 99.0254 248.229 93.8402 259.899 94.0488C259.899 94.0488 260.435 89.7278 261.953 88.8338C263.471 87.9398 262.131 93.9594 262.131 93.9594C262.131 93.9594 267.341 94.764 265.823 95.4792C264.334 96.1944 261 96.0156 261 96.0156Z" fill="#8E8E8E"/>
<path d="M249.301 101.111C249.122 100.635 248.854 100.158 248.556 99.7405C248.259 99.2935 247.901 98.8465 247.455 98.5187C247.306 98.3995 247.127 98.3101 246.949 98.2207C245.937 99.4723 245.52 100.784 245.341 101.797C245.192 102.721 245.937 103.555 246.889 103.495C247.901 103.436 248.824 103.287 249.717 103.108C249.688 102.423 249.569 101.767 249.301 101.111Z" fill="#BCBCBC"/>
<path d="M247.366 101.111C247.563 101.111 247.723 100.951 247.723 100.754C247.723 100.556 247.563 100.396 247.366 100.396C247.168 100.396 247.008 100.556 247.008 100.754C247.008 100.951 247.168 101.111 247.366 101.111Z" fill="#333333"/>
<path d="M246.949 98.2207C246.949 98.2207 249.539 98.5485 249.747 103.108" stroke="#333333" stroke-width="0.5" stroke-miterlimit="10" stroke-linecap="round" stroke-linejoin="round"/>
<path d="M260.047 41.869L257.517 49.4978C257.219 50.3024 256.564 50.809 255.85 50.809H247.247C246.711 50.809 246.205 50.4216 245.967 49.8256L244.359 45.5642C244.121 44.9384 244.508 44.2232 245.074 44.2232H258.291" stroke="#333333" stroke-width="0.5" stroke-miterlimit="10" stroke-linecap="round" stroke-linejoin="round"/>
<path d="M246.384 44.3126V50.3918" stroke="#333333" stroke-width="0.5" stroke-miterlimit="10" stroke-linecap="round" stroke-linejoin="round"/>
<path d="M249.688 44.3126V50.7792" stroke="#333333" stroke-width="0.5" stroke-miterlimit="10" stroke-linecap="round" stroke-linejoin="round"/>
<path d="M253.141 44.3126V50.7792" stroke="#333333" stroke-width="0.5" stroke-miterlimit="10" stroke-linecap="round" stroke-linejoin="round"/>
<path d="M256.833 44.3126V50.3918" stroke="#333333" stroke-width="0.5" stroke-miterlimit="10" stroke-linecap="round" stroke-linejoin="round"/>
<path d="M248.408 54.2658C248.917 54.2658 249.331 53.8522 249.331 53.342C249.331 52.8318 248.917 52.4182 248.408 52.4182C247.898 52.4182 247.485 52.8318 247.485 53.342C247.485 53.8522 247.898 54.2658 248.408 54.2658Z" fill="#333333"/>
<path d="M248.408 54.8617C249.246 54.8617 249.926 54.1813 249.926 53.3419C249.926 52.5026 249.246 51.8221 248.408 51.8221C247.569 51.8221 246.89 52.5026 246.89 53.3419C246.89 54.1813 247.569 54.8617 248.408 54.8617Z" stroke="#333333" stroke-width="0.5" stroke-miterlimit="10"/>
<path d="M254.213 54.2658C254.723 54.2658 255.136 53.8522 255.136 53.342C255.136 52.8318 254.723 52.4182 254.213 52.4182C253.703 52.4182 253.29 52.8318 253.29 53.342C253.29 53.8522 253.703 54.2658 254.213 54.2658Z" fill="#333333"/>
<path d="M254.213 54.8617C255.052 54.8617 255.731 54.1813 255.731 53.3419C255.731 52.5026 255.052 51.8221 254.213 51.8221C253.375 51.8221 252.695 52.5026 252.695 53.3419C252.695 54.1813 253.375 54.8617 254.213 54.8617Z" stroke="#333333" stroke-width="0.5" stroke-miterlimit="10"/>
<path d="M244.835 46.1304H258.738" stroke="#333333" stroke-width="0.5" stroke-miterlimit="10" stroke-linecap="round" stroke-linejoin="round"/>
<path d="M245.64 48.8124L257.756 48.8422" stroke="#333333" stroke-width="0.5" stroke-miterlimit="10" stroke-linecap="round" stroke-linejoin="round"/>
<path d="M178.867 159.251H281.035" stroke="#C19B65" stroke-miterlimit="10" stroke-linecap="round" stroke-linejoin="round"/>
<path d="M300.177 251.75H167.644" stroke="#C19B65" stroke-miterlimit="10" stroke-linecap="round" stroke-linejoin="round"/>
<path d="M70.1797 224.364H140.882" stroke="#333333" stroke-miterlimit="10" stroke-linecap="round" stroke-linejoin="round"/>
<path d="M102.866 188.604L87.0586 258.157" stroke="#333333" stroke-miterlimit="10" stroke-linecap="round" stroke-linejoin="round"/>
<path d="M151.509 263.79L131.146 188.753" stroke="#333333" stroke-miterlimit="10" stroke-linecap="round" stroke-linejoin="round"/>
<path d="M123.853 188.723L79.765 188.455L63.0347 120.273H93.4588" stroke="#333333" stroke-miterlimit="10" stroke-linecap="round" stroke-linejoin="round"/>
<path d="M152.908 102.005C153.057 99.2937 153.593 96.6415 154.962 94.2277C156.302 91.8139 158.237 89.8769 159.993 87.7909C161.75 85.6751 163.179 83.2315 163.804 80.5197C164.429 77.8973 164.28 75.1557 163.953 72.5035C163.655 70.2983 163.298 68.1527 163.417 65.9177C163.506 64.0105 163.923 61.9543 165.203 60.4643C166.632 58.7955 169.043 58.2293 171.187 58.5869C172.645 58.8551 174.015 59.5107 175.235 60.3153C175.652 60.5835 176.069 60.8815 176.456 61.2093C174.848 59.1233 173.032 57.4843 170.413 56.6797C162.226 54.1765 159.16 63.6827 160.976 71.5797C162.792 79.5065 158.237 87.4035 153.98 93.8105C151.479 97.5653 151.479 103.644 153.355 109.187C152.908 106.803 152.76 104.389 152.908 102.005Z" fill="#98DF25"/>
<path d="M151.42 228.536C151.42 228.536 159.19 240.963 159.219 242.036C159.428 248.115 157.195 250.469 157.701 252.585C158.207 254.701 163.983 265.667 164.697 266.889C165.411 268.111 180.921 269.422 178.897 267.604C176.873 265.786 173.628 262.419 173.628 262.419C173.628 262.419 172.318 236.97 168.448 225.377C164.578 213.815 152.521 225.377 151.42 228.536Z" fill="#FCC8B8"/>
<path d="M106.915 219.239C106.915 219.239 95.7512 239.95 95.1261 240.814C94.5009 241.678 88.6066 242.006 87.2074 243.704C85.8083 245.403 86.2846 263.402 87.4456 265.697C88.0707 266.948 100.455 268.2 100.663 265.458C100.872 262.717 94.7391 259.29 94.7391 259.29C94.7391 259.29 112.809 240.963 119.715 230.92C126.622 220.878 110.1 218.225 106.915 219.239Z" fill="#FCC8B8"/>
<path d="M131.743 66.901C131.743 66.901 124.777 56.1432 115.28 57.067C104.236 58.1398 103.402 81.0262 88.994 89.4596C74.6154 97.893 77.6519 124.266 93.5486 124.951C109.445 125.667 126.086 128.617 132.457 114.611C138.828 100.605 120.817 90.1748 125.58 76.0496C125.58 76.0496 131.951 70.9538 131.743 66.901Z" fill="#333333"/>
<path d="M126.295 137.318C126.295 137.318 128.498 144.47 135.196 145.007C138.53 145.275 156.391 132.223 158.833 128.2C161.274 124.177 167.763 112.942 168.299 112.197C168.835 111.452 167.466 111.422 166.245 112.197C166.245 112.197 167.346 111.601 166.9 110.886C166.483 110.141 165.382 110.886 165.382 110.886C165.382 110.886 165.888 110.022 164.757 110.26C163.447 110.498 161.006 112.406 161.006 112.406C161.006 112.406 150.199 120.66 149.128 122.15C148.026 123.64 148.532 126.263 148.532 126.263L134.243 129.69C134.243 129.69 132.784 114.849 131.504 108.263C130.194 101.618 123.794 126.769 126.295 137.318Z" fill="#EFB5A8"/>
<path d="M120.728 234.407C120.728 234.407 129.301 222.785 131.981 218.911C134.481 215.275 141.388 204.339 141.388 204.339C141.388 204.339 145.258 223.053 150.289 232.649L169.043 225.377C169.043 225.377 162.375 184.492 155.528 176.505C148.681 168.519 130.224 155.288 130.224 155.288L126.801 132.014L98.5199 136.365C98.5199 136.365 86.7313 156.837 85.6001 166.433C85.4214 168.042 85.5405 169.681 85.868 171.35C87.7732 180.916 96.2574 187.8 105.992 188.008L123.615 188.425C123.615 188.425 116.768 191.852 109.028 211.252L101.497 225.795L120.728 234.407Z" fill="#AAC7FF"/>
<path d="M123.615 188.366C123.615 188.366 116.768 191.793 109.028 211.193L101.497 225.735L104.176 226.927C109.892 213.07 116.917 200.047 126.83 188.723C127.724 187.71 129.926 184.76 129.926 184.76C129.926 184.76 109.296 181.75 106.528 180.797C102.479 179.366 98.6092 176.952 96.6444 172.989C95.5727 170.843 95.2155 168.489 95.2453 166.135C95.2453 163.244 95.6918 160.354 96.3765 157.553C97.091 154.602 98.1329 151.742 99.3534 149C99.9488 147.629 100.604 146.288 101.318 144.977C101.675 144.292 102.062 143.606 102.479 142.951C102.717 142.593 103.194 142.593 103.61 142.504C108.493 141.282 113.375 140.149 118.138 138.481C121.234 137.378 124.389 136.037 127.128 134.16L126.801 132.014L98.5199 136.365C98.5199 136.365 86.7313 156.837 85.6001 166.433C85.4214 168.042 85.5405 169.681 85.868 171.35C87.7732 180.916 96.2574 187.8 105.992 188.008L123.615 188.366Z" fill="#92BCFF"/>
<path d="M131.444 66.5732C131.444 66.5732 132.665 67.348 132.367 70.5366C132.07 73.7252 131.296 77.9866 131.296 77.9866C131.296 77.9866 132.218 83.4698 131.593 83.6188C130.998 83.7678 129.777 83.6188 129.777 83.6188C129.777 83.6188 129.182 86.5094 127.813 87.1054C126.443 87.7014 122.752 86.6882 122.752 86.6882L121.442 91.188C121.442 91.188 130.402 101.082 130.551 105.492C130.7 109.902 108.671 115.088 108.671 115.088L106.23 126.054L126.294 123.61C126.294 123.61 129.033 120.481 132.457 119.111C135.88 117.74 142.191 114.551 142.935 114.551C143.709 114.551 143.769 116.22 141.715 117.442C139.661 118.664 136.773 120.481 136.773 120.481C136.773 120.481 139.274 120.571 139.125 123.283C139.125 123.283 140.732 123.968 139.899 126.412C139.899 126.412 141.03 128.021 139.363 130.077C137.696 132.133 134.511 132.133 134.511 131.597C134.511 131.06 134.957 130.524 134.957 130.524C134.957 130.524 111.559 142.623 93.1016 140.835C89.3805 140.477 86.731 136.991 87.3562 133.266C89.053 122.716 92.7444 101.797 95.8106 96.4924C99.9783 89.3404 108.343 88.2676 108.343 88.2676L113.583 80.3408C113.583 80.3408 110.785 77.7482 112.987 75.9304C114.774 74.4404 116.798 75.0066 117.483 76.6158C117.483 76.6158 117.721 72.5928 119.239 71.52C120.757 70.4472 127.158 70.9836 129.42 69.9108C131.683 68.9274 131.444 66.5732 131.444 66.5732Z" fill="#FCC8B8"/>
<path d="M104.444 89.3702C104.444 89.3702 110.04 91.6946 111.38 100.277C112.184 105.462 110.695 111.959 108.641 115.088L106.23 126.054L126.294 123.61L129.956 120.273C129.956 120.273 134.511 113.27 130.373 104.449L115.161 102.125C115.161 102.125 114.655 89.9364 108.373 88.3272C108.373 88.3272 107.808 88.2974 106.706 88.5358C105.456 88.804 104.444 89.3702 104.444 89.3702Z" fill="#F94848"/>
<path d="M113.017 117.382C112.481 120.094 111.737 122.776 111.112 125.458L113.761 125.13C114.208 123.253 114.655 121.375 115.071 119.468C115.518 117.263 115.905 115.058 115.994 112.823C116.143 109.306 116.113 105.76 116.083 102.244L115.101 102.095C115.101 102.095 114.684 91.7244 109.683 88.8636C111.172 89.996 112.273 91.6052 112.987 93.3336C114.029 95.8666 114.446 98.6678 114.565 101.38C114.714 104.181 114.535 107.012 114.208 109.813C113.97 112.376 113.523 114.879 113.017 117.382Z" fill="#FF0000"/>
<path d="M118.643 122.746C119.507 119.021 120.37 115.237 120.817 111.452C121.174 108.681 121.293 105.85 121.085 103.048L118.643 102.661C118.673 103.734 118.703 104.777 118.703 105.85C118.733 107.876 118.733 109.932 118.584 111.959C118.524 112.972 118.405 113.955 118.286 114.968C118.197 115.952 118.108 116.935 118.018 117.919C117.929 118.872 117.84 119.826 117.631 120.779C117.453 121.733 117.185 122.627 116.917 123.551C116.798 123.968 116.679 124.385 116.56 124.802L118.167 124.594C118.376 123.998 118.495 123.372 118.643 122.746Z" fill="#FF0000"/>
<path d="M124.389 114.343C124.836 110.767 124.628 107.161 124.598 103.585L123.228 103.376C123.228 103.495 123.228 103.644 123.258 103.764C123.288 104.27 123.318 104.777 123.318 105.283C123.318 105.79 123.318 106.326 123.288 106.833C123.258 108.859 123.199 110.916 122.931 112.912C122.693 114.79 122.306 116.637 121.859 118.485C121.353 120.481 120.757 122.448 120.162 124.385L122.246 124.147C122.871 120.839 123.973 117.68 124.389 114.343Z" fill="#FF0000"/>
<path d="M127.634 121.495C128.081 119.707 128.497 117.889 128.706 116.071C128.944 114.223 129.033 112.376 129.063 110.498C129.093 109.694 129.093 108.919 128.944 108.114C128.825 107.369 128.646 106.624 128.497 105.879C128.378 105.313 128.259 104.747 128.17 104.151L127.158 104.002C127.217 104.926 127.247 105.85 127.247 106.773C127.277 110.29 126.92 113.776 126.443 117.263C126.146 119.438 125.788 121.614 125.401 123.759L126.294 123.64L127.366 122.657C127.426 122.269 127.545 121.882 127.634 121.495Z" fill="#FF0000"/>
<path d="M106.23 126.054L108.999 125.726C109.058 125.339 109.147 124.951 109.207 124.564C109.386 123.7 109.594 122.865 109.743 121.971C109.921 121.018 110.04 120.064 110.16 119.14C110.398 117.263 110.576 115.356 110.993 113.508C111.38 111.81 111.916 110.141 112.303 108.442C112.511 107.578 112.66 106.684 112.72 105.82C112.779 104.926 112.749 104.002 112.69 103.108C112.571 101.29 112.333 99.4724 111.856 97.7142C111.41 96.1348 110.785 94.5554 109.981 93.125C109.296 91.9032 108.373 90.5622 107.004 90.0556C106.409 89.847 105.813 89.698 105.248 89.4596C105.099 89.4 104.95 89.3404 104.831 89.251L104.474 89.3702C104.474 89.3702 110.04 91.7244 111.38 100.307C112.184 105.492 110.695 111.988 108.641 115.117L106.23 126.054Z" fill="#FF0000"/>
<path d="M126.409 73.9396C128.073 73.477 129.328 72.7677 129.214 72.3554C129.1 71.9432 127.658 71.9839 125.995 72.4466C124.332 72.9092 123.076 73.6184 123.191 74.0307C123.305 74.443 124.746 74.4022 126.409 73.9396Z" fill="#333333"/>
<path d="M126.83 77.6588C127.143 77.6588 127.396 77.4053 127.396 77.0926C127.396 76.7799 127.143 76.5264 126.83 76.5264C126.518 76.5264 126.265 76.7799 126.265 77.0926C126.265 77.4053 126.518 77.6588 126.83 77.6588Z" fill="#333333"/>
<path d="M129.718 71.818C129.718 71.818 129.599 72.6524 129.569 72.9206" stroke="#333333" stroke-width="0.5" stroke-miterlimit="10" stroke-linecap="round" stroke-linejoin="round"/>
<path d="M126.026 82.993C126.026 82.993 126.116 84.4532 127.515 84.9002" stroke="#333333" stroke-width="0.5" stroke-miterlimit="10" stroke-linecap="round" stroke-linejoin="round"/>
<path d="M114.387 77.0629C114.387 77.0629 115.726 75.9602 116.739 77.2119" stroke="#333333" stroke-width="0.5" stroke-miterlimit="10" stroke-linecap="round" stroke-linejoin="round"/>
<path d="M119.448 84.7214C119.448 84.7214 120.192 85.6452 122.752 86.6882L122.246 88.6252L119.448 84.7214Z" fill="#333333"/>
<path d="M146.687 123.461V123.67C146.687 124.147 147.014 124.534 147.461 124.653L152.7 125.786C153.176 125.905 153.682 125.786 154.04 125.458L165.709 115.445C165.977 115.207 166.126 114.849 166.126 114.492V114.045C166.126 113.955 166.037 113.896 165.947 113.925L146.925 123.074C146.776 123.163 146.687 123.312 146.687 123.461Z" fill="#252525"/>
<path d="M152.313 124.981L147.55 124.087C146.836 123.968 146.597 123.074 147.133 122.597L158.654 112.614C159.13 112.197 159.785 112.018 160.41 112.137L165.293 113.031C166.007 113.151 166.245 114.045 165.709 114.521L154.278 124.415C153.742 124.922 153.028 125.13 152.313 124.981Z" fill="white" stroke="#1F1F1F" stroke-width="0.5" stroke-miterlimit="10"/>
<path d="M150.348 119.766C150.675 119.915 151.062 119.975 151.42 119.915C152.67 119.736 155.409 119.021 156.153 117.442C156.748 116.19 150.199 116.339 149.038 117.71C148.324 118.574 148.026 121.703 148.026 121.703L150.348 119.766Z" fill="#EFB5A8"/>
<path d="M131.921 74.1722L131.385 77.8972C131.385 77.8972 131.831 83.3804 131.623 83.589C131.415 83.7976 129.807 83.589 129.807 83.589" stroke="#333333" stroke-width="0.5" stroke-miterlimit="10" stroke-linecap="round" stroke-linejoin="round"/>
<path d="M148.085 186.429L143.62 213.01L141.417 204.368C141.417 204.368 146.537 195.25 148.085 186.429Z" fill="#92BCFF"/>
<path d="M100.455 128.051L106.23 126.054" stroke="#333333" stroke-width="0.5" stroke-miterlimit="10" stroke-linecap="round" stroke-linejoin="round"/>
<path d="M117.781 155.437C117.781 155.437 144.394 174.062 147.639 183.061C151.986 195.011 120.52 234.586 120.52 234.586" stroke="#333333" stroke-width="0.5" stroke-miterlimit="10" stroke-linecap="round" stroke-linejoin="round"/>
<path d="M59.8496 263.939L79.7652 188.455" stroke="#333333" stroke-miterlimit="10" stroke-linecap="round" stroke-linejoin="round"/>
<path d="M121.948 152.934C121.948 152.934 123.466 145.335 123.853 137.497" stroke="#333333" stroke-width="0.5" stroke-miterlimit="10" stroke-linecap="round" stroke-linejoin="round"/>
<path d="M102.122 148.881C102.122 148.881 111.469 149.954 112.987 139.077" stroke="#333333" stroke-width="0.5" stroke-miterlimit="10" stroke-linecap="round" stroke-linejoin="round"/>
<path d="M107.332 144.321C107.726 144.321 108.046 144.001 108.046 143.606C108.046 143.211 107.726 142.891 107.332 142.891C106.937 142.891 106.617 143.211 106.617 143.606C106.617 144.001 106.937 144.321 107.332 144.321Z" fill="#333333"/>
<path d="M85.8379 170.486C85.8379 170.486 89.4995 169.89 91.1666 166.135C92.8337 162.41 94.5007 156.539 94.5007 156.539L88.8744 155.854" stroke="#333333" stroke-width="0.5" stroke-miterlimit="10" stroke-linecap="round" stroke-linejoin="round"/>
<path d="M154.962 92.2906L176.366 110.022" stroke="#333333" stroke-width="0.5" stroke-miterlimit="10" stroke-linecap="round" stroke-linejoin="round"/>
<path d="M161.035 62.878L168.388 70.5366" stroke="#333333" stroke-width="0.5" stroke-miterlimit="10" stroke-linecap="round" stroke-linejoin="round"/>
<path d="M130.343 104.449L114.893 100.515L115.131 102.125L130.343 104.449Z" fill="#333333"/>
<path d="M117.959 233.304L102.152 227.821L103.075 226.391L117.959 233.304Z" fill="#333333"/>
<path d="M168.418 225.616L154.248 233.096L153.236 231.457L168.418 225.616Z" fill="#333333"/>
<path d="M151.301 128.915C151.301 128.915 150.08 126.084 151.717 125.16" stroke="#333333" stroke-width="0.5" stroke-miterlimit="10" stroke-linecap="round" stroke-linejoin="round"/>
<path d="M165.114 112.853C165.114 112.853 167.317 111.035 168.269 111.661" stroke="#333333" stroke-width="0.5" stroke-miterlimit="10" stroke-linecap="round" stroke-linejoin="round"/>
<path d="M162.881 112.644C163.208 112.346 163.536 112.078 163.863 111.81C164.429 111.363 165.084 110.767 165.798 110.558C166.126 110.469 166.602 110.439 166.87 110.707C167.078 110.916 167.108 111.392 166.989 111.631" stroke="#333333" stroke-width="0.5" stroke-miterlimit="10" stroke-linecap="round" stroke-linejoin="round"/>
<path d="M137.875 128.885C137.875 128.885 132.546 132.312 126.771 134.219" stroke="#333333" stroke-width="0.5" stroke-miterlimit="10" stroke-linecap="round" stroke-linejoin="round"/>
<path d="M179.343 268.796C179.343 268.796 166.572 269.243 164.905 268.498C163.238 267.753 156.54 254.343 157.165 252.674C157.76 251.005 158.981 246.893 158.981 246.893C158.981 246.893 162.791 249.784 163.387 256.012C163.536 257.502 163.893 258.843 164.369 260.005C165.947 263.819 169.906 266.144 173.955 265.399C174.788 265.25 175.414 264.982 175.533 264.564C175.979 263.015 181.933 268.796 179.343 268.796Z" fill="#333333"/>
<path d="M92.2384 241.708C92.2384 241.708 88.428 242.155 87.2074 243.675C85.9869 245.194 85.5403 265.727 87.2074 266.352C88.8745 266.948 101.348 268.17 101.497 266.948C101.645 265.727 98.4602 261.912 97.2396 261.018C97.2396 261.018 96.5847 262.478 94.4413 262.985C92.8933 263.343 91.3751 262.24 91.2263 260.661L90.6011 254.075C90.4225 252.078 90.6309 250.052 91.2858 248.145C91.7621 246.714 92.2384 244.598 92.2384 241.708Z" fill="#333333"/>
<path d="M110.249 229.847C110.249 229.847 110.368 229.609 110.636 229.222" stroke="#5097FF" stroke-linecap="round" stroke-linejoin="round"/>
<path d="M111.38 227.94C116.024 220.103 133.439 190.601 134.421 186.25C135.552 181.214 100.901 178.174 99.9781 167.774C98.9957 156.718 102.568 145.96 103.997 142.206" stroke="#5097FF" stroke-linecap="round" stroke-linejoin="round" stroke-dasharray="4.96 4.96"/>
<path d="M104.265 141.52C104.443 141.073 104.533 140.835 104.533 140.835" stroke="#5097FF" stroke-linecap="round" stroke-linejoin="round"/>
<path d="M158.951 228.924L147.58 190.422" stroke="#5097FF" stroke-miterlimit="10" stroke-linecap="round" stroke-linejoin="round" stroke-dasharray="5 5"/>
<path d="M227.182 38.1142C228.383 38.1142 229.355 37.1402 229.355 35.9388C229.355 34.7373 228.383 33.7634 227.182 33.7634C225.982 33.7634 225.009 34.7373 225.009 35.9388C225.009 37.1402 225.982 38.1142 227.182 38.1142Z" fill="#333333"/>
<path d="M142.662 115.625C143.045 115.341 143.237 114.95 143.09 114.751C142.943 114.553 142.514 114.622 142.13 114.906C141.747 115.19 141.555 115.581 141.702 115.78C141.849 115.978 142.278 115.909 142.662 115.625Z" fill="#FFEBE6"/>
<path d="M154.903 117.978C155.527 117.978 156.034 117.711 156.034 117.382C156.034 117.053 155.527 116.786 154.903 116.786C154.278 116.786 153.771 117.053 153.771 117.382C153.771 117.711 154.278 117.978 154.903 117.978Z" fill="#FFEBE6"/>
<path d="M204.826 143.606L224.057 142.086L222.955 143.517L204.409 143.725" fill="#333333"/>
<path d="M223.372 136.722C223.372 136.722 220.037 135.411 218.906 135.501C217.775 135.59 222.568 136.931 223.372 136.722Z" fill="#DDA14A"/>
<path d="M221.348 138.242C221.348 138.242 218.014 136.931 216.882 137.02C215.751 137.11 220.544 138.451 221.348 138.242Z" fill="#DDA14A"/>
<path d="M219.621 139.851C219.621 139.851 216.287 138.54 215.156 138.63C214.054 138.749 218.817 140.06 219.621 139.851Z" fill="#DDA14A"/>
<path d="M252.248 101.38C252.576 100.992 252.635 100.396 252.338 99.979C252.129 99.681 251.802 99.4724 251.504 99.2936C251.534 99.3532 251.564 99.4426 251.594 99.5022C251.683 99.085 251.742 98.6678 251.474 98.2804C251.207 97.8632 250.73 97.744 250.284 97.9228C250.373 98.0122 250.462 98.1016 250.552 98.191C250.939 97.5056 250.462 96.701 249.688 96.6712C249.45 96.6712 249.45 97.0288 249.688 97.0288C250.165 97.0586 250.462 97.5652 250.224 97.9824C250.135 98.1612 250.313 98.3102 250.492 98.2506C250.82 98.1016 251.117 98.3102 251.266 98.6082C251.385 98.8764 251.326 99.1446 251.266 99.4128C251.236 99.5022 251.266 99.5916 251.355 99.6214C251.564 99.7406 251.772 99.8896 251.951 100.039C252.248 100.307 252.308 100.784 252.01 101.111C251.832 101.29 252.1 101.558 252.248 101.38Z" fill="#333333"/>
<path d="M256.327 99.5321C256.654 99.1447 256.714 98.5487 256.416 98.1315C256.208 97.8335 255.88 97.6249 255.582 97.4461C255.612 97.5057 255.642 97.5951 255.672 97.6547C255.761 97.2375 255.821 96.8203 255.553 96.4329C255.285 96.0157 254.808 95.8965 254.362 96.0753C254.451 96.1647 254.541 96.2541 254.63 96.3435C255.017 95.6581 254.54 94.8535 253.767 94.8237C253.528 94.8237 253.528 95.1813 253.767 95.1813C254.243 95.2111 254.541 95.7177 254.302 96.1349C254.213 96.3137 254.392 96.4627 254.57 96.4031C254.898 96.2541 255.195 96.4627 255.344 96.7607C255.463 97.0289 255.404 97.2971 255.344 97.5653C255.315 97.6547 255.344 97.7441 255.434 97.7739C255.642 97.8931 255.85 98.0421 256.029 98.1911C256.327 98.4593 256.386 98.9361 256.089 99.2639C255.91 99.4427 256.178 99.7109 256.327 99.5321Z" fill="#333333"/>
<path d="M254.421 100.515C254.749 100.128 254.808 99.532 254.511 99.1148C254.302 98.8168 253.975 98.6082 253.677 98.4294C253.707 98.489 253.737 98.5784 253.766 98.638C253.856 98.2208 253.915 97.8036 253.647 97.4162C253.379 96.999 252.903 96.8798 252.457 97.0586C252.546 97.148 252.635 97.2374 252.725 97.3268C253.112 96.6414 252.635 95.8368 251.861 95.807C251.623 95.807 251.623 96.1646 251.861 96.1646C252.338 96.1944 252.635 96.701 252.397 97.1182C252.308 97.297 252.486 97.446 252.665 97.3864C252.992 97.2374 253.29 97.446 253.439 97.744C253.558 98.0122 253.499 98.2804 253.439 98.5486C253.409 98.638 253.439 98.7274 253.528 98.7572C253.737 98.8764 253.945 99.0254 254.124 99.1744C254.421 99.4426 254.481 99.9194 254.183 100.247C254.005 100.456 254.273 100.724 254.421 100.515Z" fill="#333333"/>
<path d="M115.935 83.291C116.938 83.291 117.751 82.4771 117.751 81.4731C117.751 80.4692 116.938 79.6553 115.935 79.6553C114.932 79.6553 114.119 80.4692 114.119 81.4731C114.119 82.4771 114.932 83.291 115.935 83.291Z" fill="#333333"/>
<path d="M115.786 83.1419C116.707 83.1419 117.453 82.3948 117.453 81.4731C117.453 80.5515 116.707 79.8043 115.786 79.8043C114.866 79.8043 114.119 80.5515 114.119 81.4731C114.119 82.3948 114.866 83.1419 115.786 83.1419Z" fill="#5097FF"/>
<path d="M115.786 82.1587C116.164 82.1587 116.471 81.8518 116.471 81.4732C116.471 81.0947 116.164 80.7878 115.786 80.7878C115.408 80.7878 115.102 81.0947 115.102 81.4732C115.102 81.8518 115.408 82.1587 115.786 82.1587Z" fill="white"/>
</svg>
