<svg width="375" height="298" viewBox="0 0 375 298" fill="none" xmlns="http://www.w3.org/2000/svg">
<path d="M279.172 260.333C279.172 260.333 279.053 231.576 252.082 228.059C252.082 228.089 247.497 259.26 279.172 260.333Z" fill="#6AAF3F"/>
<path d="M270.122 236.91C269.616 240.039 269.258 243.228 269.05 246.386C268.752 250.469 268.693 254.552 268.842 258.604C271.759 259.558 275.153 260.184 279.142 260.333C279.172 260.333 279.112 246.565 270.122 236.91Z" fill="#333333"/>
<path d="M45.1856 260.035C45.1856 260.035 45.0665 226.599 13.7195 222.546C13.7195 222.546 8.39078 258.783 45.1856 260.035Z" fill="#6AAF3F"/>
<path d="M25.0019 227.642C26.0438 228.804 27.1155 229.937 28.1872 231.069C29.3184 232.231 30.5687 233.334 31.5809 234.586C33.1587 236.552 33.9327 238.847 34.1113 241.35C34.3792 244.718 34.0517 248.055 33.7838 251.423C33.635 253.27 33.5159 255.118 33.5457 256.995C33.5457 257.412 33.5754 257.8 33.6052 258.217C36.9096 259.26 40.7201 259.916 45.1557 260.065C45.1557 260.065 45.0366 233.334 22.6204 224.781C23.4241 225.705 24.1981 226.718 25.0019 227.642Z" fill="#333333"/>
<path d="M149.467 185.118C139.852 185.237 129.522 185.922 118.388 187.382" stroke="#5097FF" stroke-miterlimit="10" stroke-linecap="round" stroke-linejoin="round" stroke-dasharray="4 4"/>
<path d="M255.088 165.032C255.088 165.032 260.566 178.413 243.984 189.915C235.947 195.488 221.806 192.329 200.581 189.111" stroke="#5097FF" stroke-miterlimit="10" stroke-linecap="round" stroke-linejoin="round" stroke-dasharray="4 4"/>
<path d="M50.4252 151.563C50.4252 151.563 50.4252 140.596 39.9464 139.226C39.9167 139.226 38.1007 151.086 50.4252 151.563Z" fill="#6AAF3F"/>
<path d="M48.6983 153.083C48.6983 153.083 39.9462 138.928 25.5974 145.364C25.5974 145.364 32.742 162.142 48.6983 153.083Z" fill="#6AAF3F"/>
<path d="M223.979 67.0202C223.979 67.0202 223.979 59.451 216.716 58.4974C216.716 58.4974 215.436 66.7222 223.979 67.0202Z" fill="#6AAF3F"/>
<path d="M222.759 68.093C222.759 68.093 216.716 58.2888 206.773 62.7588C206.803 62.7588 211.744 74.351 222.759 68.093Z" fill="#6AAF3F"/>
<path d="M299.236 119.885C299.236 119.885 288.609 102.661 271.134 110.498C271.134 110.498 279.856 130.911 299.236 119.885Z" fill="#6AAF3F"/>
<path d="M98.5316 91.3071C98.5316 91.3071 89.7794 77.1521 75.4307 83.5889C75.4604 83.5889 82.6051 100.366 98.5316 91.3071Z" fill="#6AAF3F"/>
<path d="M202.367 140.358C202.367 140.358 202.307 144.023 204.957 145.692C207.576 147.361 210.524 146.556 210.524 146.556C210.524 146.556 208.499 144.53 202.367 140.358Z" fill="#6AAF3F"/>
<path d="M150.658 139.315C150.658 139.315 157.505 141.61 161.285 134.458C161.315 134.428 155.242 135.203 150.658 139.315Z" fill="#6AAF3F"/>
<path d="M126.813 254.969L148.247 191.495L198.855 199.72L200.67 255.416L169.681 254.969L170.127 230.771L160.095 254.969H126.813Z" fill="#996A3C"/>
<path d="M144.436 254.79L165.096 194.862" stroke="#333333" stroke-miterlimit="10" stroke-linecap="round" stroke-linejoin="round"/>
<path d="M186.381 254.79L187.899 198.2" stroke="#333333" stroke-miterlimit="10" stroke-linecap="round" stroke-linejoin="round"/>
<path d="M108.207 187.144C98.5023 181.422 85.8802 187.144 74.9846 184.253C68.0484 182.406 62.3923 177.101 58.8795 170.843C55.337 164.585 53.6996 157.463 52.6577 150.341C51.3776 141.58 50.9609 132.521 53.3722 124.028C56.5277 112.882 64.625 103.257 75.074 98.2506C85.523 93.2442 98.0856 92.976 108.743 97.5056C113.714 99.6214 118.239 102.721 123.032 105.283C146.461 117.74 176.855 115.743 198.467 100.307C208.47 93.1548 216.656 83.44 227.492 77.5992C242.079 69.732 260.596 70.1194 275.183 77.9568C289.77 85.7942 300.189 100.724 303.225 117.025C304.446 123.67 304.535 130.494 306.083 137.05C309.298 150.699 319.182 162.589 331.953 168.281" stroke="#5097FF" stroke-miterlimit="10" stroke-linecap="round" stroke-linejoin="round" stroke-dasharray="4 4"/>
<path d="M177.867 128.617C177.867 128.617 175.426 126.173 175.426 119.289C175.426 112.406 170.871 106.595 176.527 102.959C182.184 99.3234 190.221 100.724 194.865 100.128C199.539 99.532 206.326 98.3996 207.219 103.376C208.142 108.353 200.73 112.495 200.73 112.495L177.867 128.617Z" fill="#333333"/>
<path d="M174.235 133.891L180.397 123.163C180.397 123.163 177.718 122.657 178.194 120.064C178.79 116.846 181.856 118.127 181.856 118.127L184.088 111.452C184.475 110.29 185.458 109.396 186.649 109.157C190.072 108.442 197.008 107.22 199.807 108.591C203.558 110.409 199.33 127.782 196.145 130.613C193.466 132.997 192.394 132.55 192.394 132.55L193.496 138.63C193.496 138.659 181.618 141.937 174.235 133.891Z" fill="#FCC8B8"/>
<path d="M183.642 112.078C183.642 112.078 183.642 110.558 185.964 110.141C188.286 109.724 198.021 114.998 202.367 111.243C206.713 107.489 197.902 99.9789 189.894 101.499C181.945 103.048 183.642 112.078 183.642 112.078Z" fill="#333333"/>
<path d="M189.507 114.432C191.233 114.432 192.632 113.965 192.632 113.389C192.632 112.813 191.233 112.346 189.507 112.346C187.78 112.346 186.381 112.813 186.381 113.389C186.381 113.965 187.78 114.432 189.507 114.432Z" fill="#333333"/>
<path d="M173.937 108.621C173.937 108.621 171.823 103.764 177.688 100.515C183.552 97.2672 193.198 98.9062 199.181 98.2804C205.165 97.6546 210.256 101.052 206.266 107.31C204.391 110.26 201.146 113.866 194.865 112.346C188.583 110.826 184.684 108.859 184.684 108.859" stroke="#333333" stroke-miterlimit="10" stroke-linecap="round" stroke-linejoin="round"/>
<path d="M188.286 118.544C188.286 118.544 189.06 118.306 190.4 118.693C190.4 118.693 189.566 117.859 188.048 117.71" stroke="#333333" stroke-width="0.5" stroke-miterlimit="10" stroke-linecap="round" stroke-linejoin="round"/>
<path d="M185.488 130.256C185.488 130.256 187.87 132.729 192.365 132.878L192.633 134.666C192.633 134.666 189.507 134.815 185.488 130.256Z" fill="#333333"/>
<path d="M190.519 125.667L193.525 127.037C193.764 127.157 193.823 127.484 193.615 127.663C193.109 128.11 192.156 128.676 191.114 128.17C190.102 127.663 189.953 126.62 189.983 125.965C189.983 125.726 190.281 125.577 190.519 125.667Z" fill="#333333"/>
<path d="M190.697 126.561C190.876 126.918 191.263 127.067 191.591 127.216C192.067 127.425 192.603 127.633 193.109 127.455C193.287 127.395 193.466 127.306 193.615 127.186C193.585 127.127 193.526 127.097 193.466 127.067L190.578 125.726C190.578 125.994 190.578 126.292 190.697 126.561Z" fill="white"/>
<path d="M181.32 120.481C181.32 120.481 180.814 119.379 179.207 120.183" stroke="#333333" stroke-width="0.5" stroke-miterlimit="10" stroke-linecap="round" stroke-linejoin="round"/>
<path d="M170.484 134.07C170.484 134.07 174.622 140.388 183.463 141.282C194.15 142.355 196.383 137.974 196.383 137.974L193.079 137.467C193.079 137.467 185.636 141.282 174.235 134.189L170.484 134.07Z" fill="#6AAF3F"/>
<path d="M193.139 113.24C193.139 113.24 193.02 114.074 192.99 114.343" stroke="#333333" stroke-width="0.5" stroke-miterlimit="10" stroke-linecap="round" stroke-linejoin="round"/>
<path d="M201.206 114.7C199.688 113.955 198.229 113.776 197.991 114.283C197.753 114.79 198.794 115.833 200.342 116.578C200.61 116.697 200.849 116.816 201.087 116.905C201.116 116.16 201.176 115.415 201.206 114.7Z" fill="#333333"/>
<path d="M197.574 113.896C197.574 113.896 197.306 114.7 197.217 114.939" stroke="#333333" stroke-width="0.5" stroke-miterlimit="10" stroke-linecap="round" stroke-linejoin="round"/>
<path d="M195.52 115.982L194.27 122.716" stroke="#333333" stroke-width="0.5" stroke-miterlimit="10" stroke-linecap="round" stroke-linejoin="round"/>
<path d="M194.359 122.776C194.925 122.865 195.312 123.402 195.222 123.968C195.133 124.534 194.597 124.922 194.032 124.832C193.764 124.802 193.555 124.653 193.406 124.475" stroke="#333333" stroke-width="0.5" stroke-miterlimit="10" stroke-linecap="round" stroke-linejoin="round"/>
<path d="M198.884 120.988L222.253 126.918L224.188 115.952L199.509 116.011C198.259 116.011 197.187 116.935 197.009 118.157C196.8 119.438 197.604 120.66 198.884 120.988Z" fill="#6AAF3F"/>
<path d="M222.163 115.952C221.241 116.518 220.407 117.293 219.841 118.246C219.127 119.438 218.77 120.809 218.68 122.18C218.591 123.491 218.71 124.802 218.919 126.084L222.223 126.918L224.158 115.952H222.163Z" fill="#333333"/>
<path d="M227.076 113.925L255.654 113.18V136.722L225.349 128.825C221.896 127.931 219.544 124.743 219.693 121.197C219.872 117.203 223.087 114.015 227.076 113.925Z" fill="#469F62"/>
<path d="M65.3093 272.908C65.3093 272.908 92.6076 248.353 91.7146 224.871C91.7443 224.871 63.5529 239.443 65.3093 272.908Z" fill="#6AAF3F"/>
<path d="M332.012 261.495C332.012 261.495 371.546 226.51 364.401 176.148C364.401 176.177 321.98 207.944 332.012 261.495Z" fill="#469F62"/>
<path d="M64.1187 176.505C64.1187 176.505 86.7135 170.396 93.7688 149C93.7688 149 70.6679 153.261 64.1187 176.505Z" fill="#469F62"/>
<path d="M310.072 124.266C310.072 124.266 332.667 118.157 339.722 96.7606C339.722 96.7606 316.621 101.022 310.072 124.266Z" fill="#469F62"/>
<path d="M319.152 116.16C319.152 116.16 330.583 106.565 328.946 92.2607C328.946 92.2607 316.711 100.932 319.152 116.16Z" fill="#469F62"/>
<path d="M363.716 176.893L331.714 258.455" stroke="#333333" stroke-width="0.5" stroke-miterlimit="10" stroke-linecap="round" stroke-linejoin="round"/>
<path d="M334.751 214.024H39.8567V222.546H334.751V214.024Z" fill="#F94848"/>
<path d="M86.3562 221.384C84.4212 219.179 82.3969 217.033 80.2833 215.007C79.9261 214.679 79.5688 214.351 79.2116 214.024H39.8567V222.546H87.3386C87.0111 222.159 86.6837 221.772 86.3562 221.384Z" fill="#EF3737"/>
<path d="M271.223 214.024C270.777 214.53 270.3 215.037 269.854 215.543C268.217 217.391 266.579 219.268 265.061 221.205C264.704 221.652 264.376 222.099 264.049 222.546H334.751V214.024H271.223Z" fill="#EF3737"/>
<path d="M74.3595 254.492C74.3595 254.492 79.063 244.002 79.063 235.152C79.063 225.705 76.3838 206.603 56.4086 197.723C35.7488 188.515 36.3442 168.489 26.4905 167.744C17.9468 167.118 17.0537 177.072 20.5962 184.373C24.109 191.674 21.4298 200.405 18.691 207.587C15.9522 214.769 21.7572 226.838 29.8842 230.801C43.7269 237.566 31.4025 250.529 41.9705 255.624C48.7877 258.902 67.1553 259.886 74.3595 254.492Z" fill="#6AAF3F"/>
<path d="M99.1868 91.5456C99.1868 91.5456 95.8229 91.039 93.62 89.6086C91.2682 88.0888 86.9517 84.334 87.9638 77.9568C89.0057 71.3412 83.945 68.242 85.3441 65.6792C86.5647 63.4442 89.1843 64.8448 90.4347 66.901C91.685 68.9572 94.2749 69.7022 96.5076 70.179C98.7403 70.6558 100.794 74.053 100.467 76.7052C99.931 81.2348 105.111 80.2514 104.694 83.7082C104.396 85.8836 101.687 90.6218 99.1868 91.5456Z" fill="#6AAF3F"/>
<path d="M241.632 84.3339C241.632 84.3339 243.716 81.6519 246.008 80.4003C248.479 79.0891 253.838 77.1223 258.928 81.0857C264.227 85.1981 269.377 82.2479 270.925 84.7213C272.295 86.8669 269.824 88.4761 267.413 88.5953C265.001 88.6847 263.126 90.6217 261.637 92.3501C260.149 94.0785 256.19 94.2275 254.016 92.6779C250.325 89.9959 248.658 95.0321 245.86 92.9759C244.073 91.6349 241.245 86.9861 241.632 84.3339Z" fill="#6AAF3F"/>
<path d="M36.1353 200.107L38.487 181.303" stroke="#333333" stroke-width="0.5" stroke-miterlimit="10" stroke-linecap="round" stroke-linejoin="round"/>
<path d="M34.4092 196.084L36.493 178.264" stroke="#333333" stroke-width="0.5" stroke-miterlimit="10" stroke-linecap="round" stroke-linejoin="round"/>
<path d="M19.4942 215.841C19.0476 213.159 18.9881 210.447 19.7621 207.795C20.5361 205.143 21.9948 202.848 23.2451 200.405C24.4954 197.931 25.3289 195.279 25.3587 192.478C25.3885 189.766 24.6443 187.144 23.7214 184.611C22.9474 182.525 22.1436 180.499 21.7566 178.323C21.4292 176.446 21.3696 174.36 22.3223 172.602C23.3642 170.665 25.5969 169.562 27.7403 169.443C29.1989 169.383 30.7767 170.605 32.1461 171.112C32.6224 171.29 29.6753 167.774 26.5495 167.714C17.9759 167.595 17.1126 177.042 20.6552 184.343C24.1679 191.644 21.4887 200.375 18.7499 207.557C17.1424 211.788 18.482 217.719 21.5483 222.695C20.5659 220.52 19.8812 218.195 19.4942 215.841Z" fill="#98DF25"/>
<path d="M19.3462 205.888L44.7691 218.702" stroke="#333333" stroke-width="0.5" stroke-miterlimit="10" stroke-linecap="round" stroke-linejoin="round"/>
<path d="M18.7803 175.85L27.6515 181.691" stroke="#333333" stroke-width="0.5" stroke-miterlimit="10" stroke-linecap="round" stroke-linejoin="round"/>
<path d="M22.0549 168.757L60.9931 254.194" stroke="#333333" stroke-width="0.5" stroke-miterlimit="10" stroke-linecap="round" stroke-linejoin="round"/>
<path d="M138.959 159.847C138.959 159.847 130.445 181.393 130.445 187.084C130.445 190.869 141.162 201.627 148.396 208.421C151.76 211.58 153.635 216.08 153.308 220.699C153.248 221.533 153.308 222.248 153.605 222.606C155.213 224.573 162.655 223.381 165.453 222.993C168.252 222.606 168.43 217.749 168.43 217.749C168.43 217.749 171.08 220.937 172.152 222.934C173.223 224.93 175.962 227.046 176.647 225.973C177.331 224.901 174.682 216.914 173.074 214.649C171.467 212.355 164.799 209.017 164.799 209.017L149.854 183.717L155.838 168.072L138.959 159.847Z" fill="#FCC8B8"/>
<path d="M254.939 166.85C259.724 166.85 263.602 162.968 263.602 158.178C263.602 153.389 259.724 149.507 254.939 149.507C250.155 149.507 246.276 153.389 246.276 158.178C246.276 162.968 250.155 166.85 254.939 166.85Z" fill="#AAC7FF"/>
<path d="M254.94 162.291C257.209 162.291 259.048 160.45 259.048 158.178C259.048 155.907 257.209 154.066 254.94 154.066C252.671 154.066 250.832 155.907 250.832 158.178C250.832 160.45 252.671 162.291 254.94 162.291Z" fill="#F94848"/>
<path d="M112.196 198.796C116.98 198.796 120.859 194.913 120.859 190.124C120.859 185.335 116.98 181.452 112.196 181.452C107.411 181.452 103.533 185.335 103.533 190.124C103.533 194.913 107.411 198.796 112.196 198.796Z" fill="#AAC7FF"/>
<path d="M112.196 194.236C114.465 194.236 116.304 192.395 116.304 190.124C116.304 187.853 114.465 186.012 112.196 186.012C109.927 186.012 108.088 187.853 108.088 190.124C108.088 192.395 109.927 194.236 112.196 194.236Z" fill="#F94848"/>
<path d="M208.202 174.151C208.202 174.151 222.699 178.77 227.582 177.817C234.429 176.446 234.19 142.653 234.637 138.093L241.484 133.057L230.767 129.63C230.767 129.63 235.113 123.461 233.744 121.882C232.374 120.273 223.95 126.68 222.789 128.736C221.628 130.792 218.234 153.381 218.234 153.381L215.257 151.324L208.202 174.151Z" fill="#FCC8B8"/>
<path d="M143.662 181.691L149.824 183.508" stroke="#333333" stroke-width="0.5" stroke-miterlimit="10" stroke-linecap="round" stroke-linejoin="round"/>
<path d="M292.746 297.493C292.746 297.493 327.011 285.782 337.043 258.873C347.075 231.963 333.084 213.964 339.931 200.345C346.777 186.727 358.655 180.707 359.013 163.93C359.4 147.152 353.356 132.968 335.465 135.62C315.698 138.57 323.706 165.807 307.274 174.211C299.415 178.234 281.315 188.753 273.783 216.08C266.252 243.406 272.98 298 292.746 297.493Z" fill="#6AAF3F"/>
<path d="M343.741 135.709C347.343 137.587 350.26 140.686 352.344 144.172C354.666 148.106 356.065 152.636 356.333 157.195C356.482 159.549 356.333 161.903 355.857 164.228C355.232 167.178 354.071 170.039 352.702 172.721C349.844 178.413 345.884 183.449 342.252 188.664C340.347 191.376 338.502 194.117 337.073 197.097C335.763 199.839 334.84 202.759 334.304 205.739C333.232 211.699 333.768 217.778 334.81 223.709C335.406 227.046 336.209 230.354 336.805 233.692C337.46 237.238 337.936 240.814 338.204 244.39C338.442 247.906 338.472 251.452 338.144 254.969C338.055 256.042 337.876 257.085 337.698 258.128C347.135 231.665 333.53 213.904 340.317 200.405C347.164 186.786 359.042 180.767 359.4 163.989C359.668 150.013 355.5 137.825 343.741 135.709Z" fill="#98DF25"/>
<path d="M346.391 136.305L285.81 278.54" stroke="#333333" stroke-width="0.5" stroke-miterlimit="10" stroke-linecap="round" stroke-linejoin="round"/>
<path d="M339.871 227.732L304.714 234.347" stroke="#333333" stroke-width="0.5" stroke-miterlimit="10" stroke-linecap="round" stroke-linejoin="round"/>
<path d="M339.544 222.576L307.393 227.97" stroke="#333333" stroke-width="0.5" stroke-miterlimit="10" stroke-linecap="round" stroke-linejoin="round"/>
<path d="M305.547 175.254L312.453 216.139" stroke="#333333" stroke-width="0.5" stroke-miterlimit="10" stroke-linecap="round" stroke-linejoin="round"/>
<path d="M322.783 191.733L351.54 184.224" stroke="#333333" stroke-width="0.5" stroke-miterlimit="10" stroke-linecap="round" stroke-linejoin="round"/>
<path d="M327.695 139.613L331.714 170.158" stroke="#333333" stroke-width="0.5" stroke-miterlimit="10" stroke-linecap="round" stroke-linejoin="round"/>
<path d="M332.102 136.752L335.495 161.367" stroke="#333333" stroke-width="0.5" stroke-miterlimit="10" stroke-linecap="round" stroke-linejoin="round"/>
<path d="M231.838 138.093C231.838 138.093 233.357 133.534 230.171 130.494C230.171 130.494 234.161 125.369 233.982 122.776" stroke="#333333" stroke-width="0.5" stroke-miterlimit="10" stroke-linecap="round" stroke-linejoin="round"/>
<path d="M256.16 136.722C261.191 136.722 265.27 131.439 265.27 124.922C265.27 118.404 261.191 113.121 256.16 113.121C251.129 113.121 247.051 118.404 247.051 124.922C247.051 131.439 251.129 136.722 256.16 136.722Z" fill="#BCBCBC"/>
<path d="M256.16 134.279C260.155 134.279 263.394 130.089 263.394 124.922C263.394 119.754 260.155 115.564 256.16 115.564C252.165 115.564 248.926 119.754 248.926 124.922C248.926 130.089 252.165 134.279 256.16 134.279Z" fill="white"/>
<path d="M256.16 134.279C260.155 134.279 263.394 130.089 263.394 124.922C263.394 119.754 260.155 115.564 256.16 115.564C252.165 115.564 248.926 119.754 248.926 124.922C248.926 130.089 252.165 134.279 256.16 134.279Z" stroke="#333333" stroke-width="0.5" stroke-miterlimit="10" stroke-linecap="round" stroke-linejoin="round"/>
<path d="M250.087 125.726C250.087 125.726 251.903 128.319 256.458 128.319C260.655 128.319 262.531 125.786 262.531 125.786C262.531 125.786 260.744 122.627 256.755 122.478C252.766 122.299 250.087 125.726 250.087 125.726Z" stroke="#333333" stroke-width="0.5" stroke-miterlimit="10" stroke-linecap="round" stroke-linejoin="round"/>
<path d="M251.01 120.779L252.26 122.716" stroke="#333333" stroke-width="0.5" stroke-miterlimit="10" stroke-linecap="round" stroke-linejoin="round"/>
<path d="M253.63 119.409L254.136 121.763" stroke="#333333" stroke-width="0.5" stroke-miterlimit="10" stroke-linecap="round" stroke-linejoin="round"/>
<path d="M261.578 120.839L260.625 122.418" stroke="#333333" stroke-width="0.5" stroke-miterlimit="10" stroke-linecap="round" stroke-linejoin="round"/>
<path d="M259.107 119.826L258.69 121.763" stroke="#333333" stroke-width="0.5" stroke-miterlimit="10" stroke-linecap="round" stroke-linejoin="round"/>
<path d="M256.458 119.111L256.517 121.048" stroke="#333333" stroke-width="0.5" stroke-miterlimit="10" stroke-linecap="round" stroke-linejoin="round"/>
<path d="M257.321 127.395C259.256 127.395 260.804 125.845 260.864 123.938C259.911 123.223 258.571 122.538 256.755 122.478C255.684 122.448 254.731 122.657 253.868 122.985C253.808 123.253 253.749 123.551 253.749 123.849C253.779 125.786 255.386 127.395 257.321 127.395Z" fill="#333333"/>
<path d="M217.103 160.771L218.234 153.381" stroke="#333333" stroke-width="0.5" stroke-miterlimit="10" stroke-linecap="round" stroke-linejoin="round"/>
<path d="M155.838 168.072L137.589 163.542L138.869 159.937L155.838 168.072Z" fill="#333333"/>
<path d="M160.095 159.4L155.838 168.072L138.363 159.698C138.363 159.698 144.972 142.593 153.04 137.408C161.107 132.223 174.235 134.219 174.235 134.219C174.235 134.219 184.565 141.282 193.079 137.497C193.079 137.497 202.04 136.901 215.287 151.354L208.232 174.181L203.647 171.857" stroke="#333333" stroke-width="0.5" stroke-miterlimit="10" stroke-linecap="round" stroke-linejoin="round"/>
<path d="M198.854 199.72L205.85 158.476" stroke="#333333" stroke-width="0.5" stroke-miterlimit="10" stroke-linecap="round" stroke-linejoin="round"/>
<path d="M155.064 192.717L199.063 204.696L198.854 199.72L155.064 192.717Z" fill="#333333"/>
<path d="M159.261 218.285C159.261 218.285 159.41 223.47 156.82 223.619" stroke="#333333" stroke-width="0.5" stroke-miterlimit="10" stroke-linecap="round" stroke-linejoin="round"/>
<path d="M164.114 218.523C164.114 218.523 164.709 222.487 161.673 223.381" stroke="#333333" stroke-width="0.5" stroke-miterlimit="10" stroke-linecap="round" stroke-linejoin="round"/>
<path d="M215.287 151.324L210.702 174.926L208.291 174.062L215.287 151.324Z" fill="#333333"/>
<path d="M108.356 118.455C120.062 118.455 129.552 108.955 129.552 97.2373C129.552 85.5192 120.062 76.0197 108.356 76.0197C96.6498 76.0197 87.1602 85.5192 87.1602 97.2373C87.1602 108.955 96.6498 118.455 108.356 118.455Z" fill="white"/>
<path d="M97.9958 98.0718C97.9958 96.4626 99.3057 95.1514 100.913 95.1514C102.521 95.1514 103.831 96.4626 103.831 98.0718C103.831 99.681 102.521 100.992 100.913 100.992C99.3057 100.992 97.9958 99.681 97.9958 98.0718Z" fill="black"/>
<path d="M114.488 94.3467C114.488 92.7375 115.798 91.4263 117.405 91.4263C119.013 91.4263 120.323 92.7375 120.323 94.3467C120.323 95.9559 119.013 97.2671 117.405 97.2671C115.798 97.2671 114.488 95.9559 114.488 94.3467Z" fill="black"/>
<path d="M112.583 109.247C112.583 109.247 119.34 104.568 116.87 97.9525C114.399 91.3369 108.088 87.2543 101.509 92.7673C101.509 92.7673 95.5845 102.095 105.795 109.932C105.825 109.902 109.874 111.661 112.583 109.247Z" fill="black"/>
<path d="M115.53 103.227C115.53 102.452 116.155 101.797 116.959 101.797C117.763 101.797 118.388 102.423 118.388 103.227C118.388 104.002 117.763 104.658 116.959 104.658C116.155 104.658 115.53 104.002 115.53 103.227Z" fill="black"/>
<path d="M112.969 105.492H104.336V115.833H112.969V105.492Z" fill="#FF886A"/>
<path d="M112.672 111.571L119.668 116.16C119.668 116.16 108.802 123.312 97.4895 115.684L104.991 111.571H112.672Z" fill="#FCC8B8"/>
<path d="M100.437 106.446C100.437 104.866 101.717 103.555 103.324 103.555C104.902 103.555 106.212 104.836 106.212 106.446C106.212 108.025 104.932 109.336 103.324 109.336C101.717 109.306 100.437 108.025 100.437 106.446Z" fill="black"/>
<path d="M111.481 104.777C111.481 103.197 112.761 101.886 114.369 101.886C115.946 101.886 117.256 103.168 117.256 104.777C117.256 106.386 115.976 107.667 114.369 107.667C112.761 107.638 111.481 106.356 111.481 104.777Z" fill="black"/>
<path d="M112.017 107.965C112.017 107.191 112.642 106.535 113.446 106.535C114.22 106.535 114.875 107.161 114.875 107.965C114.875 108.77 114.25 109.396 113.446 109.396C112.642 109.396 112.017 108.74 112.017 107.965Z" fill="black"/>
<path d="M99.9902 103.972C99.9902 103.197 100.615 102.542 101.419 102.542C102.223 102.542 102.848 103.168 102.848 103.972C102.848 104.747 102.223 105.403 101.419 105.403C100.615 105.403 99.9902 104.747 99.9902 103.972Z" fill="black"/>
<path d="M112.969 105.522V107.25C111.481 108.234 111.541 109.098 110.796 109.634C108.028 111.601 105.736 111.69 104.336 111.571L104.366 105.522H112.969Z" fill="black"/>
<path d="M116.095 100.694C116.095 95.5685 112.821 91.4263 108.802 91.4263C104.783 91.4263 101.508 95.5685 101.508 100.694C101.508 105.82 104.783 109.962 108.802 109.962C109.754 109.962 110.647 109.724 111.481 109.336C114.16 107.965 116.095 104.628 116.095 100.694Z" fill="#FF886A"/>
<path d="M108.236 99.6512C108.236 99.6512 107.701 103.853 107.849 104.687L108.981 104.747" stroke="black" stroke-width="0.5" stroke-linecap="round" stroke-linejoin="round"/>
<path d="M112.672 100.933C112.672 100.635 112.434 100.366 112.106 100.366C111.809 100.366 111.541 100.605 111.541 100.933C111.541 101.231 111.779 101.499 112.106 101.499C112.404 101.499 112.672 101.26 112.672 100.933Z" fill="black"/>
<path d="M106.033 100.962C106.033 100.664 105.795 100.396 105.468 100.396C105.17 100.396 104.902 100.635 104.902 100.962C104.902 101.26 105.14 101.529 105.468 101.529C105.765 101.529 106.033 101.29 106.033 100.962Z" fill="black"/>
<path d="M100.645 99.7406C100.645 99.7406 99.1267 98.3102 98.2337 99.979C97.3703 101.648 99.8412 103.495 100.824 103.138C100.824 103.168 100.526 101.32 100.645 99.7406Z" fill="#FF886A"/>
<path d="M100.139 100.724C100.139 100.724 99.5738 99.5916 98.7104 100.188" stroke="black" stroke-width="0.5" stroke-linecap="round" stroke-linejoin="round"/>
<path d="M114.131 99.5319C114.25 99.0849 113.506 98.5187 112.493 98.2803C111.481 98.0419 110.588 98.1909 110.469 98.6379C110.35 99.0849 111.094 99.6511 112.106 99.8895C113.119 100.128 114.012 99.9491 114.131 99.5319Z" fill="black"/>
<path d="M102.937 99.5022C102.818 99.085 103.533 98.5188 104.545 98.2804C105.527 98.042 106.42 98.191 106.539 98.6082C106.658 99.0254 105.944 99.5916 104.932 99.83C103.92 100.068 103.027 99.9194 102.937 99.5022Z" fill="black"/>
<path d="M106.867 98.2505L106.927 98.8167" stroke="black" stroke-width="0.5" stroke-linecap="round" stroke-linejoin="round"/>
<path d="M110.112 98.191L110.052 98.7572" stroke="black" stroke-width="0.5" stroke-linecap="round" stroke-linejoin="round"/>
<path d="M106.271 105.283C106.271 105.283 106.539 106.237 107.313 106.207" stroke="black" stroke-width="0.5" stroke-linecap="round" stroke-linejoin="round"/>
<path d="M114.726 97.4758C114.726 96.1944 115.768 95.1812 117.018 95.1812C118.298 95.1812 119.311 96.2242 119.311 97.4758C119.311 98.7571 118.269 99.7703 117.018 99.7703C115.738 99.7703 114.726 98.7571 114.726 97.4758Z" fill="black"/>
<path d="M107.224 92.1415C107.224 89.1615 109.636 86.7477 112.613 86.7477C115.59 86.7477 118.001 89.1615 118.001 92.1415C118.001 95.1215 115.59 97.5353 112.613 97.5353C109.636 97.5055 107.224 95.0917 107.224 92.1415Z" fill="black"/>
<path d="M102.58 91.9628C102.58 90.3536 103.89 89.0424 105.498 89.0424C107.105 89.0424 108.415 90.3536 108.415 91.9628C108.415 93.572 107.105 94.8832 105.498 94.8832C103.89 94.8832 102.58 93.572 102.58 91.9628Z" fill="black"/>
<path d="M96.3882 93.6017C96.3882 91.4561 98.1148 89.7277 100.258 89.7277C102.402 89.7277 104.128 91.4561 104.128 93.6017C104.128 95.7473 102.402 97.4757 100.258 97.4757C98.1148 97.4757 96.3882 95.7473 96.3882 93.6017Z" fill="black"/>
<path d="M99.8115 97.893C99.8115 97.1182 100.437 96.4626 101.24 96.4626C102.044 96.4626 102.669 97.0884 102.669 97.893C102.669 98.6678 102.044 99.3234 101.24 99.3234C100.437 99.3234 99.8115 98.6678 99.8115 97.893Z" fill="black"/>
<path d="M110.856 87.314C110.856 85.7048 112.166 84.3936 113.773 84.3936C115.381 84.3936 116.691 85.7048 116.691 87.314C116.691 88.9232 115.381 90.2344 113.773 90.2344C112.136 90.2344 110.856 88.9232 110.856 87.314Z" fill="black"/>
<path d="M109.725 85.1088C109.725 84.3042 110.38 83.6486 111.184 83.6486C111.988 83.6486 112.642 84.3042 112.642 85.1088C112.642 85.9134 111.988 86.569 111.184 86.569C110.38 86.569 109.725 85.9134 109.725 85.1088Z" fill="black"/>
<path d="M98.3826 96.6116C98.3826 95.8368 99.0077 95.1812 99.8115 95.1812C100.586 95.1812 101.24 95.807 101.24 96.6116C101.24 97.4162 100.615 98.042 99.8115 98.042C99.0077 98.042 98.3826 97.3864 98.3826 96.6116Z" fill="black"/>
<path d="M106.271 86.7776C106.271 85.4366 107.373 84.334 108.713 84.334C110.052 84.334 111.154 85.4366 111.154 86.7776C111.154 88.1186 110.052 89.2212 108.713 89.2212C107.373 89.2212 106.271 88.1186 106.271 86.7776Z" fill="black"/>
<path d="M101.479 88.7145C101.479 86.7477 103.057 85.1683 105.021 85.1683C106.986 85.1683 108.564 86.7477 108.564 88.7145C108.564 90.6813 106.986 92.2607 105.021 92.2607C103.057 92.2309 101.479 90.6515 101.479 88.7145Z" fill="black"/>
<path d="M98.8889 90.5919C98.8889 89.1615 100.05 87.9993 101.479 87.9993C102.908 87.9993 104.069 89.1615 104.069 90.5919C104.069 92.0223 102.908 93.1845 101.479 93.1845C100.02 93.1845 98.8889 92.0223 98.8889 90.5919Z" fill="black"/>
<path d="M116.899 99.7406C116.899 99.7406 118.418 98.3102 119.311 99.979C120.174 101.648 117.703 103.495 116.721 103.138C116.721 103.168 117.018 101.32 116.899 99.7406Z" fill="#FF886A"/>
<path d="M117.405 100.724C117.405 100.724 117.971 99.5916 118.834 100.188" stroke="black" stroke-width="0.5" stroke-linecap="round" stroke-linejoin="round"/>
<path d="M108.356 118.455C120.062 118.455 129.552 108.955 129.552 97.2373C129.552 85.5192 120.062 76.0197 108.356 76.0197C96.6498 76.0197 87.1602 85.5192 87.1602 97.2373C87.1602 108.955 96.6498 118.455 108.356 118.455Z" stroke="#333333" stroke-width="0.5" stroke-miterlimit="10" stroke-linecap="round" stroke-linejoin="round"/>
<path d="M304.059 131.239C315.978 131.239 325.641 121.566 325.641 109.634C325.641 97.7021 315.978 88.0292 304.059 88.0292C292.139 88.0292 282.476 97.7021 282.476 109.634C282.476 121.566 292.139 131.239 304.059 131.239Z" fill="white"/>
<path d="M298.194 127.514L299.028 118.395C299.236 117.65 307.959 119.17 307.959 119.17L308.227 127.782C308.227 127.782 302.392 130.256 298.194 127.514Z" fill="#FFAF9C"/>
<path d="M307.72 124.117L314.835 128.796C314.835 128.796 303.791 136.067 292.24 128.289L298.641 124.236L307.72 124.117Z" fill="#FF3300"/>
<path d="M308.078 123.581C308.018 121.882 308.018 121.882 307.959 120.213C304.178 120.839 304.178 120.005 300.368 120.63C302.392 122.478 305.19 123.998 308.078 123.581Z" fill="#080808"/>
<path d="M304.118 101.201C313.496 101.409 311.263 105.939 311.263 111.75C311.263 117.591 308.078 122.299 304.118 122.299C300.159 122.299 296.974 117.561 296.974 111.75C296.974 105.939 296.736 101.052 304.118 101.201Z" fill="#FFAF9C"/>
<path d="M294.444 110.886C295.456 110.349 296.825 111.005 297.51 112.316C298.195 113.627 297.897 115.117 296.885 115.624C295.872 116.16 294.503 115.505 293.818 114.194C293.134 112.882 293.431 111.392 294.444 110.886Z" fill="#FFAF9C"/>
<path d="M311.144 116.339C312.156 116.876 313.526 116.22 314.21 114.909C314.865 113.598 314.597 112.108 313.585 111.601C312.573 111.065 311.204 111.72 310.519 113.031C309.864 114.313 310.132 115.803 311.144 116.339Z" fill="#FFAF9C"/>
<path d="M298.641 102.899C301.201 103.406 301.052 105.671 303.553 106.475C307.036 107.578 306.232 103.317 310.34 107.369C310.37 100.545 303.196 99.1445 298.641 102.899Z" fill="#FF8F80"/>
<path d="M297.51 111.512C297.837 111.124 296.974 105.879 300.308 102.78C301.916 101.499 309.864 100.039 310.4 110.528C310.459 111.69 311.114 113.627 312.662 111.065C314.24 108.502 319.182 99.1148 311.501 94.4362C305.696 91.188 303.94 95.6878 298.105 96.6712C297.539 96.7606 296.974 96.9394 296.438 97.2076C290.216 100.366 295.366 110.141 295.604 110.647C295.872 111.184 296.885 113.27 297.51 111.512Z" fill="black"/>
<path d="M300.844 108.502C301.767 108.144 302.66 108.174 302.808 108.591C302.957 109.008 302.362 109.634 301.439 109.992C300.516 110.349 299.623 110.319 299.474 109.902C299.296 109.485 299.921 108.859 300.844 108.502Z" fill="black"/>
<path d="M307.095 109.724C308.018 110.081 308.911 110.051 309.06 109.634C309.209 109.217 308.613 108.591 307.691 108.234C306.768 107.876 305.875 107.906 305.726 108.323C305.547 108.74 306.172 109.366 307.095 109.724Z" fill="black"/>
<path d="M297.688 104.777C297.688 104.777 299.504 101.856 301.737 103.168C303.613 104.24 303.196 106.088 305.726 105.879C307.721 105.73 308.911 104.032 310.4 108.651" stroke="black" stroke-width="0.5" stroke-linecap="round" stroke-linejoin="round"/>
<path d="M303.91 109.187L302.957 115.535L304.476 115.654" stroke="#080808" stroke-width="0.5" stroke-linecap="round" stroke-linejoin="round"/>
<path d="M300.725 111.154C301.022 111.154 301.26 111.392 301.26 111.69C301.26 111.988 301.022 112.227 300.725 112.227C300.427 112.227 300.189 111.988 300.189 111.69C300.189 111.392 300.427 111.154 300.725 111.154Z" fill="#080808"/>
<path d="M306.768 111.065C307.066 111.065 307.304 111.303 307.304 111.601C307.304 111.899 307.066 112.137 306.768 112.137C306.47 112.137 306.232 111.899 306.232 111.601C306.232 111.303 306.47 111.065 306.768 111.065Z" fill="#080808"/>
<path d="M296.17 112.793C296.17 112.793 295.664 111.571 294.711 112.018C293.878 112.406 294.414 113.478 294.414 113.478" stroke="#080808" stroke-width="0.5" stroke-linecap="round" stroke-linejoin="round"/>
<path d="M297.807 111.69L296.885 112.912" stroke="#080808" stroke-width="0.5" stroke-linecap="round" stroke-linejoin="round"/>
<path d="M297.926 112.435L297.003 113.657" stroke="#080808" stroke-width="0.5" stroke-linecap="round" stroke-linejoin="round"/>
<path d="M311.382 113.27L310.459 112.048" stroke="#080808" stroke-width="0.5" stroke-linecap="round" stroke-linejoin="round"/>
<path d="M312.007 113.18C312.007 113.18 312.781 112.108 313.615 112.763C314.329 113.329 313.585 114.253 313.585 114.253" stroke="#080808" stroke-width="0.5" stroke-linecap="round" stroke-linejoin="round"/>
<path d="M311.144 113.836L310.221 112.614" stroke="#080808" stroke-width="0.5" stroke-linecap="round" stroke-linejoin="round"/>
<path d="M302.303 117.352C302.303 117.352 302.779 119.021 304.565 118.842C306.083 118.664 306.173 116.995 306.173 116.995L302.303 117.352Z" fill="#080808"/>
<path d="M305.399 117.025C303.91 117.174 304.535 117.174 303.077 117.323C303.404 117.829 305.012 117.74 305.399 117.025Z" fill="white"/>
<path d="M306.173 116.935L302.362 117.352" stroke="#080808" stroke-width="0.5" stroke-linecap="round" stroke-linejoin="round"/>
<path d="M312.156 110.23C312.156 110.23 314.568 108.234 315.61 102.81C317.098 95.0024 310.936 90.5622 305.905 92.529C300.874 94.4958 300.189 95.2408 295.932 96.5818C289.204 98.7274 295.366 110.23 295.366 110.23" stroke="black" stroke-width="0.5" stroke-linecap="round" stroke-linejoin="round"/>
<path d="M295.664 95.36L297.004 97.2374V95.0322" stroke="black" stroke-width="0.5" stroke-linecap="round" stroke-linejoin="round"/>
<path d="M304.059 131.239C315.978 131.239 325.641 121.566 325.641 109.634C325.641 97.7021 315.978 88.0292 304.059 88.0292C292.139 88.0292 282.476 97.7021 282.476 109.634C282.476 121.566 292.139 131.239 304.059 131.239Z" stroke="#333333" stroke-width="0.5" stroke-miterlimit="10" stroke-linecap="round" stroke-linejoin="round"/>
<path d="M236.87 96.7308C248.115 96.7308 257.232 87.6049 257.232 76.3476C257.232 65.0902 248.115 55.9644 236.87 55.9644C225.624 55.9644 216.508 65.0902 216.508 76.3476C216.508 87.6049 225.624 96.7308 236.87 96.7308Z" fill="white"/>
<path d="M250.831 87.463C250.831 87.463 248.003 80.5494 246.901 73.755C245.8 66.9606 240.561 62.4012 233.684 64.4276C223.681 67.348 226.777 84.6618 222.907 88.1782C222.907 88.1782 239.221 92.1416 250.831 87.463Z" fill="black"/>
<path d="M232.285 83.291H241.156V93.9594H232.285V83.291Z" fill="#FF886A"/>
<path d="M232.285 83.291V85.079C233.833 86.0922 233.744 86.9862 234.518 87.5226C237.375 89.549 239.727 89.6682 241.186 89.5192L241.156 83.291H232.285Z" fill="black"/>
<path d="M228.236 77.3608C228.236 77.3608 226.658 75.8708 225.765 77.5992C224.872 79.3276 227.432 81.205 228.445 80.8474C228.445 80.8772 228.117 78.97 228.236 77.3608Z" fill="#FF886A"/>
<path d="M229.07 78.3442C229.07 73.0696 232.434 68.8082 236.601 68.8082C240.769 68.8082 244.133 73.0696 244.133 78.3442C244.133 83.6188 240.769 87.8802 236.601 87.8802C232.434 87.8802 229.07 83.6188 229.07 78.3442Z" fill="#FF886A"/>
<path d="M227.73 78.3442C227.73 78.3442 227.135 77.1819 226.241 77.778" stroke="black" stroke-width="0.5" stroke-linecap="round" stroke-linejoin="round"/>
<path d="M236.185 77.331C236.185 77.331 236.125 80.4898 236.244 81.1454L237.376 81.056" stroke="black" stroke-width="0.5" stroke-linecap="round" stroke-linejoin="round"/>
<path d="M232.612 78.5826C232.612 78.2548 232.88 78.0164 233.178 78.0164C233.505 78.0164 233.743 78.2846 233.743 78.5826C233.743 78.9104 233.475 79.1488 233.178 79.1488C232.85 79.1786 232.612 78.9104 232.612 78.5826Z" fill="black"/>
<path d="M239.459 78.6123C239.459 78.2845 239.727 78.0461 240.025 78.0461C240.352 78.0461 240.62 78.3143 240.62 78.6123C240.62 78.9401 240.352 79.1786 240.025 79.1786C239.697 79.2084 239.459 78.9401 239.459 78.6123Z" fill="black"/>
<path d="M228.683 76.6158C228.683 76.6158 235.381 75.245 236.572 69.0764C236.572 69.0764 238.834 75.2152 244.848 77.0032C244.848 77.0032 243.835 66.4242 236.214 67.0202C236.244 66.9904 229.308 68.3612 228.683 76.6158Z" fill="black"/>
<path d="M232.583 89.549L225.378 94.2872C225.378 94.2872 236.572 101.648 248.241 93.7806L240.531 89.549H232.583Z" fill="#92BCFF"/>
<path d="M232.612 75.2747C232.612 75.2747 237.048 72.8609 236.601 68.1227" stroke="black" stroke-width="0.5" stroke-linecap="round" stroke-linejoin="round"/>
<path d="M240.263 75.0065C240.263 75.0065 236.631 72.1457 236.75 68.3015" stroke="black" stroke-width="0.5" stroke-linecap="round" stroke-linejoin="round"/>
<path d="M244.996 77.3608C244.996 77.3608 246.574 75.8708 247.467 77.5992C248.36 79.3276 245.8 81.205 244.788 80.8474C244.788 80.8772 245.115 78.97 244.996 77.3608Z" fill="#FF886A"/>
<path d="M245.502 78.3442C245.502 78.3442 246.098 77.1819 246.961 77.778" stroke="black" stroke-width="0.5" stroke-linecap="round" stroke-linejoin="round"/>
<path d="M232.285 76.6754C232.195 76.3476 232.731 75.9602 233.446 75.7814C234.16 75.6026 234.815 75.7218 234.875 76.0198C234.964 76.3476 234.428 76.735 233.714 76.9138C232.999 77.1224 232.344 77.0032 232.285 76.6754Z" fill="black"/>
<path d="M241.543 76.6754C241.632 76.3476 241.096 75.9602 240.382 75.7814C239.668 75.6026 239.013 75.7218 238.953 76.0198C238.864 76.3476 239.4 76.735 240.114 76.9138C240.829 77.1224 241.454 77.0032 241.543 76.6754Z" fill="black"/>
<path d="M239.519 83.4995C239.519 83.4995 237.554 81.8903 235.917 84.2445C235.917 84.2445 238.417 86.9266 239.519 83.4995Z" fill="#FF3300"/>
<path d="M235.41 84.0658C235.41 84.0658 238.447 84.9598 240.173 82.844" stroke="black" stroke-width="0.5" stroke-linecap="round" stroke-linejoin="round"/>
<path d="M227.849 78.3442C227.849 78.3442 227.254 77.1819 226.361 77.778" stroke="black" stroke-width="0.5" stroke-linecap="round" stroke-linejoin="round"/>
<path d="M236.303 77.331C236.303 77.331 236.244 80.4898 236.363 81.1454L237.494 81.056" stroke="black" stroke-width="0.5" stroke-linecap="round" stroke-linejoin="round"/>
<path d="M228.802 76.6158C228.802 76.6158 235.5 75.245 236.691 69.0764C236.691 69.0764 238.953 75.2152 244.967 77.0032C244.967 77.0032 243.954 66.4242 236.334 67.0202C236.334 66.9904 229.427 68.3612 228.802 76.6158Z" fill="black"/>
<path d="M232.731 75.2747C232.731 75.2747 237.167 72.8609 236.72 68.1227" stroke="black" stroke-width="0.5" stroke-linecap="round" stroke-linejoin="round"/>
<path d="M240.382 75.0065C240.382 75.0065 236.75 72.1457 236.869 68.3015" stroke="black" stroke-width="0.5" stroke-linecap="round" stroke-linejoin="round"/>
<path d="M59.2957 179.515C70.5414 179.515 79.6579 170.389 79.6579 159.132C79.6579 147.875 70.5414 138.749 59.2957 138.749C48.05 138.749 38.9336 147.875 38.9336 159.132C38.9336 170.389 48.05 179.515 59.2957 179.515Z" fill="white"/>
<path d="M55.1286 169.949C55.4263 170.158 55.7836 170.307 56.1408 170.396C55.8729 170.247 55.6049 170.098 55.3668 169.92C55.2775 169.979 55.1584 169.949 55.1286 169.83C55.1286 169.8 55.0989 169.771 55.0989 169.741C54.95 169.651 54.8012 169.562 54.6523 169.473C54.8012 169.681 54.95 169.83 55.1286 169.949Z" fill="black"/>
<path d="M59.1771 168.668C64.5698 168.668 68.9414 163.625 68.9414 157.404C68.9414 151.182 64.5698 146.139 59.1771 146.139C53.7845 146.139 49.4128 151.182 49.4128 157.404C49.4128 163.625 53.7845 168.668 59.1771 168.668Z" fill="black"/>
<path d="M54.7415 166.075H63.6127V176.744H54.7415V166.075Z" fill="#FFAF9C"/>
<path d="M54.7415 166.075V167.863C56.2895 168.877 56.2001 169.771 56.9742 170.307C59.832 172.333 62.1838 172.453 63.6425 172.304L63.6127 166.075H54.7415Z" fill="black"/>
<path d="M51.586 160.145C51.586 160.145 50.0082 158.655 49.1151 160.384C48.222 162.112 50.7822 163.989 51.7944 163.632C51.7944 163.662 51.4669 161.754 51.586 160.145Z" fill="#FFAF9C"/>
<path d="M51.5261 161.129C51.5261 155.854 54.89 151.593 59.0577 151.593C63.2254 151.593 66.5894 155.854 66.5894 161.129C66.5894 166.403 63.2254 170.665 59.0577 170.665C54.89 170.665 51.5261 166.403 51.5261 161.129Z" fill="#FFAF9C"/>
<path d="M58.6414 160.115C58.6414 160.115 58.5818 163.274 58.7009 163.93L59.8321 163.84" stroke="black" stroke-width="0.5" stroke-linecap="round" stroke-linejoin="round"/>
<path d="M55.0391 161.367C55.0391 161.039 55.307 160.801 55.6047 160.801C55.9321 160.801 56.1703 161.069 56.1703 161.367C56.1703 161.695 55.9024 161.933 55.6047 161.933C55.307 161.963 55.0391 161.695 55.0391 161.367Z" fill="black"/>
<path d="M61.886 161.397C61.886 161.069 62.1539 160.831 62.4516 160.831C62.7791 160.831 63.047 161.099 63.047 161.397C63.047 161.725 62.7791 161.963 62.4516 161.963C62.1539 161.963 61.886 161.725 61.886 161.397Z" fill="black"/>
<path d="M66.2921 160.145C66.2921 160.145 67.8699 158.655 68.763 160.384C69.6561 162.112 67.0959 163.989 66.0837 163.632C66.0837 163.662 66.4112 161.754 66.2921 160.145Z" fill="#FFAF9C"/>
<path d="M66.7976 161.129C66.7976 161.129 67.393 159.966 68.2563 160.562" stroke="black" stroke-width="0.5" stroke-linecap="round" stroke-linejoin="round"/>
<path d="M54.7116 159.46C54.6223 159.132 55.1582 158.745 55.8726 158.566C56.5871 158.387 57.242 158.506 57.3016 158.804C57.3909 159.132 56.855 159.519 56.1406 159.698C55.4559 159.907 54.801 159.788 54.7116 159.46Z" fill="black"/>
<path d="M63.9996 159.46C64.0889 159.132 63.553 158.745 62.8386 158.566C62.1241 158.387 61.4692 158.506 61.4096 158.804C61.3203 159.132 61.8562 159.519 62.5706 159.698C63.2553 159.907 63.9103 159.788 63.9996 159.46Z" fill="black"/>
<path d="M60.9629 166.552C60.9629 166.552 59.3553 164.585 57.2715 166.552C57.2715 166.582 59.2065 169.711 60.9629 166.552Z" fill="#FF3300"/>
<path d="M56.825 166.314C56.825 166.314 59.6233 167.774 61.7369 166.046" stroke="black" stroke-width="0.5" stroke-linecap="round" stroke-linejoin="round"/>
<path d="M51.1989 161.129C51.1989 161.129 50.6035 159.966 49.7104 160.562" stroke="black" stroke-width="0.5" stroke-linecap="round" stroke-linejoin="round"/>
<path d="M58.7602 160.115C58.7602 160.115 58.7007 163.274 58.8198 163.93L59.951 163.84" stroke="black" stroke-width="0.5" stroke-linecap="round" stroke-linejoin="round"/>
<path d="M236.87 96.7308C248.115 96.7308 257.232 87.6049 257.232 76.3476C257.232 65.0902 248.115 55.9644 236.87 55.9644C225.624 55.9644 216.508 65.0902 216.508 76.3476C216.508 87.6049 225.624 96.7308 236.87 96.7308Z" stroke="#333333" stroke-miterlimit="10" stroke-linecap="round" stroke-linejoin="round"/>
<path d="M55.0391 172.333L47.835 177.072C47.835 177.072 59.0282 184.432 70.6978 176.565L62.9577 172.333H55.0391Z" fill="#6AAF3F"/>
<path d="M58.8793 147.659C60.4905 147.659 61.7967 146.351 61.7967 144.739C61.7967 143.126 60.4905 141.818 58.8793 141.818C57.2681 141.818 55.9619 143.126 55.9619 144.739C55.9619 146.351 57.2681 147.659 58.8793 147.659Z" fill="black"/>
<path d="M59.2957 179.515C70.5414 179.515 79.6579 170.389 79.6579 159.132C79.6579 147.875 70.5414 138.749 59.2957 138.749C48.05 138.749 38.9336 147.875 38.9336 159.132C38.9336 170.389 48.05 179.515 59.2957 179.515Z" stroke="#333333" stroke-width="0.5" stroke-miterlimit="10" stroke-linecap="round" stroke-linejoin="round"/>
<path d="M51.1987 158.923C51.1987 158.923 52.4193 155.586 55.7534 154.453C59.0876 153.321 59.7127 150.699 59.7127 150.699" stroke="black" stroke-width="0.5" stroke-linecap="round" stroke-linejoin="round"/>
<path d="M232.367 124.721C233.327 123.896 233.724 122.781 233.252 122.232C232.781 121.682 231.62 121.906 230.66 122.732C229.699 123.557 229.303 124.672 229.774 125.222C230.245 125.771 231.406 125.547 232.367 124.721Z" stroke="#333333" stroke-width="0.5" stroke-miterlimit="10" stroke-linecap="round" stroke-linejoin="round"/>
<path d="M176 225.827C176.554 225.672 176.788 224.775 176.523 223.824C176.257 222.873 175.592 222.228 175.038 222.383C174.484 222.538 174.25 223.435 174.516 224.386C174.781 225.337 175.446 225.982 176 225.827Z" stroke="#333333" stroke-width="0.5" stroke-miterlimit="10" stroke-linecap="round" stroke-linejoin="round"/>
<path d="M22.5312 254.462H350.558" stroke="#333333" stroke-width="0.7" stroke-miterlimit="10" stroke-linecap="round" stroke-linejoin="round"/>
<path d="M55.6643 242.334L63.8806 202.312" stroke="#333333" stroke-width="0.5" stroke-miterlimit="10" stroke-linecap="round" stroke-linejoin="round"/>
<path d="M35.1533 243.377L59.6236 251.452" stroke="#333333" stroke-width="0.5" stroke-miterlimit="10" stroke-linecap="round" stroke-linejoin="round"/>
<path d="M77.8424 254.045C77.8424 254.045 79.3607 242.93 79.063 235.182C79.063 235.182 78.7653 247.191 74.032 253.896L77.8424 254.045Z" fill="#333333"/>
</svg>
