<svg width="375" height="298" viewBox="0 0 375 298" fill="none" xmlns="http://www.w3.org/2000/svg">
<path d="M230.486 234.645L230.694 217.987" stroke="#333333" stroke-miterlimit="10" stroke-linecap="round" stroke-linejoin="round"/>
<path d="M201.446 234.645L206.012 217.987" stroke="#333333" stroke-miterlimit="10" stroke-linecap="round" stroke-linejoin="round"/>
<path d="M54.0055 93.8104C54.0055 93.8104 62.5415 89.698 61.6163 85.8836C60.691 82.0692 54.1846 89.9364 53.8563 93.2144C53.8563 93.2144 52.7818 80.8474 48.0363 82.9632C43.3206 85.079 51.379 93.7806 51.379 93.7806C51.379 93.7806 39.7987 89.6682 38.1274 93.0058C36.456 96.403 50.6329 97.148 54.0055 93.8104Z" fill="#FFB000"/>
<path d="M99.8492 227.463C86.3289 233.006 64.4517 206.007 51.7372 168.936C39.0227 131.865 29.472 102.333 53.8563 93.2442C71.4954 86.6584 89.2538 114.7 101.968 151.771C114.683 188.843 123.666 217.689 99.8492 227.463Z" fill="#469F62"/>
<path d="M65.1381 95.1216C68.8092 99.234 71.4954 103.823 73.7935 108.561C75.9126 112.912 77.763 117.412 79.524 121.912C82.1504 128.706 85.2544 135.352 88.3584 141.937C94.656 155.258 101.222 168.549 104.535 182.942C105.998 189.26 106.893 195.786 107.639 202.312C108.355 208.511 108.684 214.769 108.296 221.205C108.266 221.474 108.236 221.772 108.206 222.04C120.98 209.166 112.832 183.479 101.968 151.771C91.4326 121.018 77.4049 96.4924 62.84 92.7972C63.6458 93.5422 64.4218 94.317 65.1381 95.1216Z" fill="#398E51"/>
<path d="M97.6102 227.702C95.1031 214.56 91.6111 201.716 87.4625 189.111C85.3732 182.793 83.1348 176.535 80.7769 170.307C78.5385 164.407 75.9717 158.596 73.7631 152.665C69.9428 142.504 67.1372 131.954 62.8991 121.942C59.1982 113.121 54.5422 104.24 46.4538 97.446C41.9172 101.231 39.6489 106.446 38.9923 112.793C41.6188 119.319 44.2751 125.816 47.8268 131.954C50.6025 136.722 53.8855 141.282 56.6314 146.08C59.3772 150.907 61.8843 155.854 64.1825 160.89C68.8982 171.171 72.5095 181.78 75.4942 192.627C78.3892 203.176 81.1052 213.815 85.4628 223.887C89.8203 227.076 93.9988 228.596 97.6699 228.03C97.64 227.94 97.64 227.821 97.6102 227.702Z" fill="#398E51"/>
<path d="M95.4618 134.905C95.4618 134.905 93.6412 146.467 93.0145 154.066C92.4175 161.665 87.8212 168.668 86.2991 174.747C84.7769 180.826 83.8517 184.194 83.8517 184.194L100.625 183.598L97.2824 138.242L95.4618 134.905Z" fill="#333333"/>
<path d="M363.898 220.49C363.898 220.49 345.99 221.325 340.021 208.63" stroke="#333333" stroke-miterlimit="10" stroke-linecap="round" stroke-linejoin="round"/>
<path d="M363.361 219.06L361.779 220.431L363.271 221.891" stroke="#333333" stroke-miterlimit="10" stroke-linecap="round" stroke-linejoin="round"/>
<path d="M31 203C31 203 34.0443 220.642 47.7735 223.681" stroke="#333333" stroke-miterlimit="10" stroke-linecap="round" stroke-linejoin="round"/>
<path d="M307.31 140.745C307.31 140.745 321.546 133.742 321.487 118.664C321.427 103.585 316.711 100.962 316.711 100.962C316.711 100.962 300.982 112.495 298.744 124.802C296.506 137.11 305.638 141.937 307.31 140.745Z" fill="#851DBC"/>
<path d="M316.771 101.231L304.743 140.686" stroke="white" stroke-miterlimit="10" stroke-linecap="round" stroke-linejoin="round"/>
<path d="M306.594 110.677L310.981 119.766L321.069 113.27" stroke="white" stroke-miterlimit="10" stroke-linecap="round" stroke-linejoin="round"/>
<path d="M302.266 116.25L308.175 129.213" stroke="white" stroke-miterlimit="10" stroke-linecap="round" stroke-linejoin="round"/>
<path d="M300.445 119.021L307.011 132.938" stroke="white" stroke-miterlimit="10" stroke-linecap="round" stroke-linejoin="round"/>
<path d="M309.339 125.518L321.457 118.664" stroke="white" stroke-miterlimit="10" stroke-linecap="round" stroke-linejoin="round"/>
<path d="M68.8391 192.657C68.8391 192.657 66.3917 165.897 42.4551 156.808C18.5185 147.748 11.5046 153.589 11.5046 153.589C11.5046 153.589 20.2197 185.475 38.3662 196.501C56.5126 207.527 69.7345 196.024 68.8391 192.657Z" fill="#6AAF3F"/>
<path d="M11.9523 153.619L67.1975 196.68" stroke="white" stroke-width="0.5" stroke-miterlimit="10" stroke-linecap="round" stroke-linejoin="round"/>
<path d="M20.757 175.462L37.829 174.062L33.6803 154.155" stroke="white" stroke-width="0.5" stroke-miterlimit="10" stroke-linecap="round" stroke-linejoin="round"/>
<path d="M26.9351 185.684L51.0806 184.224" stroke="white" stroke-width="0.5" stroke-miterlimit="10" stroke-linecap="round" stroke-linejoin="round"/>
<path d="M30.2181 190.303L56.2738 188.366" stroke="white" stroke-width="0.5" stroke-miterlimit="10" stroke-linecap="round" stroke-linejoin="round"/>
<path d="M45.9471 180.171L42.4551 156.808" stroke="white" stroke-width="0.5" stroke-miterlimit="10" stroke-linecap="round" stroke-linejoin="round"/>
<path d="M133.038 216.765C133.038 216.765 160.377 224.603 182.583 192.627C207.743 156.39 138.858 79.0892 111.818 98.8466C84.777 118.604 116.414 208.093 133.038 216.765Z" fill="#6AAF3F"/>
<path d="M115.28 97.2672C115.28 97.2672 99.2225 100.962 96.8348 132.044C94.4471 163.125 97.8198 183.419 107.908 201.239C119.578 221.891 158.199 226.182 175.42 190.78C192.641 155.377 144.499 89.0126 115.28 97.2672Z" fill="#A8E580"/>
<path d="M132.412 176.982C141.659 176.982 149.155 169.497 149.155 160.264C149.155 151.031 141.659 143.547 132.412 143.547C123.164 143.547 115.668 151.031 115.668 160.264C115.668 169.497 123.164 176.982 132.412 176.982Z" fill="#996A3C"/>
<path d="M131.068 143.606C133.904 144.709 136.5 146.556 138.44 149.179C143.962 156.569 142.44 167.059 135.038 172.572C132.411 174.539 129.397 175.582 126.383 175.82C131.576 177.817 137.635 177.221 142.44 173.645C149.842 168.132 151.364 157.642 145.842 150.252C142.261 145.454 136.62 143.159 131.068 143.606Z" fill="#87582E"/>
<path d="M318.263 223.47C318.263 223.47 304.534 223.768 292.655 230.473L288.089 237.476L276.807 237.774L284.746 218.911L280.478 193.342L287.791 194.564L290.238 212.534L299.072 198.23L306.385 206.752L299.371 219.239L316.741 217.123L318.263 223.47Z" fill="#8CCE61"/>
<path d="M224.845 224.275C258.488 224.275 285.761 197.044 285.761 163.453C285.761 129.862 258.488 102.631 224.845 102.631C191.202 102.631 163.929 129.862 163.929 163.453C163.929 197.044 191.202 224.275 224.845 224.275Z" fill="#A8E580"/>
<path d="M280.09 125.756C280.09 125.756 270.957 115.266 269.346 111.363C267.734 107.459 264.54 104.3 262.033 106.803C259.526 109.306 254.482 115.028 248.99 117.531C243.499 120.034 240.544 119.14 237.559 126.441C234.575 133.742 235.948 142.206 230.934 150.877C225.89 159.549 217.891 167.983 219.502 176.893C221.114 185.803 221.801 195.16 218.577 197.902C215.384 200.643 222.248 218.225 222.248 218.225C222.248 218.225 261.586 225.288 276.419 193.104C291.253 160.92 280.09 125.756 280.09 125.756Z" fill="#8CCE61"/>
<path d="M285.761 163.453C285.761 160.711 285.552 158.029 285.224 155.377C282.896 155.109 280.538 154.96 278.12 154.96C244.484 154.96 217.204 182.197 217.204 215.782C217.204 218.523 217.413 221.205 217.742 223.858C220.07 224.126 222.427 224.275 224.845 224.275C258.482 224.275 285.761 197.038 285.761 163.453Z" fill="#99D871"/>
<path d="M164.466 155.526C164.138 158.119 163.929 160.771 163.929 163.453C163.929 194.266 186.91 219.715 216.667 223.709C216.995 221.116 217.204 218.464 217.204 215.782C217.204 184.969 194.223 159.519 164.466 155.526Z" fill="#99D871"/>
<path d="M235.53 171.976C235.53 171.976 230.008 127.216 174.673 128.378" stroke="#6AAF3F" stroke-miterlimit="10" stroke-linecap="round" stroke-linejoin="round"/>
<path d="M238.455 103.942C238.455 103.942 226.815 110.051 220.696 142.891" stroke="#6AAF3F" stroke-width="0.5" stroke-miterlimit="10" stroke-linecap="round" stroke-linejoin="round"/>
<path d="M285.224 155.377C285.224 155.377 214.727 152.248 219.831 222.099" stroke="#6AAF3F" stroke-width="0.5" stroke-miterlimit="10" stroke-linecap="round" stroke-linejoin="round"/>
<path d="M164.466 155.526C164.466 155.526 219.831 161.874 220.428 222.844" stroke="#6AAF3F" stroke-width="0.5" stroke-miterlimit="10" stroke-linecap="round" stroke-linejoin="round"/>
<path d="M201.446 219.358C201.446 219.358 203.744 216.378 208.519 215.484C213.324 214.56 214.906 213.189 218.13 210.924C221.323 208.63 223.621 207.944 228.188 208.183C232.754 208.421 232.993 203.832 243.499 206.812C254.005 209.792 258.123 212.742 258.123 212.742C258.123 212.742 246.692 225.526 227.024 224.841C207.385 224.126 201.446 219.358 201.446 219.358Z" fill="#6AAF3F"/>
<path d="M351.87 182.257C355.482 180.946 358.048 177.519 358.048 173.466C358.048 169.145 355.123 165.509 351.124 164.436C354.258 161.397 356.198 157.165 356.198 152.457C356.198 143.249 348.736 135.799 339.514 135.799C335.544 135.799 331.873 137.199 329.008 139.524C327.844 132.759 321.934 127.604 314.831 127.604C312.205 127.604 309.727 128.319 307.608 129.541C303.221 123.64 296.237 119.826 288.328 119.826C275.076 119.826 264.331 130.554 264.331 143.785C264.331 145.096 264.451 146.407 264.66 147.659C264.54 147.659 264.451 147.659 264.331 147.659C258.004 147.659 252.9 152.755 252.9 159.072C252.9 164.943 257.318 169.771 263.018 170.396C259.884 173.496 257.914 177.817 257.914 182.585C257.914 192.031 265.525 195.756 274.986 195.756C278.807 195.756 283.105 194.207 285.97 192.091C288.238 194.952 293.014 197.574 296.953 197.574C297.849 197.574 296.714 200.971 297.55 200.792C297.371 201.537 297.252 202.312 297.252 203.117C297.252 208.272 302.743 207.915 307.907 207.915C309.847 207.915 311.279 206.782 312.772 205.799C311.638 207.587 308.205 211.431 308.205 213.726C308.205 220.043 310.862 227.523 321.457 228.477C325.307 228.834 328.739 226.569 330.799 223.619C332.142 224.394 333.724 224.811 335.395 224.811C340.379 224.811 344.438 220.937 344.737 216.05C345.334 216.11 345.961 216.139 346.587 216.139C356.198 216.139 363.958 208.362 363.958 198.796C363.988 191.048 358.884 184.492 351.87 182.257Z" fill="#74E27F"/>
<path d="M347.632 181.273C351.064 180.022 353.512 176.744 353.512 172.9C353.512 168.787 350.736 165.33 346.946 164.317C349.93 161.427 351.781 157.404 351.781 152.934C351.781 144.172 344.677 137.08 335.902 137.08C332.112 137.08 328.65 138.391 325.934 140.596C324.829 134.16 319.218 129.243 312.443 129.243C309.936 129.243 307.578 129.928 305.579 131.09C301.43 125.488 294.745 121.852 287.253 121.852C274.658 121.852 264.421 132.044 264.421 144.649C264.421 145.901 264.54 147.152 264.719 148.344C264.63 148.344 264.51 148.344 264.421 148.344C258.422 148.344 253.557 153.202 253.557 159.192C253.557 164.764 257.765 169.353 263.167 169.979C260.183 172.929 258.332 177.012 258.332 181.542C258.332 190.541 265.615 197.812 274.628 197.812C278.24 197.812 281.612 196.62 284.298 194.624C286.447 197.365 289.79 199.094 293.521 199.094C294.357 199.094 295.192 199.004 295.968 198.826C295.789 199.541 295.7 200.286 295.7 201.031C295.7 205.948 299.699 209.941 304.624 209.941C306.474 209.941 308.175 209.375 309.608 208.421C308.534 210.12 307.877 212.116 307.877 214.292C307.877 220.282 312.742 225.139 318.741 225.139C322.412 225.139 325.665 223.321 327.635 220.52C328.918 221.235 330.411 221.652 331.993 221.652C336.738 221.652 340.588 217.957 340.887 213.308C341.454 213.368 342.051 213.398 342.648 213.398C351.781 213.398 359.153 206.007 359.153 196.918C359.153 189.617 354.317 183.389 347.632 181.273Z" fill="#469F62"/>
<path d="M329.187 201.359C328.859 202.014 328.769 202.789 328.978 203.594C329.306 202.849 329.396 202.074 329.187 201.359Z" fill="#469F62"/>
<path d="M205.624 227.136H157.034C151.393 227.136 146.827 222.576 146.827 216.944V103.108C146.827 97.4758 151.393 92.9164 157.034 92.9164H205.654C211.295 92.9164 215.861 97.4758 215.861 103.108V216.944C215.861 222.576 211.265 227.136 205.624 227.136Z" fill="#333333"/>
<path d="M206.848 223.887H155.721C152.349 223.887 149.603 221.146 149.603 217.778V102.154C149.603 98.787 152.349 96.0454 155.721 96.0454H206.878C210.25 96.0454 212.996 98.787 212.996 102.154V217.778C212.996 221.146 210.25 223.887 206.848 223.887Z" fill="white"/>
<path d="M183.21 110.916H179.747C178.583 110.916 177.628 109.962 177.628 108.8V105.343C177.628 104.181 178.583 103.227 179.747 103.227H183.21C184.374 103.227 185.329 104.181 185.329 105.343V108.8C185.329 109.962 184.374 110.916 183.21 110.916Z" fill="#6AAF3F"/>
<path d="M181.449 105.164V109.038" stroke="white" stroke-width="2" stroke-miterlimit="10" stroke-linecap="round" stroke-linejoin="round"/>
<path d="M183.389 107.101H179.509" stroke="white" stroke-width="2" stroke-miterlimit="10" stroke-linecap="round" stroke-linejoin="round"/>
<path d="M155.9 103.883H164.287" stroke="#333333" stroke-width="0.7" stroke-miterlimit="10" stroke-linecap="round" stroke-linejoin="round"/>
<path d="M155.9 105.85H164.287" stroke="#333333" stroke-width="0.7" stroke-miterlimit="10" stroke-linecap="round" stroke-linejoin="round"/>
<path d="M155.9 107.816H164.287" stroke="#333333" stroke-width="0.7" stroke-miterlimit="10" stroke-linecap="round" stroke-linejoin="round"/>
<path d="M155.9 109.783H164.287" stroke="#333333" stroke-width="0.7" stroke-miterlimit="10" stroke-linecap="round" stroke-linejoin="round"/>
<path d="M181.538 100.575C182.395 100.575 183.09 99.8812 183.09 99.0254C183.09 98.1696 182.395 97.4758 181.538 97.4758C180.681 97.4758 179.986 98.1696 179.986 99.0254C179.986 99.8812 180.681 100.575 181.538 100.575Z" fill="#333333"/>
<path d="M206.698 108.472C206.161 108.025 205.684 107.369 205.684 105.73C205.684 104.777 204.908 104.032 203.982 104.032C203.027 104.032 202.281 104.807 202.281 105.73C202.281 107.34 201.774 107.995 201.266 108.472C201.117 108.591 201.028 108.8 201.028 108.979C201.028 109.098 201.117 109.157 201.207 109.157H203.057C203.147 109.575 203.535 109.902 203.982 109.902C204.43 109.902 204.818 109.575 204.908 109.157H206.758C206.877 109.157 206.937 109.068 206.937 108.979C206.937 108.77 206.848 108.591 206.698 108.472ZM203.982 109.545C203.744 109.545 203.535 109.396 203.445 109.187H204.49C204.43 109.396 204.221 109.545 203.982 109.545ZM201.475 108.77C201.475 108.77 201.505 108.77 201.475 108.77C202.311 108.055 202.669 107.131 202.669 105.73C202.669 105.015 203.266 104.419 203.982 104.419C204.699 104.419 205.296 105.015 205.296 105.73C205.296 107.161 205.654 108.055 206.46 108.74C206.46 108.74 206.489 108.74 206.489 108.77H201.475Z" fill="#333333"/>
<path d="M87.0153 257.174C110.076 257.174 128.77 238.509 128.77 215.484C128.77 192.459 110.076 173.794 87.0153 173.794C63.9547 173.794 45.2605 192.459 45.2605 215.484C45.2605 238.509 63.9547 257.174 87.0153 257.174Z" fill="#F94848"/>
<path d="M68.0332 209.613C68.6596 209.613 69.1674 209.106 69.1674 208.481C69.1674 207.855 68.6596 207.348 68.0332 207.348C67.4068 207.348 66.899 207.855 66.899 208.481C66.899 209.106 67.4068 209.613 68.0332 209.613Z" fill="black"/>
<path d="M91.5221 209.136C92.1485 209.136 92.6562 208.629 92.6562 208.004C92.6562 207.379 92.1485 206.872 91.5221 206.872C90.8957 206.872 90.3879 207.379 90.3879 208.004C90.3879 208.629 90.8957 209.136 91.5221 209.136Z" fill="black"/>
<path d="M67.3648 202.443C68.7409 202.18 69.7707 201.521 69.6652 200.971C69.5596 200.422 68.3585 200.19 66.9825 200.453C65.6065 200.717 64.5766 201.376 64.6822 201.926C64.7877 202.475 65.9888 202.707 67.3648 202.443Z" fill="black"/>
<path d="M95.4003 202.878C95.6432 202.373 94.8166 201.473 93.5539 200.866C92.2912 200.26 91.0707 200.177 90.8277 200.682C90.5848 201.186 91.4114 202.086 92.6741 202.693C93.9368 203.299 95.1573 203.382 95.4003 202.878Z" fill="black"/>
<path d="M84.8067 215.186C83.5233 216.527 81.6132 217.272 79.6135 217.004C77.6138 216.735 75.9722 215.543 75.047 213.904" stroke="black" stroke-miterlimit="10" stroke-linecap="round" stroke-linejoin="round"/>
<path d="M119.219 172.423C119.219 172.423 106.117 177.876 96.2377 176.148C96.2675 176.148 103.789 170.128 119.219 172.423Z" fill="#6AAF3F"/>
<path d="M110.236 157.582C110.236 157.582 104.565 170.575 96.2377 176.148C96.2675 176.178 97.5211 166.612 110.236 157.582Z" fill="#6AAF3F"/>
<path d="M75.5244 166.731C75.5244 166.731 86.8063 175.343 96.7749 176.207C96.7749 176.207 91.0146 168.459 75.5244 166.731Z" fill="#6AAF3F"/>
<path d="M88.0002 154.692C88.0002 154.692 90.1492 168.698 96.775 176.237C96.775 176.237 97.9987 166.671 88.0002 154.692Z" fill="#6AAF3F"/>
<path d="M308.295 240.337L268.39 181.601L234.127 193.938L248.006 240.188L308.295 240.337Z" fill="#AAC7FF"/>
<path d="M219.502 156.361L213.115 152.487C213.115 152.487 204.191 140.626 201.237 142.682C198.282 144.739 205.117 161.158 206.49 163.691C207.862 166.224 219.294 180.797 222.487 183.091C225.681 185.386 231.411 187.889 231.411 187.889L234.157 193.819L268.301 181.542L263.227 175.045C262.272 173.734 261.615 172.214 261.347 170.635C259.974 162.887 255.915 138.987 253.617 136.305C250.871 133.117 246.752 133.802 245.379 135.381C245.379 135.381 243.558 129.004 238.514 128.766C233.47 128.527 233.023 131.507 233.023 131.507C233.023 131.507 231.889 126.471 225.024 127.157C225.024 127.157 221.83 121.822 219.234 119.558C216.637 117.293 207.027 107.846 204.132 108.144C201.237 108.442 202.162 113.627 204.132 116.965C206.102 120.303 215.712 137.199 215.712 137.199L219.502 156.361Z" fill="#FFAF9C"/>
<path d="M204.818 108.651C205.982 109.366 207.057 110.2 208.131 111.035C208.967 111.69 209.773 112.376 210.608 113.002C210.966 113.27 211.384 113.508 211.742 113.776C212.19 114.074 212.638 114.402 213.056 114.73C213.921 115.386 214.757 116.101 215.563 116.816C216.369 117.531 217.174 118.306 217.921 119.081C218.309 119.468 218.667 119.856 219.025 120.243C219.323 120.541 219.562 120.869 219.771 121.197C220.607 122.448 221.293 123.789 222.278 124.922C222.696 125.398 223.203 125.875 223.8 126.114C224.039 126.203 224.248 126.263 224.487 126.292C223.472 124.713 221.174 121.226 219.204 119.498C216.607 117.203 206.997 107.787 204.102 108.085C204.012 108.085 203.953 108.114 203.863 108.114C204.191 108.293 204.52 108.472 204.818 108.651Z" fill="#FFC2B6"/>
<path d="M139.336 245.671C139.336 245.671 157.93 248.711 168.286 234.109C178.643 219.507 175.897 213.726 175.897 213.726C175.897 213.726 152.737 214.024 142.052 224.364C131.426 234.705 136.888 245.671 139.336 245.671Z" fill="#851DBC"/>
<path d="M239.29 129.094C240.783 129.421 242.036 130.315 243.051 131.418C243.29 131.686 243.529 131.984 243.767 132.282C243.917 132.491 244.006 132.699 244.126 132.938C244.245 133.206 244.364 133.474 244.514 133.742C244.603 133.891 244.752 134.13 244.931 134.219C244.126 132.372 242.186 128.915 238.514 128.736C236.843 128.647 235.679 128.945 234.873 129.332C236.306 129.064 237.798 128.766 239.29 129.094Z" fill="#FFC2B6"/>
<path d="M201.565 142.653C202.281 142.623 202.968 142.921 203.535 143.338C204.729 144.143 205.654 145.305 206.728 146.229C208.071 147.361 209.235 148.672 210.459 149.924C211.086 150.55 211.683 151.175 212.339 151.771C212.548 151.95 212.757 152.129 212.966 152.308C211.892 150.907 203.982 140.745 201.207 142.653C201.177 142.682 201.147 142.712 201.117 142.712C201.266 142.682 201.416 142.653 201.565 142.653Z" fill="#FFC2B6"/>
<path d="M214.369 153.381C214.996 153.828 215.622 154.304 216.309 154.692C216.786 154.96 217.324 155.228 217.861 155.347L213.384 152.636C213.712 152.904 214.041 153.142 214.369 153.381Z" fill="#FFAF9C"/>
<path d="M250.244 134.607C251.438 135.054 252.423 135.948 253.079 137.05C253.467 137.736 253.796 138.451 254.124 139.196C254.452 139.941 254.751 140.686 255.049 141.431C255.646 142.98 256.154 144.56 256.601 146.139C256.989 147.45 257.317 148.762 257.616 150.073C256.153 143.398 254.631 137.557 253.587 136.305C251.468 133.832 248.543 133.683 246.692 134.487C247.856 134.16 249.11 134.16 250.244 134.607Z" fill="#FFC2B6"/>
<path d="M143.305 205.262L146.797 202.074V191.733C146.797 191.733 151.841 182.287 144.827 169.681C144.827 169.681 159.004 158.268 157.781 154.453C156.557 150.639 146.588 156.539 146.588 156.539L146.618 128.051C146.618 128.051 131.725 145.782 129.576 155.973C127.457 166.165 121.637 187.025 121.637 187.025L111.131 202.7L143.305 205.262Z" fill="#FFAF9C"/>
<path d="M111.31 202.759L82.031 241.112L142.38 241.708L143.454 205.352L111.31 202.759Z" fill="#AAC7FF"/>
<path d="M301.132 171.439C302.022 171.439 302.743 170.719 302.743 169.83C302.743 168.941 302.022 168.221 301.132 168.221C300.241 168.221 299.52 168.941 299.52 169.83C299.52 170.719 300.241 171.439 301.132 171.439Z" fill="#333333"/>
<path d="M111.161 131.239C112.051 131.239 112.773 130.519 112.773 129.63C112.773 128.741 112.051 128.021 111.161 128.021C110.271 128.021 109.549 128.741 109.549 129.63C109.549 130.519 110.271 131.239 111.161 131.239Z" fill="#333333"/>
<path d="M125.308 127.157C126.198 127.157 126.92 126.436 126.92 125.547C126.92 124.659 126.198 123.938 125.308 123.938C124.418 123.938 123.696 124.659 123.696 125.547C123.696 126.436 124.418 127.157 125.308 127.157Z" fill="#333333"/>
<path d="M323.516 184.671C324.406 184.671 325.128 183.95 325.128 183.061C325.128 182.173 324.406 181.452 323.516 181.452C322.626 181.452 321.905 182.173 321.905 183.061C321.905 183.95 322.626 184.671 323.516 184.671Z" fill="#333333"/>
<path d="M308.937 163.59C309.11 162.853 307.051 161.742 304.339 161.108C301.626 160.475 299.287 160.559 299.115 161.296C298.942 162.033 301.001 163.144 303.713 163.778C306.426 164.411 308.765 164.327 308.937 163.59Z" fill="#333333"/>
<path d="M311.1 163.513L310.354 165.181" stroke="#333333" stroke-miterlimit="10" stroke-linecap="round" stroke-linejoin="round"/>
<path d="M331.834 178.727C332.348 178.17 331.104 176.191 329.056 174.306C327.007 172.421 324.93 171.344 324.417 171.901C323.903 172.457 325.147 174.437 327.195 176.322C329.243 178.207 331.32 179.283 331.834 178.727Z" fill="#333333"/>
<path d="M57.378 132.163C58.1033 132.163 58.6913 131.576 58.6913 130.852C58.6913 130.128 58.1033 129.541 57.378 129.541C56.6528 129.541 56.0648 130.128 56.0648 130.852C56.0648 131.576 56.6528 132.163 57.378 132.163Z" fill="#333333"/>
<path d="M77.4347 124.981C78.16 124.981 78.7479 124.394 78.7479 123.67C78.7479 122.946 78.16 122.359 77.4347 122.359C76.7094 122.359 76.1215 122.946 76.1215 123.67C76.1215 124.394 76.7094 124.981 77.4347 124.981Z" fill="#333333"/>
<path d="M54.9145 126.057C56.7263 124.684 57.8881 123.167 57.5094 122.669C57.1306 122.17 55.3549 122.88 53.543 124.253C51.7312 125.626 50.5695 127.143 50.9482 127.641C51.3269 128.139 53.1026 127.43 54.9145 126.057Z" fill="#333333"/>
<path d="M202.52 144.143H185.687C185.478 144.143 185.299 143.964 185.299 143.755C185.299 143.547 185.478 143.368 185.687 143.368H202.52C202.729 143.368 202.908 143.547 202.908 143.755C202.908 143.964 202.729 144.143 202.52 144.143Z" fill="#BCBCBC"/>
<path d="M181.269 144.143H174.554C174.345 144.143 174.166 143.964 174.166 143.755C174.166 143.547 174.345 143.368 174.554 143.368H181.269C181.478 143.368 181.657 143.547 181.657 143.755C181.657 143.964 181.478 144.143 181.269 144.143Z" fill="#BCBCBC"/>
<path d="M186.373 148.046H174.554C174.345 148.046 174.166 147.868 174.166 147.659C174.166 147.45 174.345 147.272 174.554 147.272H186.373C186.582 147.272 186.761 147.45 186.761 147.659C186.731 147.868 186.582 148.046 186.373 148.046Z" fill="#BCBCBC"/>
<path d="M75.1077 117.822C77.362 117.518 79.1214 116.769 79.0376 116.149C78.9537 115.529 77.0583 115.273 74.804 115.577C72.5497 115.881 70.7903 116.63 70.8742 117.25C70.958 117.87 72.8535 118.126 75.1077 117.822Z" fill="#333333"/>
<path d="M322.382 171.38L323.516 169.949" stroke="#333333" stroke-miterlimit="10" stroke-linecap="round" stroke-linejoin="round"/>
<path d="M306.176 178.472C306.176 178.472 307.638 184.194 312.921 182.287" stroke="#333333" stroke-miterlimit="10" stroke-linecap="round" stroke-linejoin="round"/>
<path d="M188.582 140.835H174.584C174.375 140.835 174.196 140.656 174.196 140.447C174.196 140.239 174.375 140.06 174.584 140.06H188.582C188.791 140.06 188.97 140.239 188.97 140.447C188.94 140.686 188.791 140.835 188.582 140.835Z" fill="#BCBCBC"/>
<path d="M123.01 132.461C121.637 134.338 119.637 134.398 118.234 134.1C117.637 133.981 117.578 133.146 118.145 132.938L122.323 131.507C122.89 131.329 123.368 131.984 123.01 132.461Z" fill="#333333"/>
<path d="M197.774 140.835H193.566C193.357 140.835 193.178 140.656 193.178 140.447C193.178 140.239 193.357 140.06 193.566 140.06H197.774C197.983 140.06 198.162 140.239 198.162 140.447C198.162 140.686 198.013 140.835 197.774 140.835Z" fill="#BCBCBC"/>
<path d="M193.775 147.987H189.567C189.358 147.987 189.179 147.808 189.179 147.599C189.179 147.391 189.358 147.212 189.567 147.212H193.775C193.984 147.212 194.163 147.391 194.163 147.599C194.163 147.838 193.984 147.987 193.775 147.987Z" fill="#BCBCBC"/>
<path d="M204.593 150.591C205.619 150.184 205.78 148.168 204.952 146.088C204.123 144.008 202.62 142.652 201.594 143.059C200.567 143.466 200.407 145.483 201.235 147.563C202.063 149.643 203.566 150.999 204.593 150.591Z" fill="#FFCEC7"/>
<path d="M154.775 157.909C156.717 156.79 157.843 155.109 157.291 154.154C156.738 153.199 154.717 153.332 152.776 154.451C150.834 155.57 149.708 157.252 150.26 158.207C150.813 159.161 152.834 159.028 154.775 157.909Z" fill="#FFCEC7"/>
<path d="M208.552 115.1C209.447 114.454 209.107 112.46 207.793 110.646C206.479 108.833 204.688 107.887 203.794 108.533C202.899 109.18 203.239 111.174 204.553 112.987C205.867 114.801 207.658 115.747 208.552 115.1Z" fill="#FFCEC7"/>
<path d="M202.609 140.835H200.102C199.893 140.835 199.714 140.656 199.714 140.447C199.714 140.239 199.893 140.06 200.102 140.06H202.609C202.818 140.06 202.997 140.239 202.997 140.447C202.997 140.686 202.818 140.835 202.609 140.835Z" fill="#BCBCBC"/>
<path d="M199.923 147.957H197.416C197.207 147.957 197.028 147.778 197.028 147.57C197.028 147.361 197.207 147.182 197.416 147.182H199.923C200.132 147.182 200.311 147.361 200.311 147.57C200.311 147.778 200.132 147.957 199.923 147.957Z" fill="#BCBCBC"/>
<path d="M143.454 205.352L111.31 202.67L113.937 198.706L143.454 205.352Z" fill="#333333"/>
<path d="M234.127 193.789L268.181 181.601L232.665 190.333L234.127 193.789Z" fill="#333333"/>
<path d="M130.203 172.095C130.203 172.095 130.979 164.407 133.486 162.827C135.993 161.248 149.274 155.139 149.274 155.139" stroke="#333333" stroke-width="0.5" stroke-miterlimit="10"/>
<path d="M228.337 138.689C228.337 138.689 227.233 129.6 223.144 124.087" stroke="#333333" stroke-width="0.5" stroke-miterlimit="10" stroke-linecap="round" stroke-linejoin="round"/>
<path d="M236.843 140.626C236.843 140.626 235.381 132.908 231.113 128.647" stroke="#333333" stroke-width="0.5" stroke-miterlimit="10" stroke-linecap="round" stroke-linejoin="round"/>
<path d="M246.334 140.984C246.334 140.984 246.334 136.514 243.767 132.282" stroke="#333333" stroke-width="0.5" stroke-miterlimit="10" stroke-linecap="round" stroke-linejoin="round"/>
<path d="M87.3735 241.261L106.565 213.636" stroke="#5097FF" stroke-miterlimit="10" stroke-linecap="round" stroke-linejoin="round"/>
<path d="M140.41 215.245L137.963 241.41" stroke="#5097FF" stroke-miterlimit="10" stroke-linecap="round" stroke-linejoin="round"/>
<path d="M134.322 214.769L129.427 242.334" stroke="#5097FF" stroke-miterlimit="10" stroke-linecap="round" stroke-linejoin="round"/>
<path d="M127.457 214.024L120.443 243.228" stroke="#5097FF" stroke-miterlimit="10" stroke-linecap="round" stroke-linejoin="round"/>
<path d="M120.891 213.577L113.28 242.483" stroke="#5097FF" stroke-miterlimit="10" stroke-linecap="round" stroke-linejoin="round"/>
<path d="M114.504 213.249L100.327 242.781" stroke="#5097FF" stroke-miterlimit="10" stroke-linecap="round" stroke-linejoin="round"/>
<path d="M239.619 201.537L253.945 241.41" stroke="#5097FF" stroke-miterlimit="10" stroke-linecap="round" stroke-linejoin="round"/>
<path d="M246.185 199.72L262.182 241.559" stroke="#5097FF" stroke-miterlimit="10" stroke-linecap="round" stroke-linejoin="round"/>
<path d="M255.019 197.753L271.166 241.112" stroke="#5097FF" stroke-miterlimit="10" stroke-linecap="round" stroke-linejoin="round"/>
<path d="M270 193L297.13 241.693" stroke="#5097FF" stroke-miterlimit="10" stroke-linecap="round" stroke-linejoin="round"/>
<path d="M261.735 195.458L284.119 240.963" stroke="#5097FF" stroke-miterlimit="10" stroke-linecap="round" stroke-linejoin="round"/>
<path d="M175.808 214.024L136.888 243.853" stroke="white" stroke-width="0.5" stroke-miterlimit="10" stroke-linecap="round" stroke-linejoin="round"/>
<path d="M159.452 216.139L157.393 227.94L171.659 228.626" stroke="white" stroke-width="0.5" stroke-miterlimit="10" stroke-linecap="round" stroke-linejoin="round"/>
<path d="M151.423 218.523L148.17 235.122" stroke="white" stroke-width="0.5" stroke-miterlimit="10" stroke-linecap="round" stroke-linejoin="round"/>
<path d="M147.722 219.954L144.469 237.923" stroke="white" stroke-width="0.5" stroke-miterlimit="10" stroke-linecap="round" stroke-linejoin="round"/>
<path d="M151.841 232.351L168.287 234.109" stroke="white" stroke-width="0.5" stroke-miterlimit="10" stroke-linecap="round" stroke-linejoin="round"/>
<path d="M32.6655 203.296L31.6507 205.113L29.8898 203.981" stroke="#333333" stroke-miterlimit="10" stroke-linecap="round" stroke-linejoin="round"/>
<path d="M161.422 152.308C165.625 152.308 169.033 148.906 169.033 144.709C169.033 140.512 165.625 137.11 161.422 137.11C157.218 137.11 153.811 140.512 153.811 144.709C153.811 148.906 157.218 152.308 161.422 152.308Z" fill="white"/>
<path d="M161.422 129.749C165.625 129.749 169.033 126.347 169.033 122.15C169.033 117.953 165.625 114.551 161.422 114.551C157.218 114.551 153.811 117.953 153.811 122.15C153.811 126.347 157.218 129.749 161.422 129.749Z" fill="white"/>
<path d="M161.422 175.552C165.625 175.552 169.033 172.15 169.033 167.953C169.033 163.756 165.625 160.354 161.422 160.354C157.218 160.354 153.811 163.756 153.811 167.953C153.811 172.15 157.218 175.552 161.422 175.552Z" fill="white"/>
<path d="M161.422 200.494C165.625 200.494 169.033 197.092 169.033 192.895C169.033 188.699 165.625 185.296 161.422 185.296C157.218 185.296 153.811 188.699 153.811 192.895C153.811 197.092 157.218 200.494 161.422 200.494Z" fill="white"/>
<path d="M157.691 145.007C157.691 144.441 158.169 143.964 158.736 143.964C159.303 143.964 159.78 144.441 159.78 145.007C159.78 145.573 159.303 146.05 158.736 146.05C158.169 146.05 157.691 145.603 157.691 145.007Z" fill="black"/>
<path d="M163.601 143.666C163.601 143.1 164.078 142.623 164.645 142.623C165.212 142.623 165.69 143.1 165.69 143.666C165.69 144.232 165.212 144.709 164.645 144.709C164.078 144.709 163.601 144.262 163.601 143.666Z" fill="black"/>
<path d="M162.914 149C162.914 149 165.332 147.331 164.466 144.977C163.571 142.623 161.332 141.163 158.974 143.129C158.974 143.129 156.855 146.467 160.526 149.268C160.497 149.238 161.959 149.864 162.914 149Z" fill="black"/>
<path d="M163.989 146.854C163.989 146.586 164.227 146.348 164.496 146.348C164.765 146.348 165.003 146.586 165.003 146.854C165.003 147.123 164.765 147.361 164.496 147.361C164.198 147.361 163.989 147.123 163.989 146.854Z" fill="black"/>
<path d="M163.063 147.659H159.959V151.354H163.063V147.659Z" fill="#FF886A"/>
<path d="M162.944 149.834L165.451 151.473C165.451 151.473 161.571 154.036 157.512 151.295L160.198 149.834H162.944Z" fill="#FCC8B8"/>
<path d="M158.557 147.987C158.557 147.421 159.004 146.974 159.571 146.974C160.138 146.974 160.586 147.421 160.586 147.987C160.586 148.553 160.138 149.03 159.571 149.03C159.004 149.03 158.557 148.553 158.557 147.987Z" fill="black"/>
<path d="M162.526 147.391C162.526 146.825 162.974 146.378 163.571 146.378C164.138 146.378 164.586 146.825 164.586 147.391C164.586 147.957 164.138 148.404 163.571 148.404C162.974 148.434 162.526 147.987 162.526 147.391Z" fill="black"/>
<path d="M162.735 148.553C162.735 148.285 162.974 148.046 163.243 148.046C163.511 148.046 163.75 148.285 163.75 148.553C163.75 148.821 163.511 149.06 163.243 149.06C162.944 149.06 162.735 148.821 162.735 148.553Z" fill="black"/>
<path d="M158.407 147.123C158.407 146.854 158.646 146.616 158.915 146.616C159.183 146.616 159.422 146.854 159.422 147.123C159.422 147.391 159.183 147.629 158.915 147.629C158.646 147.629 158.407 147.391 158.407 147.123Z" fill="black"/>
<path d="M163.063 147.659V148.285C162.526 148.642 162.556 148.94 162.287 149.149C161.303 149.864 160.467 149.894 159.959 149.834V147.659H163.063Z" fill="black"/>
<path d="M164.168 145.96C164.168 144.143 163.004 142.653 161.541 142.653C160.109 142.653 158.915 144.143 158.915 145.96C158.915 147.778 160.079 149.268 161.541 149.268C161.87 149.268 162.198 149.179 162.496 149.03C163.481 148.553 164.168 147.361 164.168 145.96Z" fill="#FF886A"/>
<path d="M161.631 147.45L161.213 147.421C161.183 147.421 161.153 147.391 161.153 147.391C161.094 147.093 161.273 145.633 161.303 145.573C161.303 145.543 161.332 145.513 161.362 145.513C161.392 145.513 161.422 145.543 161.422 145.573C161.422 145.573 161.243 146.944 161.273 147.331L161.631 147.361C161.661 147.361 161.691 147.391 161.691 147.421C161.691 147.45 161.661 147.45 161.631 147.45Z" fill="black"/>
<path d="M162.944 146.05C162.944 145.931 162.854 145.841 162.735 145.841C162.616 145.841 162.526 145.931 162.526 146.05C162.526 146.169 162.616 146.258 162.735 146.258C162.854 146.229 162.944 146.139 162.944 146.05Z" fill="black"/>
<path d="M160.556 146.05C160.556 145.931 160.467 145.841 160.347 145.841C160.228 145.841 160.139 145.931 160.139 146.05C160.139 146.169 160.228 146.258 160.347 146.258C160.467 146.258 160.556 146.169 160.556 146.05Z" fill="black"/>
<path d="M158.646 145.603C158.646 145.603 158.109 145.096 157.781 145.692C157.482 146.288 158.348 146.944 158.706 146.825C158.706 146.825 158.586 146.169 158.646 145.603Z" fill="#FF886A"/>
<path d="M158.467 146.02C158.437 146.02 158.437 146.02 158.407 145.99C158.407 145.99 158.318 145.811 158.169 145.782C158.109 145.752 158.049 145.782 157.96 145.841C157.93 145.871 157.9 145.841 157.9 145.841C157.87 145.811 157.9 145.782 157.9 145.782C157.99 145.722 158.079 145.692 158.198 145.722C158.378 145.782 158.497 145.99 158.497 145.99C158.527 145.96 158.527 145.99 158.467 146.02C158.497 146.02 158.467 146.02 158.467 146.02Z" fill="black"/>
<path d="M163.481 145.543C163.511 145.394 163.272 145.186 162.884 145.096C162.526 145.007 162.198 145.066 162.168 145.215C162.138 145.364 162.377 145.573 162.765 145.662C163.123 145.752 163.451 145.692 163.481 145.543Z" fill="black"/>
<path d="M159.452 145.513C159.422 145.364 159.661 145.156 160.019 145.066C160.377 144.977 160.706 145.037 160.735 145.186C160.765 145.335 160.527 145.543 160.168 145.633C159.81 145.722 159.512 145.662 159.452 145.513Z" fill="black"/>
<path d="M160.884 145.335C160.855 145.335 160.825 145.305 160.825 145.275L160.795 145.066C160.795 145.037 160.825 145.007 160.855 145.007C160.884 145.007 160.914 145.037 160.914 145.066L160.944 145.275C160.944 145.305 160.914 145.335 160.884 145.335Z" fill="black"/>
<path d="M162.019 145.305C161.989 145.305 161.959 145.275 161.959 145.245L161.989 145.037C161.989 145.007 162.019 144.977 162.048 144.977C162.078 144.977 162.108 145.007 162.108 145.037L162.078 145.245C162.048 145.275 162.048 145.305 162.019 145.305Z" fill="black"/>
<path d="M161.034 147.957C160.735 147.957 160.616 147.599 160.616 147.599C160.616 147.57 160.616 147.54 160.646 147.54C160.676 147.54 160.706 147.54 160.706 147.57C160.706 147.57 160.795 147.868 161.034 147.868C161.064 147.868 161.094 147.897 161.094 147.927C161.094 147.957 161.064 147.957 161.034 147.957Z" fill="black"/>
<path d="M163.69 144.798C163.69 144.351 164.048 143.964 164.526 143.964C164.974 143.964 165.362 144.321 165.362 144.798C165.362 145.245 165.003 145.633 164.526 145.633C164.048 145.633 163.69 145.245 163.69 144.798Z" fill="black"/>
<path d="M161.004 142.891C161.004 141.818 161.87 140.954 162.944 140.954C164.018 140.954 164.884 141.818 164.884 142.891C164.884 143.964 164.018 144.828 162.944 144.828C161.87 144.828 161.004 143.964 161.004 142.891Z" fill="black"/>
<path d="M159.333 142.831C159.333 142.265 159.81 141.788 160.377 141.788C160.944 141.788 161.422 142.265 161.422 142.831C161.422 143.398 160.944 143.874 160.377 143.874C159.81 143.874 159.333 143.398 159.333 142.831Z" fill="black"/>
<path d="M157.124 143.427C157.124 142.653 157.751 142.057 158.497 142.057C159.273 142.057 159.87 142.682 159.87 143.427C159.87 144.202 159.243 144.798 158.497 144.798C157.751 144.798 157.124 144.172 157.124 143.427Z" fill="black"/>
<path d="M158.348 144.947C158.348 144.679 158.586 144.441 158.855 144.441C159.124 144.441 159.362 144.679 159.362 144.947C159.362 145.215 159.124 145.454 158.855 145.454C158.586 145.454 158.348 145.215 158.348 144.947Z" fill="black"/>
<path d="M162.287 141.163C162.287 140.596 162.765 140.12 163.332 140.12C163.899 140.12 164.377 140.596 164.377 141.163C164.377 141.729 163.899 142.206 163.332 142.206C162.765 142.206 162.287 141.729 162.287 141.163Z" fill="black"/>
<path d="M161.899 140.388C161.899 140.09 162.138 139.881 162.407 139.881C162.705 139.881 162.914 140.12 162.914 140.388C162.914 140.686 162.675 140.894 162.407 140.894C162.138 140.894 161.899 140.656 161.899 140.388Z" fill="black"/>
<path d="M157.84 144.5C157.84 144.232 158.079 143.994 158.348 143.994C158.616 143.994 158.855 144.232 158.855 144.5C158.855 144.768 158.616 145.007 158.348 145.007C158.049 145.007 157.84 144.768 157.84 144.5Z" fill="black"/>
<path d="M160.676 140.984C160.676 140.507 161.064 140.12 161.541 140.12C162.019 140.12 162.407 140.507 162.407 140.984C162.407 141.461 162.019 141.848 161.541 141.848C161.064 141.848 160.676 141.461 160.676 140.984Z" fill="black"/>
<path d="M158.945 141.669C158.945 140.984 159.512 140.418 160.198 140.418C160.885 140.418 161.452 140.984 161.452 141.669C161.452 142.355 160.885 142.921 160.198 142.921C159.512 142.921 158.945 142.355 158.945 141.669Z" fill="black"/>
<path d="M158.019 142.355C158.019 141.848 158.437 141.431 158.945 141.431C159.452 141.431 159.87 141.848 159.87 142.355C159.87 142.861 159.452 143.278 158.945 143.278C158.437 143.278 158.019 142.861 158.019 142.355Z" fill="black"/>
<path d="M164.466 145.603C164.466 145.603 165.003 145.096 165.332 145.692C165.63 146.288 164.765 146.944 164.406 146.825C164.406 146.825 164.526 146.169 164.466 145.603Z" fill="#FF886A"/>
<path d="M164.645 146.02C164.586 145.99 164.586 145.96 164.586 145.931C164.586 145.931 164.705 145.692 164.884 145.662C164.974 145.633 165.063 145.662 165.182 145.722C165.212 145.752 165.212 145.782 165.182 145.782C165.153 145.811 165.123 145.811 165.123 145.782C165.063 145.722 165.003 145.722 164.914 145.722C164.794 145.752 164.705 145.901 164.675 145.931C164.675 145.99 164.675 146.02 164.645 146.02Z" fill="black"/>
<path d="M193.536 118.902H173.868C173.659 118.902 173.48 118.723 173.48 118.515V118.068C173.48 117.859 173.659 117.68 173.868 117.68H193.536C193.745 117.68 193.924 117.859 193.924 118.068V118.515C193.894 118.753 193.745 118.902 193.536 118.902Z" fill="#6AAF3F"/>
<path d="M183.627 122.478H173.868C173.659 122.478 173.48 122.299 173.48 122.091C173.48 121.882 173.659 121.703 173.868 121.703H183.627C183.836 121.703 184.015 121.882 184.015 122.091C184.015 122.329 183.836 122.478 183.627 122.478Z" fill="#BCBCBC"/>
<path d="M203.236 125.369H198.64V126.143H203.236V125.369Z" fill="#BCBCBC"/>
<path d="M195.834 125.369H173.48V126.143H195.834V125.369Z" fill="#BCBCBC"/>
<path d="M186.373 164.198H174.554C174.345 164.198 174.166 164.019 174.166 163.811C174.166 163.602 174.345 163.423 174.554 163.423H186.373C186.582 163.423 186.761 163.602 186.761 163.811C186.731 164.019 186.582 164.198 186.373 164.198Z" fill="#BCBCBC"/>
<path d="M195.237 174.419H183.418C183.209 174.419 183.03 174.241 183.03 174.032C183.03 173.823 183.209 173.645 183.418 173.645H195.237C195.446 173.645 195.625 173.823 195.625 174.032C195.625 174.27 195.446 174.419 195.237 174.419Z" fill="#BCBCBC"/>
<path d="M202.997 121.733H187.895V122.508H202.997V121.733Z" fill="#BCBCBC"/>
<path d="M194.372 169.86H174.554C174.345 169.86 174.166 169.681 174.166 169.473C174.166 169.264 174.345 169.085 174.554 169.085H194.372C194.581 169.085 194.76 169.264 194.76 169.473C194.76 169.681 194.581 169.86 194.372 169.86Z" fill="#BCBCBC"/>
<path d="M194.133 163.423H189.179V164.198H194.133V163.423Z" fill="#BCBCBC"/>
<path d="M178.882 174.419H174.674C174.465 174.419 174.286 174.241 174.286 174.032C174.286 173.823 174.465 173.645 174.674 173.645H178.882C179.091 173.645 179.27 173.823 179.27 174.032C179.27 174.27 179.091 174.419 178.882 174.419Z" fill="#BCBCBC"/>
<path d="M159.154 191.376C156.617 191.376 154.527 193.432 154.527 195.995C154.527 198.528 156.587 200.614 159.154 200.614C161.691 200.614 163.78 198.557 163.78 195.995C163.78 193.432 161.691 191.376 159.154 191.376ZM159.154 197.872C158.109 197.872 157.273 197.038 157.273 195.995C157.273 194.952 158.109 194.117 159.154 194.117C160.198 194.117 161.034 194.952 161.034 195.995C161.034 197.038 160.198 197.872 159.154 197.872Z" fill="#FF8A73"/>
<path d="M162.168 192.478C162.019 193.044 161.81 193.581 161.661 194.117C161.541 194.505 161.482 194.922 161.422 195.339C161.362 195.756 161.303 196.173 161.243 196.591C161.123 197.485 161.004 198.379 160.944 199.273C160.915 199.6 160.885 199.928 160.855 200.256C162.586 199.6 163.78 197.932 163.78 195.965C163.78 194.564 163.153 193.313 162.168 192.478Z" fill="#333333"/>
<path d="M156.258 196.948L155.9 197.574" stroke="white" stroke-miterlimit="10" stroke-linecap="round" stroke-linejoin="round"/>
<path d="M157.272 193.372L156.915 193.968" stroke="white" stroke-miterlimit="10" stroke-linecap="round" stroke-linejoin="round"/>
<path d="M160.645 198.915L160.288 199.511" stroke="white" stroke-miterlimit="10" stroke-linecap="round" stroke-linejoin="round"/>
<path d="M162.227 196.084L161.87 196.68" stroke="white" stroke-miterlimit="10" stroke-linecap="round" stroke-linejoin="round"/>
<path d="M160.914 193.432L160.556 194.028" stroke="white" stroke-miterlimit="10" stroke-linecap="round" stroke-linejoin="round"/>
<path d="M155.632 194.952L156.05 195.488" stroke="white" stroke-miterlimit="10" stroke-linecap="round" stroke-linejoin="round"/>
<path d="M157.303 198.528L157.721 199.094" stroke="white" stroke-miterlimit="10" stroke-linecap="round" stroke-linejoin="round"/>
<path d="M162.556 193.968L162.974 194.534" stroke="white" stroke-miterlimit="10" stroke-linecap="round" stroke-linejoin="round"/>
<path d="M159.004 191.882L159.422 192.419" stroke="white" stroke-miterlimit="10" stroke-linecap="round" stroke-linejoin="round"/>
<path d="M169.868 197.723C169.868 197.723 168.257 186.757 164.765 187.949C161.273 189.141 160.825 200.941 161.75 205.918C162.675 210.924 169.868 197.723 169.868 197.723Z" fill="#F2BD66"/>
<path d="M164.765 187.949C164.526 188.038 164.287 188.187 164.048 188.366C164.108 188.366 164.168 188.336 164.227 188.336C165.093 188.276 165.899 188.664 166.406 189.349C166.555 189.558 166.705 189.766 166.794 190.005C166.884 190.243 166.943 190.482 167.033 190.69C167.182 191.256 167.301 191.852 167.361 192.448C167.421 193.044 167.451 193.64 167.421 194.236C167.391 194.743 167.272 195.279 167.093 195.756C166.675 197.067 165.869 198.23 165.272 199.481C165.123 199.779 164.973 200.107 164.854 200.405C164.735 200.763 164.615 201.12 164.526 201.448C164.287 202.253 164.018 203.057 163.72 203.862C163.332 204.935 162.944 206.007 162.526 207.05C164.645 207.289 169.868 197.723 169.868 197.723C169.868 197.723 168.257 186.757 164.765 187.949Z" fill="#DDA14A"/>
<path d="M165.66 190.601C165.66 190.601 163.601 191.733 163.183 192.359C162.765 192.985 165.451 191.078 165.66 190.601Z" fill="#DDA14A"/>
<path d="M165.6 192.24C165.6 192.24 163.541 193.372 163.123 193.998C162.705 194.624 165.362 192.746 165.6 192.24Z" fill="#DDA14A"/>
<path d="M165.69 193.789C165.69 193.789 163.63 194.922 163.213 195.548C162.795 196.173 165.481 194.296 165.69 193.789Z" fill="#DDA14A"/>
<path d="M201.923 163.423H198.67V164.198H201.923V163.423Z" fill="#BCBCBC"/>
<path d="M201.923 169.055H198.67V169.83H201.923V169.055Z" fill="#BCBCBC"/>
<path d="M201.535 174.33H199.028C198.819 174.33 198.64 174.151 198.64 173.943C198.64 173.734 198.819 173.555 199.028 173.555H201.535C201.744 173.555 201.923 173.734 201.923 173.943C201.923 174.151 201.744 174.33 201.535 174.33Z" fill="#BCBCBC"/>
<path d="M202.61 118.902H196.222C196.013 118.902 195.834 118.723 195.834 118.515V118.068C195.834 117.859 196.013 117.68 196.222 117.68H202.61C202.818 117.68 202.998 117.859 202.998 118.068V118.515C202.998 118.753 202.818 118.902 202.61 118.902Z" fill="#6AAF3F"/>
<path d="M183.18 189.677H202.818C203.027 189.677 203.206 189.498 203.206 189.29V188.843C203.206 188.634 203.027 188.455 202.818 188.455H183.15C182.941 188.455 182.762 188.634 182.762 188.843V189.29C182.792 189.498 182.971 189.677 183.18 189.677Z" fill="#6AAF3F"/>
<path d="M193.059 193.253H202.819C203.027 193.253 203.207 193.074 203.207 192.866C203.207 192.657 203.027 192.478 202.819 192.478H193.059C192.85 192.478 192.671 192.657 192.671 192.866C192.671 193.074 192.85 193.253 193.059 193.253Z" fill="#BCBCBC"/>
<path d="M173.868 196.889H177.688C177.897 196.889 178.076 196.71 178.076 196.501C178.076 196.293 177.897 196.114 177.688 196.114H173.868C173.659 196.114 173.48 196.293 173.48 196.501C173.48 196.74 173.659 196.889 173.868 196.889Z" fill="#BCBCBC"/>
<path d="M181.24 196.889H202.819C203.028 196.889 203.207 196.71 203.207 196.501C203.207 196.293 203.028 196.114 202.819 196.114H181.24C181.031 196.114 180.852 196.293 180.852 196.501C180.852 196.74 181.031 196.889 181.24 196.889Z" fill="#BCBCBC"/>
<path d="M174.077 193.253H188.403C188.612 193.253 188.791 193.074 188.791 192.866C188.791 192.657 188.612 192.478 188.403 192.478H174.077C173.868 192.478 173.689 192.657 173.689 192.866C173.689 193.074 173.868 193.253 174.077 193.253Z" fill="#BCBCBC"/>
<path d="M174.077 189.677H180.464C180.673 189.677 180.852 189.498 180.852 189.29V188.843C180.852 188.634 180.673 188.455 180.464 188.455H174.077C173.868 188.455 173.689 188.634 173.689 188.843V189.29C173.689 189.498 173.868 189.677 174.077 189.677Z" fill="#6AAF3F"/>
<path d="M161.422 152.198C165.625 152.198 169.033 148.796 169.033 144.599C169.033 140.402 165.625 137 161.422 137C157.218 137 153.811 140.402 153.811 144.599C153.811 148.796 157.218 152.198 161.422 152.198Z" stroke="#333333" stroke-width="0.5" stroke-miterlimit="10"/>
<path d="M163.242 135.054C167.545 135.054 171.032 131.571 171.032 127.276C171.032 122.98 167.545 119.498 163.242 119.498C158.94 119.498 155.453 122.98 155.453 127.276C155.453 131.571 158.94 135.054 163.242 135.054Z" fill="#F94848"/>
<path d="M162.317 117.263C162.317 117.263 161.183 119.647 159.601 120.66C159.601 120.66 159.87 118.872 162.317 117.263Z" fill="#6AAF3F"/>
<path d="M159.213 116.339C159.213 116.339 160.049 118.842 159.601 120.66C159.601 120.66 158.556 119.17 159.213 116.339Z" fill="#6AAF3F"/>
<path d="M155.542 121.942C155.542 121.942 158.198 121.733 159.69 120.601C159.661 120.601 157.9 120.243 155.542 121.942Z" fill="#6AAF3F"/>
<path d="M155.75 118.723C155.75 118.723 157.81 120.392 159.66 120.601C159.66 120.601 158.645 119.14 155.75 118.723Z" fill="#6AAF3F"/>
<path d="M161.422 129.749C165.625 129.749 169.033 126.347 169.033 122.15C169.033 117.953 165.625 114.551 161.422 114.551C157.218 114.551 153.811 117.953 153.811 122.15C153.811 126.347 157.218 129.749 161.422 129.749Z" stroke="#333333" stroke-width="0.5" stroke-miterlimit="10"/>
<path d="M161.611 175.088C165.814 175.088 169.222 171.686 169.222 167.489C169.222 163.292 165.814 159.89 161.611 159.89C157.407 159.89 154 163.292 154 167.489C154 171.686 157.407 175.088 161.611 175.088Z" stroke="#333333" stroke-width="0.5" stroke-miterlimit="10"/>
<path d="M161.422 200.494C165.625 200.494 169.033 197.092 169.033 192.895C169.033 188.699 165.625 185.296 161.422 185.296C157.218 185.296 153.811 188.699 153.811 192.895C153.811 197.092 157.218 200.494 161.422 200.494Z" stroke="#333333" stroke-width="0.5" stroke-miterlimit="10"/>
<path d="M159.661 121.614C158.795 121.465 158.139 122.627 157.78 123.283C157.363 124.028 156.706 125.19 157.303 125.965C157.452 126.173 157.78 126.143 157.989 126.054C158.646 125.696 158.736 124.534 159.034 123.879C159.332 123.283 160.109 122.538 159.929 121.852C159.87 121.763 159.78 121.644 159.661 121.614Z" fill="#FF7B7B"/>
<path d="M246.633 200.405C250.065 199.392 253.527 198.379 256.959 197.336C260.392 196.322 263.794 195.25 267.197 194.147C269.883 193.283 272.539 192.359 275.195 191.405L268.39 181.512L234.157 193.879L236.992 203.296C240.156 202.342 243.379 201.388 246.633 200.405Z" fill="white"/>
<path d="M113.161 214.143C114.892 214.232 116.653 214.351 118.384 214.5C120.145 214.649 121.905 214.739 123.666 214.858C127.218 215.096 130.74 215.394 134.292 215.603C137.246 215.782 140.201 215.931 143.156 215.99L143.454 205.352L111.31 202.759L103.043 213.606C106.385 213.815 109.788 213.964 113.161 214.143Z" fill="white"/>
<path d="M114.474 209.285C115.166 209.285 115.727 208.725 115.727 208.034C115.727 207.343 115.166 206.782 114.474 206.782C113.781 206.782 113.22 207.343 113.22 208.034C113.22 208.725 113.781 209.285 114.474 209.285Z" fill="#333333"/>
<path d="M240.096 198.915C240.789 198.915 241.35 198.355 241.35 197.663C241.35 196.972 240.789 196.412 240.096 196.412C239.404 196.412 238.843 196.972 238.843 197.663C238.843 198.355 239.404 198.915 240.096 198.915Z" fill="#333333"/>
<path d="M67.1676 132.819L72.5996 130.703C73.3756 130.405 74.1814 131.031 74.0919 131.865C73.9128 133.266 73.2263 135.054 71.0774 135.59C69.0777 136.097 67.7048 135.381 66.8392 134.636C66.2125 134.13 66.4214 133.117 67.1676 132.819Z" fill="#333333"/>
<path d="M166.317 170.754C167.24 170.754 167.988 170.007 167.988 169.085C167.988 168.164 167.24 167.416 166.317 167.416C165.393 167.416 164.645 168.164 164.645 169.085C164.645 170.007 165.393 170.754 166.317 170.754Z" fill="#469F62"/>
<path d="M164.496 168.549C166.21 168.549 167.6 167.161 167.6 165.45C167.6 163.738 166.21 162.35 164.496 162.35C162.782 162.35 161.392 163.738 161.392 165.45C161.392 167.161 162.782 168.549 164.496 168.549Z" fill="#58C066"/>
<path d="M160.497 165.807C161.387 165.807 162.108 165.087 162.108 164.198C162.108 163.309 161.387 162.589 160.497 162.589C159.606 162.589 158.885 163.309 158.885 164.198C158.885 165.087 159.606 165.807 160.497 165.807Z" fill="#58C066"/>
<path d="M158.228 168.757C159.531 168.757 160.586 167.703 160.586 166.403C160.586 165.103 159.531 164.049 158.228 164.049C156.926 164.049 155.87 165.103 155.87 166.403C155.87 167.703 156.926 168.757 158.228 168.757Z" fill="#58C066"/>
<path d="M156.915 170.545C157.64 170.545 158.228 169.958 158.228 169.234C158.228 168.51 157.64 167.923 156.915 167.923C156.19 167.923 155.602 168.51 155.602 169.234C155.602 169.958 156.19 170.545 156.915 170.545Z" fill="#58C066"/>
<path d="M163.75 171.946C164.788 171.946 165.63 171.106 165.63 170.069C165.63 169.032 164.788 168.191 163.75 168.191C162.711 168.191 161.87 169.032 161.87 170.069C161.87 171.106 162.711 171.946 163.75 171.946Z" fill="#469F62"/>
<path d="M161.273 170.396C162.839 170.396 164.108 169.129 164.108 167.565C164.108 166.002 162.839 164.734 161.273 164.734C159.707 164.734 158.437 166.002 158.437 167.565C158.437 169.129 159.707 170.396 161.273 170.396Z" fill="#58C066"/>
<path d="M161.631 172.304C162.389 172.304 163.004 171.69 163.004 170.933C163.004 170.176 162.389 169.562 161.631 169.562C160.872 169.562 160.258 170.176 160.258 170.933C160.258 171.69 160.872 172.304 161.631 172.304Z" fill="#469F62"/>
<path d="M158.855 173.555C159.91 173.555 160.765 172.701 160.765 171.648C160.765 170.595 159.91 169.741 158.855 169.741C157.8 169.741 156.945 170.595 156.945 171.648C156.945 172.701 157.8 173.555 158.855 173.555Z" fill="#58C066"/>
<path d="M159.243 171.767C160.413 171.767 161.362 170.82 161.362 169.651C161.362 168.483 160.413 167.536 159.243 167.536C158.073 167.536 157.124 168.483 157.124 169.651C157.124 170.82 158.073 171.767 159.243 171.767Z" fill="#58C066"/>
<path d="M156.945 172.929C157.753 172.929 158.407 172.276 158.407 171.469C158.407 170.663 157.753 170.009 156.945 170.009C156.137 170.009 155.482 170.663 155.482 171.469C155.482 172.276 156.137 172.929 156.945 172.929Z" fill="#58C066"/>
<path d="M165.183 168.102C165.183 168.102 164.198 170.367 164.466 171.886C164.735 173.406 164.824 173.704 164.824 173.704L163.153 174.032L162.616 172.87C162.616 172.87 161.75 171.708 160.377 171.737L160.228 171.112C160.228 171.112 161.631 171.052 162.138 171.439L161.123 168.966C161.123 168.966 161.78 168.966 162.049 168.906C162.317 168.847 163.004 170.963 163.004 170.963L164.526 167.655L165.183 168.102Z" fill="#99D871"/>
<path d="M188.642 212.265L184.493 216.795C184.135 217.182 183.538 217.182 183.21 216.795L179.061 212.265" stroke="#F94848" stroke-width="0.5" stroke-miterlimit="10" stroke-linecap="round" stroke-linejoin="round"/>
<path d="M147.066 127.067C147.066 127.067 135.247 141.431 130.262 153.232C130.143 153.5 130.054 153.798 129.964 154.096L121.637 186.995L111.28 202.759" stroke="#333333" stroke-width="0.5" stroke-miterlimit="10"/>
<path d="M275.166 191.465L263.078 174.032C262.362 172.989 261.854 171.797 261.586 170.545C260.213 163.691 255.437 140.686 254.661 138.361C253.676 135.381 249.707 131.895 245.319 135.352" stroke="#333333" stroke-width="0.5" stroke-miterlimit="10" stroke-linecap="round" stroke-linejoin="round"/>
<path d="M38.9033 239.085H325.576" stroke="#333333" stroke-width="0.7" stroke-miterlimit="10" stroke-linecap="round" stroke-linejoin="round"/>
<path d="M186.582 238.936C186.582 238.936 186.373 238.668 201.625 234.109C201.625 234.109 203.236 237.715 202.341 238.609C201.446 239.503 186.582 238.936 186.582 238.936Z" fill="#333333"/>
<path d="M245.349 238.936C245.349 238.936 245.558 238.668 230.307 234.109C230.307 234.109 228.695 237.715 229.59 238.609C230.486 239.503 245.349 238.936 245.349 238.936Z" fill="#333333"/>
</svg>
