<svg width="375" height="300" viewBox="0 0 375 300" fill="none" xmlns="http://www.w3.org/2000/svg">
<g clip-path="url(#clip0)">
<path d="M276.857 191.88C276.857 191.88 274.678 212.16 265.874 210.27C253.07 207.51 266.381 186.48 277.305 200.61C290.109 217.14 264.053 232.77 242.564 232.77" stroke="#5097FF" stroke-miterlimit="10" stroke-linecap="round" stroke-linejoin="round" stroke-dasharray="4 4"/>
<path d="M99.4517 183.12C99.4517 183.12 120.493 176.7 116.374 170.25C112.256 163.83 100.825 179.43 114.554 183.57C128.283 187.71 145.654 188.64 145.654 188.64" stroke="#5097FF" stroke-miterlimit="10" stroke-linecap="round" stroke-linejoin="round" stroke-dasharray="4 4"/>
<path d="M104.943 118.32C104.943 118.32 125.059 114.63 126.88 128.43C128.701 142.23 111.778 141.3 112.703 130.26C113.628 119.22 134.64 107.28 145.176 126.57C151.652 138.48 138.789 155.07 155.234 167.94" stroke="#5097FF" stroke-miterlimit="10" stroke-linecap="round" stroke-linejoin="round" stroke-dasharray="4 4"/>
<path d="M208.718 170.1H292.228C295.839 170.1 298.794 173.04 298.794 176.7C298.794 180.33 295.869 183.3 292.228 183.3H208.718C205.107 183.3 202.152 180.36 202.152 176.7C202.182 173.07 205.107 170.1 208.718 170.1Z" fill="#E0E0E0"/>
<path d="M196.839 87.3901H300.793C306.613 87.3901 311.299 92.1301 311.299 97.9501V179.13C311.299 184.98 306.584 189.69 300.793 189.69H196.839C191.019 189.69 186.334 184.95 186.334 179.13V97.9501C186.304 92.1301 191.019 87.3901 196.839 87.3901Z" stroke="#333333" stroke-miterlimit="10" stroke-linecap="round" stroke-linejoin="round"/>
<path d="M234.774 269.52L232.476 255.03C232.476 255.03 250.772 267.45 257.159 252.27C263.546 237.09 245.728 179.43 223.791 171.15C201.854 162.87 156.577 163.35 137.834 172.08C119.329 180.69 94.1687 230.67 103.779 242.61C113.39 254.55 130.969 247.44 130.969 247.44L127.328 270L234.774 269.52Z" fill="#AAC7FF"/>
<path d="M113.957 192.6C117.449 191.73 121.269 193.11 123.925 195.57C126.582 198.03 128.193 201.42 129.268 204.9C131.596 212.52 131.208 221.37 126.432 227.73C121.657 234.09 111.868 236.73 105.391 232.11C103.749 230.94 102.347 229.29 101.959 227.31C101.004 222.54 106.167 218.7 110.942 218.01C121.12 216.57 131.476 224.37 133.685 234.45C135.894 244.53 130.312 255.6 121.239 260.43C120.165 261 118.314 261.12 118.195 259.89C118.165 259.59 118.284 259.26 118.434 258.99C119.866 256.05 123.299 254.52 126.552 254.46C129.805 254.4 132.939 255.63 135.924 256.98C140.46 259.02 144.907 261.48 148.489 264.96C152.07 268.44 154.756 273.06 155.144 278.04C155.353 280.71 154.428 284.01 151.832 284.64C148.966 285.36 146.519 282.21 146.012 279.3C144.698 271.71 150.399 264.75 156.308 259.83C162.278 254.88 169.172 250.62 176.872 249.63C183.11 248.85 189.438 250.29 195.377 252.45C202.331 255 209.614 259.44 211.285 266.7C211.792 268.86 211.673 271.32 210.33 273.09C209.017 274.89 206.271 275.67 204.48 274.32C203.734 273.75 203.227 272.91 202.839 272.07C200.272 266.67 200.66 260.19 202.839 254.64C205.017 249.09 208.838 244.32 213.046 240.09C219.821 233.28 228.148 227.46 237.639 226.32C247.13 225.18 257.785 229.95 261.039 238.98C261.695 240.81 262.053 242.85 261.516 244.74C260.979 246.63 259.397 248.31 257.457 248.49C255.696 248.67 254.055 247.65 252.562 246.66C247.936 243.63 243.041 240.18 241.28 234.93C239.251 228.9 241.997 222.39 244.743 216.66C247.966 209.85 251.488 202.77 257.576 198.33" stroke="#D7E6FF" stroke-width="0.5" stroke-miterlimit="10"/>
<path d="M231.939 174.45C227.909 171.9 222.507 171.72 218.299 173.97C216.836 174.75 215.523 175.8 214.061 176.52C211.016 178.02 207.256 177.96 204.241 176.4C202.868 175.68 201.645 174.69 200.302 173.91C197.108 172.02 193.198 171.36 189.557 172.14C185.05 173.1 181.23 176.04 177.141 178.2C172.455 180.63 167.113 182.04 161.86 181.56C156.607 181.08 151.443 178.5 148.28 174.24C147.325 172.92 146.549 171.42 146.489 169.8C146.34 165.84 151.085 162.84 154.846 164.07C158.607 165.3 160.755 169.68 160.248 173.61C159.741 177.54 157.025 180.96 153.742 183.15C149.354 186.12 143.683 187.26 138.58 185.88C133.476 184.5 129.059 180.51 127.477 175.44C126.999 173.88 127.119 171.66 128.671 171.24" stroke="#D7E6FF" stroke-width="0.5" stroke-miterlimit="10"/>
<path d="M162.248 166.29C162.248 166.29 166.217 178.08 185.408 175.62C200.839 173.64 200.182 166.29 200.182 166.29C200.182 166.29 172.157 164.13 162.248 166.29Z" fill="#83B3FF"/>
<path d="M120.105 56.61C120.105 56.61 127.029 57.54 127.805 63.1801C128.581 68.8201 120.612 67.8901 120.612 67.8901L120.105 56.61Z" fill="#EA9C8C"/>
<path d="M96.0487 158.55L91.2435 154.47H33.4913L30.1187 158.55H96.0487Z" fill="#333333"/>
<path d="M77.0668 150.93C74.888 155.67 76.9474 161.28 81.6631 163.47C86.3788 165.66 91.9601 163.59 94.1389 158.85C96.3176 154.11 94.2582 148.5 89.5425 146.31C84.8268 144.09 79.2456 146.19 77.0668 150.93ZM82.1108 153.27C83.0062 151.32 85.3044 150.48 87.2444 151.38C89.1844 152.28 90.0201 154.59 89.1247 156.54C88.2293 158.49 85.9311 159.33 83.9911 158.43C82.081 157.5 81.2154 155.19 82.1108 153.27Z" fill="#FF8A73"/>
<path d="M83.0359 145.8C82.827 146.94 82.7673 148.14 82.5882 149.31C82.439 150.15 82.2002 150.96 81.9913 151.8C81.7525 152.64 81.5138 153.48 81.275 154.32C80.7377 156.09 80.1707 157.83 79.5737 159.57C79.3648 160.2 79.126 160.83 78.8873 161.49C76.2608 158.76 75.4251 154.62 77.0965 150.96C78.2605 148.32 80.499 146.52 83.0359 145.8Z" fill="#333333"/>
<path d="M90.1096 159.21L90.2887 160.65" stroke="white" stroke-miterlimit="10" stroke-linecap="round" stroke-linejoin="round"/>
<path d="M91.3035 151.65L91.4527 153.06" stroke="white" stroke-miterlimit="10" stroke-linecap="round" stroke-linejoin="round"/>
<path d="M80.3201 159.09L80.4991 160.53" stroke="white" stroke-miterlimit="10" stroke-linecap="round" stroke-linejoin="round"/>
<path d="M79.8125 152.43L79.9617 153.87" stroke="white" stroke-miterlimit="10" stroke-linecap="round" stroke-linejoin="round"/>
<path d="M84.5583 148.62L84.7076 150.06" stroke="white" stroke-miterlimit="10" stroke-linecap="round" stroke-linejoin="round"/>
<path d="M93.0047 156L91.7512 156.66" stroke="white" stroke-miterlimit="10" stroke-linecap="round" stroke-linejoin="round"/>
<path d="M86.8862 161.25L85.6326 161.91" stroke="white" stroke-miterlimit="10" stroke-linecap="round" stroke-linejoin="round"/>
<path d="M81.0663 148.23L79.783 148.92" stroke="white" stroke-miterlimit="10" stroke-linecap="round" stroke-linejoin="round"/>
<path d="M89.3934 147.36L88.1399 148.05" stroke="white" stroke-miterlimit="10" stroke-linecap="round" stroke-linejoin="round"/>
<path d="M60.8902 144.81C65.1924 144.81 68.68 141.304 68.68 136.98C68.68 132.656 65.1924 129.15 60.8902 129.15C56.588 129.15 53.1003 132.656 53.1003 136.98C53.1003 141.304 56.588 144.81 60.8902 144.81Z" fill="#F94848"/>
<path d="M59.9648 127.26C59.9648 127.26 61.487 129.45 63.2181 130.17C63.1882 130.17 62.6212 128.46 59.9648 127.26Z" fill="#82A30A"/>
<path d="M62.8601 125.82C62.8601 125.82 62.4423 128.46 63.2183 130.17C63.1884 130.17 63.9644 128.52 62.8601 125.82Z" fill="#82A30A"/>
<path d="M67.4267 130.77C67.4267 130.77 64.8002 131.01 63.1288 130.14C63.099 130.14 64.8002 129.48 67.4267 130.77Z" fill="#82A30A"/>
<path d="M66.6506 127.59C66.6506 127.59 64.9195 129.6 63.1288 130.14C63.0989 130.14 63.8749 128.49 66.6506 127.59Z" fill="#82A30A"/>
<path d="M66.5905 138.45C67.6052 137.4 67.6053 134.07 66.0831 133.41C65.7548 133.26 65.4563 133.5 65.4862 133.86C65.5459 134.28 65.7548 134.52 65.9339 134.91C66.0831 135.3 66.1428 135.69 66.1726 136.08C66.2323 136.83 66.0234 137.61 66.2025 138.33C66.2323 138.51 66.4413 138.57 66.5905 138.45Z" fill="white"/>
<path d="M66.2628 141.15C66.2926 141.15 66.2926 141.12 66.3225 141.12C66.412 141.06 66.4717 141 66.5314 140.94C66.5911 140.88 66.6508 140.79 66.6508 140.7C66.6508 140.64 66.6806 140.58 66.6806 140.49C66.6806 140.4 66.6508 140.28 66.6209 140.22C66.5911 140.16 66.5612 140.1 66.5314 140.07C66.4717 139.98 66.412 139.92 66.3225 139.89C66.2628 139.86 66.2031 139.83 66.1434 139.83C66.024 139.8 65.8748 139.8 65.7554 139.83C65.7255 139.83 65.7255 139.83 65.6957 139.83C65.5763 139.86 65.4569 139.92 65.3674 140.01C65.3375 140.07 65.2778 140.1 65.248 140.16C65.1883 140.28 65.1584 140.4 65.1584 140.55C65.1584 140.64 65.1883 140.76 65.2181 140.85C65.248 140.94 65.3077 141.03 65.3674 141.09C65.4271 141.15 65.5166 141.21 65.6061 141.24C65.6957 141.3 65.7852 141.3 65.9046 141.3C66.024 141.24 66.1434 141.21 66.2628 141.15Z" fill="white"/>
<path d="M77.7236 160.92C77.7236 160.92 90.1695 125.19 82.4095 123.93C74.6494 122.67 61.9946 144.6 58.6817 154.98C55.4285 165.36 77.7236 160.92 77.7236 160.92Z" fill="#F2BD66"/>
<path d="M82.4391 123.93C81.872 123.84 81.2751 123.87 80.6782 124.02C80.7976 124.05 80.917 124.11 81.0065 124.14C82.7077 124.89 83.812 126.42 84.1404 128.25C84.2299 128.79 84.2896 129.33 84.2299 129.87C84.1702 130.38 84.0807 130.92 83.9613 131.43C83.6628 132.69 83.2748 133.92 82.7973 135.12C82.3197 136.29 81.7825 137.46 81.1259 138.54C80.529 139.47 79.7828 140.34 79.0068 141.12C76.8877 143.19 74.2314 144.6 71.8437 146.31C71.2468 146.73 70.6797 147.18 70.1425 147.66C69.5456 148.17 69.0084 148.77 68.4413 149.31C67.1579 150.57 65.8447 151.83 64.5314 153.06C62.7407 154.71 60.92 156.3 59.0696 157.89C62.8004 160.5 77.7533 160.92 77.7533 160.92C77.7533 160.92 90.1991 125.19 82.4391 123.93Z" fill="#DDA14A"/>
<path d="M81.4842 129.87C81.4842 129.87 76.47 129.96 75.0673 130.71C73.6943 131.43 80.5291 130.56 81.4842 129.87Z" fill="#DDA14A"/>
<path d="M79.6637 132.93C79.6637 132.93 74.6495 133.02 73.2467 133.77C71.9036 134.49 78.7384 133.62 79.6637 132.93Z" fill="#DDA14A"/>
<path d="M78.3202 135.96C78.3202 135.96 73.306 136.05 71.9033 136.8C70.5303 137.52 77.395 136.65 78.3202 135.96Z" fill="#DDA14A"/>
<path d="M55.3367 163.14C56.9782 163.65 59.5748 157.74 61.0671 150.33C62.5594 142.92 63.6936 137.01 60.7686 136.26C58.6496 135.72 56.5305 141.66 55.0382 149.07C53.516 156.51 52.4714 162.24 55.3367 163.14Z" fill="#469F62"/>
<path d="M59.3981 137.07C58.9504 137.97 58.6519 138.96 58.3833 139.92C58.1445 140.82 57.9057 141.72 57.6968 142.65C57.3984 144.03 57.0104 145.38 56.6522 146.73C55.906 149.46 55.13 152.22 54.742 155.01C54.563 156.24 54.4734 157.5 54.3839 158.76C54.2943 159.93 54.2645 161.13 54.3242 162.33C54.3242 162.39 54.3242 162.42 54.3242 162.48C52.7722 160.56 53.7273 155.46 55.0107 149.1C56.2642 142.95 57.9356 137.82 59.6667 136.53C59.5771 136.71 59.4876 136.89 59.3981 137.07Z" fill="#398E51"/>
<path d="M55.6077 163.11C55.9061 160.56 56.324 158.01 56.8015 155.49C57.0403 154.23 57.3089 152.97 57.5775 151.71C57.8461 150.51 58.1446 149.34 58.4132 148.14C58.8609 146.1 59.1892 144 59.6966 141.96C60.1443 140.16 60.6815 138.33 61.6664 136.74C62.2037 137.28 62.5021 138.15 62.5618 139.32C62.2634 140.64 61.935 141.96 61.5172 143.25C61.1889 144.24 60.8009 145.23 60.4726 146.25C60.1443 147.27 59.8458 148.29 59.5772 149.31C59.0101 151.41 58.5923 153.54 58.2341 155.7C57.9058 157.8 57.5775 159.87 57.0701 161.94C56.5329 162.72 56.0554 163.14 55.6077 163.2C55.6077 163.14 55.6077 163.11 55.6077 163.11Z" fill="#398E51"/>
<path d="M53.6974 154.59C53.6974 154.59 60.6217 139.62 51.638 122.58C50.7725 120.93 48.534 120.48 47.1313 121.74C42.8633 125.49 36.5956 135.09 49.1906 154.86C49.1906 154.86 42.4156 160.32 42.5051 163.89C42.5947 167.46 51.3993 158.79 51.3993 158.79C51.3993 158.79 58.234 166.83 57.8759 163.47C57.5177 160.11 53.6974 154.59 53.6974 154.59Z" fill="#8E8E8E"/>
<path d="M50.1159 129.18C49.1011 129.36 48.0267 129.42 46.982 129.36C45.9076 129.3 44.7734 129.15 43.7587 128.76C43.4005 128.64 43.0424 128.46 42.7439 128.22C43.8184 125.16 45.6091 123.06 47.1611 121.74C48.5639 120.51 50.8023 120.93 51.6679 122.58C52.623 124.38 53.3691 126.12 53.9959 127.86C52.7423 128.43 51.459 128.94 50.1159 129.18Z" fill="#BCBCBC"/>
<path d="M47.4895 126.96C47.8851 126.96 48.2058 126.638 48.2058 126.24C48.2058 125.842 47.8851 125.52 47.4895 125.52C47.0939 125.52 46.7732 125.842 46.7732 126.24C46.7732 126.638 47.0939 126.96 47.4895 126.96Z" fill="#333333"/>
<path d="M42.7439 128.22C42.7439 128.22 46.027 132.33 53.9661 127.86" stroke="#333333" stroke-miterlimit="10" stroke-linecap="round" stroke-linejoin="round"/>
<path d="M53.3689 135.18C53.1301 135.99 52.2645 136.47 51.4289 136.29C50.9513 136.17 50.4738 135.96 50.0261 135.72C49.9664 135.69 49.847 135.69 49.7873 135.75C49.3396 136.2 48.8621 136.62 48.1756 136.62C47.4892 136.62 46.8922 136.23 46.8027 135.51C46.7728 135.36 46.5341 135.33 46.4744 135.48C45.967 136.41 44.6836 136.47 44.0867 135.57C43.9673 135.36 43.639 135.57 43.7584 135.75C44.5045 136.86 46.1162 136.83 46.7728 135.66C46.6535 135.66 46.5341 135.63 46.4445 135.63C46.5639 136.44 47.2205 136.95 47.9965 137.01C48.8322 137.07 49.4292 136.62 50.0261 136.05C49.9365 136.05 49.8769 136.08 49.7873 136.08C50.3544 136.38 51.011 136.71 51.6676 136.74C52.563 136.8 53.3987 136.14 53.6673 135.3C53.8165 135.03 53.4584 134.94 53.3689 135.18Z" fill="#333333"/>
<path d="M54.5034 143.67C54.2646 144.48 53.3991 144.96 52.5634 144.78C52.0858 144.66 51.6083 144.45 51.1606 144.21C51.1009 144.18 50.9815 144.18 50.9218 144.24C50.4742 144.69 49.9966 145.11 49.3101 145.11C48.6237 145.11 48.0268 144.72 47.9372 144C47.9074 143.85 47.6686 143.82 47.6089 143.97C47.1015 144.9 45.8181 144.96 45.2212 144.06C45.1018 143.85 44.7735 144.06 44.8929 144.24C45.6391 145.35 47.2508 145.32 47.9074 144.15C47.788 144.15 47.6686 144.12 47.5791 144.12C47.6985 144.93 48.3551 145.44 49.1311 145.5C49.9668 145.56 50.5637 145.11 51.1606 144.54C51.0711 144.54 51.0114 144.57 50.9218 144.57C51.4889 144.87 52.1455 145.2 52.8022 145.23C53.6975 145.29 54.5332 144.63 54.8019 143.79C54.9212 143.55 54.5631 143.43 54.5034 143.67Z" fill="#333333"/>
<path d="M54.205 139.56C53.9663 140.37 53.1007 140.85 52.265 140.67C51.7875 140.55 51.31 140.34 50.8623 140.1C50.8026 140.07 50.6832 140.07 50.6235 140.13C50.1758 140.58 49.6983 141 49.0118 141C48.3253 141 47.7284 140.61 47.6389 139.89C47.609 139.74 47.3703 139.71 47.3106 139.86C46.8032 140.79 45.5198 140.85 44.9229 139.95C44.8035 139.74 44.4752 139.95 44.5946 140.13C45.3407 141.24 46.9524 141.21 47.609 140.04C47.4896 140.04 47.3703 140.01 47.2807 140.01C47.4001 140.82 48.0567 141.33 48.8327 141.39C49.6684 141.45 50.2653 141 50.8623 140.43C50.7727 140.43 50.713 140.46 50.6235 140.46C51.1906 140.76 51.8472 141.09 52.5038 141.12C53.3992 141.18 54.2349 140.52 54.5035 139.68C54.6229 139.41 54.2647 139.32 54.205 139.56Z" fill="#333333"/>
<path d="M36.9534 160.86C38.9973 160.86 40.6543 159.194 40.6543 157.14C40.6543 155.085 38.9973 153.42 36.9534 153.42C34.9094 153.42 33.2524 155.085 33.2524 157.14C33.2524 159.194 34.9094 160.86 36.9534 160.86Z" fill="#469F62"/>
<path d="M32.6556 156.03C36.4468 156.03 39.5202 152.941 39.5202 149.13C39.5202 145.319 36.4468 142.23 32.6556 142.23C28.8644 142.23 25.791 145.319 25.791 149.13C25.791 152.941 28.8644 156.03 32.6556 156.03Z" fill="#58C066"/>
<path d="M35.5806 143.88C37.5751 143.88 39.192 142.255 39.192 140.25C39.192 138.245 37.5751 136.62 35.5806 136.62C33.5861 136.62 31.9692 138.245 31.9692 140.25C31.9692 142.255 33.5861 143.88 35.5806 143.88Z" fill="#58C066"/>
<path d="M42.5346 144.24C45.4192 144.24 47.7577 141.889 47.7577 138.99C47.7577 136.09 45.4192 133.74 42.5346 133.74C39.65 133.74 37.3115 136.09 37.3115 138.99C37.3115 141.889 39.65 144.24 42.5346 144.24Z" fill="#58C066"/>
<path d="M49.3396 143.13C50.9385 143.13 52.2347 141.827 52.2347 140.22C52.2347 138.613 50.9385 137.31 49.3396 137.31C47.7407 137.31 46.4446 138.613 46.4446 140.22C46.4446 141.827 47.7407 143.13 49.3396 143.13Z" fill="#58C066"/>
<path d="M42.0276 157.98C44.3353 157.98 46.2061 156.1 46.2061 153.78C46.2061 151.46 44.3353 149.58 42.0276 149.58C39.7199 149.58 37.8491 151.46 37.8491 153.78C37.8491 156.1 39.7199 157.98 42.0276 157.98Z" fill="#469F62"/>
<path d="M40.6843 152.31C44.1623 152.31 46.9818 149.476 46.9818 145.98C46.9818 142.484 44.1623 139.65 40.6843 139.65C37.2062 139.65 34.3867 142.484 34.3867 145.98C34.3867 149.476 37.2062 152.31 40.6843 152.31Z" fill="#58C066"/>
<path d="M46.3547 154.14C48.0525 154.14 49.4288 152.757 49.4288 151.05C49.4288 149.343 48.0525 147.96 46.3547 147.96C44.6569 147.96 43.2805 149.343 43.2805 151.05C43.2805 152.757 44.6569 154.14 46.3547 154.14Z" fill="#469F62"/>
<path d="M51.2199 151.2C53.5605 151.2 55.458 149.293 55.458 146.94C55.458 144.587 53.5605 142.68 51.2199 142.68C48.8792 142.68 46.9817 144.587 46.9817 146.94C46.9817 149.293 48.8792 151.2 51.2199 151.2Z" fill="#58C066"/>
<path d="M47.0413 149.76C49.6292 149.76 51.7272 147.651 51.7272 145.05C51.7272 142.449 49.6292 140.34 47.0413 140.34C44.4534 140.34 42.3555 142.449 42.3555 145.05C42.3555 147.651 44.4534 149.76 47.0413 149.76Z" fill="#58C066"/>
<path d="M53.339 146.55C55.1522 146.55 56.622 145.073 56.622 143.25C56.622 141.427 55.1522 139.95 53.339 139.95C51.5258 139.95 50.0559 141.427 50.0559 143.25C50.0559 145.073 51.5258 146.55 53.339 146.55Z" fill="#58C066"/>
<path d="M36.625 153.81C36.625 153.81 41.9973 154.95 44.4149 157.44C46.8324 159.93 47.2502 160.47 47.2502 160.47L49.9961 157.83L48.5933 155.34C48.5933 155.34 47.5785 152.28 49.4589 149.79L48.5336 148.74C48.5336 148.74 46.6235 151.2 46.6832 152.67L43.5195 147.6C43.5195 147.6 42.6838 148.8 42.2361 149.16C41.7884 149.55 44.7133 153.57 44.7133 153.57L36.7145 152.04L36.625 153.81Z" fill="#99D871"/>
<path d="M30.7755 165.24C30.7755 165.24 29.1638 185.34 27.7312 191.94C26.2986 198.54 27.0746 211.32 26.8955 214.86C26.7463 218.4 23.7617 219.27 24.2392 221.52C24.7167 223.77 101.809 221.52 101.809 221.52C101.809 221.52 104.048 219.42 100.526 214.29C97.0041 209.13 97.6607 197.4 97.4817 193.05C97.3324 188.7 95.87 179.37 96.049 176.64C96.1983 173.91 30.7755 165.24 30.7755 165.24Z" fill="#D1AE75"/>
<path d="M308.554 296.46C308.554 296.46 324.82 288.96 328.402 275.19C331.983 261.42 324.223 253.23 326.909 246.15C329.595 239.07 335.117 235.53 334.49 227.22C333.834 218.91 330.162 212.22 321.507 214.44C311.926 216.87 317.239 229.92 309.569 234.9C305.898 237.27 297.541 243.39 295.213 257.25C292.885 271.11 298.884 297.72 308.554 296.46Z" fill="#58C066"/>
<path d="M325.566 214.05C327.446 214.8 329.028 216.18 330.222 217.8C331.565 219.63 332.461 221.79 332.819 224.04C332.998 225.18 333.057 226.38 332.938 227.52C332.789 229.02 332.341 230.46 331.804 231.87C330.67 234.84 328.998 237.51 327.446 240.27C326.64 241.71 325.864 243.15 325.327 244.71C324.82 246.12 324.521 247.62 324.402 249.12C324.163 252.12 324.73 255.09 325.536 257.97C325.984 259.59 326.551 261.18 327.028 262.8C327.536 264.51 327.954 266.25 328.252 268.02C328.551 269.73 328.73 271.5 328.76 273.24C328.76 273.78 328.73 274.29 328.7 274.83C332.013 261.3 324.432 253.2 327.118 246.21C329.804 239.13 335.326 235.59 334.699 227.28C334.102 220.32 331.446 214.5 325.566 214.05Z" fill="#74E27F"/>
<path d="M197.436 241.62H168.097C166.157 241.62 164.575 240.03 164.575 238.08V180.72C164.575 178.77 166.157 177.18 168.097 177.18H197.436C199.376 177.18 200.958 178.77 200.958 180.72V238.08C200.958 240.03 199.376 241.62 197.436 241.62Z" fill="#333333"/>
<path d="M30.0972 213.776L96.0273 213.776L96.0273 158.576L30.0972 158.576L30.0972 213.776Z" fill="#D1AE75"/>
<path d="M60.4426 208.32C67.4976 208.32 73.2168 202.571 73.2168 195.48C73.2168 188.389 67.4976 182.64 60.4426 182.64C53.3876 182.64 47.6685 188.389 47.6685 195.48C47.6685 202.571 53.3876 208.32 60.4426 208.32Z" fill="#C19B65"/>
<path d="M61.1589 206.91C67.8183 206.91 73.2168 201.484 73.2168 194.79C73.2168 188.096 67.8183 182.67 61.1589 182.67C54.4996 182.67 49.1011 188.096 49.1011 194.79C49.1011 201.484 54.4996 206.91 61.1589 206.91Z" fill="white"/>
<path d="M61.1589 182.64C54.5032 182.64 49.1011 188.07 49.1011 194.76C49.1011 197.19 49.8174 199.44 51.0112 201.33" stroke="#333333" stroke-width="0.5" stroke-miterlimit="10" stroke-linecap="round" stroke-linejoin="round"/>
<path d="M56.503 191.55C58.0848 190.92 59.9353 191.58 61.2186 193.05C62.5319 191.58 64.3525 190.92 65.9343 191.55C68.1131 192.42 68.9786 195.36 67.8743 198.12C66.77 200.88 64.1436 202.44 61.9648 201.57C61.4574 201.36 60.9202 201.36 60.4427 201.57C58.2639 202.44 55.6374 200.88 54.5331 198.12C53.4587 195.36 54.3242 192.42 56.503 191.55Z" fill="#F94848"/>
<path d="M61.159 190.86C61.159 190.86 58.4729 191.61 57.1597 188.37C57.1597 188.34 60.771 187.53 61.159 190.86Z" fill="#6AAF3F"/>
<path d="M61.1887 189.78L61.2186 193.2" stroke="#333333" stroke-width="0.5" stroke-miterlimit="10" stroke-linecap="round" stroke-linejoin="round"/>
<path d="M326.909 214.23L309.001 271.02" stroke="#333333" stroke-width="0.5" stroke-miterlimit="10" stroke-linecap="round" stroke-linejoin="round"/>
<path d="M328.252 259.68L311.061 264.69" stroke="#333333" stroke-width="0.5" stroke-miterlimit="10" stroke-linecap="round" stroke-linejoin="round"/>
<path d="M327.834 257.16L311.986 261.48" stroke="#333333" stroke-width="0.5" stroke-miterlimit="10" stroke-linecap="round" stroke-linejoin="round"/>
<path d="M308.763 235.5L313.926 254.46" stroke="#333333" stroke-width="0.5" stroke-miterlimit="10" stroke-linecap="round" stroke-linejoin="round"/>
<path d="M318.045 242.76L331.804 237.63" stroke="#333333" stroke-width="0.5" stroke-miterlimit="10" stroke-linecap="round" stroke-linejoin="round"/>
<path d="M319.895 215.16L322.79 227.13" stroke="#333333" stroke-width="0.5" stroke-miterlimit="10" stroke-linecap="round" stroke-linejoin="round"/>
<path d="M90.1097 166.83H36.3567" stroke="#C19B65" stroke-miterlimit="10" stroke-linecap="round" stroke-linejoin="round"/>
<path d="M31.4617 215.73H96.0487" stroke="#C19B65" stroke-miterlimit="10" stroke-linecap="round" stroke-linejoin="round"/>
<path d="M90.1992 270.15C90.1992 270.15 91.9004 249.45 75.0075 239.37C64.0838 232.86 55.9955 232.17 51.6678 232.53C49.5189 232.71 47.9072 234.54 47.9967 236.7C48.2952 243.45 50.8321 258.48 66.6506 269.01C80.2604 278.1 90.438 272.85 90.1992 270.15Z" fill="#6AAF3F"/>
<path d="M49.519 234.96C52.4439 234.84 55.3688 234.15 58.2937 234.27C59.219 234.3 60.1442 234.51 61.0396 234.78C62.0245 235.08 63.0094 235.41 63.9645 235.8C66.0836 236.64 68.143 237.6 70.1427 238.68C71.038 239.16 71.9334 239.67 72.799 240.21C73.5451 240.66 74.2913 241.14 74.9479 241.71C76.8879 243.33 78.5891 245.22 80.2008 247.17C81.8722 249.24 83.454 251.4 84.8867 253.65C85.5731 254.73 86.2596 255.84 86.8863 256.98C87.5429 258.18 88.11 259.44 88.6473 260.7C89.1546 261.93 89.6322 263.22 90.05 264.48C89.3039 257.61 86.3193 246.15 75.0374 239.4C64.1137 232.89 56.0254 232.2 51.6977 232.56C50.1756 232.68 48.9221 233.64 48.355 234.96C48.7131 234.96 49.1011 234.96 49.519 234.96Z" fill="#85D154"/>
<path d="M194.78 166.5L193.407 155.7H169.411L167.352 166.74C167.352 166.74 171.232 173.4 182.454 172.26C193.646 171.12 194.78 166.5 194.78 166.5Z" fill="#FCC8B8"/>
<path d="M174.126 158.37C175.022 159.33 176.036 160.17 177.111 160.89C179.29 162.39 181.827 163.47 184.483 163.68C187.109 163.89 189.706 163.29 192.094 162.24C192.78 161.94 193.437 161.61 194.093 161.25L193.377 155.7H172.186C172.694 156.72 173.38 157.59 174.126 158.37Z" fill="#333333"/>
<path d="M201.078 138.75C201.078 151.5 196.511 162.15 183.588 162.6C171.022 163.05 164.098 152.22 164.098 139.47C164.098 126.72 168.874 115.98 183.588 116.4C199.555 116.88 201.078 126 201.078 138.75Z" fill="#FCC8B8"/>
<path d="M162.785 147.63C165.736 147.63 168.128 145.481 168.128 142.83C168.128 140.179 165.736 138.03 162.785 138.03C159.835 138.03 157.443 140.179 157.443 142.83C157.443 145.481 159.835 147.63 162.785 147.63Z" fill="#FCC8B8"/>
<path d="M200.899 147.63C203.849 147.63 206.241 145.481 206.241 142.83C206.241 140.179 203.849 138.03 200.899 138.03C197.948 138.03 195.556 140.179 195.556 142.83C195.556 145.481 197.948 147.63 200.899 147.63Z" fill="#FCC8B8"/>
<path d="M163.651 138.03C163.651 138.03 164.456 138.12 165.77 140.49C167.083 142.83 167.799 144.27 167.799 144.27C167.799 144.27 168.217 136.41 167.799 131.82C167.381 127.23 170.336 117.84 180.006 117.51C185.379 117.33 196.989 121.8 197.586 125.67C198.183 129.54 197.496 142.92 197.884 143.43C198.093 143.67 198.153 142.53 198.451 141.24C198.899 139.29 200.779 138.06 202.749 138.42C202.749 138.42 207.733 123.21 204.57 116.76C201.406 110.34 185.468 103.98 171.948 109.29C158.428 114.6 160.159 123.99 160.785 128.49C161.412 133.05 163.651 138.03 163.651 138.03Z" fill="#333333"/>
<path d="M175.284 136.792C177.494 136.528 179.213 135.701 179.124 134.944C179.035 134.188 177.171 133.787 174.961 134.051C172.751 134.314 171.032 135.141 171.121 135.898C171.211 136.655 173.074 137.055 175.284 136.792Z" fill="#333333"/>
<path d="M179.827 133.74L180.006 135.72" stroke="#333333" stroke-width="0.5" stroke-miterlimit="10" stroke-linecap="round" stroke-linejoin="round"/>
<path d="M195.244 135.91C195.333 135.153 193.614 134.326 191.404 134.063C189.195 133.8 187.331 134.2 187.241 134.957C187.152 135.714 188.871 136.541 191.081 136.804C193.291 137.067 195.155 136.667 195.244 135.91Z" fill="#333333"/>
<path d="M186.513 133.74L186.334 135.72" stroke="#333333" stroke-width="0.5" stroke-miterlimit="10" stroke-linecap="round" stroke-linejoin="round"/>
<path d="M176.365 142.98C177.189 142.98 177.857 142.309 177.857 141.48C177.857 140.652 177.189 139.98 176.365 139.98C175.541 139.98 174.873 140.652 174.873 141.48C174.873 142.309 175.541 142.98 176.365 142.98Z" fill="#333333"/>
<path d="M190.542 142.98C191.366 142.98 192.034 142.309 192.034 141.48C192.034 140.652 191.366 139.98 190.542 139.98C189.718 139.98 189.05 140.652 189.05 141.48C189.05 142.309 189.718 142.98 190.542 142.98Z" fill="#333333"/>
<path d="M183.409 137.7L183.737 146.22" stroke="#333333" stroke-miterlimit="10" stroke-linecap="round" stroke-linejoin="round"/>
<path d="M173.201 119.49C173.201 119.49 175.261 117.81 179.141 119.73C183.021 121.65 183.797 128.22 188.811 128.4C193.855 128.55 195.974 126.33 197.795 129.09" stroke="#333333" stroke-width="0.5" stroke-miterlimit="10" stroke-linecap="round" stroke-linejoin="round"/>
<path d="M183.737 146.28C183.767 146.28 183.797 146.28 183.826 146.28C184.901 146.28 185.766 147.15 185.766 148.23C185.766 149.31 184.901 150.18 183.826 150.18" stroke="#333333" stroke-miterlimit="10" stroke-linecap="round" stroke-linejoin="round"/>
<path d="M181.23 154.08C181.23 154.08 179.349 154.5 178.573 151.89" stroke="#333333" stroke-miterlimit="10" stroke-linecap="round" stroke-linejoin="round"/>
<path d="M164.516 143.16C164.516 143.16 163.233 140.25 161.621 140.55" stroke="#333333" stroke-miterlimit="10" stroke-linecap="round" stroke-linejoin="round"/>
<path d="M200.242 143.16C200.242 143.16 201.525 140.25 203.137 140.55" stroke="#333333" stroke-miterlimit="10" stroke-linecap="round" stroke-linejoin="round"/>
<path d="M167.322 133.44C167.322 133.44 170.276 130.89 170.485 127.53C170.694 124.17 168.754 120.78 174.843 118.14" stroke="#333333" stroke-width="0.5" stroke-miterlimit="10" stroke-linecap="round" stroke-linejoin="round"/>
<path d="M198.302 127.41C198.302 127.41 197.586 124.74 192.004 125.37C186.423 125.97 186.931 117 177.171 116.79" stroke="#333333" stroke-width="0.5" stroke-miterlimit="10" stroke-linecap="round" stroke-linejoin="round"/>
<path d="M291.929 180.14C294.072 180.14 295.809 178.394 295.809 176.24C295.809 174.086 294.072 172.34 291.929 172.34C289.786 172.34 288.049 174.086 288.049 176.24C288.049 178.394 289.786 180.14 291.929 180.14Z" stroke="#333333" stroke-width="0.5" stroke-miterlimit="10" stroke-linecap="round" stroke-linejoin="round"/>
<path d="M291.929 174.44V177.92" stroke="#333333" stroke-width="0.5" stroke-miterlimit="10" stroke-linecap="round" stroke-linejoin="round"/>
<path d="M293.66 176.18H290.198" stroke="#333333" stroke-width="0.5" stroke-miterlimit="10" stroke-linecap="round" stroke-linejoin="round"/>
<path d="M215.314 99.33H248.205C250.801 99.33 252.891 101.46 252.891 104.04C252.891 106.65 250.772 108.75 248.205 108.75H215.314C212.718 108.75 210.629 106.62 210.629 104.04C210.629 101.46 212.718 99.33 215.314 99.33Z" fill="#9BED66"/>
<path d="M217.254 137.37H246.295C249.966 137.37 252.921 140.34 252.921 144.03V155.79C252.921 159.48 249.966 162.45 246.295 162.45H217.254C213.583 162.45 210.629 159.48 210.629 155.79V144.03C210.629 140.37 213.583 137.37 217.254 137.37Z" fill="#9BED66"/>
<path d="M253.667 118.98H286.557C289.154 118.98 291.243 121.11 291.243 123.69C291.243 126.3 289.124 128.4 286.557 128.4H253.667C251.07 128.4 248.981 126.27 248.981 123.69C248.951 121.11 251.07 118.98 253.667 118.98Z" fill="#BFFC97"/>
<path d="M277.305 164.28C278.393 164.28 279.275 163.394 279.275 162.3C279.275 161.207 278.393 160.32 277.305 160.32C276.217 160.32 275.335 161.207 275.335 162.3C275.335 163.394 276.217 164.28 277.305 164.28Z" fill="#BFFC97"/>
<path d="M286.139 164.28C287.227 164.28 288.109 163.394 288.109 162.3C288.109 161.207 287.227 160.32 286.139 160.32C285.051 160.32 284.169 161.207 284.169 162.3C284.169 163.394 285.051 164.28 286.139 164.28Z" fill="#BFFC97"/>
<path d="M294.974 164.28C296.062 164.28 296.944 163.394 296.944 162.3C296.944 161.207 296.062 160.32 294.974 160.32C293.886 160.32 293.004 161.207 293.004 162.3C293.004 163.394 293.886 164.28 294.974 164.28Z" fill="#BFFC97"/>
<path d="M210.688 110.58L216.18 107.52L212.12 105.57L210.688 110.58Z" fill="#9BED66"/>
<path d="M290.974 131.52L285.483 128.43L289.542 126.51L290.974 131.52Z" fill="#BFFC97"/>
<path d="M210.688 164.79L216.18 161.73L212.12 159.81L210.688 164.79Z" fill="#9BED66"/>
<path d="M183.2 208.71C185.771 208.71 187.856 206.615 187.856 204.03C187.856 201.445 185.771 199.35 183.2 199.35C180.629 199.35 178.544 201.445 178.544 204.03C178.544 206.615 180.629 208.71 183.2 208.71Z" fill="#E0E0E0"/>
<path d="M162.099 220.59C162.099 220.59 175.649 213.09 179.32 208.5C182.991 203.91 186.632 197.94 184.573 197.46C182.513 196.98 178.395 201.15 178.395 201.15C178.395 201.15 188.214 188.04 185.707 186.9C183.2 185.76 180.902 189.21 180.902 189.21C180.902 189.21 183.946 184.59 181.827 183.48C180.663 182.88 177.26 186.69 177.26 186.69C177.26 186.69 180.454 178.89 177.499 180.03C174.515 181.17 164.606 196.05 164.606 196.05V187.08C164.606 187.08 161.054 189.9 159.203 193.14C157.383 196.35 157.383 200.04 157.383 200.04L150.071 204.87L162.099 220.59Z" fill="#FCC8B8"/>
<path d="M182.603 201.48C181.887 201.75 181.23 202.17 180.693 202.71C179.588 203.73 178.693 205.05 178.036 206.4C177.35 207.81 176.992 209.34 176.872 210.9C177.887 210.06 178.723 209.25 179.32 208.5C181.23 206.1 183.14 203.34 184.244 201.15C183.677 201.18 183.11 201.3 182.603 201.48Z" fill="#F9B5A5"/>
<path d="M203.913 239.67C203.913 239.67 189.915 232.08 186.244 227.49C182.573 222.9 178.932 216.93 180.991 216.45C183.05 216 187.169 220.14 187.169 220.14C187.169 220.14 177.35 207.03 179.857 205.89C182.364 204.75 184.662 208.2 184.662 208.2C184.662 208.2 181.23 203.67 183.558 202.38C185.11 201.51 188.333 205.68 188.333 205.68C188.333 205.68 185.14 197.88 188.094 199.02C191.079 200.16 200.928 215.1 200.928 215.1V206.1C200.928 206.1 204.57 208.86 206.39 212.07C208.211 215.28 208.211 218.97 208.211 218.97L216.299 222.69L203.913 239.67Z" fill="#FCC8B8"/>
<path d="M136.503 95.8394C147.737 95.4051 156.52 86.5971 156.121 76.1663C155.722 65.7354 146.291 57.6315 135.057 58.0658C123.823 58.5001 115.04 67.3081 115.439 77.7389C115.838 88.1698 125.269 96.2736 136.503 95.8394Z" fill="#F9B5A5"/>
<path d="M141.863 61.23C139.684 60.48 137.625 60.12 135.118 60.21C133.357 60.27 131.656 60.57 130.044 61.08L130.521 62.5801C131.984 62.1 133.566 61.83 135.177 61.77C137.297 61.68 139.356 61.98 141.266 62.6101L141.863 61.23Z" fill="#262626"/>
<path d="M118.941 82.7701H113.27C112.017 82.7701 111.032 81.7501 111.032 80.5201V76.2901C111.032 75.0301 112.047 74.0401 113.27 74.0401H118.941C120.195 74.0401 121.18 75.0601 121.18 76.2901V80.5201C121.18 81.7501 120.165 82.7701 118.941 82.7701Z" fill="#F9B5A5"/>
<path d="M127.149 98.6101H123.597C122.523 98.6101 121.657 97.7401 121.657 96.6601V90.4201C121.657 89.3401 122.523 88.4701 123.597 88.4701H127.149C128.223 88.4701 129.089 89.3401 129.089 90.4201V96.6601C129.119 97.7401 128.223 98.6101 127.149 98.6101Z" fill="#F9B5A5"/>
<path d="M143.504 98.6101H139.952C138.878 98.6101 138.012 97.7401 138.012 96.6601V90.4201C138.012 89.3401 138.878 88.4701 139.952 88.4701H143.504C144.579 88.4701 145.444 89.3401 145.444 90.4201V96.6601C145.444 97.7401 144.579 98.6101 143.504 98.6101Z" fill="#F9B5A5"/>
<path d="M121.538 79.0501C122.263 79.0501 122.851 78.4591 122.851 77.7301C122.851 77.001 122.263 76.41 121.538 76.41C120.813 76.41 120.225 77.001 120.225 77.7301C120.225 78.4591 120.813 79.0501 121.538 79.0501Z" fill="#262626"/>
<path d="M96.0193 93.75V109.5C96.0193 111.09 94.7359 112.38 93.1541 112.38H70.5308C68.9489 112.38 67.6655 111.09 67.6655 109.5V93.75" stroke="#262626" stroke-miterlimit="10" stroke-linecap="round" stroke-linejoin="round"/>
<path d="M81.1261 105L67.9341 94.23C67.5461 93.9 67.5461 93.3 67.9341 93L80.1113 83.1C81.0365 82.35 82.3796 82.35 83.3048 83.1L95.7208 93.15C96.079 93.45 96.079 93.99 95.7208 94.29L82.4095 105C82.0513 105.33 81.4842 105.33 81.1261 105Z" stroke="#262626" stroke-miterlimit="10" stroke-linecap="round" stroke-linejoin="round"/>
<path d="M60.6218 89.64L54.5332 85.35" stroke="#262626" stroke-width="0.5" stroke-miterlimit="10" stroke-linecap="round" stroke-linejoin="round"/>
<path d="M60.6218 101.55L54.5332 105.84" stroke="#262626" stroke-width="0.5" stroke-miterlimit="10" stroke-linecap="round" stroke-linejoin="round"/>
<path d="M51.9961 95.04H60.8306" stroke="#262626" stroke-width="0.5" stroke-miterlimit="10" stroke-linecap="round" stroke-linejoin="round"/>
<path d="M102.197 89.64L108.286 85.35" stroke="#262626" stroke-width="0.5" stroke-miterlimit="10" stroke-linecap="round" stroke-linejoin="round"/>
<path d="M102.197 101.55L108.286 105.84" stroke="#262626" stroke-width="0.5" stroke-miterlimit="10" stroke-linecap="round" stroke-linejoin="round"/>
<path d="M110.823 95.04H101.989" stroke="#262626" stroke-width="0.5" stroke-miterlimit="10" stroke-linecap="round" stroke-linejoin="round"/>
<path d="M93.2437 271.11C93.2437 271.11 102.198 266.76 101.72 256.65C101.272 246.54 89.1548 259.86 89.1548 267C89.1548 274.14 93.2437 271.11 93.2437 271.11Z" fill="#6AAF3F"/>
<path d="M49.3696 233.52L87.8711 272.13" stroke="#333333" stroke-width="0.5" stroke-miterlimit="10" stroke-linecap="round" stroke-linejoin="round"/>
<path d="M65.606 234.75L67.5459 251.61" stroke="#333333" stroke-width="0.5" stroke-miterlimit="10" stroke-linecap="round" stroke-linejoin="round"/>
<path d="M48.4443 240.9L56.8609 241.2" stroke="#333333" stroke-width="0.5" stroke-miterlimit="10" stroke-linecap="round" stroke-linejoin="round"/>
<path d="M59.2188 262.95L79.2156 263.46" stroke="#333333" stroke-width="0.5" stroke-miterlimit="10" stroke-linecap="round" stroke-linejoin="round"/>
<path d="M83.9016 267.96V247.02" stroke="#333333" stroke-width="0.5" stroke-miterlimit="10" stroke-linecap="round" stroke-linejoin="round"/>
<path d="M69.3665 253.35L67.5459 235.59" stroke="#333333" stroke-width="0.5" stroke-miterlimit="10" stroke-linecap="round" stroke-linejoin="round"/>
<path d="M130.999 247.47L162.099 220.59C162.099 220.59 149.593 245.64 129.029 259.59L130.999 247.47Z" fill="#83B3FF"/>
<path d="M125.627 69.96L125.328 63.3C125.328 63.3 132.252 64.23 133.028 69.87" stroke="#EA9C8C" stroke-miterlimit="10" stroke-linecap="round" stroke-linejoin="round"/>
<path d="M145.265 70.2H179.469C180.125 70.2 180.663 70.74 180.663 71.4V73.68C180.663 74.34 180.125 74.88 179.469 74.88H145.265C144.609 74.88 144.071 74.34 144.071 73.68V71.4C144.071 70.74 144.579 70.2 145.265 70.2Z" fill="#F2BD66"/>
<path d="M141.146 84.8101H175.35C176.007 84.8101 176.544 85.3501 176.544 86.0101V88.2901C176.544 88.9501 176.007 89.4901 175.35 89.4901H141.146C140.49 89.4901 139.952 88.9501 139.952 88.2901V86.0101C139.952 85.3501 140.46 84.8101 141.146 84.8101Z" fill="#F2BD66"/>
<path d="M143.206 94.5601H177.409C178.066 94.5601 178.603 95.1001 178.603 95.7601V98.0401C178.603 98.7001 178.066 99.2401 177.409 99.2401H143.206C142.549 99.2401 142.012 98.7001 142.012 98.0401V95.7601C142.012 95.1001 142.549 94.5601 143.206 94.5601Z" fill="#F2BD66"/>
<path d="M177.32 94.5601H175.231C174.992 94.6501 174.783 94.7401 174.574 94.8601C173.559 95.4301 172.664 96.2701 171.47 96.3901C170.783 96.4501 170.127 96.3001 169.44 96.2701C168.843 96.2101 168.247 96.2701 167.65 96.4201C166.605 96.6901 165.68 97.2301 164.605 97.4101C163.322 97.6201 162.009 97.2601 160.725 97.2601C160.188 97.2601 159.681 97.3801 159.203 97.6201C158.755 97.8601 158.308 98.1601 157.86 98.4301C157.323 98.7301 156.756 98.7601 156.129 98.6701C155.472 98.5801 154.846 98.4301 154.189 98.4301C153.502 98.4001 152.906 98.5501 152.249 98.7601C151.712 98.9401 151.174 99.1201 150.637 99.3001H177.29C178.006 99.3001 178.573 98.7301 178.573 98.0101V95.9101C178.603 95.1301 178.006 94.5601 177.32 94.5601Z" fill="#C4832D"/>
<path d="M143.803 94.5601V99.1801" stroke="#C4832D" stroke-width="0.5" stroke-miterlimit="10" stroke-linecap="round" stroke-linejoin="round"/>
<path d="M144.847 94.5601V99.1801" stroke="#C4832D" stroke-width="0.5" stroke-miterlimit="10" stroke-linecap="round" stroke-linejoin="round"/>
<path d="M145.862 94.5601V99.1801" stroke="#C4832D" stroke-width="0.5" stroke-miterlimit="10" stroke-linecap="round" stroke-linejoin="round"/>
<path d="M146.877 94.5601V99.1801" stroke="#C4832D" stroke-width="0.5" stroke-miterlimit="10" stroke-linecap="round" stroke-linejoin="round"/>
<path d="M147.891 94.5601V99.1801" stroke="#C4832D" stroke-width="0.5" stroke-miterlimit="10" stroke-linecap="round" stroke-linejoin="round"/>
<path d="M153.861 94.5601V99.1801" stroke="#C4832D" stroke-width="0.5" stroke-miterlimit="10" stroke-linecap="round" stroke-linejoin="round"/>
<path d="M154.875 94.5601V99.1801" stroke="#C4832D" stroke-width="0.5" stroke-miterlimit="10" stroke-linecap="round" stroke-linejoin="round"/>
<path d="M155.92 94.5601V99.1801" stroke="#C4832D" stroke-width="0.5" stroke-miterlimit="10" stroke-linecap="round" stroke-linejoin="round"/>
<path d="M156.935 94.5601V99.1801" stroke="#C4832D" stroke-width="0.5" stroke-miterlimit="10" stroke-linecap="round" stroke-linejoin="round"/>
<path d="M163.919 94.5601V99.1801" stroke="#C4832D" stroke-width="0.5" stroke-miterlimit="10" stroke-linecap="round" stroke-linejoin="round"/>
<path d="M164.934 94.5601V99.1801" stroke="#C4832D" stroke-width="0.5" stroke-miterlimit="10" stroke-linecap="round" stroke-linejoin="round"/>
<path d="M165.978 94.5601V99.1801" stroke="#C4832D" stroke-width="0.5" stroke-miterlimit="10" stroke-linecap="round" stroke-linejoin="round"/>
<path d="M166.993 94.5601V99.1801" stroke="#C4832D" stroke-width="0.5" stroke-miterlimit="10" stroke-linecap="round" stroke-linejoin="round"/>
<path d="M168.008 94.5601V99.1801" stroke="#C4832D" stroke-width="0.5" stroke-miterlimit="10" stroke-linecap="round" stroke-linejoin="round"/>
<path d="M173.977 94.5601V99.1801" stroke="#C4832D" stroke-width="0.5" stroke-miterlimit="10" stroke-linecap="round" stroke-linejoin="round"/>
<path d="M174.992 94.5601V99.1801" stroke="#C4832D" stroke-width="0.5" stroke-miterlimit="10" stroke-linecap="round" stroke-linejoin="round"/>
<path d="M176.006 94.5601V99.1801" stroke="#C4832D" stroke-width="0.5" stroke-miterlimit="10" stroke-linecap="round" stroke-linejoin="round"/>
<path d="M177.051 94.5601V99.1801" stroke="#C4832D" stroke-width="0.5" stroke-miterlimit="10" stroke-linecap="round" stroke-linejoin="round"/>
<path d="M144.997 89.7601H179.2C179.857 89.7601 180.394 90.3001 180.394 90.9601V93.2401C180.394 93.9001 179.857 94.4401 179.2 94.4401H144.997C144.34 94.4401 143.803 93.9001 143.803 93.2401V90.9601C143.803 90.3001 144.34 89.7601 144.997 89.7601Z" fill="#F2BD66"/>
<path d="M179.111 89.7601H177.021C176.783 89.8501 176.574 89.9401 176.365 90.0601C175.35 90.6301 174.455 91.4701 173.261 91.5901C172.574 91.6501 171.918 91.5001 171.231 91.4701C170.634 91.4101 170.037 91.4701 169.441 91.6201C168.396 91.8901 167.471 92.4301 166.396 92.6101C165.113 92.8201 163.8 92.4601 162.516 92.4601C161.979 92.4601 161.472 92.5801 160.994 92.8201C160.546 93.0601 160.099 93.3601 159.651 93.6301C159.114 93.9301 158.547 93.9601 157.92 93.8701C157.263 93.7801 156.637 93.6301 155.98 93.6301C155.293 93.6001 154.697 93.7501 154.04 93.9601C153.503 94.1401 152.965 94.3201 152.428 94.5001H179.081C179.797 94.5001 180.364 93.9301 180.364 93.2101V91.1101C180.394 90.3601 179.827 89.7601 179.111 89.7601Z" fill="#C4832D"/>
<path d="M145.623 89.7601V94.3801" stroke="#C4832D" stroke-width="0.5" stroke-miterlimit="10" stroke-linecap="round" stroke-linejoin="round"/>
<path d="M146.638 89.7601V94.3801" stroke="#C4832D" stroke-width="0.5" stroke-miterlimit="10" stroke-linecap="round" stroke-linejoin="round"/>
<path d="M147.653 89.7601V94.3801" stroke="#C4832D" stroke-width="0.5" stroke-miterlimit="10" stroke-linecap="round" stroke-linejoin="round"/>
<path d="M148.697 89.7601V94.3801" stroke="#C4832D" stroke-width="0.5" stroke-miterlimit="10" stroke-linecap="round" stroke-linejoin="round"/>
<path d="M149.712 89.7601V94.3801" stroke="#C4832D" stroke-width="0.5" stroke-miterlimit="10" stroke-linecap="round" stroke-linejoin="round"/>
<path d="M155.651 89.7601V94.3801" stroke="#C4832D" stroke-width="0.5" stroke-miterlimit="10" stroke-linecap="round" stroke-linejoin="round"/>
<path d="M156.696 89.7601V94.3801" stroke="#C4832D" stroke-width="0.5" stroke-miterlimit="10" stroke-linecap="round" stroke-linejoin="round"/>
<path d="M157.711 89.7601V94.3801" stroke="#C4832D" stroke-width="0.5" stroke-miterlimit="10" stroke-linecap="round" stroke-linejoin="round"/>
<path d="M158.726 89.7601V94.3801" stroke="#C4832D" stroke-width="0.5" stroke-miterlimit="10" stroke-linecap="round" stroke-linejoin="round"/>
<path d="M165.71 89.7601V94.3801" stroke="#C4832D" stroke-width="0.5" stroke-miterlimit="10" stroke-linecap="round" stroke-linejoin="round"/>
<path d="M166.754 89.7601V94.3801" stroke="#C4832D" stroke-width="0.5" stroke-miterlimit="10" stroke-linecap="round" stroke-linejoin="round"/>
<path d="M167.769 89.7601V94.3801" stroke="#C4832D" stroke-width="0.5" stroke-miterlimit="10" stroke-linecap="round" stroke-linejoin="round"/>
<path d="M168.784 89.7601V94.3801" stroke="#C4832D" stroke-width="0.5" stroke-miterlimit="10" stroke-linecap="round" stroke-linejoin="round"/>
<path d="M169.799 89.7601V94.3801" stroke="#C4832D" stroke-width="0.5" stroke-miterlimit="10" stroke-linecap="round" stroke-linejoin="round"/>
<path d="M175.768 89.7601V94.3801" stroke="#C4832D" stroke-width="0.5" stroke-miterlimit="10" stroke-linecap="round" stroke-linejoin="round"/>
<path d="M176.783 89.7601V94.3801" stroke="#C4832D" stroke-width="0.5" stroke-miterlimit="10" stroke-linecap="round" stroke-linejoin="round"/>
<path d="M177.827 89.7601V94.3801" stroke="#C4832D" stroke-width="0.5" stroke-miterlimit="10" stroke-linecap="round" stroke-linejoin="round"/>
<path d="M178.842 89.7601V94.3801" stroke="#C4832D" stroke-width="0.5" stroke-miterlimit="10" stroke-linecap="round" stroke-linejoin="round"/>
<path d="M175.231 84.8101H173.141C172.903 84.9001 172.694 84.9901 172.485 85.1101C171.47 85.6801 170.575 86.5201 169.381 86.6401C168.694 86.7001 168.038 86.5501 167.351 86.5201C166.754 86.4601 166.157 86.5201 165.56 86.6701C164.516 86.9401 163.591 87.4801 162.516 87.6601C161.233 87.8701 159.919 87.5101 158.636 87.5101C158.099 87.5101 157.591 87.6301 157.114 87.8701C156.666 88.1101 156.219 88.4101 155.771 88.6801C155.234 88.9801 154.667 89.0101 154.04 88.9201C153.383 88.8301 152.756 88.6801 152.1 88.6801C151.413 88.6501 150.816 88.8001 150.16 89.0101C149.623 89.1901 149.085 89.3701 148.548 89.5501H175.201C175.917 89.5501 176.484 88.9801 176.484 88.2601V86.1601C176.514 85.3801 175.947 84.8101 175.231 84.8101Z" fill="#C4832D"/>
<path d="M141.743 84.8101V89.4301" stroke="#C4832D" stroke-width="0.5" stroke-miterlimit="10" stroke-linecap="round" stroke-linejoin="round"/>
<path d="M142.758 84.8101V89.4301" stroke="#C4832D" stroke-width="0.5" stroke-miterlimit="10" stroke-linecap="round" stroke-linejoin="round"/>
<path d="M143.773 84.8101V89.4301" stroke="#C4832D" stroke-width="0.5" stroke-miterlimit="10" stroke-linecap="round" stroke-linejoin="round"/>
<path d="M144.817 84.8101V89.4301" stroke="#C4832D" stroke-width="0.5" stroke-miterlimit="10" stroke-linecap="round" stroke-linejoin="round"/>
<path d="M145.832 84.8101V89.4301" stroke="#C4832D" stroke-width="0.5" stroke-miterlimit="10" stroke-linecap="round" stroke-linejoin="round"/>
<path d="M151.802 84.8101V89.4301" stroke="#C4832D" stroke-width="0.5" stroke-miterlimit="10" stroke-linecap="round" stroke-linejoin="round"/>
<path d="M152.816 84.8101V89.4301" stroke="#C4832D" stroke-width="0.5" stroke-miterlimit="10" stroke-linecap="round" stroke-linejoin="round"/>
<path d="M153.831 84.8101V89.4301" stroke="#C4832D" stroke-width="0.5" stroke-miterlimit="10" stroke-linecap="round" stroke-linejoin="round"/>
<path d="M154.875 84.8101V89.4301" stroke="#C4832D" stroke-width="0.5" stroke-miterlimit="10" stroke-linecap="round" stroke-linejoin="round"/>
<path d="M161.86 84.8101V89.4301" stroke="#C4832D" stroke-width="0.5" stroke-miterlimit="10" stroke-linecap="round" stroke-linejoin="round"/>
<path d="M162.874 84.8101V89.4301" stroke="#C4832D" stroke-width="0.5" stroke-miterlimit="10" stroke-linecap="round" stroke-linejoin="round"/>
<path d="M163.889 84.8101V89.4301" stroke="#C4832D" stroke-width="0.5" stroke-miterlimit="10" stroke-linecap="round" stroke-linejoin="round"/>
<path d="M164.904 84.8101V89.4301" stroke="#C4832D" stroke-width="0.5" stroke-miterlimit="10" stroke-linecap="round" stroke-linejoin="round"/>
<path d="M165.948 84.8101V89.4301" stroke="#C4832D" stroke-width="0.5" stroke-miterlimit="10" stroke-linecap="round" stroke-linejoin="round"/>
<path d="M171.888 84.8101V89.4301" stroke="#C4832D" stroke-width="0.5" stroke-miterlimit="10" stroke-linecap="round" stroke-linejoin="round"/>
<path d="M172.932 84.8101V89.4301" stroke="#C4832D" stroke-width="0.5" stroke-miterlimit="10" stroke-linecap="round" stroke-linejoin="round"/>
<path d="M173.947 84.8101V89.4301" stroke="#C4832D" stroke-width="0.5" stroke-miterlimit="10" stroke-linecap="round" stroke-linejoin="round"/>
<path d="M174.962 84.8101V89.4301" stroke="#C4832D" stroke-width="0.5" stroke-miterlimit="10" stroke-linecap="round" stroke-linejoin="round"/>
<path d="M147.324 79.95H181.528C182.185 79.95 182.722 80.49 182.722 81.15V83.43C182.722 84.09 182.185 84.63 181.528 84.63H147.324C146.668 84.63 146.131 84.09 146.131 83.43V81.15C146.131 80.49 146.668 79.95 147.324 79.95Z" fill="#F2BD66"/>
<path d="M181.439 79.95H179.349C179.111 80.04 178.902 80.13 178.693 80.25C177.678 80.82 176.783 81.66 175.589 81.78C174.902 81.84 174.246 81.69 173.559 81.66C172.962 81.6 172.365 81.66 171.768 81.81C170.724 82.08 169.799 82.62 168.724 82.8C167.441 83.01 166.127 82.65 164.844 82.65C164.307 82.65 163.799 82.77 163.322 83.01C162.874 83.25 162.427 83.55 161.979 83.82C161.442 84.12 160.875 84.15 160.248 84.06C159.591 83.97 158.964 83.82 158.308 83.82C157.621 83.79 157.024 83.94 156.368 84.15C155.831 84.33 155.293 84.51 154.756 84.69H181.409C182.125 84.69 182.692 84.12 182.692 83.4V81.3C182.722 80.52 182.125 79.95 181.439 79.95Z" fill="#C4832D"/>
<path d="M147.921 79.95V84.57" stroke="#C4832D" stroke-width="0.5" stroke-miterlimit="10" stroke-linecap="round" stroke-linejoin="round"/>
<path d="M148.966 79.95V84.57" stroke="#C4832D" stroke-width="0.5" stroke-miterlimit="10" stroke-linecap="round" stroke-linejoin="round"/>
<path d="M149.981 79.95V84.57" stroke="#C4832D" stroke-width="0.5" stroke-miterlimit="10" stroke-linecap="round" stroke-linejoin="round"/>
<path d="M150.995 79.95V84.57" stroke="#C4832D" stroke-width="0.5" stroke-miterlimit="10" stroke-linecap="round" stroke-linejoin="round"/>
<path d="M152.01 79.95V84.57" stroke="#C4832D" stroke-width="0.5" stroke-miterlimit="10" stroke-linecap="round" stroke-linejoin="round"/>
<path d="M157.98 79.95V84.57" stroke="#C4832D" stroke-width="0.5" stroke-miterlimit="10" stroke-linecap="round" stroke-linejoin="round"/>
<path d="M158.994 79.95V84.57" stroke="#C4832D" stroke-width="0.5" stroke-miterlimit="10" stroke-linecap="round" stroke-linejoin="round"/>
<path d="M160.039 79.95V84.57" stroke="#C4832D" stroke-width="0.5" stroke-miterlimit="10" stroke-linecap="round" stroke-linejoin="round"/>
<path d="M161.054 79.95V84.57" stroke="#C4832D" stroke-width="0.5" stroke-miterlimit="10" stroke-linecap="round" stroke-linejoin="round"/>
<path d="M168.038 79.95V84.57" stroke="#C4832D" stroke-width="0.5" stroke-miterlimit="10" stroke-linecap="round" stroke-linejoin="round"/>
<path d="M169.052 79.95V84.57" stroke="#C4832D" stroke-width="0.5" stroke-miterlimit="10" stroke-linecap="round" stroke-linejoin="round"/>
<path d="M170.097 79.95V84.57" stroke="#C4832D" stroke-width="0.5" stroke-miterlimit="10" stroke-linecap="round" stroke-linejoin="round"/>
<path d="M171.112 79.95V84.57" stroke="#C4832D" stroke-width="0.5" stroke-miterlimit="10" stroke-linecap="round" stroke-linejoin="round"/>
<path d="M172.126 79.95V84.57" stroke="#C4832D" stroke-width="0.5" stroke-miterlimit="10" stroke-linecap="round" stroke-linejoin="round"/>
<path d="M178.096 79.95V84.57" stroke="#C4832D" stroke-width="0.5" stroke-miterlimit="10" stroke-linecap="round" stroke-linejoin="round"/>
<path d="M179.111 79.95V84.57" stroke="#C4832D" stroke-width="0.5" stroke-miterlimit="10" stroke-linecap="round" stroke-linejoin="round"/>
<path d="M180.125 79.95V84.57" stroke="#C4832D" stroke-width="0.5" stroke-miterlimit="10" stroke-linecap="round" stroke-linejoin="round"/>
<path d="M181.17 79.95V84.57" stroke="#C4832D" stroke-width="0.5" stroke-miterlimit="10" stroke-linecap="round" stroke-linejoin="round"/>
<path d="M149.115 75.15H183.319C183.976 75.15 184.513 75.69 184.513 76.35V78.63C184.513 79.29 183.976 79.83 183.319 79.83H149.115C148.459 79.83 147.921 79.29 147.921 78.63V76.35C147.921 75.69 148.459 75.15 149.115 75.15Z" fill="#F2BD66"/>
<path d="M183.229 75.15H181.14C180.901 75.24 180.692 75.33 180.483 75.45C179.469 76.02 178.573 76.86 177.379 76.98C176.693 77.04 176.036 76.89 175.35 76.86C174.753 76.8 174.156 76.86 173.559 77.01C172.515 77.28 171.589 77.82 170.515 78C169.231 78.21 167.918 77.85 166.635 77.85C166.098 77.85 165.59 77.97 165.113 78.21C164.665 78.45 164.217 78.75 163.77 79.02C163.232 79.32 162.665 79.35 162.039 79.26C161.382 79.17 160.755 79.02 160.099 79.02C159.412 78.99 158.815 79.14 158.159 79.35C157.621 79.53 157.084 79.71 156.547 79.89H183.199C183.916 79.89 184.483 79.32 184.483 78.6V76.5C184.513 75.72 183.946 75.15 183.229 75.15Z" fill="#C4832D"/>
<path d="M149.742 75.15V79.77" stroke="#C4832D" stroke-width="0.5" stroke-miterlimit="10" stroke-linecap="round" stroke-linejoin="round"/>
<path d="M150.757 75.15V79.77" stroke="#C4832D" stroke-width="0.5" stroke-miterlimit="10" stroke-linecap="round" stroke-linejoin="round"/>
<path d="M151.771 75.15V79.77" stroke="#C4832D" stroke-width="0.5" stroke-miterlimit="10" stroke-linecap="round" stroke-linejoin="round"/>
<path d="M152.816 75.15V79.77" stroke="#C4832D" stroke-width="0.5" stroke-miterlimit="10" stroke-linecap="round" stroke-linejoin="round"/>
<path d="M153.831 75.15V79.77" stroke="#C4832D" stroke-width="0.5" stroke-miterlimit="10" stroke-linecap="round" stroke-linejoin="round"/>
<path d="M159.8 75.15V79.77" stroke="#C4832D" stroke-width="0.5" stroke-miterlimit="10" stroke-linecap="round" stroke-linejoin="round"/>
<path d="M160.815 75.15V79.77" stroke="#C4832D" stroke-width="0.5" stroke-miterlimit="10" stroke-linecap="round" stroke-linejoin="round"/>
<path d="M161.83 75.15V79.77" stroke="#C4832D" stroke-width="0.5" stroke-miterlimit="10" stroke-linecap="round" stroke-linejoin="round"/>
<path d="M162.844 75.15V79.77" stroke="#C4832D" stroke-width="0.5" stroke-miterlimit="10" stroke-linecap="round" stroke-linejoin="round"/>
<path d="M169.828 75.15V79.77" stroke="#C4832D" stroke-width="0.5" stroke-miterlimit="10" stroke-linecap="round" stroke-linejoin="round"/>
<path d="M170.873 75.15V79.77" stroke="#C4832D" stroke-width="0.5" stroke-miterlimit="10" stroke-linecap="round" stroke-linejoin="round"/>
<path d="M171.888 75.15V79.77" stroke="#C4832D" stroke-width="0.5" stroke-miterlimit="10" stroke-linecap="round" stroke-linejoin="round"/>
<path d="M172.903 75.15V79.77" stroke="#C4832D" stroke-width="0.5" stroke-miterlimit="10" stroke-linecap="round" stroke-linejoin="round"/>
<path d="M173.917 75.15V79.77" stroke="#C4832D" stroke-width="0.5" stroke-miterlimit="10" stroke-linecap="round" stroke-linejoin="round"/>
<path d="M179.886 75.15V79.77" stroke="#C4832D" stroke-width="0.5" stroke-miterlimit="10" stroke-linecap="round" stroke-linejoin="round"/>
<path d="M180.901 75.15V79.77" stroke="#C4832D" stroke-width="0.5" stroke-miterlimit="10" stroke-linecap="round" stroke-linejoin="round"/>
<path d="M181.946 75.15V79.77" stroke="#C4832D" stroke-width="0.5" stroke-miterlimit="10" stroke-linecap="round" stroke-linejoin="round"/>
<path d="M182.96 75.15V79.77" stroke="#C4832D" stroke-width="0.5" stroke-miterlimit="10" stroke-linecap="round" stroke-linejoin="round"/>
<path d="M179.349 70.2H177.26C177.021 70.29 176.812 70.38 176.603 70.5C175.589 71.07 174.693 71.91 173.499 72.03C172.813 72.09 172.156 71.94 171.47 71.91C170.873 71.85 170.276 71.91 169.679 72.06C168.634 72.33 167.709 72.87 166.635 73.05C165.351 73.26 164.038 72.9 162.755 72.9C162.218 72.9 161.71 73.02 161.233 73.26C160.785 73.5 160.337 73.8 159.89 74.07C159.352 74.37 158.785 74.4 158.158 74.31C157.502 74.22 156.875 74.07 156.218 74.07C155.532 74.04 154.935 74.19 154.278 74.4C153.741 74.58 153.204 74.76 152.667 74.94H179.319C180.036 74.94 180.603 74.37 180.603 73.65V71.55C180.633 70.77 180.065 70.2 179.349 70.2Z" fill="#C4832D"/>
<path d="M145.862 70.2V74.82" stroke="#C4832D" stroke-width="0.5" stroke-miterlimit="10" stroke-linecap="round" stroke-linejoin="round"/>
<path d="M146.877 70.2V74.82" stroke="#C4832D" stroke-width="0.5" stroke-miterlimit="10" stroke-linecap="round" stroke-linejoin="round"/>
<path d="M147.891 70.2V74.82" stroke="#C4832D" stroke-width="0.5" stroke-miterlimit="10" stroke-linecap="round" stroke-linejoin="round"/>
<path d="M148.936 70.2V74.82" stroke="#C4832D" stroke-width="0.5" stroke-miterlimit="10" stroke-linecap="round" stroke-linejoin="round"/>
<path d="M149.951 70.2V74.82" stroke="#C4832D" stroke-width="0.5" stroke-miterlimit="10" stroke-linecap="round" stroke-linejoin="round"/>
<path d="M155.92 70.2V74.82" stroke="#C4832D" stroke-width="0.5" stroke-miterlimit="10" stroke-linecap="round" stroke-linejoin="round"/>
<path d="M156.935 70.2V74.82" stroke="#C4832D" stroke-width="0.5" stroke-miterlimit="10" stroke-linecap="round" stroke-linejoin="round"/>
<path d="M157.95 70.2V74.82" stroke="#C4832D" stroke-width="0.5" stroke-miterlimit="10" stroke-linecap="round" stroke-linejoin="round"/>
<path d="M158.994 70.2V74.82" stroke="#C4832D" stroke-width="0.5" stroke-miterlimit="10" stroke-linecap="round" stroke-linejoin="round"/>
<path d="M165.978 70.2V74.82" stroke="#C4832D" stroke-width="0.5" stroke-miterlimit="10" stroke-linecap="round" stroke-linejoin="round"/>
<path d="M166.993 70.2V74.82" stroke="#C4832D" stroke-width="0.5" stroke-miterlimit="10" stroke-linecap="round" stroke-linejoin="round"/>
<path d="M168.008 70.2V74.82" stroke="#C4832D" stroke-width="0.5" stroke-miterlimit="10" stroke-linecap="round" stroke-linejoin="round"/>
<path d="M169.023 70.2V74.82" stroke="#C4832D" stroke-width="0.5" stroke-miterlimit="10" stroke-linecap="round" stroke-linejoin="round"/>
<path d="M170.067 70.2V74.82" stroke="#C4832D" stroke-width="0.5" stroke-miterlimit="10" stroke-linecap="round" stroke-linejoin="round"/>
<path d="M176.006 70.2V74.82" stroke="#C4832D" stroke-width="0.5" stroke-miterlimit="10" stroke-linecap="round" stroke-linejoin="round"/>
<path d="M177.051 70.2V74.82" stroke="#C4832D" stroke-width="0.5" stroke-miterlimit="10" stroke-linecap="round" stroke-linejoin="round"/>
<path d="M178.066 70.2V74.82" stroke="#C4832D" stroke-width="0.5" stroke-miterlimit="10" stroke-linecap="round" stroke-linejoin="round"/>
<path d="M179.081 70.2V74.82" stroke="#C4832D" stroke-width="0.5" stroke-miterlimit="10" stroke-linecap="round" stroke-linejoin="round"/>
<path d="M143.206 94.5601H177.409C178.066 94.5601 178.603 95.1001 178.603 95.7601V98.0401C178.603 98.7001 178.066 99.2401 177.409 99.2401H143.206C142.549 99.2401 142.012 98.7001 142.012 98.0401V95.7601C142.012 95.1001 142.549 94.5601 143.206 94.5601Z" stroke="#333333" stroke-width="0.5" stroke-miterlimit="10" stroke-linecap="round" stroke-linejoin="round"/>
<path d="M144.997 89.7601H179.2C179.857 89.7601 180.394 90.3001 180.394 90.9601V93.2401C180.394 93.9001 179.857 94.4401 179.2 94.4401H144.997C144.34 94.4401 143.803 93.9001 143.803 93.2401V90.9601C143.803 90.3001 144.34 89.7601 144.997 89.7601Z" stroke="#333333" stroke-width="0.5" stroke-miterlimit="10" stroke-linecap="round" stroke-linejoin="round"/>
<path d="M141.146 84.8101H175.35C176.007 84.8101 176.544 85.3501 176.544 86.0101V88.2901C176.544 88.9501 176.007 89.4901 175.35 89.4901H141.146C140.49 89.4901 139.952 88.9501 139.952 88.2901V86.0101C139.952 85.3501 140.46 84.8101 141.146 84.8101Z" stroke="#333333" stroke-width="0.5" stroke-miterlimit="10" stroke-linecap="round" stroke-linejoin="round"/>
<path d="M147.324 79.95H181.528C182.185 79.95 182.722 80.49 182.722 81.15V83.43C182.722 84.09 182.185 84.63 181.528 84.63H147.324C146.668 84.63 146.131 84.09 146.131 83.43V81.15C146.131 80.49 146.668 79.95 147.324 79.95Z" stroke="#333333" stroke-width="0.5" stroke-miterlimit="10" stroke-linecap="round" stroke-linejoin="round"/>
<path d="M145.265 70.2H179.469C180.125 70.2 180.663 70.74 180.663 71.4V73.68C180.663 74.34 180.125 74.88 179.469 74.88H145.265C144.609 74.88 144.071 74.34 144.071 73.68V71.4C144.071 70.74 144.579 70.2 145.265 70.2Z" stroke="#333333" stroke-width="0.5" stroke-miterlimit="10" stroke-linecap="round" stroke-linejoin="round"/>
<path d="M149.115 75.15H183.319C183.976 75.15 184.513 75.69 184.513 76.35V78.63C184.513 79.29 183.976 79.83 183.319 79.83H149.115C148.459 79.83 147.921 79.29 147.921 78.63V76.35C147.921 75.69 148.459 75.15 149.115 75.15Z" stroke="#333333" stroke-width="0.5" stroke-miterlimit="10" stroke-linecap="round" stroke-linejoin="round"/>
<path d="M260.173 265.8H285.453C286.11 265.8 286.647 266.34 286.647 267V268.14C286.647 268.8 286.11 269.34 285.453 269.34H260.173C259.517 269.34 258.979 268.8 258.979 268.14V267C258.979 266.31 259.517 265.8 260.173 265.8Z" fill="white"/>
<path d="M285.662 265.8H284.08C283.901 265.86 283.752 265.95 283.573 266.01C282.797 266.43 282.14 267.09 281.215 267.15C280.707 267.18 280.2 267.09 279.693 267.06C279.245 267.03 278.767 267.06 278.32 267.18C277.544 267.39 276.827 267.78 276.022 267.93C275.037 268.08 274.052 267.81 273.097 267.81C272.679 267.81 272.291 267.9 271.933 268.08C271.574 268.26 271.276 268.5 270.918 268.68C270.5 268.92 270.082 268.95 269.605 268.86C269.127 268.8 268.649 268.68 268.142 268.68C267.635 268.68 267.157 268.77 266.68 268.92C266.262 269.04 265.874 269.19 265.456 269.34H285.602C286.139 269.34 286.557 268.89 286.557 268.38V266.79C286.647 266.22 286.199 265.8 285.662 265.8Z" fill="#232323"/>
<path d="M260.173 265.8H285.453C286.11 265.8 286.647 266.34 286.647 267V268.14C286.647 268.8 286.11 269.34 285.453 269.34H260.173C259.517 269.34 258.979 268.8 258.979 268.14V267C258.979 266.31 259.517 265.8 260.173 265.8Z" stroke="#020202" stroke-width="0.5" stroke-miterlimit="10" stroke-linecap="round" stroke-linejoin="round"/>
<path d="M260.352 265.8V269.28" stroke="#020202" stroke-width="0.5" stroke-miterlimit="10" stroke-linecap="round" stroke-linejoin="round"/>
<path d="M261.128 265.8V269.28" stroke="#020202" stroke-width="0.5" stroke-miterlimit="10" stroke-linecap="round" stroke-linejoin="round"/>
<path d="M261.904 265.8V269.28" stroke="#020202" stroke-width="0.5" stroke-miterlimit="10" stroke-linecap="round" stroke-linejoin="round"/>
<path d="M262.651 265.8V269.28" stroke="#020202" stroke-width="0.5" stroke-miterlimit="10" stroke-linecap="round" stroke-linejoin="round"/>
<path d="M263.427 265.8V269.28" stroke="#020202" stroke-width="0.5" stroke-miterlimit="10" stroke-linecap="round" stroke-linejoin="round"/>
<path d="M267.933 265.8V269.28" stroke="#020202" stroke-width="0.5" stroke-miterlimit="10" stroke-linecap="round" stroke-linejoin="round"/>
<path d="M268.709 265.8V269.28" stroke="#020202" stroke-width="0.5" stroke-miterlimit="10" stroke-linecap="round" stroke-linejoin="round"/>
<path d="M269.485 265.8V269.28" stroke="#020202" stroke-width="0.5" stroke-miterlimit="10" stroke-linecap="round" stroke-linejoin="round"/>
<path d="M270.261 265.8V269.28" stroke="#020202" stroke-width="0.5" stroke-miterlimit="10" stroke-linecap="round" stroke-linejoin="round"/>
<path d="M275.544 265.8V269.28" stroke="#020202" stroke-width="0.5" stroke-miterlimit="10" stroke-linecap="round" stroke-linejoin="round"/>
<path d="M276.32 265.8V269.28" stroke="#020202" stroke-width="0.5" stroke-miterlimit="10" stroke-linecap="round" stroke-linejoin="round"/>
<path d="M277.096 265.8V269.28" stroke="#020202" stroke-width="0.5" stroke-miterlimit="10" stroke-linecap="round" stroke-linejoin="round"/>
<path d="M277.872 265.8V269.28" stroke="#020202" stroke-width="0.5" stroke-miterlimit="10" stroke-linecap="round" stroke-linejoin="round"/>
<path d="M278.648 265.8V269.28" stroke="#020202" stroke-width="0.5" stroke-miterlimit="10" stroke-linecap="round" stroke-linejoin="round"/>
<path d="M283.155 265.8V269.28" stroke="#020202" stroke-width="0.5" stroke-miterlimit="10" stroke-linecap="round" stroke-linejoin="round"/>
<path d="M283.901 265.8V269.28" stroke="#020202" stroke-width="0.5" stroke-miterlimit="10" stroke-linecap="round" stroke-linejoin="round"/>
<path d="M284.677 265.8V269.28" stroke="#020202" stroke-width="0.5" stroke-miterlimit="10" stroke-linecap="round" stroke-linejoin="round"/>
<path d="M285.453 265.8V269.28" stroke="#020202" stroke-width="0.5" stroke-miterlimit="10" stroke-linecap="round" stroke-linejoin="round"/>
<path d="M261.546 262.17H286.826C287.482 262.17 288.019 262.71 288.019 263.37V264.51C288.019 265.17 287.482 265.71 286.826 265.71H261.546C260.889 265.71 260.352 265.17 260.352 264.51V263.37C260.352 262.71 260.889 262.17 261.546 262.17Z" fill="white"/>
<path d="M287.035 262.17H285.453C285.274 262.23 285.124 262.32 284.945 262.38C284.169 262.8 283.513 263.46 282.588 263.52C282.08 263.55 281.573 263.46 281.065 263.43C280.618 263.4 280.14 263.43 279.692 263.55C278.916 263.76 278.2 264.15 277.394 264.3C276.409 264.45 275.424 264.18 274.469 264.18C274.052 264.18 273.664 264.27 273.305 264.45C272.947 264.63 272.649 264.87 272.291 265.05C271.873 265.29 271.455 265.32 270.977 265.23C270.5 265.17 270.022 265.05 269.515 265.05C269.008 265.05 268.53 265.14 268.053 265.29C267.635 265.41 267.247 265.56 266.829 265.71H286.975C287.512 265.71 287.93 265.26 287.93 264.75V263.16C287.99 262.59 287.572 262.17 287.035 262.17Z" fill="#232323"/>
<path d="M261.546 262.17H286.826C287.482 262.17 288.019 262.71 288.019 263.37V264.51C288.019 265.17 287.482 265.71 286.826 265.71H261.546C260.889 265.71 260.352 265.17 260.352 264.51V263.37C260.352 262.71 260.889 262.17 261.546 262.17Z" stroke="#020202" stroke-width="0.5" stroke-miterlimit="10" stroke-linecap="round" stroke-linejoin="round"/>
<path d="M261.695 262.17V265.65" stroke="#020202" stroke-width="0.5" stroke-miterlimit="10" stroke-linecap="round" stroke-linejoin="round"/>
<path d="M262.471 262.17V265.65" stroke="#020202" stroke-width="0.5" stroke-miterlimit="10" stroke-linecap="round" stroke-linejoin="round"/>
<path d="M263.247 262.17V265.65" stroke="#020202" stroke-width="0.5" stroke-miterlimit="10" stroke-linecap="round" stroke-linejoin="round"/>
<path d="M264.024 262.17V265.65" stroke="#020202" stroke-width="0.5" stroke-miterlimit="10" stroke-linecap="round" stroke-linejoin="round"/>
<path d="M264.799 262.17V265.65" stroke="#020202" stroke-width="0.5" stroke-miterlimit="10" stroke-linecap="round" stroke-linejoin="round"/>
<path d="M269.306 262.17V265.65" stroke="#020202" stroke-width="0.5" stroke-miterlimit="10" stroke-linecap="round" stroke-linejoin="round"/>
<path d="M270.082 262.17V265.65" stroke="#020202" stroke-width="0.5" stroke-miterlimit="10" stroke-linecap="round" stroke-linejoin="round"/>
<path d="M270.858 262.17V265.65" stroke="#020202" stroke-width="0.5" stroke-miterlimit="10" stroke-linecap="round" stroke-linejoin="round"/>
<path d="M271.634 262.17V265.65" stroke="#020202" stroke-width="0.5" stroke-miterlimit="10" stroke-linecap="round" stroke-linejoin="round"/>
<path d="M276.917 262.17V265.65" stroke="#020202" stroke-width="0.5" stroke-miterlimit="10" stroke-linecap="round" stroke-linejoin="round"/>
<path d="M277.663 262.17V265.65" stroke="#020202" stroke-width="0.5" stroke-miterlimit="10" stroke-linecap="round" stroke-linejoin="round"/>
<path d="M278.439 262.17V265.65" stroke="#020202" stroke-width="0.5" stroke-miterlimit="10" stroke-linecap="round" stroke-linejoin="round"/>
<path d="M279.215 262.17V265.65" stroke="#020202" stroke-width="0.5" stroke-miterlimit="10" stroke-linecap="round" stroke-linejoin="round"/>
<path d="M279.991 262.17V265.65" stroke="#020202" stroke-width="0.5" stroke-miterlimit="10" stroke-linecap="round" stroke-linejoin="round"/>
<path d="M284.498 262.17V265.65" stroke="#020202" stroke-width="0.5" stroke-miterlimit="10" stroke-linecap="round" stroke-linejoin="round"/>
<path d="M285.274 262.17V265.65" stroke="#020202" stroke-width="0.5" stroke-miterlimit="10" stroke-linecap="round" stroke-linejoin="round"/>
<path d="M286.05 262.17V265.65" stroke="#020202" stroke-width="0.5" stroke-miterlimit="10" stroke-linecap="round" stroke-linejoin="round"/>
<path d="M286.826 262.17V265.65" stroke="#020202" stroke-width="0.5" stroke-miterlimit="10" stroke-linecap="round" stroke-linejoin="round"/>
<path d="M258.621 258.42H283.901C284.557 258.42 285.095 258.96 285.095 259.62V260.76C285.095 261.42 284.557 261.96 283.901 261.96H258.621C257.964 261.96 257.427 261.42 257.427 260.76V259.62C257.427 258.96 257.964 258.42 258.621 258.42Z" fill="white"/>
<path d="M284.11 258.42H282.528C282.349 258.48 282.2 258.57 282.021 258.63C281.245 259.05 280.588 259.71 279.663 259.77C279.155 259.8 278.648 259.71 278.141 259.68C277.693 259.65 277.215 259.68 276.768 259.8C275.992 260.01 275.275 260.4 274.469 260.55C273.485 260.7 272.5 260.43 271.545 260.43C271.127 260.43 270.739 260.52 270.381 260.7C270.022 260.88 269.724 261.12 269.366 261.3C268.948 261.54 268.53 261.57 268.053 261.48C267.575 261.42 267.097 261.3 266.59 261.3C266.083 261.3 265.605 261.39 265.128 261.54C264.71 261.66 264.322 261.81 263.904 261.96H284.05C284.587 261.96 285.005 261.51 285.005 261V259.41C285.065 258.84 284.647 258.42 284.11 258.42Z" fill="#232323"/>
<path d="M258.621 258.42H283.901C284.557 258.42 285.095 258.96 285.095 259.62V260.76C285.095 261.42 284.557 261.96 283.901 261.96H258.621C257.964 261.96 257.427 261.42 257.427 260.76V259.62C257.427 258.96 257.964 258.42 258.621 258.42Z" stroke="#020202" stroke-width="0.5" stroke-miterlimit="10" stroke-linecap="round" stroke-linejoin="round"/>
<path d="M258.77 258.42V261.9" stroke="#020202" stroke-width="0.5" stroke-miterlimit="10" stroke-linecap="round" stroke-linejoin="round"/>
<path d="M259.547 258.42V261.9" stroke="#020202" stroke-width="0.5" stroke-miterlimit="10" stroke-linecap="round" stroke-linejoin="round"/>
<path d="M260.323 258.42V261.9" stroke="#020202" stroke-width="0.5" stroke-miterlimit="10" stroke-linecap="round" stroke-linejoin="round"/>
<path d="M261.098 258.42V261.9" stroke="#020202" stroke-width="0.5" stroke-miterlimit="10" stroke-linecap="round" stroke-linejoin="round"/>
<path d="M261.874 258.42V261.9" stroke="#020202" stroke-width="0.5" stroke-miterlimit="10" stroke-linecap="round" stroke-linejoin="round"/>
<path d="M266.381 258.42V261.9" stroke="#020202" stroke-width="0.5" stroke-miterlimit="10" stroke-linecap="round" stroke-linejoin="round"/>
<path d="M267.157 258.42V261.9" stroke="#020202" stroke-width="0.5" stroke-miterlimit="10" stroke-linecap="round" stroke-linejoin="round"/>
<path d="M267.933 258.42V261.9" stroke="#020202" stroke-width="0.5" stroke-miterlimit="10" stroke-linecap="round" stroke-linejoin="round"/>
<path d="M268.709 258.42V261.9" stroke="#020202" stroke-width="0.5" stroke-miterlimit="10" stroke-linecap="round" stroke-linejoin="round"/>
<path d="M273.962 258.42V261.9" stroke="#020202" stroke-width="0.5" stroke-miterlimit="10" stroke-linecap="round" stroke-linejoin="round"/>
<path d="M274.738 258.42V261.9" stroke="#020202" stroke-width="0.5" stroke-miterlimit="10" stroke-linecap="round" stroke-linejoin="round"/>
<path d="M275.514 258.42V261.9" stroke="#020202" stroke-width="0.5" stroke-miterlimit="10" stroke-linecap="round" stroke-linejoin="round"/>
<path d="M276.29 258.42V261.9" stroke="#020202" stroke-width="0.5" stroke-miterlimit="10" stroke-linecap="round" stroke-linejoin="round"/>
<path d="M277.066 258.42V261.9" stroke="#020202" stroke-width="0.5" stroke-miterlimit="10" stroke-linecap="round" stroke-linejoin="round"/>
<path d="M281.573 258.42V261.9" stroke="#020202" stroke-width="0.5" stroke-miterlimit="10" stroke-linecap="round" stroke-linejoin="round"/>
<path d="M282.349 258.42V261.9" stroke="#020202" stroke-width="0.5" stroke-miterlimit="10" stroke-linecap="round" stroke-linejoin="round"/>
<path d="M283.125 258.42V261.9" stroke="#020202" stroke-width="0.5" stroke-miterlimit="10" stroke-linecap="round" stroke-linejoin="round"/>
<path d="M283.901 258.42V261.9" stroke="#020202" stroke-width="0.5" stroke-miterlimit="10" stroke-linecap="round" stroke-linejoin="round"/>
<path d="M263.277 254.73H288.557C289.214 254.73 289.751 255.27 289.751 255.93V257.07C289.751 257.73 289.214 258.27 288.557 258.27H263.277C262.621 258.27 262.083 257.73 262.083 257.07V255.93C262.083 255.27 262.621 254.73 263.277 254.73Z" fill="white"/>
<path d="M288.796 254.73H287.214C287.035 254.79 286.886 254.88 286.707 254.94C285.931 255.36 285.274 256.02 284.349 256.08C283.841 256.11 283.334 256.02 282.827 255.99C282.379 255.96 281.901 255.99 281.454 256.11C280.678 256.32 279.961 256.71 279.155 256.86C278.171 257.01 277.186 256.74 276.23 256.74C275.813 256.74 275.425 256.83 275.066 257.01C274.708 257.19 274.41 257.43 274.052 257.61C273.634 257.85 273.216 257.88 272.738 257.79C272.261 257.73 271.783 257.61 271.276 257.61C270.769 257.61 270.291 257.7 269.814 257.85C269.396 257.97 269.008 258.12 268.59 258.27H288.736C289.273 258.27 289.691 257.82 289.691 257.31V255.72C289.751 255.18 289.303 254.73 288.796 254.73Z" fill="#232323"/>
<path d="M263.277 254.73H288.557C289.214 254.73 289.751 255.27 289.751 255.93V257.07C289.751 257.73 289.214 258.27 288.557 258.27H263.277C262.621 258.27 262.083 257.73 262.083 257.07V255.93C262.083 255.27 262.621 254.73 263.277 254.73Z" stroke="#020202" stroke-width="0.5" stroke-miterlimit="10" stroke-linecap="round" stroke-linejoin="round"/>
<path d="M263.456 254.73V258.24" stroke="#020202" stroke-width="0.5" stroke-miterlimit="10" stroke-linecap="round" stroke-linejoin="round"/>
<path d="M264.232 254.73V258.24" stroke="#020202" stroke-width="0.5" stroke-miterlimit="10" stroke-linecap="round" stroke-linejoin="round"/>
<path d="M265.008 254.73V258.24" stroke="#020202" stroke-width="0.5" stroke-miterlimit="10" stroke-linecap="round" stroke-linejoin="round"/>
<path d="M265.784 254.73V258.24" stroke="#020202" stroke-width="0.5" stroke-miterlimit="10" stroke-linecap="round" stroke-linejoin="round"/>
<path d="M266.56 254.73V258.24" stroke="#020202" stroke-width="0.5" stroke-miterlimit="10" stroke-linecap="round" stroke-linejoin="round"/>
<path d="M271.067 254.73V258.24" stroke="#020202" stroke-width="0.5" stroke-miterlimit="10" stroke-linecap="round" stroke-linejoin="round"/>
<path d="M271.843 254.73V258.24" stroke="#020202" stroke-width="0.5" stroke-miterlimit="10" stroke-linecap="round" stroke-linejoin="round"/>
<path d="M272.589 254.73V258.24" stroke="#020202" stroke-width="0.5" stroke-miterlimit="10" stroke-linecap="round" stroke-linejoin="round"/>
<path d="M273.365 254.73V258.24" stroke="#020202" stroke-width="0.5" stroke-miterlimit="10" stroke-linecap="round" stroke-linejoin="round"/>
<path d="M278.648 254.73V258.24" stroke="#020202" stroke-width="0.5" stroke-miterlimit="10" stroke-linecap="round" stroke-linejoin="round"/>
<path d="M279.424 254.73V258.24" stroke="#020202" stroke-width="0.5" stroke-miterlimit="10" stroke-linecap="round" stroke-linejoin="round"/>
<path d="M280.2 254.73V258.24" stroke="#020202" stroke-width="0.5" stroke-miterlimit="10" stroke-linecap="round" stroke-linejoin="round"/>
<path d="M280.976 254.73V258.24" stroke="#020202" stroke-width="0.5" stroke-miterlimit="10" stroke-linecap="round" stroke-linejoin="round"/>
<path d="M281.752 254.73V258.24" stroke="#020202" stroke-width="0.5" stroke-miterlimit="10" stroke-linecap="round" stroke-linejoin="round"/>
<path d="M286.259 254.73V258.24" stroke="#020202" stroke-width="0.5" stroke-miterlimit="10" stroke-linecap="round" stroke-linejoin="round"/>
<path d="M287.035 254.73V258.24" stroke="#020202" stroke-width="0.5" stroke-miterlimit="10" stroke-linecap="round" stroke-linejoin="round"/>
<path d="M287.811 254.73V258.24" stroke="#020202" stroke-width="0.5" stroke-miterlimit="10" stroke-linecap="round" stroke-linejoin="round"/>
<path d="M288.587 254.73V258.24" stroke="#020202" stroke-width="0.5" stroke-miterlimit="10" stroke-linecap="round" stroke-linejoin="round"/>
<path d="M264.65 251.1H289.93C290.586 251.1 291.124 251.64 291.124 252.3V253.44C291.124 254.1 290.586 254.64 289.93 254.64H264.65C263.994 254.64 263.456 254.1 263.456 253.44V252.3C263.456 251.64 263.994 251.1 264.65 251.1Z" fill="white"/>
<path d="M290.139 251.1H288.557C288.378 251.16 288.229 251.25 288.05 251.31C287.274 251.73 286.617 252.39 285.692 252.45C285.184 252.48 284.677 252.39 284.17 252.36C283.722 252.33 283.244 252.36 282.797 252.48C282.021 252.69 281.304 253.08 280.498 253.23C279.514 253.38 278.529 253.11 277.574 253.11C277.156 253.11 276.768 253.2 276.409 253.38C276.051 253.56 275.753 253.8 275.395 253.98C274.977 254.22 274.559 254.25 274.081 254.16C273.604 254.1 273.126 253.98 272.619 253.98C272.112 253.98 271.634 254.07 271.157 254.22C270.739 254.34 270.351 254.49 269.933 254.64H290.079C290.616 254.64 291.034 254.19 291.034 253.68V252.09C291.124 251.55 290.676 251.1 290.139 251.1Z" fill="#232323"/>
<path d="M264.65 251.1H289.93C290.586 251.1 291.124 251.64 291.124 252.3V253.44C291.124 254.1 290.586 254.64 289.93 254.64H264.65C263.994 254.64 263.456 254.1 263.456 253.44V252.3C263.456 251.64 263.994 251.1 264.65 251.1Z" stroke="#020202" stroke-width="0.5" stroke-miterlimit="10" stroke-linecap="round" stroke-linejoin="round"/>
<path d="M264.829 251.1V254.61" stroke="#020202" stroke-width="0.5" stroke-miterlimit="10" stroke-linecap="round" stroke-linejoin="round"/>
<path d="M265.605 251.1V254.61" stroke="#020202" stroke-width="0.5" stroke-miterlimit="10" stroke-linecap="round" stroke-linejoin="round"/>
<path d="M266.351 251.1V254.61" stroke="#020202" stroke-width="0.5" stroke-miterlimit="10" stroke-linecap="round" stroke-linejoin="round"/>
<path d="M267.127 251.1V254.61" stroke="#020202" stroke-width="0.5" stroke-miterlimit="10" stroke-linecap="round" stroke-linejoin="round"/>
<path d="M267.903 251.1V254.61" stroke="#020202" stroke-width="0.5" stroke-miterlimit="10" stroke-linecap="round" stroke-linejoin="round"/>
<path d="M272.41 251.1V254.61" stroke="#020202" stroke-width="0.5" stroke-miterlimit="10" stroke-linecap="round" stroke-linejoin="round"/>
<path d="M273.186 251.1V254.61" stroke="#020202" stroke-width="0.5" stroke-miterlimit="10" stroke-linecap="round" stroke-linejoin="round"/>
<path d="M273.962 251.1V254.61" stroke="#020202" stroke-width="0.5" stroke-miterlimit="10" stroke-linecap="round" stroke-linejoin="round"/>
<path d="M274.738 251.1V254.61" stroke="#020202" stroke-width="0.5" stroke-miterlimit="10" stroke-linecap="round" stroke-linejoin="round"/>
<path d="M280.021 251.1V254.61" stroke="#020202" stroke-width="0.5" stroke-miterlimit="10" stroke-linecap="round" stroke-linejoin="round"/>
<path d="M280.797 251.1V254.61" stroke="#020202" stroke-width="0.5" stroke-miterlimit="10" stroke-linecap="round" stroke-linejoin="round"/>
<path d="M281.573 251.1V254.61" stroke="#020202" stroke-width="0.5" stroke-miterlimit="10" stroke-linecap="round" stroke-linejoin="round"/>
<path d="M282.349 251.1V254.61" stroke="#020202" stroke-width="0.5" stroke-miterlimit="10" stroke-linecap="round" stroke-linejoin="round"/>
<path d="M283.125 251.1V254.61" stroke="#020202" stroke-width="0.5" stroke-miterlimit="10" stroke-linecap="round" stroke-linejoin="round"/>
<path d="M287.632 251.1V254.61" stroke="#020202" stroke-width="0.5" stroke-miterlimit="10" stroke-linecap="round" stroke-linejoin="round"/>
<path d="M288.378 251.1V254.61" stroke="#020202" stroke-width="0.5" stroke-miterlimit="10" stroke-linecap="round" stroke-linejoin="round"/>
<path d="M289.154 251.1V254.61" stroke="#020202" stroke-width="0.5" stroke-miterlimit="10" stroke-linecap="round" stroke-linejoin="round"/>
<path d="M289.93 251.1V254.61" stroke="#020202" stroke-width="0.5" stroke-miterlimit="10" stroke-linecap="round" stroke-linejoin="round"/>
<path d="M261.725 247.35H287.005C287.662 247.35 288.199 247.89 288.199 248.55V249.69C288.199 250.35 287.662 250.89 287.005 250.89H261.725C261.069 250.89 260.531 250.35 260.531 249.69V248.55C260.531 247.89 261.069 247.35 261.725 247.35Z" fill="white"/>
<path d="M287.214 247.35H285.632C285.453 247.41 285.304 247.5 285.125 247.56C284.349 247.98 283.692 248.64 282.767 248.7C282.26 248.73 281.752 248.64 281.245 248.61C280.797 248.58 280.32 248.61 279.872 248.73C279.096 248.94 278.379 249.33 277.574 249.48C276.589 249.63 275.604 249.36 274.649 249.36C274.231 249.36 273.843 249.45 273.485 249.63C273.127 249.81 272.828 250.05 272.47 250.23C272.052 250.47 271.634 250.5 271.157 250.41C270.679 250.35 270.202 250.23 269.694 250.23C269.187 250.23 268.709 250.32 268.232 250.47C267.814 250.59 267.426 250.74 267.008 250.89H287.154C287.692 250.89 288.109 250.44 288.109 249.93V248.34C288.199 247.8 287.751 247.35 287.214 247.35Z" fill="#232323"/>
<path d="M261.725 247.35H287.005C287.662 247.35 288.199 247.89 288.199 248.55V249.69C288.199 250.35 287.662 250.89 287.005 250.89H261.725C261.069 250.89 260.531 250.35 260.531 249.69V248.55C260.531 247.89 261.069 247.35 261.725 247.35Z" stroke="#020202" stroke-width="0.5" stroke-miterlimit="10" stroke-linecap="round" stroke-linejoin="round"/>
<path d="M261.904 247.35V250.86" stroke="#020202" stroke-width="0.5" stroke-miterlimit="10" stroke-linecap="round" stroke-linejoin="round"/>
<path d="M262.651 247.35V250.86" stroke="#020202" stroke-width="0.5" stroke-miterlimit="10" stroke-linecap="round" stroke-linejoin="round"/>
<path d="M263.427 247.35V250.86" stroke="#020202" stroke-width="0.5" stroke-miterlimit="10" stroke-linecap="round" stroke-linejoin="round"/>
<path d="M264.203 247.35V250.86" stroke="#020202" stroke-width="0.5" stroke-miterlimit="10" stroke-linecap="round" stroke-linejoin="round"/>
<path d="M264.978 247.35V250.86" stroke="#020202" stroke-width="0.5" stroke-miterlimit="10" stroke-linecap="round" stroke-linejoin="round"/>
<path d="M269.485 247.35V250.86" stroke="#020202" stroke-width="0.5" stroke-miterlimit="10" stroke-linecap="round" stroke-linejoin="round"/>
<path d="M270.261 247.35V250.86" stroke="#020202" stroke-width="0.5" stroke-miterlimit="10" stroke-linecap="round" stroke-linejoin="round"/>
<path d="M271.037 247.35V250.86" stroke="#020202" stroke-width="0.5" stroke-miterlimit="10" stroke-linecap="round" stroke-linejoin="round"/>
<path d="M271.813 247.35V250.86" stroke="#020202" stroke-width="0.5" stroke-miterlimit="10" stroke-linecap="round" stroke-linejoin="round"/>
<path d="M277.096 247.35V250.86" stroke="#020202" stroke-width="0.5" stroke-miterlimit="10" stroke-linecap="round" stroke-linejoin="round"/>
<path d="M277.872 247.35V250.86" stroke="#020202" stroke-width="0.5" stroke-miterlimit="10" stroke-linecap="round" stroke-linejoin="round"/>
<path d="M278.648 247.35V250.86" stroke="#020202" stroke-width="0.5" stroke-miterlimit="10" stroke-linecap="round" stroke-linejoin="round"/>
<path d="M279.424 247.35V250.86" stroke="#020202" stroke-width="0.5" stroke-miterlimit="10" stroke-linecap="round" stroke-linejoin="round"/>
<path d="M280.17 247.35V250.86" stroke="#020202" stroke-width="0.5" stroke-miterlimit="10" stroke-linecap="round" stroke-linejoin="round"/>
<path d="M284.677 247.35V250.86" stroke="#020202" stroke-width="0.5" stroke-miterlimit="10" stroke-linecap="round" stroke-linejoin="round"/>
<path d="M285.453 247.35V250.86" stroke="#020202" stroke-width="0.5" stroke-miterlimit="10" stroke-linecap="round" stroke-linejoin="round"/>
<path d="M286.229 247.35V250.86" stroke="#020202" stroke-width="0.5" stroke-miterlimit="10" stroke-linecap="round" stroke-linejoin="round"/>
<path d="M287.005 247.35V250.86" stroke="#020202" stroke-width="0.5" stroke-miterlimit="10" stroke-linecap="round" stroke-linejoin="round"/>
<path d="M162.099 220.59L150.041 204.81L145.444 207.45L157.741 224.37L162.099 220.59Z" fill="white"/>
<path d="M216.18 222.81L203.913 239.67L208.36 242.1L221.075 225.06L216.18 222.81Z" fill="white"/>
<path d="M157.353 199.98L118.434 224.49" stroke="#333333" stroke-width="0.5" stroke-miterlimit="10" stroke-linecap="round" stroke-linejoin="round"/>
<path d="M141.743 198.75L138.072 211.86" stroke="#333333" stroke-width="0.5" stroke-miterlimit="10" stroke-linecap="round" stroke-linejoin="round"/>
<path d="M203.913 239.67C203.913 239.67 220.687 249.15 232.804 255.12" stroke="#333333" stroke-width="0.5" stroke-miterlimit="10" stroke-linecap="round" stroke-linejoin="round"/>
<path d="M240.713 234.15L208.211 218.97" stroke="#333333" stroke-width="0.5" stroke-miterlimit="10" stroke-linecap="round" stroke-linejoin="round"/>
<path d="M222.656 208.41L229.282 228.39" stroke="#333333" stroke-width="0.5" stroke-miterlimit="10" stroke-linecap="round" stroke-linejoin="round"/>
<path d="M135.804 196.71C136.315 196.71 136.729 196.294 136.729 195.78C136.729 195.266 136.315 194.85 135.804 194.85C135.293 194.85 134.879 195.266 134.879 195.78C134.879 196.294 135.293 196.71 135.804 196.71Z" fill="#D7E6FF"/>
<path d="M241.639 248.4C242.15 248.4 242.564 247.984 242.564 247.47C242.564 246.956 242.15 246.54 241.639 246.54C241.128 246.54 240.714 246.956 240.714 247.47C240.714 247.984 241.128 248.4 241.639 248.4Z" fill="#D7E6FF"/>
<path d="M220.836 193.71C221.347 193.71 221.761 193.294 221.761 192.78C221.761 192.266 221.347 191.85 220.836 191.85C220.325 191.85 219.911 192.266 219.911 192.78C219.911 193.294 220.325 193.71 220.836 193.71Z" fill="#D7E6FF"/>
<path d="M250.771 219C251.282 219 251.697 218.584 251.697 218.07C251.697 217.556 251.282 217.14 250.771 217.14C250.26 217.14 249.846 217.556 249.846 218.07C249.846 218.584 250.26 219 250.771 219Z" fill="#D7E6FF"/>
<path d="M185.17 259.65C185.681 259.65 186.095 259.234 186.095 258.72C186.095 258.206 185.681 257.79 185.17 257.79C184.659 257.79 184.244 258.206 184.244 258.72C184.244 259.234 184.659 259.65 185.17 259.65Z" fill="#D7E6FF"/>
<path d="M140.371 178.08C140.882 178.08 141.296 177.664 141.296 177.15C141.296 176.636 140.882 176.22 140.371 176.22C139.86 176.22 139.446 176.636 139.446 177.15C139.446 177.664 139.86 178.08 140.371 178.08Z" fill="#D7E6FF"/>
<path d="M121.627 242.67C122.138 242.67 122.552 242.254 122.552 241.74C122.552 241.226 122.138 240.81 121.627 240.81C121.116 240.81 120.702 241.226 120.702 241.74C120.702 242.254 121.116 242.67 121.627 242.67Z" fill="#D7E6FF"/>
<path d="M156.129 238.53C156.64 238.53 157.055 238.114 157.055 237.6C157.055 237.086 156.64 236.67 156.129 236.67C155.618 236.67 155.204 237.086 155.204 237.6C155.204 238.114 155.618 238.53 156.129 238.53Z" fill="#D7E6FF"/>
<path d="M150.876 223.35C151.387 223.35 151.801 222.934 151.801 222.42C151.801 221.906 151.387 221.49 150.876 221.49C150.365 221.49 149.951 221.906 149.951 222.42C149.951 222.934 150.365 223.35 150.876 223.35Z" fill="#D7E6FF"/>
<path d="M211.016 171.66C211.527 171.66 211.941 171.244 211.941 170.73C211.941 170.216 211.527 169.8 211.016 169.8C210.505 169.8 210.091 170.216 210.091 170.73C210.091 171.244 210.505 171.66 211.016 171.66Z" fill="#D7E6FF"/>
<path d="M177.991 182.535C178.535 181.588 178.582 180.592 178.097 180.311C177.611 180.029 176.777 180.568 176.233 181.515C175.689 182.462 175.642 183.458 176.127 183.74C176.612 184.022 177.447 183.482 177.991 182.535Z" fill="#FFDFD7"/>
<path d="M181.666 185.875C182.297 184.984 182.437 183.997 181.981 183.671C181.524 183.344 180.643 183.802 180.012 184.693C179.382 185.584 179.241 186.571 179.697 186.898C180.154 187.224 181.035 186.767 181.666 185.875Z" fill="#FFDFD7"/>
<path d="M189.135 202.903C189.649 202.677 189.711 201.682 189.275 200.68C188.839 199.678 188.07 199.049 187.556 199.274C187.043 199.5 186.98 200.495 187.416 201.497C187.852 202.499 188.622 203.128 189.135 202.903Z" fill="#FFDFD7"/>
<path d="M185.819 206.174C186.283 205.857 186.164 204.867 185.552 203.963C184.941 203.058 184.07 202.581 183.606 202.897C183.143 203.214 183.262 204.204 183.873 205.108C184.484 206.013 185.356 206.49 185.819 206.174Z" fill="#FFDFD7"/>
<path d="M182.528 209.529C182.992 209.212 182.873 208.222 182.262 207.317C181.65 206.413 180.779 205.936 180.315 206.252C179.852 206.569 179.971 207.559 180.582 208.463C181.193 209.368 182.065 209.845 182.528 209.529Z" fill="#FFDFD7"/>
<path d="M184.207 200.011C184.77 199.214 184.901 198.335 184.498 198.047C184.095 197.759 183.311 198.171 182.747 198.968C182.184 199.764 182.053 200.644 182.456 200.932C182.859 201.22 183.643 200.808 184.207 200.011Z" fill="#FFDFD7"/>
<path d="M183.156 219.831C183.559 219.544 183.43 218.664 182.867 217.867C182.304 217.07 181.521 216.657 181.118 216.944C180.714 217.232 180.844 218.112 181.407 218.909C181.97 219.706 182.753 220.119 183.156 219.831Z" fill="#FFDFD7"/>
<path d="M145.772 209.34L151.264 205.95" stroke="#83B3FF" stroke-miterlimit="10"/>
<path d="M147.384 211.35L152.876 207.99" stroke="#83B3FF" stroke-miterlimit="10"/>
<path d="M148.668 213.21L154.159 209.82" stroke="#83B3FF" stroke-miterlimit="10"/>
<path d="M150.13 215.22L155.442 211.56" stroke="#83B3FF" stroke-miterlimit="10"/>
<path d="M156.249 223.11L161.442 219.3" stroke="#83B3FF" stroke-miterlimit="10"/>
<path d="M154.726 221.13L159.92 217.29" stroke="#83B3FF" stroke-miterlimit="10"/>
<path d="M153.264 219.33L158.457 215.49" stroke="#83B3FF" stroke-miterlimit="10"/>
<path d="M151.921 217.62L157.084 213.81" stroke="#83B3FF" stroke-miterlimit="10"/>
<path d="M211.106 241.5L205.107 237.15" stroke="#83B3FF" stroke-miterlimit="10"/>
<path d="M220.239 226.68L214.21 223.11" stroke="#83B3FF" stroke-miterlimit="10"/>
<path d="M212.36 239.22L206.599 235.02" stroke="#83B3FF" stroke-miterlimit="10"/>
<path d="M213.553 237.3L208.33 233.52" stroke="#83B3FF" stroke-miterlimit="10"/>
<path d="M214.837 235.17L209.435 231.66" stroke="#83B3FF" stroke-miterlimit="10"/>
<path d="M218.478 228.63L212.987 225.3" stroke="#83B3FF" stroke-miterlimit="10"/>
<path d="M217.404 230.67L211.882 227.34" stroke="#83B3FF" stroke-miterlimit="10"/>
<path d="M216.359 232.59L210.867 229.26" stroke="#83B3FF" stroke-miterlimit="10"/>
<path d="M175.35 204.27C175.35 204.27 180.842 197.64 184.185 197.01" stroke="#333333" stroke-width="0.5" stroke-miterlimit="10" stroke-linecap="round" stroke-linejoin="round"/>
<path d="M173.41 198.45C173.41 198.45 181.021 188.25 182.901 187.11" stroke="#333333" stroke-width="0.5" stroke-miterlimit="10" stroke-linecap="round" stroke-linejoin="round"/>
<path d="M169.202 196.2C169.202 196.2 177.588 185.07 180.842 183.48" stroke="#333333" stroke-width="0.5" stroke-miterlimit="10" stroke-linecap="round" stroke-linejoin="round"/>
<path d="M188.99 222.81C188.99 222.81 186.005 218.07 183.439 215.91" stroke="#333333" stroke-width="0.5" stroke-miterlimit="10" stroke-linecap="round" stroke-linejoin="round"/>
<path d="M191.348 217.83C191.348 217.83 185.259 207.57 182.901 206.34C180.543 205.11 179.857 205.89 179.857 205.89" stroke="#333333" stroke-width="0.5" stroke-miterlimit="10" stroke-linecap="round" stroke-linejoin="round"/>
<path d="M196.541 215.76C196.541 215.76 187.557 203.67 185.199 202.5C182.842 201.36 182.603 203.58 182.603 203.58" stroke="#333333" stroke-width="0.5" stroke-miterlimit="10" stroke-linecap="round" stroke-linejoin="round"/>
<path d="M337.206 270.12H24" stroke="#333333" stroke-width="0.7" stroke-miterlimit="10" stroke-linecap="round" stroke-linejoin="round"/>
<path d="M216.18 222.81L203.794 239.55L201.555 238.32L216.18 222.81Z" fill="#333333"/>
<path d="M162.099 220.59L164.158 219.33L150.041 204.81L162.099 220.59Z" fill="#333333"/>
</g>
<defs>
<clipPath id="clip0">
<rect width="388" height="300" fill="white" transform="translate(-13)"/>
</clipPath>
</defs>
</svg>
