<svg width="375" height="297" viewBox="0 0 375 297" fill="none" xmlns="http://www.w3.org/2000/svg">
<path fill-rule="evenodd" clip-rule="evenodd" d="M191.373 141.612C191.618 141.639 191.794 141.859 191.767 142.104L191.263 146.678C191.248 146.813 191.171 146.935 191.056 147.007C190.94 147.079 190.798 147.094 190.669 147.048L185.295 145.118C185.063 145.035 184.943 144.779 185.026 144.548C185.109 144.316 185.365 144.196 185.596 144.279L190.439 146.019L190.882 142.006C190.909 141.762 191.129 141.585 191.373 141.612Z" fill="#333333"/>
<path fill-rule="evenodd" clip-rule="evenodd" d="M187.905 139.611C188.14 139.537 188.39 139.667 188.464 139.901L190.246 145.544C190.296 145.703 190.253 145.876 190.136 145.993L189.631 146.498C189.475 146.655 189.227 146.673 189.05 146.54L187.179 145.145C186.982 144.997 186.941 144.718 187.088 144.521C187.236 144.324 187.515 144.283 187.712 144.43L189.274 145.596L189.315 145.555L187.615 140.17C187.54 139.935 187.671 139.685 187.905 139.611Z" fill="#333333"/>
<path fill-rule="evenodd" clip-rule="evenodd" d="M26.2157 143.188C26.4264 143.061 26.7001 143.129 26.827 143.34L26.4455 143.57L26.0639 143.8C25.937 143.589 26.005 143.315 26.2157 143.188ZM26.4455 143.57C26.0639 143.8 26.0641 143.8 26.0643 143.8L26.0652 143.802L26.0684 143.807L26.0805 143.827C26.0911 143.844 26.1069 143.87 26.1276 143.904C26.1691 143.971 26.2308 144.07 26.3123 144.199C26.4753 144.456 26.7174 144.831 27.0359 145.307C27.6727 146.257 28.6148 147.608 29.8386 149.213C32.2854 152.423 35.8621 156.654 40.3806 160.737C49.4065 168.892 62.262 176.518 77.4084 174.096C77.6513 174.057 77.8167 173.829 77.7779 173.586C77.739 173.343 77.5107 173.177 77.2678 173.216C62.514 175.576 49.9231 168.158 40.9778 160.075C36.5106 156.039 32.9705 151.852 30.5469 148.673C29.3354 147.084 28.4039 145.748 27.7759 144.811C27.4619 144.342 27.2239 143.973 27.0647 143.722C26.9851 143.596 26.9253 143.5 26.8856 143.436C26.8657 143.403 26.8508 143.379 26.8411 143.363L26.8302 143.345L26.8276 143.341L26.8271 143.34C26.827 143.34 26.827 143.34 26.4455 143.57Z" fill="#333333"/>
<path d="M149.485 266.96C149.485 266.96 158.304 260.961 159.67 250.061C162.936 223.39 120.12 115.461 95.8314 99.1554C69.9695 81.7809 49.8678 97.6407 49.2145 120.153C48.1753 157.961 79.9758 232.033 99.5727 252.972C118.546 273.197 141.231 272.633 149.485 266.96Z" fill="#FFD580"/>
<path fill-rule="evenodd" clip-rule="evenodd" d="M348.226 140.61C348.45 140.711 348.55 140.975 348.449 141.199L348.043 141.016L347.637 140.832C347.738 140.608 348.002 140.508 348.226 140.61ZM347.637 140.833C347.637 140.832 347.637 140.832 348.043 141.016C348.449 141.199 348.449 141.199 348.448 141.2L348.448 141.201L348.445 141.207L348.436 141.228C348.427 141.247 348.414 141.274 348.398 141.31C348.364 141.382 348.315 141.487 348.249 141.625C348.117 141.899 347.921 142.301 347.661 142.811C347.14 143.831 346.364 145.284 345.337 147.024C343.285 150.502 340.23 155.128 336.223 159.719C328.219 168.889 316.349 177.985 301.022 177.368C300.776 177.358 300.585 177.151 300.595 176.905C300.605 176.659 300.812 176.468 301.058 176.478C315.987 177.079 327.619 168.221 335.552 159.133C339.514 154.594 342.537 150.016 344.57 146.571C345.586 144.849 346.354 143.412 346.867 142.406C347.124 141.903 347.317 141.508 347.446 141.24C347.51 141.106 347.558 141.003 347.59 140.934C347.606 140.9 347.618 140.874 347.626 140.857L347.634 140.838L347.636 140.834L347.637 140.833Z" fill="#333333"/>
<path fill-rule="evenodd" clip-rule="evenodd" d="M345.329 139.394C345.568 139.338 345.808 139.487 345.864 139.726L346.775 143.636L351.409 141.358C351.63 141.25 351.897 141.341 352.006 141.562C352.114 141.782 352.023 142.049 351.802 142.158L346.665 144.682C346.544 144.742 346.401 144.743 346.278 144.685C346.156 144.627 346.066 144.516 346.035 144.384L344.996 139.929C344.94 139.689 345.089 139.45 345.329 139.394Z" fill="#333333"/>
<path fill-rule="evenodd" clip-rule="evenodd" d="M347.77 137.103C348.011 137.149 348.17 137.382 348.124 137.624L347.074 143.158L347.103 143.182L348.509 141.85C348.687 141.681 348.969 141.689 349.138 141.867C349.307 142.046 349.3 142.328 349.121 142.497L347.429 144.101C347.265 144.256 347.011 144.264 346.837 144.12L346.303 143.674C346.179 143.571 346.12 143.408 346.15 143.249L347.249 137.458C347.295 137.216 347.528 137.057 347.77 137.103Z" fill="#333333"/>
<path fill-rule="evenodd" clip-rule="evenodd" d="M85.442 96.8695C85.497 96.8102 85.5893 96.8059 85.6496 96.8597C85.9187 97.0997 86.1641 97.3439 86.3931 97.5893C86.9876 98.1868 87.356 98.6093 87.6483 99.0755C87.8869 99.3702 88.1226 99.6573 88.3723 99.9347C89.2232 100.88 90.2173 101.692 91.9271 102.173C93.6422 102.642 94.635 102.416 95.3232 101.973C95.6722 101.749 95.9514 101.463 96.2115 101.163C96.2935 101.068 96.3748 100.97 96.4562 100.873C96.6276 100.667 96.7994 100.46 96.9786 100.281C97.0366 100.223 97.1306 100.223 97.1886 100.281C97.2466 100.339 97.2466 100.433 97.1886 100.491C97.0188 100.661 96.8621 100.849 96.6961 101.049C96.6127 101.149 96.5269 101.252 96.4359 101.357C96.1691 101.665 95.868 101.976 95.4838 102.223C94.7056 102.724 93.6201 102.944 91.8484 102.46L91.8472 102.459C90.104 101.969 89.0699 101.142 88.2019 100.189C88.341 100.525 88.4894 100.915 88.6709 101.393C88.7397 101.574 88.8134 101.767 88.893 101.975C90.0113 104.894 89.85 108.59 87.7292 110.877L87.7289 110.877C86.3607 112.344 84.4727 112.926 82.5307 112.87C80.5899 112.813 78.5854 112.118 76.9623 111.018L76.9621 111.018C75.0963 109.747 73.6823 108.469 72.6893 106.917C72.5208 106.654 72.3646 106.383 72.2205 106.104C72.4362 107.91 72.3878 109.662 71.918 111.995L71.9179 111.996C71.6462 113.331 71.1805 114.71 70.4707 115.864C69.7607 117.017 68.8008 117.954 67.5395 118.385L67.5385 118.385C66.7317 118.654 66.0072 118.651 65.3623 118.433C64.7193 118.215 64.1673 117.787 63.6959 117.228C62.7561 116.112 62.1185 114.449 61.7056 112.775L61.7053 112.774C61.6692 112.623 61.6361 112.478 61.6058 112.341C61.5766 112.568 61.5425 112.793 61.5034 113.018C61.2584 114.428 60.8208 115.817 60.2112 117.752C60.1014 118.1 59.986 118.466 59.8652 118.853C59.5085 120.006 59.0066 121.221 58.3022 122.195C57.5973 123.17 56.6803 123.917 55.4939 124.103L55.4939 124.103C53.9006 124.353 52.5831 123.481 51.6299 122.173C50.6767 120.866 50.0668 119.1 49.8801 117.488C49.3356 112.916 51.1778 108.73 53.3052 104.771C53.344 104.698 53.434 104.671 53.5062 104.71C53.5784 104.749 53.6055 104.839 53.5667 104.911C51.4415 108.866 49.6422 112.98 50.175 117.453L50.175 117.453C50.3569 119.024 50.9519 120.74 51.8698 121.998C52.7878 123.257 54.0076 124.036 55.4479 123.81C56.5295 123.64 57.3844 122.958 58.0616 122.021C58.7392 121.084 59.2295 119.904 59.5816 118.765L59.5817 118.765C59.7033 118.376 59.8191 118.008 59.929 117.659C60.5389 115.723 60.9695 114.356 61.2109 112.967C61.3053 112.424 61.3708 111.877 61.4063 111.291C61.2918 110.546 61.2857 110.052 61.3045 109.595C61.3095 109.473 61.3161 109.355 61.3228 109.236C61.3427 108.884 61.363 108.523 61.3418 108.041C61.3159 107.715 61.2849 107.373 61.2484 107.012C61.2402 106.932 61.2985 106.859 61.3791 106.85C61.4597 106.841 61.5329 106.898 61.5434 106.978C61.5962 107.385 61.6247 107.725 61.638 108.02C61.7386 109.293 61.7598 110.333 61.7046 111.277C61.7659 111.669 61.8581 112.134 61.994 112.705C62.4032 114.363 63.0273 115.973 63.923 117.036C64.3695 117.566 64.8788 117.955 65.4576 118.151C66.0343 118.347 66.6917 118.354 67.444 118.103C68.6206 117.701 69.5317 116.823 70.2178 115.708C70.9042 114.593 71.3599 113.249 71.6269 111.937C72.1761 109.208 72.1426 107.297 71.7788 105.122C71.3368 103.985 71.0628 102.703 70.944 101.207C70.9379 101.13 70.9924 101.061 71.0692 101.049C71.146 101.037 71.2189 101.086 71.2366 101.162L71.2449 101.197C71.5845 102.654 71.8713 103.883 72.0666 105.042C72.3071 105.656 72.5975 106.223 72.9393 106.757C73.9025 108.263 75.2809 109.514 77.1289 110.772C78.7094 111.844 80.6598 112.518 82.5393 112.573C84.4173 112.628 86.2148 112.065 87.5115 110.675C89.53 108.499 89.7088 104.935 88.6158 102.082C88.5354 101.872 88.4614 101.677 88.3925 101.496C87.9847 100.424 87.7555 99.8212 87.4298 99.2867C87.422 99.2739 87.4141 99.2612 87.4062 99.2484C87.3628 99.1947 87.3193 99.1409 87.2758 99.087C87.1492 98.9302 87.0221 98.7727 86.8928 98.6158C86.6675 98.3424 86.4338 98.0684 86.181 97.7972C85.9697 97.585 85.7278 97.3485 85.4476 97.0773C85.3895 97.021 85.387 96.9287 85.442 96.8695Z" fill="#FFB000"/>
<path fill-rule="evenodd" clip-rule="evenodd" d="M94.9076 102.475C94.9833 102.446 95.0688 102.482 95.0994 102.558C95.1381 102.653 95.1757 102.748 95.2121 102.845C97.5118 108.524 103.439 112.353 109.246 111.888C109.327 111.881 109.399 111.942 109.405 112.024C109.412 112.106 109.351 112.177 109.269 112.184C103.915 112.613 98.4806 109.481 95.7407 104.623C96.5494 108.273 95.8319 112.344 93.2257 114.894C91.662 116.424 89.4299 117.078 87.3423 116.861C85.6536 116.686 84.0484 115.938 82.9651 114.61C83.3242 116.179 83.0054 117.848 82.2449 119.288C81.2912 121.095 79.6321 122.563 77.7012 123.039C73.9892 123.953 70.0613 121.848 67.7368 118.712C67.4662 122.168 66.1993 125.805 63.3645 127.597L63.3636 127.597C61.8691 128.526 59.9263 128.489 58.3002 127.779C56.6733 127.068 55.3344 125.671 55.0705 123.843C55.0588 123.762 55.1151 123.686 55.1962 123.675C55.2774 123.663 55.3527 123.719 55.3644 123.8C55.6101 125.502 56.8614 126.827 58.419 127.507C59.9775 128.188 61.8136 128.211 63.2065 127.345C66.0322 125.559 67.2709 121.822 67.4681 118.28C67.4717 118.216 67.5151 118.162 67.5762 118.145C67.6374 118.128 67.7026 118.151 67.7386 118.204C69.9813 121.462 73.9448 123.658 77.6302 122.75C79.4642 122.298 81.0606 120.895 81.9823 119.149C82.9037 117.404 83.14 115.338 82.2877 113.566C82.2524 113.493 82.2827 113.405 82.3557 113.369C82.4287 113.333 82.5171 113.362 82.5539 113.435C83.5034 115.31 85.3641 116.357 87.373 116.566C89.383 116.775 91.5245 116.143 93.0181 114.682C95.9495 111.814 96.429 106.907 94.9357 102.953C94.8972 102.858 94.8596 102.762 94.8231 102.666C94.7942 102.59 94.8319 102.505 94.9076 102.475Z" fill="#FFB000"/>
<path fill-rule="evenodd" clip-rule="evenodd" d="M54.9458 123.554C55.0266 123.568 55.0808 123.645 55.0669 123.726C54.9215 124.567 54.8134 125.378 54.7074 126.173C54.4499 128.104 54.2045 129.944 53.4684 131.911C52.5348 134.405 51.3127 135.574 50.6401 136.218C50.5594 136.295 50.4867 136.365 50.4232 136.428C50.3653 136.486 50.2713 136.486 50.2133 136.428C50.1553 136.37 50.1553 136.276 50.2133 136.218C50.2778 136.153 50.3514 136.083 50.4325 136.005C51.0999 135.367 52.2807 134.237 53.1903 131.807C53.914 129.873 54.1526 128.083 54.4081 126.167C54.5149 125.365 54.6247 124.541 54.7743 123.675C54.7882 123.594 54.865 123.54 54.9458 123.554Z" fill="#FFB000"/>
<path fill-rule="evenodd" clip-rule="evenodd" d="M62.9423 128.007C63.0243 128.01 63.0885 128.078 63.0858 128.16C63.0012 130.749 62.8883 133.388 62.1479 135.882C61.8071 137.067 61.2882 138.282 60.3187 139.048C58.8724 140.217 56.7987 140.051 55.2157 139.241L55.2138 139.24L55.2138 139.24C53.6322 138.401 52.4012 137.025 51.2446 135.672C51.1913 135.61 51.1986 135.516 51.261 135.463C51.3233 135.409 51.417 135.417 51.4703 135.479C52.6294 136.835 53.8272 138.168 55.352 138.977C56.8754 139.757 58.8115 139.885 60.1327 138.817L60.134 138.816L60.134 138.816C61.028 138.11 61.5258 136.97 61.8627 135.8L61.8631 135.798C62.5912 133.346 62.7043 130.744 62.7891 128.151C62.7917 128.069 62.8604 128.004 62.9423 128.007Z" fill="#FFB000"/>
<path fill-rule="evenodd" clip-rule="evenodd" d="M78.3792 122.958C78.4612 122.959 78.5269 123.026 78.5259 123.108C78.4975 125.473 78.356 127.888 77.4939 130.101C76.6307 132.316 74.8388 134.285 72.5589 134.741L72.5584 134.741C70.5407 135.137 68.4513 134.284 66.9234 132.904C65.3975 131.526 64.3371 129.704 63.3991 127.87C63.3618 127.797 63.3907 127.708 63.4637 127.67C63.5367 127.633 63.6261 127.662 63.6635 127.735C64.599 129.564 65.6392 131.344 67.1223 132.683C68.6033 134.021 70.6015 134.822 72.5012 134.45C74.6494 134.02 76.3772 132.149 77.2172 129.993C78.0583 127.835 78.2006 125.466 78.229 123.105C78.23 123.023 78.2972 122.957 78.3792 122.958Z" fill="#FFB000"/>
<path fill-rule="evenodd" clip-rule="evenodd" d="M93.0769 115.537C93.1565 115.518 93.2369 115.567 93.2563 115.646C94.0551 118.919 93.6846 122.524 92.2291 125.525L92.229 125.525C91.774 126.462 91.1968 127.387 90.3783 128.008C88.8813 129.161 86.8148 129.089 85.1475 128.387C83.4817 127.685 82.0796 126.406 80.7554 125.179L80.7549 125.179C80.3993 124.846 80.0126 124.445 79.7474 123.999C79.4816 123.552 79.3293 123.045 79.4703 122.513C79.4913 122.433 79.5725 122.386 79.6518 122.407C79.731 122.428 79.7783 122.509 79.7573 122.589C79.6441 123.016 79.7601 123.439 80.0026 123.847C80.2457 124.256 80.6072 124.634 80.9575 124.962C82.2877 126.194 83.653 127.435 85.2628 128.113C86.871 128.79 88.8143 128.838 90.1976 127.772L90.1985 127.772C90.9611 127.193 91.5134 126.318 91.9619 125.395C93.3868 122.457 93.7505 118.923 92.9679 115.717C92.9484 115.637 92.9972 115.557 93.0769 115.537Z" fill="#FFB000"/>
<path fill-rule="evenodd" clip-rule="evenodd" d="M105.994 111.969C106.076 111.97 106.141 112.038 106.14 112.12C106.111 113.752 105.996 115.384 105.796 117.016C105.666 118.088 105.406 119.283 104.914 120.269C104.421 121.256 103.684 122.053 102.596 122.289C101.542 122.538 100.444 122.13 99.5252 121.655C96.9007 120.311 94.6235 118.161 93.0956 115.564C93.054 115.494 93.0776 115.403 93.1483 115.361C93.2189 115.32 93.3099 115.343 93.3515 115.414C94.8512 117.963 97.0869 120.072 99.6608 121.39L99.6614 121.391C100.57 121.861 101.585 122.223 102.529 121.999L102.532 121.998L102.532 121.999C103.5 121.79 104.177 121.079 104.648 120.136C105.119 119.193 105.374 118.037 105.501 116.98L105.501 116.979C105.7 115.358 105.814 113.736 105.843 112.115C105.844 112.033 105.912 111.968 105.994 111.969Z" fill="#FFB000"/>
<path fill-rule="evenodd" clip-rule="evenodd" d="M110.665 128.306C110.744 128.294 110.818 128.347 110.832 128.427C111.698 133.3 116.529 137.066 121.104 136.104C121.184 136.087 121.263 136.139 121.28 136.219C121.297 136.299 121.245 136.378 121.165 136.395C116.882 137.295 112.439 134.231 110.934 129.969C110.97 131.986 110.665 134.116 110.237 136.014L110.236 136.015C109.952 137.239 109.55 138.519 108.704 139.5C107.18 141.287 104.528 141.584 102.471 140.67C100.895 139.97 99.6501 138.667 98.7425 137.136C99.1442 138.863 99.2148 140.681 98.797 142.415C98.2514 144.678 96.8709 146.772 94.8719 147.838C92.7856 148.964 90.185 148.87 88.1072 147.778C86.9794 147.186 85.8591 146.158 85.0348 145.054C84.5962 144.467 84.2345 143.849 84.0023 143.256C83.9148 145.026 83.5989 146.924 83.1082 148.495C82.652 149.963 81.9923 151.415 80.9518 152.539L80.9504 152.541C79.5322 154.031 77.4751 154.794 75.4993 154.52C73.923 154.305 72.585 153.355 71.3944 152.172C70.5435 151.325 69.7555 150.346 69.0054 149.414C68.7921 149.149 68.5819 148.887 68.3742 148.634C68.2798 150.638 68.0591 153.209 67.3037 154.996C66.4993 156.898 64.7884 158.598 62.7499 158.598C61.4531 158.598 60.3424 157.978 59.4023 157.088C58.463 156.199 57.683 155.032 57.0433 153.911C56.1066 152.3 55.2549 150.659 54.4883 148.958C54.4546 148.883 54.4878 148.795 54.5626 148.762C54.6373 148.728 54.7252 148.761 54.7589 148.836C55.5212 150.527 56.3682 152.159 57.3002 153.762L57.3008 153.763C57.9352 154.874 58.6982 156.013 59.6063 156.872C60.5137 157.731 61.555 158.301 62.7499 158.301C64.6187 158.301 66.2489 156.728 67.0302 154.88C67.8109 153.034 68.0094 150.293 68.0945 148.236C68.0971 148.175 68.137 148.121 68.1951 148.102C68.2532 148.082 68.3175 148.1 68.3568 148.147C68.6515 148.5 68.9476 148.868 69.2477 149.241C69.9939 150.168 70.7652 151.127 71.6037 151.961C72.7772 153.128 74.0582 154.024 75.5397 154.225L75.5401 154.225C77.4148 154.486 79.378 153.762 80.7346 152.337C81.7323 151.259 82.3749 149.854 82.8246 148.406L82.8247 148.406C83.4082 146.539 83.7418 144.193 83.7298 142.172C83.7188 142.046 83.7168 141.923 83.7243 141.805C83.7293 141.726 83.7958 141.664 83.8752 141.666C83.9546 141.667 84.0188 141.731 84.0209 141.81C84.024 141.925 84.0259 142.041 84.0267 142.158C84.0993 142.95 84.5674 143.932 85.2726 144.876C86.0764 145.952 87.1647 146.948 88.2453 147.516C90.2447 148.566 92.7404 148.651 94.7313 147.576L94.7321 147.575C96.6403 146.558 97.978 144.545 98.5083 142.345C99.038 140.147 98.7604 137.797 98.0032 135.674C97.9762 135.599 98.0141 135.515 98.0888 135.486C98.1634 135.457 98.2478 135.492 98.2794 135.566C99.177 137.659 100.628 139.527 102.592 140.399C104.556 141.271 107.058 140.973 108.478 139.307L108.479 139.307C109.275 138.384 109.665 137.165 109.947 135.949C110.483 133.576 110.819 130.857 110.539 128.47C110.53 128.39 110.585 128.317 110.665 128.306Z" fill="#FFB000"/>
<path fill-rule="evenodd" clip-rule="evenodd" d="M61.444 158.301C61.5259 158.298 61.5948 158.362 61.5977 158.444C61.6201 159.06 61.4777 159.847 61.2297 160.691C60.981 161.537 60.6231 162.449 60.2069 163.319C59.7909 164.188 59.3151 165.018 58.8294 165.698C58.3463 166.374 57.8438 166.915 57.3708 167.191C57.2999 167.232 57.209 167.208 57.1677 167.137C57.1264 167.067 57.1503 166.976 57.2211 166.934C57.6388 166.691 58.1117 166.191 58.5878 165.525C59.0614 164.862 59.5287 164.048 59.9391 163.191C60.3494 162.333 60.7012 161.436 60.9448 160.607C61.1892 159.776 61.3217 159.024 61.301 158.455C61.298 158.373 61.3621 158.304 61.444 158.301Z" fill="#FFB000"/>
<path fill-rule="evenodd" clip-rule="evenodd" d="M119.817 136.921C119.898 136.903 119.977 136.953 119.994 137.033C120.317 138.492 119.84 140.017 118.933 141.156C118.028 142.295 116.677 143.066 115.232 142.989L115.231 142.989C113.918 142.912 112.773 142.286 111.672 141.593C111.471 141.466 111.272 141.338 111.073 141.209C110.277 140.696 109.492 140.189 108.652 139.848C109.657 142.134 110.06 144.727 109.76 147.212C109.602 148.532 109.179 149.901 108.484 151.019C107.788 152.137 106.812 153.013 105.547 153.321L105.547 153.321C104.407 153.596 103.217 153.38 102.112 153.113C100.581 152.757 98.9456 152.264 97.5486 151.469C96.3929 150.811 95.3945 149.943 94.7546 148.768C94.9092 151.208 94.7182 153.699 93.7424 155.931C92.6532 158.422 90.4377 160.484 87.7962 160.757L87.7949 160.758C85.8797 160.94 83.9487 160.15 82.4031 158.981C81.035 157.946 79.8935 156.631 78.7866 155.295C79.4839 158.218 79.5051 161.364 78.3307 164.104C77.0693 167.046 74.1946 169.379 71.0918 169.287L71.0877 169.287L71.0877 169.287C70.0195 169.227 68.9849 168.925 68.0151 168.537L68.0135 168.536C66.2254 167.796 64.5499 166.239 63.3226 164.375C62.095 162.51 61.3044 160.32 61.3044 158.3C61.3044 158.218 61.3709 158.151 61.4529 158.151C61.5349 158.151 61.6014 158.218 61.6014 158.3C61.6014 160.248 62.3661 162.382 63.5706 164.212C64.7751 166.041 66.408 167.55 68.1262 168.261C69.0785 168.642 70.0791 168.932 71.1025 168.991C74.0507 169.076 76.8308 166.849 78.0578 163.987C79.2846 161.125 79.1766 157.786 78.3339 154.726C78.3153 154.659 78.3464 154.587 78.4086 154.555C78.4707 154.523 78.547 154.538 78.5916 154.592C79.838 156.105 81.0714 157.601 82.5822 158.744C84.0906 159.885 85.9488 160.635 87.7663 160.462C90.2712 160.202 92.4105 158.236 93.4704 155.812C94.5304 153.387 94.6453 150.632 94.3918 147.948C94.3848 147.874 94.434 147.806 94.5068 147.79C94.5795 147.773 94.6532 147.813 94.679 147.883C95.2289 149.381 96.3371 150.438 97.6955 151.211C99.0555 151.985 100.658 152.47 102.18 152.824L102.182 152.825C103.283 153.091 104.412 153.289 105.477 153.032C106.644 152.748 107.563 151.935 108.232 150.862C108.9 149.788 109.312 148.462 109.465 147.176L109.465 147.176C109.773 144.628 109.325 141.961 108.234 139.646C108.208 139.592 108.218 139.528 108.258 139.484C108.298 139.439 108.36 139.423 108.417 139.442C109.421 139.789 110.344 140.385 111.245 140.967C111.441 141.093 111.636 141.219 111.83 141.341C112.928 142.033 114.017 142.621 115.248 142.692C116.575 142.763 117.84 142.054 118.701 140.971C119.562 139.889 120.004 138.453 119.705 137.098C119.687 137.018 119.737 136.938 119.817 136.921Z" fill="#FFB000"/>
<path fill-rule="evenodd" clip-rule="evenodd" d="M71.5715 168.995C71.6525 169.008 71.7077 169.084 71.6949 169.165C71.4971 170.411 70.9901 171.832 70.31 173.14C69.6304 174.447 68.7721 175.653 67.8645 176.461C66.0462 178.111 63.2712 178.745 60.973 178.196C60.8933 178.177 60.8441 178.097 60.8631 178.017C60.8822 177.937 60.9623 177.888 61.042 177.907C63.2498 178.435 65.9233 177.821 67.6655 176.241L67.6665 176.24L67.6665 176.24C68.5389 175.463 69.3773 174.29 70.0466 173.003C70.7156 171.716 71.21 170.325 71.4016 169.118C71.4145 169.037 71.4906 168.982 71.5715 168.995Z" fill="#FFB000"/>
<path fill-rule="evenodd" clip-rule="evenodd" d="M118.528 142.269C118.607 142.246 118.689 142.292 118.711 142.371C119.657 145.684 119.743 149.234 119.027 152.604L119.027 152.605C118.74 153.935 118.251 155.315 117.517 156.471C116.783 157.627 115.799 158.566 114.52 158.995M118.528 142.269C118.449 142.291 118.403 142.373 118.426 142.452L118.528 142.269ZM118.426 142.452C119.358 145.716 119.443 149.217 118.736 152.542L118.426 142.452ZM118.736 152.542C118.455 153.849 117.976 155.194 117.266 156.312C116.557 157.43 115.621 158.313 114.425 158.713L114.425 158.714C113.16 159.143 111.853 158.974 110.571 158.493C109.288 158.011 108.042 157.22 106.906 156.422L106.905 156.421C106.442 156.1 105.953 155.689 105.626 155.228C105.498 155.047 105.396 154.86 105.33 154.671C105.33 154.355 105.326 154.04 105.319 153.726C105.318 153.653 105.264 153.593 105.193 153.582C105.121 153.571 105.052 153.614 105.03 153.682C104.912 154.042 104.929 154.391 105.033 154.718C105.029 156.966 104.811 159.21 103.953 161.225C102.971 163.536 101.014 165.502 98.6339 165.877C96.9435 166.137 95.2134 165.589 93.6297 164.823L93.6283 164.823C92.7636 164.416 91.8541 163.768 91.1092 162.981C90.4481 162.283 89.9233 161.483 89.6694 160.653C89.6419 160.543 89.6133 160.434 89.5837 160.326C89.5624 160.248 89.4831 160.202 89.405 160.221C89.3269 160.24 89.2783 160.318 89.2954 160.397C89.32 160.509 89.3494 160.621 89.3832 160.733C90.138 163.761 90.039 167.464 88.7931 170.229L88.7928 170.23C88.2856 171.374 87.6155 172.445 86.6473 173.194L86.6463 173.195C85.5129 174.088 84.0674 174.439 82.6272 174.586C78.5012 174.995 74.0034 172.859 71.6725 169.29C71.6277 169.222 71.5357 169.202 71.4671 169.247C71.3984 169.292 71.3791 169.384 71.424 169.453C73.815 173.113 78.4197 175.302 82.6567 174.882L82.6571 174.882C84.1181 174.732 85.6305 174.373 86.8295 173.429C87.8521 172.638 88.5472 171.517 89.064 170.351C90.1701 167.896 90.3911 164.741 89.9341 161.942C90.2019 162.383 90.5298 162.801 90.8937 163.185C91.6633 163.998 92.6025 164.668 93.5012 165.091C95.1031 165.866 96.8998 166.444 98.6794 166.171L98.6799 166.17C101.193 165.775 103.218 163.712 104.227 161.342C105.029 159.454 105.283 157.381 105.324 155.312C105.343 155.341 105.363 155.371 105.384 155.4C105.74 155.901 106.26 156.335 106.736 156.665C107.876 157.467 109.147 158.275 110.466 158.771C111.787 159.267 113.168 159.454 114.52 158.995" fill="#FFB000"/>
<path fill-rule="evenodd" clip-rule="evenodd" d="M114.288 157.718C114.35 157.693 114.421 157.712 114.462 157.765C116.902 160.915 121.449 162.002 124.907 160.239L124.908 160.238C125.13 160.128 125.352 160.004 125.579 159.877L125.623 159.852C125.864 159.718 126.111 159.581 126.362 159.459C126.864 159.215 127.395 159.025 127.964 159.025C128.046 159.025 128.112 159.091 128.112 159.173C128.112 159.255 128.046 159.322 127.964 159.322C127.461 159.322 126.977 159.49 126.492 159.726C126.249 159.844 126.01 159.977 125.768 160.112L125.723 160.137C125.497 160.263 125.27 160.39 125.042 160.504C121.601 162.258 117.141 161.294 114.555 158.343C114.816 160.59 114.877 162.912 114.32 165.11C113.721 167.472 112.32 169.732 110.211 170.806C108.246 171.819 105.858 171.692 103.826 170.81C102.814 170.38 101.903 169.639 101.069 168.802C100.406 168.137 99.7849 167.404 99.1984 166.712C99.1552 166.661 99.1123 166.61 99.0695 166.56C99.4065 169.905 98.7606 173.877 97.0464 176.652L97.0462 176.652C95.2195 179.593 91.9857 181.608 88.6761 181.364C85.6852 181.143 82.8616 178.83 82.0887 175.791C81.8735 177.421 81.5493 179.091 80.9915 180.608C80.3189 182.437 79.3026 184.056 77.7169 185.113C75.985 186.278 73.765 186.522 71.8335 185.848C69.9033 185.175 68.2671 183.618 67.3776 181.698C66.7275 180.317 66.2326 179.088 66.3774 177.489C66.3848 177.407 66.457 177.347 66.5386 177.354C66.6203 177.362 66.6805 177.434 66.6731 177.515C66.5359 179.031 66.9996 180.198 67.6464 181.572L67.6468 181.573C68.5055 183.426 70.0834 184.923 71.9313 185.568C73.7779 186.212 75.9 185.977 77.5515 184.866L77.552 184.866C79.0677 183.856 80.0532 182.3 80.7128 180.506C81.3727 178.711 81.7024 176.688 81.9135 174.761C81.9217 174.685 81.9858 174.628 82.0619 174.628C82.1379 174.629 82.2014 174.686 82.2088 174.762C82.5397 178.131 85.524 180.833 88.698 181.068C91.8733 181.302 95.0117 179.365 96.794 176.495C98.5483 173.656 99.1662 169.499 98.7185 166.111C98.7099 166.046 98.7451 165.983 98.8051 165.956C98.8651 165.929 98.9356 165.945 98.9783 165.995C99.127 166.168 99.277 166.345 99.4288 166.524C100.015 167.215 100.626 167.936 101.279 168.592C102.102 169.418 102.981 170.129 103.943 170.537L103.944 170.537C105.915 171.393 108.207 171.505 110.076 170.542L110.077 170.541C112.084 169.519 113.446 167.347 114.032 165.037C114.617 162.728 114.507 160.264 114.198 157.875C114.189 157.808 114.226 157.744 114.288 157.718Z" fill="#FFB000"/>
<path fill-rule="evenodd" clip-rule="evenodd" d="M89.3918 181.17C89.4737 181.166 89.5431 181.23 89.5469 181.312C89.5746 181.918 89.618 182.528 89.6616 183.14C89.7493 184.373 89.8377 185.614 89.8 186.85C89.7433 188.706 89.3467 190.643 88.253 192.133C87.1602 193.622 85.2755 194.586 83.5123 194.12C81.9957 193.72 80.8712 192.4 79.9194 191.187C79.8553 191.107 79.7896 191.026 79.7227 190.943C79.1314 190.21 78.4413 189.355 77.9113 188.451C77.3218 187.445 76.9149 186.354 77.0772 185.278C77.0894 185.197 77.165 185.141 77.2461 185.153C77.3272 185.166 77.383 185.241 77.3708 185.322C77.2237 186.297 77.59 187.315 78.1674 188.3C78.6855 189.184 79.3612 190.022 79.9541 190.757C80.021 190.84 80.0869 190.921 80.1514 191.001L80.1524 191.003L80.1524 191.003C81.1124 192.226 82.181 193.461 83.5882 193.833C85.199 194.259 86.9695 193.38 88.0136 191.957C89.0568 190.536 89.4474 188.669 89.5032 186.841C89.5405 185.62 89.4539 184.405 89.3667 183.182C89.3228 182.566 89.2787 181.948 89.2502 181.325C89.2465 181.243 89.3098 181.174 89.3918 181.17Z" fill="#FFB000"/>
<path fill-rule="evenodd" clip-rule="evenodd" d="M108.069 171.095C108.127 171.058 108.202 171.066 108.252 171.114C108.679 171.525 109.118 171.986 109.567 172.458L109.583 172.475C110.028 172.943 110.483 173.421 110.951 173.878C111.899 174.804 112.888 175.628 113.923 176.077C116.019 176.988 118.487 177.213 120.472 176.171C120.544 176.133 120.634 176.161 120.672 176.234C120.71 176.306 120.682 176.396 120.61 176.434C118.52 177.532 115.952 177.282 113.805 176.35C112.718 175.878 111.697 175.022 110.743 174.091C110.272 173.63 109.813 173.148 109.369 172.681L109.352 172.663C109.048 172.344 108.752 172.032 108.461 171.739C109.278 174.693 109.153 178.613 107.887 181.329C106.541 184.217 104.078 186.474 101.182 187.499L101.181 187.499C100.063 187.89 98.8512 188.104 97.6618 187.952L97.6606 187.952C94.5239 187.524 92.2587 184.606 91.0083 181.621C90.9766 181.545 91.0122 181.458 91.0878 181.426C91.1635 181.394 91.2505 181.43 91.2821 181.506C92.5213 184.464 94.7261 187.252 97.7001 187.657C98.8303 187.802 99.9943 187.6 101.083 187.219C103.902 186.222 106.305 184.021 107.618 181.203C108.93 178.389 108.988 174.209 108.008 171.267C107.986 171.203 108.012 171.131 108.069 171.095Z" fill="#FFB000"/>
<path fill-rule="evenodd" clip-rule="evenodd" d="M100.369 187.705C100.45 187.716 100.508 187.79 100.497 187.872C100.44 188.31 100.393 188.816 100.342 189.357C100.337 189.411 100.332 189.465 100.327 189.519C100.271 190.12 100.209 190.759 100.124 191.39C99.9554 192.645 99.6927 193.889 99.1836 194.74C98.662 195.632 97.8835 196.303 97.0911 196.874C95.6509 197.983 93.8634 198.944 92.0551 198.634C90.738 198.417 89.6399 197.519 88.8134 196.49C88.0176 195.499 87.4605 194.314 86.9214 193.168C86.8989 193.12 86.8764 193.072 86.8539 193.024C86.819 192.95 86.8508 192.862 86.925 192.827C86.9991 192.792 87.0876 192.824 87.1225 192.898C87.1433 192.942 87.164 192.986 87.1847 193.03C87.7283 194.186 88.2719 195.341 89.0449 196.304C89.8499 197.306 90.8894 198.141 92.1039 198.341L92.1047 198.341C93.7835 198.629 95.4832 197.738 96.9117 196.637L96.9156 196.635C97.6975 196.071 98.437 195.428 98.9276 194.589L98.9285 194.588C99.4036 193.795 99.6612 192.604 99.8299 191.35C99.9139 190.726 99.9751 190.092 100.031 189.491C100.036 189.437 100.042 189.383 100.047 189.329C100.097 188.789 100.145 188.278 100.203 187.833C100.213 187.752 100.288 187.695 100.369 187.705Z" fill="#FFB000"/>
<path fill-rule="evenodd" clip-rule="evenodd" d="M121.061 177.418C121.132 177.377 121.223 177.402 121.263 177.473C121.526 177.933 121.49 178.514 121.461 178.978L121.46 178.986C121.312 180.622 121.073 182.303 120.471 183.838C119.869 185.402 118.873 186.858 117.442 187.741C115.8 188.775 113.772 188.983 111.908 188.712C110.048 188.442 108.251 187.752 106.528 187.039L106.528 187.039C106.505 187.03 106.482 187.02 106.459 187.011C106.128 186.874 105.743 186.714 105.468 186.41C105.316 186.257 105.199 186.048 105.149 185.829C105.098 185.609 105.112 185.365 105.243 185.159C105.287 185.09 105.378 185.07 105.447 185.114C105.517 185.158 105.537 185.249 105.493 185.319C105.416 185.439 105.4 185.596 105.438 185.762C105.477 185.929 105.567 186.089 105.681 186.203C105.682 186.205 105.684 186.207 105.686 186.209C105.914 186.463 106.242 186.598 106.588 186.743C106.606 186.75 106.624 186.757 106.642 186.765C108.364 187.478 110.13 188.154 111.951 188.418C113.769 188.682 115.72 188.475 117.284 187.489L117.286 187.489C118.645 186.649 119.608 185.254 120.194 183.73L120.194 183.729C120.78 182.236 121.016 180.59 121.165 178.961C121.195 178.476 121.217 177.99 121.005 177.62C120.965 177.549 120.99 177.458 121.061 177.418Z" fill="#FFB000"/>
<path fill-rule="evenodd" clip-rule="evenodd" d="M112.228 188.892C112.31 188.893 112.376 188.96 112.375 189.042C112.347 192.206 111.355 196.523 109.525 199.073C108.984 199.828 108.381 200.531 107.63 201.083C105.893 202.373 103.494 202.619 101.554 201.727C99.5853 200.836 98.1445 198.844 97.8274 196.61C97.8159 196.529 97.8724 196.454 97.9535 196.443C98.0347 196.431 98.1099 196.487 98.1214 196.569C98.4252 198.709 99.8065 200.611 101.676 201.457L101.677 201.457C103.519 202.303 105.803 202.07 107.453 200.844L107.454 200.844C108.17 200.317 108.752 199.642 109.284 198.9L109.284 198.899C111.066 196.416 112.05 192.166 112.078 189.039C112.079 188.957 112.146 188.891 112.228 188.892ZM101.615 201.592L101.615 201.592L101.615 201.592C109.525 199.073 109.525 199.073 109.525 199.073L109.525 199.073L109.404 198.986C109.525 199.073 109.525 199.073 109.525 199.073" fill="#FFB000"/>
<path fill-rule="evenodd" clip-rule="evenodd" d="M120.375 184.987C120.432 184.928 120.526 184.927 120.585 184.984C121.803 186.172 122.436 187.81 122.677 189.465C122.918 191.121 122.736 192.803 122.499 194.438L122.498 194.44L122.498 194.44C122.32 195.538 122.11 196.66 121.562 197.665L121.561 197.666C120.829 198.978 119.549 199.985 118.082 200.352C116.62 200.718 115.003 200.475 113.749 199.649C113.079 199.222 112.443 198.536 112.346 197.7C112.337 197.619 112.395 197.545 112.477 197.536C112.558 197.526 112.632 197.585 112.641 197.666C112.723 198.375 113.274 198.995 113.91 199.399L113.912 199.401L113.912 199.401C115.092 200.178 116.623 200.411 118.01 200.064C119.394 199.718 120.608 198.765 121.301 197.522C121.822 196.568 122.027 195.493 122.205 194.394C122.442 192.762 122.617 191.118 122.383 189.507C122.149 187.895 121.535 186.325 120.378 185.197C120.319 185.14 120.318 185.046 120.375 184.987Z" fill="#FFB000"/>
<path fill-rule="evenodd" clip-rule="evenodd" d="M99.7559 201.663C99.8379 201.663 99.9044 201.73 99.9044 201.812C99.9044 202.97 99.7376 204.202 99.2266 205.231C98.7167 206.258 97.805 207.177 96.7053 207.485L96.7018 207.486C96.105 207.638 95.5107 207.609 94.9155 207.58L94.889 207.579C94.0239 207.519 93.161 207.371 92.3028 207.193C92.2225 207.177 92.1709 207.098 92.1874 207.018C92.204 206.938 92.2825 206.886 92.3628 206.903C93.215 207.078 94.0625 207.224 94.9078 207.282L94.909 207.282C95.5184 207.312 96.074 207.339 96.6269 207.199C97.6238 206.918 98.4774 206.072 98.9607 205.099C99.4431 204.128 99.6074 202.947 99.6074 201.812C99.6074 201.73 99.6739 201.663 99.7559 201.663Z" fill="#FFB000"/>
<path fill-rule="evenodd" clip-rule="evenodd" d="M117.879 200.178C117.961 200.184 118.022 200.255 118.016 200.337C117.959 201.123 117.895 201.9 117.831 202.677L117.831 202.678C117.767 203.455 117.703 204.232 117.646 205.015C117.646 205.019 117.646 205.023 117.645 205.026C117.634 205.104 117.623 205.184 117.612 205.267C117.572 205.579 117.528 205.921 117.41 206.241L117.408 206.244L117.408 206.244C117.22 206.718 116.889 207.117 116.581 207.486C116.546 207.529 116.51 207.571 116.476 207.614C116.297 207.849 116.135 208.094 115.972 208.343C115.892 208.466 115.811 208.588 115.727 208.712C115.476 209.081 115.204 209.442 114.862 209.736C113.785 210.669 112.274 210.752 110.961 210.327C109.648 209.903 108.546 209.025 107.548 208.136C106.781 207.456 105.993 206.73 105.495 205.786C104.968 204.842 104.754 203.639 105.175 202.638C105.207 202.562 105.294 202.527 105.37 202.558C105.445 202.59 105.481 202.677 105.449 202.753C105.073 203.646 105.257 204.751 105.755 205.643L105.756 205.646L105.756 205.646C106.226 206.537 106.975 207.231 107.745 207.914L107.745 207.914C108.74 208.801 109.802 209.641 111.052 210.045C112.301 210.449 113.694 210.355 114.668 209.511L114.668 209.511C114.98 209.243 115.235 208.908 115.482 208.544C115.56 208.43 115.638 208.312 115.716 208.192C115.884 207.937 116.055 207.676 116.241 207.431C116.242 207.43 116.243 207.428 116.245 207.427C116.28 207.384 116.316 207.34 116.352 207.298C116.663 206.923 116.962 206.563 117.132 206.136C117.237 205.852 117.275 205.554 117.315 205.247C117.326 205.162 117.338 205.075 117.35 204.988C117.407 204.205 117.471 203.429 117.535 202.654L117.535 202.653C117.599 201.876 117.663 201.1 117.72 200.316C117.726 200.234 117.797 200.172 117.879 200.178Z" fill="#FFB000"/>
<path fill-rule="evenodd" clip-rule="evenodd" d="M118.687 201.192C118.649 201.237 118.62 201.29 118.605 201.344C118.584 201.423 118.502 201.469 118.423 201.448C118.344 201.427 118.297 201.345 118.319 201.266C118.355 201.132 118.435 201.011 118.536 200.923C118.637 200.836 118.768 200.772 118.91 200.772C118.959 200.772 119.004 200.795 119.032 200.835C119.06 200.874 119.067 200.925 119.05 200.97C118.897 201.402 118.939 201.86 119.099 202.311C119.26 202.763 119.537 203.199 119.839 203.576C121.166 205.208 122.987 206.427 124.993 206.833L124.996 206.834L124.996 206.834C126.975 207.269 129.147 206.891 130.849 205.733C130.917 205.687 131.009 205.704 131.056 205.772C131.102 205.84 131.084 205.932 131.016 205.979C129.244 207.184 126.989 207.575 124.933 207.124C122.849 206.702 120.971 205.439 119.608 203.763L119.607 203.762L119.607 203.762C119.293 203.37 118.995 202.905 118.82 202.411C118.68 202.019 118.616 201.604 118.687 201.192Z" fill="#FFB000"/>
<path fill-rule="evenodd" clip-rule="evenodd" d="M128.79 207.901C128.872 207.893 128.944 207.954 128.951 208.035C129.208 210.943 128.525 214.079 126.561 216.169C124.597 218.259 121.143 218.975 118.831 217.226C117.52 216.248 116.743 214.699 116.202 213.146L116.202 213.146C115.976 212.494 115.692 211.784 115.305 211.246C114.949 210.751 114.523 210.422 113.993 210.395C113.937 211.882 113.847 213.444 113.535 214.91C113.214 216.425 112.653 217.848 111.639 218.988C110.132 220.69 107.88 221.442 105.703 221.562C105.621 221.566 105.551 221.504 105.546 221.422C105.542 221.34 105.604 221.27 105.686 221.265C107.814 221.148 109.979 220.414 111.417 218.791L111.417 218.79C112.385 217.702 112.93 216.334 113.245 214.849C113.561 213.363 113.645 211.77 113.702 210.241C113.705 210.164 113.767 210.101 113.844 210.098C114.581 210.065 115.132 210.496 115.546 211.073C115.96 211.648 116.256 212.394 116.483 213.049C116.483 213.049 116.483 213.049 116.483 213.049L116.343 213.097L116.483 213.049C116.483 213.049 116.483 213.049 116.483 213.049C117.018 214.585 117.77 216.065 119.008 216.988L119.009 216.989C121.171 218.625 124.457 217.974 126.344 215.966C128.232 213.957 128.908 210.916 128.655 208.062C128.648 207.98 128.708 207.908 128.79 207.901Z" fill="#FFB000"/>
<path fill-rule="evenodd" clip-rule="evenodd" d="M123.51 218.592C123.592 218.592 123.658 218.659 123.658 218.741C123.658 219.347 123.63 219.953 123.574 220.529L123.574 220.532L123.574 220.532C123.29 223.012 121.816 225.309 119.798 226.537L119.796 226.538L119.796 226.538C117.747 227.736 115.158 227.829 113.05 226.753C112.977 226.715 112.948 226.626 112.985 226.553C113.023 226.48 113.112 226.451 113.185 226.488C115.2 227.517 117.682 227.43 119.645 226.282C121.582 225.104 123.005 222.89 123.279 220.499C123.334 219.933 123.361 219.337 123.361 218.741C123.361 218.659 123.428 218.592 123.51 218.592Z" fill="#FFB000"/>
<path fill-rule="evenodd" clip-rule="evenodd" d="M73.842 92.3768C73.9076 92.3517 73.9819 92.376 74.0199 92.4352L74.0206 92.4362L74.023 92.4399L74.0331 92.4553C74.0421 92.469 74.0558 92.4896 74.0739 92.5163C74.1101 92.5699 74.1642 92.6486 74.2352 92.748C74.3773 92.947 74.587 93.2289 74.8565 93.5598C75.396 94.2221 76.1732 95.0779 77.1261 95.8556C79.0367 97.4149 81.6166 98.6332 84.3985 97.4213C85.779 96.8108 86.2841 96.1041 86.4578 95.5758C86.5454 95.3091 86.5515 95.0798 86.5364 94.9187C86.5288 94.8381 86.5159 94.7747 86.5053 94.7325C86.5 94.7114 86.4953 94.6956 86.4922 94.6858C86.4913 94.683 86.4905 94.6807 86.4899 94.6789C86.4894 94.6774 86.489 94.6763 86.4887 94.6755L86.4883 94.6744C86.4883 94.6743 86.4884 94.6745 86.4883 94.6744C86.4883 94.6743 86.4882 94.6741 86.4882 94.674C86.4882 94.6739 86.4882 94.6741 86.4882 94.674C86.4593 94.5976 86.4975 94.5119 86.5738 94.4826C86.6504 94.4532 86.7362 94.4915 86.7656 94.5681L86.627 94.6212C86.7656 94.5681 86.7655 94.568 86.7656 94.5681L86.7658 94.5686L86.7661 94.5693L86.7668 94.5712L86.7688 94.5768C86.7704 94.5813 86.7725 94.5875 86.775 94.5953C86.7799 94.6108 86.7864 94.6326 86.7933 94.6601C86.8071 94.7152 86.8228 94.7936 86.832 94.8909C86.8503 95.0857 86.8423 95.3569 86.7398 95.6686C86.5333 96.2969 85.954 97.0582 84.5181 97.6932L84.5173 97.6935C81.5813 98.9727 78.8798 97.6702 76.9384 96.0857C75.9653 95.2915 75.174 94.4198 74.6263 93.7474C74.4182 93.4919 74.245 93.2649 74.1101 93.0814C74.1237 93.2326 74.1369 93.4091 74.1472 93.6065C74.1827 94.2851 74.1846 95.2133 74.0492 96.2094C73.7793 98.1948 72.9573 100.49 70.7206 101.576C70.1586 101.849 69.6364 101.952 69.1534 101.915C68.6703 101.878 68.2356 101.703 67.8477 101.433C67.0761 100.898 66.4832 99.9884 66.0356 99.0328C65.8595 98.6569 65.7046 98.271 65.5695 97.8938C65.5811 98.1904 65.5831 98.5024 65.5719 98.8267C65.4935 101.105 64.7655 103.994 62.1657 106.415C60.8667 107.625 59.7532 108.005 58.807 107.844C57.866 107.684 57.1401 106.996 56.5953 106.185C56.0488 105.371 55.6684 104.41 55.4251 103.657C55.3031 103.28 55.215 102.953 55.1573 102.72C55.1284 102.603 55.1071 102.51 55.093 102.446C55.0859 102.414 55.0807 102.389 55.0772 102.372L55.0732 102.352L55.0721 102.347L55.0719 102.346L55.0718 102.345C55.0718 102.345 55.0717 102.345 55.2174 102.317L55.3631 102.288L55.3633 102.289L55.3642 102.293L55.3679 102.311C55.3712 102.327 55.3762 102.351 55.383 102.382C55.3966 102.444 55.4173 102.534 55.4455 102.648C55.5019 102.876 55.5882 103.196 55.7076 103.566C55.9471 104.307 56.3173 105.239 56.8418 106.019C57.3679 106.803 58.0334 107.411 58.8568 107.551C59.6751 107.69 60.6991 107.375 61.9634 106.198C64.4902 103.844 65.1987 101.039 65.2752 98.8164C65.3054 97.9378 65.2368 97.151 65.1427 96.5208C65.1197 96.4348 65.0978 96.3511 65.0772 96.27C64.9779 95.879 64.9065 95.5475 64.8599 95.3136C64.8365 95.1966 64.8194 95.1039 64.8081 95.0403C64.8024 95.0085 64.7982 94.9839 64.7954 94.9672L64.7922 94.9481L64.7914 94.9432L64.7911 94.9414C64.7911 94.9413 64.7911 94.9413 64.9377 94.9178C65.0782 94.8699 65.0782 94.87 65.0783 94.8701L65.0784 94.8705L65.0788 94.8716L65.0802 94.8757L65.0852 94.8911C65.0895 94.9045 65.0958 94.9241 65.1036 94.9496C65.1193 95.0007 65.1415 95.0757 65.1678 95.1724C65.2203 95.3659 65.2892 95.6467 65.3556 95.9983C65.3825 96.1409 65.409 96.2952 65.4338 96.4601C65.6299 97.1886 65.9146 98.0745 66.3045 98.9068C66.7442 99.8457 67.3096 100.699 68.0169 101.189C68.3683 101.433 68.7532 101.587 69.1759 101.619C69.5986 101.651 70.0685 101.563 70.5909 101.309C72.6921 100.289 73.4897 98.1211 73.755 96.1694C73.8872 95.1969 73.8856 94.2882 73.8507 93.622C73.8333 93.2892 73.8076 93.0175 73.7863 92.8294C73.7757 92.7354 73.7661 92.6623 73.7593 92.613C73.7559 92.5883 73.7531 92.5696 73.7513 92.5572L73.7492 92.5433L73.7486 92.54L73.7485 92.5393C73.7373 92.4698 73.7763 92.402 73.842 92.3768ZM64.9377 94.9178L65.0783 94.8701C65.0534 94.7971 64.9767 94.7551 64.9019 94.7737C64.827 94.7923 64.7789 94.8653 64.7911 94.9414L64.9377 94.9178ZM55.2174 102.317L55.3631 102.288C55.3473 102.207 55.2693 102.155 55.1888 102.171C55.1084 102.187 55.056 102.265 55.0718 102.345L55.2174 102.317Z" fill="#FFB000"/>
<path d="M146.284 265.518C141.414 256.697 137.079 247.609 132.417 238.669C130.22 234.452 100.35 191.921 61.5121 179.833C72.3201 210.632 88.0273 241.223 99.5182 253.489C117.393 272.557 138.623 273.151 147.887 268.399C147.353 267.448 146.818 266.468 146.284 265.518Z" fill="#333333"/>
<path d="M145.333 269.943C145.333 269.943 104.417 199.584 134.822 134.125C134.822 134.125 160.862 192.07 163.386 224.146C166.801 266.795 145.333 269.943 145.333 269.943Z" fill="#6AAF3F"/>
<path d="M204.751 102.537C204.751 102.537 206.269 102.133 207.297 99.8242C208.324 97.5156 217.294 74.7169 217.003 73.9127C216.713 73.1085 215.091 71.67 212.769 72.4535C210.447 73.2371 209.439 73.0212 208.239 70.8138C207.039 68.5767 205.031 67.1352 200.783 67.4283C196.535 67.6917 197.169 62.5584 192.834 62.6132C188.498 62.668 185.147 62.0475 183.038 62.2387C180.928 62.4299 182.731 74.77 184.229 76.8016C185.727 78.8331 204.751 102.537 204.751 102.537Z" fill="#333333"/>
<path d="M197.384 244.164C197.384 244.164 223.127 279.625 280.433 261.835C345.4 241.669 335.245 82.2987 283.67 80.6949C232.094 79.0911 185.418 217.849 197.384 244.164Z" fill="#6AAF3F"/>
<path d="M289.341 82.0611C289.341 82.0611 266.33 71.3097 233.935 106.861C201.541 142.412 186.339 170.27 181.617 201.485C176.154 237.63 218.941 279.507 273.456 252.836C327.971 226.166 332.662 99.7623 289.341 82.0611Z" fill="#A8E580"/>
<path d="M260.926 200.683C275.176 200.683 286.728 189.128 286.728 174.874C286.728 160.619 275.176 149.064 260.926 149.064C246.675 149.064 235.123 160.619 235.123 174.874C235.123 189.128 246.675 200.683 260.926 200.683Z" fill="#996A3C"/>
<path d="M275.119 153.371C277.524 157.41 278.89 162.132 278.771 167.152C278.444 181.408 266.656 192.694 252.404 192.367C247.356 192.248 242.724 190.674 238.805 188.09C243.199 195.456 251.157 200.475 260.361 200.683C274.614 201.01 286.402 189.724 286.728 175.468C286.936 166.261 282.274 158.093 275.119 153.371Z" fill="#87582E"/>
<path d="M265.112 122.691C266.473 122.691 267.577 121.587 267.577 120.226C267.577 118.864 266.473 117.76 265.112 117.76C263.751 117.76 262.648 118.864 262.648 120.226C262.648 121.587 263.751 122.691 265.112 122.691Z" fill="#333333"/>
<path d="M286.194 131.126C287.555 131.126 288.658 130.022 288.658 128.66C288.658 127.299 287.555 126.195 286.194 126.195C284.833 126.195 283.729 127.299 283.729 128.66C283.729 130.022 284.833 131.126 286.194 131.126Z" fill="#333333"/>
<path d="M276.841 134.897C271.971 137.481 270.071 135.581 269.447 132.373C269.269 131.423 269.566 130.561 270.457 130.888L276.9 133.115C277.761 133.412 277.642 134.452 276.841 134.897Z" fill="#333333"/>
<path d="M253.146 223.017L250.355 199.525C250.355 199.525 272.417 194.297 274.02 187.466C275.623 180.635 263.331 123.552 246.287 117.167C229.244 110.811 207.39 109.207 207.39 109.207L188.506 110.573C188.506 110.573 159.615 113.989 151.213 121.028C142.81 128.066 103.23 132.848 89.3635 155.153C82.8311 165.667 90.8184 177.665 103.527 177.22L157.567 197.238L154.924 225.453L253.146 223.017Z" fill="white"/>
<path d="M259.827 272.438L253.146 223.017L154.894 225.423L154.301 272.765H197.354L198.572 258.806L214.932 263.053L217.367 272.765L259.827 272.438Z" fill="#F94848"/>
<path d="M245.218 236.887C245.753 247.193 246.673 257.469 247.386 267.775C247.505 269.349 247.594 270.923 247.683 272.527L253.918 272.349C253.859 271.963 253.829 271.547 253.77 271.161C253.206 266.142 252.79 261.093 252.434 256.044C252.077 250.995 251.721 245.975 251.246 240.956C251.068 238.937 250.83 236.947 250.712 234.927C250.622 233.086 250.593 231.244 250.474 229.403C250.355 227.472 250.207 225.512 249.88 223.611C249.85 223.463 249.821 223.314 249.791 223.136L244.803 223.255C244.832 227.769 245.011 232.313 245.218 236.887Z" fill="#DD3E00"/>
<path d="M226.809 233.769C227.967 239.441 229.392 245.084 230.491 250.757C231.679 256.756 232.926 262.726 234.054 268.696C234.321 270.092 234.559 271.458 234.826 272.854L241.893 272.646C241.744 270.478 241.566 268.339 241.418 266.171C240.972 260.528 240.468 254.856 239.517 249.272C238.597 243.867 237.291 238.491 236.281 233.086C235.687 229.878 235.182 226.67 234.915 223.403L225.117 223.641C225.532 227.086 226.126 230.442 226.809 233.769Z" fill="#DD3E00"/>
<path d="M213.24 233.056C213.804 235.343 214.427 237.63 214.962 239.946C215.585 242.649 216.12 245.411 216.654 248.144C217.812 253.876 218.881 259.578 219.92 265.34C220.396 267.983 220.871 270.329 221.316 272.943L227.997 272.765C227.611 270.122 227.225 267.775 226.779 265.132C225.829 259.34 224.849 253.549 223.484 247.847C222.207 242.411 220.663 237.036 219.475 231.571C218.911 229.046 218.436 226.463 218.109 223.879L211.547 224.027C211.844 227.086 212.527 230.116 213.24 233.056Z" fill="#DD3E00"/>
<path d="M196.375 227.799C197.176 232.016 198.008 236.234 198.839 240.451C199.67 244.639 200.472 248.856 201.214 253.074C201.6 255.301 201.986 257.529 202.343 259.786L208.727 261.449C208.637 260.766 208.578 260.113 208.489 259.429C207.925 254.44 207.301 249.48 206.678 244.52C206.054 239.53 205.431 234.541 204.837 229.522C204.629 227.769 204.451 226.017 204.273 224.235L195.751 224.443C195.929 225.542 196.137 226.67 196.375 227.799Z" fill="#DD3E00"/>
<path d="M184.795 234.571C184.765 240.57 184.913 246.569 185.299 252.539C185.685 258.449 186.16 264.389 186.606 270.3C186.665 271.131 186.725 271.933 186.784 272.765H193.643C193.583 270.894 193.524 268.993 193.494 267.122C193.346 261.895 193.227 256.638 192.96 251.411C192.693 246.183 192.218 241.016 191.624 235.818C191.178 232.076 190.733 228.334 190.436 224.562L185.002 224.71C184.884 227.977 184.824 231.274 184.795 234.571Z" fill="#DD3E00"/>
<path d="M170.72 228.839C171.195 240.808 171.938 252.777 172.413 264.716C172.532 267.389 172.621 270.062 172.68 272.735H178.618C178.5 271.012 178.381 269.32 178.262 267.597C177.817 261.895 177.371 256.222 177.015 250.52C176.629 244.669 176.273 238.818 176.035 232.937C175.916 230.264 175.827 227.561 175.738 224.888L170.602 225.007C170.631 226.314 170.691 227.591 170.72 228.839Z" fill="#DD3E00"/>
<path d="M165.257 225.185L160.269 225.304C159.972 228.304 159.645 231.274 159.408 234.274C159.111 237.6 158.903 240.956 158.843 244.283C158.784 247.55 158.903 250.817 159.022 254.054C159.259 260.291 159.615 266.498 159.883 272.735H166.207C166.118 270.805 165.999 268.874 165.91 266.944C165.554 260.974 165.168 255.004 165.019 249.005C164.871 242.738 164.871 236.442 165.049 230.175C165.109 228.512 165.198 226.849 165.257 225.185Z" fill="#DD3E00"/>
<path d="M226.215 181.556L228.502 200.861L218.584 199.346C218.584 199.346 212.408 201.158 209.884 198.248C207.361 195.307 205.431 189.961 207.242 189.456C209.053 188.951 211.399 192.605 212.913 193.496C214.427 194.387 215.14 189.753 215.14 189.753C215.14 189.753 211.607 183.784 209.974 184.081C208.37 184.378 209.053 187.318 207.865 188.239C206.648 189.159 205.846 189.248 205.045 187.823C204.243 186.397 204.184 180.338 207.717 177.101C207.717 177.101 204.54 174.666 200.799 172.765C197.057 170.834 196.553 168.221 197.859 167.508C199.166 166.795 207.064 169.825 209.291 172.854C209.291 172.854 205.045 165.37 203.946 164.36C202.847 163.35 203.857 161.627 206.381 162.637C208.905 163.647 214.071 168.399 215.882 172.141C215.882 172.141 214.279 167.686 214.784 166.172C215.021 165.488 217.1 164.36 220.455 169.498C223.78 174.666 223.78 182.239 223.78 182.239L226.215 181.556Z" fill="#FFAF9C"/>
<path d="M162.199 202.554L113.83 203.534C108.218 203.653 103.586 199.198 103.467 193.585L101.151 80.1603C101.032 74.547 105.486 69.9138 111.098 69.795L159.467 68.8149C165.079 68.6961 169.711 73.1511 169.83 78.7644L172.146 192.189C172.264 197.802 167.811 202.435 162.199 202.554Z" fill="#333333"/>
<path d="M163.357 199.257L112.494 200.297C109.138 200.356 106.347 197.683 106.258 194.327L103.913 79.0911C103.853 75.735 106.526 72.9432 109.881 72.8541L160.744 71.8146C164.099 71.7552 166.89 74.4282 166.979 77.7843L169.325 193.02C169.384 196.406 166.712 199.198 163.357 199.257Z" fill="white"/>
<path d="M139.722 194.149L136.277 194.208C135.119 194.238 134.139 193.317 134.139 192.129L134.08 188.684C134.05 187.526 134.971 186.546 136.159 186.546L139.603 186.486C140.761 186.457 141.741 187.377 141.741 188.565L141.8 192.011C141.8 193.169 140.88 194.119 139.722 194.149Z" fill="#6AAF3F"/>
<path fill-rule="evenodd" clip-rule="evenodd" d="M137.846 188.179C138.01 188.177 138.145 188.308 138.148 188.472L138.207 192.303C138.21 192.467 138.079 192.602 137.915 192.604C137.751 192.607 137.616 192.476 137.613 192.312L137.554 188.481C137.552 188.317 137.682 188.182 137.846 188.179Z" fill="white"/>
<path fill-rule="evenodd" clip-rule="evenodd" d="M140.108 190.34C140.111 190.504 139.982 190.64 139.818 190.644L135.958 190.733C135.794 190.737 135.658 190.607 135.654 190.443C135.65 190.279 135.78 190.143 135.944 190.139L139.804 190.05C139.968 190.047 140.104 190.176 140.108 190.34Z" fill="white"/>
<path fill-rule="evenodd" clip-rule="evenodd" d="M118.877 80.5697C118.881 80.7337 118.751 80.8695 118.587 80.873L110.243 81.0512C110.079 81.0547 109.944 80.9246 109.94 80.7606C109.937 80.5966 110.067 80.4608 110.231 80.4573L118.574 80.2791C118.738 80.2756 118.874 80.4057 118.877 80.5697Z" fill="#333333"/>
<path fill-rule="evenodd" clip-rule="evenodd" d="M118.937 82.531C118.94 82.695 118.809 82.8303 118.645 82.8332L110.272 82.9817C110.108 82.9846 109.973 82.854 109.97 82.69C109.967 82.526 110.098 82.3907 110.262 82.3878L118.635 82.2393C118.799 82.2364 118.934 82.367 118.937 82.531Z" fill="#333333"/>
<path fill-rule="evenodd" clip-rule="evenodd" d="M118.967 84.4912C118.969 84.6552 118.839 84.7905 118.675 84.7934L110.302 84.9419C110.138 84.9448 110.002 84.8142 110 84.6502C109.997 84.4862 110.127 84.3509 110.291 84.348L118.664 84.1995C118.828 84.1966 118.964 84.3272 118.967 84.4912Z" fill="#333333"/>
<path fill-rule="evenodd" clip-rule="evenodd" d="M118.996 86.4207C119 86.5847 118.87 86.7204 118.706 86.7239L110.362 86.9021C110.198 86.9056 110.063 86.7755 110.059 86.6116C110.056 86.4476 110.186 86.3118 110.35 86.3083L118.693 86.1301C118.857 86.1266 118.993 86.2567 118.996 86.4207Z" fill="#333333"/>
<path d="M135.624 76.923C136.477 76.923 137.168 76.2315 137.168 75.3786C137.168 74.5256 136.477 73.8342 135.624 73.8342C134.771 73.8342 134.08 74.5256 134.08 75.3786C134.08 76.2315 134.771 76.923 135.624 76.923Z" fill="#333333"/>
<path d="M158.22 172.973L133.724 173.478C133.516 173.478 133.338 173.329 133.338 173.092V172.765C133.338 172.557 133.486 172.379 133.724 172.379L158.22 171.874C158.428 171.874 158.606 172.022 158.606 172.26V172.587C158.576 172.795 158.428 172.973 158.22 172.973Z" fill="#BCBCBC"/>
<path d="M127.726 173.596L117.749 173.804C117.541 173.804 117.363 173.656 117.363 173.418V173.092C117.363 172.884 117.512 172.705 117.749 172.705L127.726 172.498C127.934 172.498 128.112 172.646 128.112 172.884V173.21C128.112 173.418 127.934 173.596 127.726 173.596Z" fill="#BCBCBC"/>
<path d="M135.149 179.061L117.868 179.418C117.66 179.418 117.482 179.269 117.482 179.032V178.705C117.482 178.497 117.631 178.319 117.868 178.319L135.149 177.962C135.357 177.962 135.535 178.111 135.535 178.348V178.675C135.535 178.883 135.357 179.061 135.149 179.061Z" fill="#BCBCBC"/>
<path d="M138.118 168.666L117.69 169.082C117.482 169.082 117.304 168.934 117.304 168.696V168.369C117.304 168.161 117.452 167.983 117.69 167.983L138.118 167.567C138.326 167.567 138.504 167.716 138.504 167.953V168.28C138.474 168.488 138.326 168.637 138.118 168.666Z" fill="#BCBCBC"/>
<path d="M151.331 168.399L144.977 168.518C144.769 168.518 144.591 168.369 144.591 168.132V167.805C144.591 167.597 144.74 167.419 144.977 167.419L151.331 167.3C151.539 167.3 151.717 167.449 151.717 167.686V168.013C151.717 168.221 151.539 168.369 151.331 168.399Z" fill="#BCBCBC"/>
<path d="M145.779 178.794L139.425 178.913C139.217 178.913 139.039 178.764 139.039 178.527V178.2C139.039 177.992 139.187 177.814 139.425 177.814L145.779 177.695C145.987 177.695 146.165 177.844 146.165 178.081V178.408C146.165 178.616 145.987 178.764 145.779 178.794Z" fill="#BCBCBC"/>
<path d="M158.25 168.25L154.33 168.34C154.122 168.34 153.944 168.191 153.944 167.953V167.627C153.944 167.419 154.093 167.241 154.33 167.241L158.25 167.152C158.457 167.152 158.636 167.3 158.636 167.538V167.864C158.636 168.072 158.457 168.25 158.25 168.25Z" fill="#BCBCBC"/>
<path d="M158.042 178.527L149.193 178.705C148.986 178.705 148.807 178.556 148.807 178.319V177.844C148.807 177.636 148.956 177.457 149.193 177.457L158.042 177.279C158.25 177.279 158.428 177.428 158.428 177.665V178.141C158.428 178.348 158.25 178.527 158.042 178.527Z" fill="#BCBCBC"/>
<path d="M130.784 153.46L158.398 152.896C158.606 152.896 158.784 152.717 158.784 152.509L158.754 151.559C158.754 151.351 158.576 151.173 158.368 151.173L130.755 151.737C130.547 151.737 130.369 151.915 130.369 152.123L130.398 153.074C130.398 153.311 130.576 153.49 130.784 153.46Z" fill="#6AAF3F"/>
<path d="M144.621 158.182L158.487 157.915C158.695 157.915 158.873 157.737 158.873 157.529V157.232C158.873 157.024 158.695 156.846 158.487 156.846L144.621 157.113C144.413 157.113 144.235 157.291 144.235 157.499V157.796C144.235 158.004 144.413 158.182 144.621 158.182Z" fill="#BCBCBC"/>
<path d="M118.046 163.795L123.658 163.677C123.866 163.677 124.044 163.498 124.044 163.291V162.994C124.044 162.786 123.866 162.607 123.658 162.607L118.046 162.726C117.838 162.726 117.66 162.904 117.66 163.112V163.409C117.66 163.647 117.838 163.795 118.046 163.795Z" fill="#BCBCBC"/>
<path d="M128.29 163.588L158.606 162.964C158.814 162.964 158.992 162.786 158.992 162.578V162.281C158.992 162.073 158.814 161.895 158.606 161.895L128.29 162.518C128.082 162.518 127.904 162.697 127.904 162.904V163.201C127.904 163.439 128.082 163.588 128.29 163.588Z" fill="#BCBCBC"/>
<path d="M118.254 158.717L138.475 158.301C138.682 158.301 138.861 158.123 138.861 157.915V157.618C138.861 157.41 138.682 157.232 138.475 157.232L118.254 157.648C118.046 157.648 117.868 157.826 117.868 158.034V158.331C117.868 158.539 118.046 158.717 118.254 158.717Z" fill="#BCBCBC"/>
<path d="M118.135 153.727L127.34 153.549C127.548 153.549 127.726 153.371 127.726 153.163L127.696 152.212C127.696 152.005 127.518 151.826 127.31 151.826L118.106 152.005C117.898 152.005 117.72 152.183 117.72 152.391L117.749 153.341C117.749 153.579 117.927 153.727 118.135 153.727Z" fill="#6AAF3F"/>
<path d="M154.093 130.383L120.6 131.066C117.927 131.125 115.7 128.987 115.641 126.314C115.582 123.641 117.72 121.414 120.392 121.354L153.885 120.671C156.557 120.612 158.784 122.75 158.843 125.423C158.903 128.126 156.795 130.353 154.093 130.383Z" fill="#6AAF3F"/>
<path d="M123.153 123.819L123.836 125.156L125.321 125.334C125.736 125.393 125.885 125.869 125.618 126.166L124.549 127.235L124.846 128.72C124.935 129.106 124.519 129.433 124.133 129.254L122.797 128.571L121.49 129.284C121.134 129.492 120.719 129.195 120.778 128.779L121.015 127.294L119.917 126.255C119.62 125.987 119.768 125.482 120.184 125.423L121.669 125.185L122.292 123.819C122.441 123.463 122.945 123.463 123.153 123.819Z" fill="white"/>
<path d="M125.321 125.334L125.083 125.304C124.786 125.304 124.489 125.304 124.193 125.393C123.747 125.512 123.569 125.898 123.391 126.255C123.242 126.552 123.094 126.849 122.797 127.027C122.619 127.146 122.441 127.205 122.233 127.294C122.025 127.383 121.847 127.472 121.669 127.621C121.342 127.888 121.164 128.215 120.926 128.542C120.867 128.601 120.837 128.66 120.778 128.72V128.779C120.719 129.195 121.134 129.492 121.491 129.284L122.797 128.571L124.133 129.254C124.489 129.433 124.905 129.136 124.846 128.72L124.549 127.235L125.618 126.166C125.915 125.869 125.737 125.393 125.321 125.334Z" fill="#FFB000"/>
<path d="M130.19 123.671L130.873 125.007L132.358 125.186C132.774 125.245 132.922 125.72 132.655 126.017L131.586 127.086L131.883 128.571C131.972 128.957 131.556 129.284 131.17 129.106L129.834 128.423L128.528 129.136C128.171 129.343 127.756 129.046 127.815 128.631L128.053 127.146L126.954 126.106C126.657 125.839 126.805 125.334 127.221 125.275L128.706 125.037L129.329 123.671C129.478 123.314 130.012 123.314 130.19 123.671Z" fill="white"/>
<path d="M132.388 125.186L132.15 125.156C131.853 125.156 131.556 125.156 131.259 125.245C130.814 125.364 130.636 125.75 130.458 126.106C130.309 126.403 130.161 126.7 129.864 126.878C129.686 126.997 129.507 127.057 129.3 127.146C129.092 127.235 128.914 127.324 128.735 127.472C128.409 127.74 128.231 128.066 127.993 128.393C127.934 128.453 127.904 128.512 127.845 128.571V128.631C127.785 129.047 128.201 129.344 128.557 129.136L129.864 128.423L131.2 129.106C131.556 129.284 131.972 128.987 131.913 128.571L131.616 127.086L132.685 126.017C132.952 125.72 132.774 125.245 132.388 125.186Z" fill="#FFB000"/>
<path d="M137.227 123.522L137.91 124.859L139.395 125.037C139.811 125.096 139.959 125.572 139.692 125.869L138.623 126.938L138.92 128.423C139.009 128.809 138.593 129.136 138.207 128.957L136.871 128.274L135.565 128.987C135.208 129.195 134.793 128.898 134.852 128.482L135.09 126.997L133.991 125.958C133.694 125.69 133.843 125.186 134.258 125.126L135.743 124.889L136.366 123.522C136.545 123.166 137.049 123.166 137.227 123.522Z" fill="white"/>
<path d="M139.425 125.037L139.187 125.007C138.89 125.007 138.593 125.007 138.296 125.096C137.851 125.215 137.673 125.601 137.495 125.958C137.346 126.255 137.198 126.552 136.901 126.73C136.723 126.849 136.545 126.908 136.337 126.997C136.129 127.086 135.951 127.175 135.773 127.324C135.446 127.591 135.268 127.918 135.03 128.245C134.971 128.304 134.941 128.363 134.882 128.423V128.482C134.822 128.898 135.238 129.195 135.594 128.987L136.901 128.274L138.237 128.957C138.593 129.136 139.009 128.839 138.95 128.423L138.653 126.938L139.722 125.869C139.989 125.601 139.811 125.096 139.425 125.037Z" fill="#FFB000"/>
<path d="M144.294 123.374L144.977 124.71L146.462 124.888C146.877 124.948 147.026 125.423 146.759 125.72L145.69 126.819L145.987 128.304C146.076 128.69 145.66 129.017 145.274 128.839L143.938 128.155L142.631 128.868C142.275 129.076 141.859 128.779 141.919 128.363L142.156 126.878L141.058 125.839C140.761 125.572 140.909 125.067 141.325 125.007L142.81 124.77L143.433 123.403C143.582 123.047 144.086 123.017 144.294 123.374Z" fill="white"/>
<path d="M146.462 124.918L146.224 124.888C145.927 124.888 145.63 124.888 145.333 124.978C144.888 125.096 144.71 125.482 144.532 125.839C144.383 126.136 144.235 126.433 143.938 126.611C143.76 126.73 143.582 126.789 143.374 126.878C143.166 126.967 142.988 127.057 142.81 127.205C142.483 127.472 142.305 127.799 142.067 128.126C142.008 128.185 141.978 128.245 141.919 128.304V128.363C141.859 128.779 142.275 129.076 142.631 128.868L143.938 128.155L145.274 128.839C145.63 129.017 146.046 128.72 145.987 128.304L145.69 126.819L146.759 125.75C147.056 125.453 146.877 124.948 146.462 124.918Z" fill="#FFB000"/>
<path d="M151.331 123.255L152.014 124.591L153.499 124.77C153.914 124.829 154.063 125.304 153.796 125.601L152.727 126.67L153.024 128.155C153.113 128.542 152.697 128.868 152.311 128.69L150.975 128.007L149.668 128.72C149.312 128.928 148.896 128.631 148.956 128.215L149.193 126.73L148.095 125.69C147.798 125.423 147.946 124.918 148.362 124.859L149.847 124.621L150.47 123.255C150.619 122.899 151.153 122.869 151.331 123.255Z" fill="white"/>
<path d="M153.529 124.77L153.291 124.74C152.994 124.74 152.697 124.74 152.4 124.829C151.955 124.948 151.777 125.334 151.599 125.69C151.45 125.987 151.302 126.284 151.005 126.463C150.827 126.581 150.648 126.641 150.44 126.73C150.233 126.819 150.054 126.908 149.876 127.057C149.55 127.324 149.372 127.651 149.134 127.977C149.075 128.037 149.045 128.096 148.986 128.155V128.215C148.926 128.631 149.342 128.928 149.698 128.72L151.005 128.007L152.341 128.69C152.697 128.868 153.113 128.571 153.053 128.155L152.757 126.67L153.825 125.601C154.093 125.304 153.915 124.799 153.529 124.77Z" fill="#FFB000"/>
<path d="M140.137 115.384L137.287 113.662L134.466 115.503C133.753 115.978 132.803 115.474 132.774 114.612L132.447 98.1584L141.444 97.9802L141.77 114.434C141.8 115.266 140.85 115.83 140.137 115.384Z" fill="#8CCE61"/>
<path d="M126.538 100.297C126.508 99.2574 127.993 98.3961 128.29 97.4457C128.587 96.4656 127.845 94.9509 128.409 94.1193C129.003 93.2877 130.665 93.4659 131.497 92.8422C132.298 92.2185 132.566 90.5553 133.546 90.2286C134.496 89.9019 135.743 91.0305 136.782 91.0008C137.821 90.9711 139.039 89.8128 139.989 90.0801C140.969 90.3771 141.325 92.0403 142.156 92.6046C142.988 93.1986 144.68 92.9313 145.274 93.7629C145.898 94.5648 145.185 96.1092 145.541 97.0893C145.868 98.0397 147.382 98.8119 147.382 99.8514C147.412 100.891 145.927 101.752 145.63 102.703C145.333 103.683 146.076 105.197 145.512 106.029C144.918 106.861 143.255 106.682 142.424 107.306C141.622 107.93 141.355 109.593 140.375 109.92C139.425 110.246 138.178 109.118 137.138 109.147C136.099 109.177 134.882 110.335 133.932 110.068C132.952 109.771 132.595 108.108 131.764 107.544C130.933 106.95 129.24 107.217 128.646 106.385C128.023 105.583 128.735 104.039 128.379 103.059C128.052 102.138 126.568 101.366 126.538 100.297Z" fill="#333333"/>
<path d="M126.123 99.8514C126.093 98.8119 127.577 97.9506 127.874 97.0002C128.171 96.0201 127.429 94.5054 127.993 93.6738C128.587 92.8422 130.25 93.0204 131.081 92.3967C131.883 91.773 132.15 90.1098 133.13 89.7831C134.08 89.4564 135.327 90.585 136.366 90.5553C137.406 90.5256 138.623 89.3673 139.573 89.6346C140.553 89.9316 140.909 91.5948 141.741 92.1591C142.572 92.7531 144.265 92.4858 144.858 93.3174C145.482 94.1193 144.769 95.6637 145.126 96.6438C145.452 97.5942 146.967 98.3664 146.967 99.4059C146.996 100.445 145.512 101.307 145.215 102.257C144.918 103.237 145.66 104.752 145.096 105.583C144.502 106.415 142.839 106.237 142.008 106.861C141.206 107.484 140.939 109.147 139.959 109.474C139.009 109.801 137.762 108.672 136.723 108.702C135.683 108.732 134.466 109.89 133.516 109.623C132.536 109.326 132.18 107.662 131.348 107.098C130.517 106.504 128.825 106.771 128.231 105.94C127.607 105.138 128.32 103.594 127.963 102.613C127.637 101.663 126.152 100.891 126.123 99.8514Z" fill="#6AAF3F"/>
<path d="M136.574 106.92C140.477 106.92 143.641 103.755 143.641 99.8514C143.641 95.9475 140.477 92.7828 136.574 92.7828C132.671 92.7828 129.507 95.9475 129.507 99.8514C129.507 103.755 132.671 106.92 136.574 106.92Z" fill="white"/>
<path d="M133.635 102.198L134.733 100.831C135.327 101.307 135.891 101.574 136.485 101.574C137.138 101.574 137.524 101.218 137.524 100.683C137.524 100.178 137.079 99.8513 136.455 99.881C136.01 99.881 135.654 100.059 135.327 100.267L134.139 99.6434L134.258 95.9904L139.068 95.9012L139.098 97.5347L135.862 97.5941L135.832 98.693C136.158 98.5445 136.485 98.4257 136.96 98.4257C138.237 98.396 139.425 99.0791 139.454 100.683C139.484 102.287 138.296 103.267 136.545 103.297C135.297 103.297 134.407 102.881 133.635 102.198Z" fill="#5097FF"/>
<path fill-rule="evenodd" clip-rule="evenodd" d="M153.371 89.2848C153.688 89.0905 153.969 89.1853 154.324 89.3139C154.329 89.3157 154.335 89.3176 154.34 89.3194C154.679 89.4421 155.089 89.5908 155.536 89.3155C155.606 89.2726 155.628 89.1811 155.585 89.1112C155.542 89.0414 155.451 89.0196 155.381 89.0626C155.063 89.2583 154.781 89.1634 154.425 89.0346C154.42 89.0327 154.415 89.0309 154.41 89.029C154.071 88.9063 153.66 88.7576 153.213 89.0329L153.213 89.0329L153.21 89.0351C152.763 89.3274 152.728 89.7726 152.699 90.1362C152.699 90.1421 152.698 90.1479 152.698 90.1537C152.667 90.5377 152.637 90.8294 152.322 91.0228C152.004 91.2185 151.723 91.1236 151.367 90.9947C151.362 90.9929 151.357 90.991 151.352 90.9892C151.013 90.8665 150.602 90.7178 150.155 90.9931C150.085 91.0361 150.063 91.1275 150.106 91.1974C150.149 91.2672 150.241 91.289 150.311 91.246C150.628 91.0503 150.91 91.1452 151.266 91.274C151.271 91.2759 151.276 91.2778 151.281 91.2796C151.62 91.4023 152.031 91.551 152.478 91.2757C152.929 90.9982 152.964 90.5569 152.992 90.194C152.993 90.1884 152.993 90.1828 152.994 90.1772C153.024 89.7947 153.054 89.4926 153.371 89.2848Z" fill="#FFB000"/>
<path fill-rule="evenodd" clip-rule="evenodd" d="M118.274 90.8968C118.315 90.8258 118.406 90.8014 118.477 90.8424C118.923 91.0999 118.979 91.5341 119.025 91.8893C119.026 91.8987 119.027 91.9079 119.029 91.9171C119.078 92.2953 119.126 92.5892 119.454 92.7717L119.457 92.7729L119.457 92.7729C119.772 92.9548 120.045 92.8493 120.399 92.7047C120.403 92.7031 120.406 92.7016 120.41 92.7C120.747 92.5624 121.157 92.3946 121.622 92.6529L121.624 92.6541L121.624 92.6541C122.07 92.9116 122.126 93.3458 122.172 93.701C122.173 93.7104 122.175 93.7196 122.176 93.7288C122.225 94.107 122.273 94.4009 122.602 94.5834C122.673 94.6232 122.699 94.7137 122.659 94.7853C122.62 94.857 122.529 94.8829 122.458 94.843C121.987 94.5817 121.93 94.1371 121.882 93.774L121.881 93.7671C121.832 93.3852 121.79 93.0932 121.477 92.912C121.146 92.7285 120.862 92.836 120.511 92.9796C120.505 92.9823 120.498 92.985 120.491 92.9877C120.159 93.1237 119.757 93.2884 119.309 93.0308C118.84 92.7693 118.782 92.3251 118.735 91.9623L118.734 91.9554C118.684 91.5731 118.642 91.2809 118.328 91.0997C118.257 91.0587 118.233 90.9679 118.274 90.8968Z" fill="#FFB000"/>
<path fill-rule="evenodd" clip-rule="evenodd" d="M122.671 109.172C122.316 109.039 122.037 108.946 121.72 109.153C121.402 109.361 121.372 109.663 121.342 110.047C121.341 110.052 121.341 110.058 121.34 110.063C121.312 110.426 121.277 110.868 120.826 111.145C120.379 111.42 119.968 111.272 119.629 111.149C119.624 111.147 119.619 111.145 119.614 111.143C119.258 111.015 118.976 110.92 118.658 111.115C118.589 111.158 118.497 111.137 118.454 111.067C118.411 110.997 118.433 110.905 118.503 110.862C118.95 110.587 119.361 110.736 119.699 110.859C119.705 110.86 119.71 110.862 119.715 110.864C120.071 110.993 120.352 111.088 120.67 110.892C120.985 110.699 121.015 110.407 121.046 110.023C121.046 110.017 121.046 110.011 121.047 110.006C121.076 109.642 121.111 109.197 121.558 108.904C122.01 108.609 122.426 108.764 122.768 108.891L122.774 108.893C123.132 109.027 123.412 109.127 123.729 108.932C123.798 108.889 123.89 108.911 123.933 108.981C123.976 109.05 123.954 109.142 123.884 109.185C123.44 109.459 123.031 109.306 122.695 109.181C122.687 109.178 122.679 109.175 122.671 109.172Z" fill="#FFB000"/>
<path fill-rule="evenodd" clip-rule="evenodd" d="M151.281 106.612C151.336 106.551 151.43 106.547 151.491 106.602C151.886 106.964 151.851 107.409 151.822 107.774C151.822 107.779 151.821 107.784 151.821 107.789C151.79 108.173 151.774 108.467 152.052 108.709L152.055 108.711L152.055 108.711C152.336 108.968 152.626 108.921 152.995 108.85C153.004 108.848 153.013 108.846 153.021 108.844C153.371 108.776 153.797 108.693 154.19 109.035C154.588 109.382 154.553 109.822 154.524 110.182C154.524 110.187 154.523 110.193 154.523 110.199C154.492 110.579 154.476 110.872 154.754 111.114C154.816 111.168 154.823 111.262 154.769 111.324C154.715 111.386 154.621 111.392 154.559 111.339C154.161 110.992 154.197 110.552 154.225 110.192C154.226 110.187 154.226 110.181 154.227 110.175C154.257 109.795 154.273 109.502 153.995 109.26C153.715 109.016 153.425 109.069 153.052 109.141L153.046 109.142C152.69 109.211 152.256 109.296 151.856 108.932C151.46 108.586 151.494 108.146 151.523 107.784C151.524 107.778 151.524 107.772 151.525 107.766C151.555 107.383 151.572 107.079 151.291 106.822C151.23 106.766 151.226 106.673 151.281 106.612Z" fill="#FFB000"/>
<path d="M124.311 104.098C124.59 104.098 124.816 103.872 124.816 103.594C124.816 103.315 124.59 103.089 124.311 103.089C124.033 103.089 123.807 103.315 123.807 103.594C123.807 103.872 124.033 104.098 124.311 104.098Z" fill="#5097FF"/>
<path d="M115.463 99.5544C115.611 99.5544 115.73 99.4347 115.73 99.2871C115.73 99.1394 115.611 99.0198 115.463 99.0198C115.315 99.0198 115.196 99.1394 115.196 99.2871C115.196 99.4347 115.315 99.5544 115.463 99.5544Z" fill="#8CCE61"/>
<path d="M157.537 107.395C157.685 107.395 157.804 107.276 157.804 107.128C157.804 106.98 157.685 106.861 157.537 106.861C157.389 106.861 157.27 106.98 157.27 107.128C157.27 107.276 157.389 107.395 157.537 107.395Z" fill="#8CCE61"/>
<path d="M154.241 95.0103C154.52 95.0103 154.746 94.7842 154.746 94.5054C154.746 94.2265 154.52 94.0005 154.241 94.0005C153.962 94.0005 153.736 94.2265 153.736 94.5054C153.736 94.7842 153.962 95.0103 154.241 95.0103Z" fill="#5097FF"/>
<path d="M95.0347 158.242C95.005 157.529 95.7473 156.994 96.4599 156.786C98.0039 156.4 101.033 155.45 103.497 153.846C106.971 151.559 109.406 141.55 111.692 141.55C113.978 141.55 112.761 148.975 111.989 150.965C111.989 150.965 120.778 149.45 121.847 151.559C122.916 153.668 120.926 155.658 117.452 156.578C117.452 156.578 122.292 156.43 122.292 159.756C122.292 163.083 117.452 162.637 117.452 162.637C117.452 162.637 123.361 162.934 122.767 166.736C122.173 170.537 116.71 169.32 116.71 169.32C116.71 169.32 122.322 170.092 122.025 173.715C121.728 177.368 96.163 178.2 96.1036 176.151C95.9848 173.597 95.1534 161.806 95.0347 158.242Z" fill="#FFAF9C"/>
<path d="M253.146 223.017L154.746 228.482L154.894 225.423L253.146 223.017Z" fill="#333333"/>
<path d="M219.03 110.633L205.51 108.007L206.037 93.8443C206.037 93.8443 209.867 93.9637 210.307 90.9377C210.559 89.0983 209.62 87.6949 208.229 87.0899C206.779 86.4547 205.082 87.0056 204.151 88.2753L202.65 90.3722C202.65 90.3722 201.422 91.6693 200.362 86.8197C199.302 81.97 197.702 77.7992 197.702 77.7992L184.054 76.3844L183.778 84.9658C183.778 84.9658 181.775 94.1869 181.888 95.0194C181.97 95.822 184.516 96.8223 184.516 96.8223C184.516 96.8223 184.047 103.59 186.476 104.322C188.905 105.054 189.054 104.907 189.054 104.907L188.576 109.151L178.755 111.954C178.695 111.953 194.289 122.673 219.03 110.633Z" fill="#FFAF9C"/>
<path d="M188.995 104.907C188.995 104.907 192.291 104.903 197.773 102.6L188.644 107.993L188.995 104.907Z" fill="#333333"/>
<path d="M191.119 89.8425C191.66 89.8425 192.099 89.4037 192.099 88.8624C192.099 88.3211 191.66 87.8823 191.119 87.8823C190.578 87.8823 190.139 88.3211 190.139 88.8624C190.139 89.4037 190.578 89.8425 191.119 89.8425Z" fill="#333333"/>
<path d="M191.393 83.3331C192.967 83.3456 194.247 82.9169 194.251 82.3756C194.255 81.8343 192.982 81.3854 191.408 81.373C189.834 81.3605 188.554 81.7892 188.55 82.3305C188.546 82.8717 189.819 83.3206 191.393 83.3331Z" fill="#333333"/>
<path fill-rule="evenodd" clip-rule="evenodd" d="M208.636 89.755C208.636 89.7552 208.636 89.7554 208.355 89.853L208.636 89.7554C208.69 89.9103 208.608 90.0796 208.453 90.1335C208.299 90.1873 208.13 90.106 208.075 89.9518C208.075 89.9518 208.075 89.9518 208.075 89.9518M208.075 89.952L208.075 89.952L208.075 89.952Z" fill="#333333"/>
<path fill-rule="evenodd" clip-rule="evenodd" d="M191.082 96.2901C191.224 96.3731 191.271 96.5551 191.188 96.6966L190.932 96.5463C191.188 96.6966 191.188 96.6964 191.188 96.6966L191.187 96.6977L191.186 96.6995L191.183 96.7052C191.18 96.7099 191.176 96.7165 191.171 96.7247C191.161 96.7411 191.146 96.7642 191.127 96.7929C191.089 96.8504 191.034 96.9306 190.962 97.0251C190.819 97.2134 190.608 97.4617 190.337 97.6992C189.798 98.1704 188.982 98.6305 187.978 98.4178C187.817 98.3839 187.715 98.2263 187.749 98.0658C187.783 97.9053 187.94 97.8027 188.101 97.8367C188.845 97.9943 189.475 97.664 189.946 97.2521C190.179 97.048 190.363 96.8318 190.489 96.6657C190.552 96.5831 190.6 96.5138 190.631 96.466C190.647 96.4421 190.659 96.4236 190.666 96.4116C190.67 96.4056 190.673 96.4012 190.674 96.3986L190.676 96.3961C190.759 96.2547 190.941 96.2072 191.082 96.2901Z" fill="#333333"/>
<path fill-rule="evenodd" clip-rule="evenodd" d="M183.807 85.061C183.967 85.0949 184.07 85.2524 184.036 85.4129L182.154 94.3372C182.154 94.3374 182.154 94.3375 182.154 94.3376C181.999 95.0851 182.419 95.8337 183.107 96.0858C183.909 96.3786 184.617 96.3093 185.126 96.1667C185.38 96.0953 185.585 96.0057 185.724 95.9348C185.793 95.8994 185.846 95.8689 185.88 95.848C185.897 95.8375 185.91 95.8295 185.918 95.8245C185.921 95.822 185.924 95.8202 185.925 95.8193L185.926 95.8191C185.926 95.8191 185.926 95.819 185.926 95.819C185.926 95.819 185.926 95.8189 185.926 95.8189C185.926 95.8188 185.926 95.8188 185.926 95.8187C185.926 95.8187 185.926 95.8186 185.926 95.8186C186.061 95.7253 186.245 95.7582 186.339 95.8923C186.433 96.0268 186.4 96.2119 186.266 96.3059L186.096 96.0625C186.266 96.3059 186.266 96.306 186.266 96.3061L186.265 96.3063L186.265 96.3067L186.263 96.3079L186.258 96.3111C186.255 96.3137 186.249 96.3172 186.243 96.3214C186.23 96.3298 186.212 96.3414 186.189 96.3554C186.143 96.3833 186.077 96.4213 185.993 96.464C185.826 96.5494 185.585 96.6549 185.286 96.7387C184.686 96.9067 183.848 96.9885 182.904 96.6438L182.903 96.6437C181.934 96.2886 181.358 95.2476 181.573 94.2161L181.573 94.2154L183.455 85.2903C183.489 85.1298 183.646 85.0272 183.807 85.061Z" fill="#333333"/>
<path d="M69.2618 131.66C69.9669 131.66 70.5385 131.088 70.5385 130.383C70.5385 129.678 69.9669 129.106 69.2618 129.106C68.5566 129.106 67.985 129.678 67.985 130.383C67.985 131.088 68.5566 131.66 69.2618 131.66Z" fill="#333333"/>
<path d="M89.1556 125.037C89.8607 125.037 90.4323 124.465 90.4323 123.76C90.4323 123.055 89.8607 122.483 89.1556 122.483C88.4504 122.483 87.8788 123.055 87.8788 123.76C87.8788 124.465 88.4504 125.037 89.1556 125.037Z" fill="#333333"/>
<path fill-rule="evenodd" clip-rule="evenodd" d="M83.227 129.373C83.4569 129.46 83.5724 129.717 83.485 129.947C83.0549 131.079 82.4303 131.819 81.7102 132.271C80.9943 132.719 80.2205 132.86 79.5253 132.856C78.8319 132.851 78.2012 132.704 77.7486 132.561C77.521 132.489 77.335 132.417 77.2046 132.363C77.1393 132.335 77.0877 132.312 77.0514 132.296C77.0333 132.287 77.0191 132.28 77.0088 132.275L76.9965 132.269L76.9927 132.268L76.9914 132.267L76.9909 132.267C76.9906 132.267 76.9904 132.266 77.1856 131.876L76.9904 132.266C76.7704 132.156 76.6813 131.889 76.7913 131.669C76.9012 131.449 77.1683 131.36 77.3881 131.469C77.3884 131.469 77.3886 131.469 77.3888 131.47L77.1896 131.868C77.3888 131.47 77.3886 131.469 77.3885 131.469L77.3889 131.47L77.3951 131.473C77.4011 131.475 77.411 131.48 77.4246 131.486C77.4518 131.499 77.4936 131.518 77.5484 131.541C77.658 131.587 77.8186 131.649 78.0169 131.711C78.4161 131.838 78.9545 131.961 79.5305 131.965C80.1047 131.968 80.7004 131.852 81.2372 131.516C81.7697 131.182 82.2808 130.608 82.6524 129.631C82.7398 129.401 82.9971 129.285 83.227 129.373Z" fill="#333333"/>
<path d="M146.58 269.379C146.58 269.379 116.651 194.268 46.4283 177.547C46.4283 177.547 74.0422 235.877 99.34 255.776C127.251 277.695 146.58 269.379 146.58 269.379Z" fill="#6AAF3F"/>
<path fill-rule="evenodd" clip-rule="evenodd" d="M238.819 148.421C238.977 148.379 239.14 148.474 239.181 148.633L246.159 175.303C246.199 175.457 246.111 175.615 245.96 175.662L223.809 182.553C223.653 182.601 223.486 182.514 223.438 182.357C223.389 182.2 223.476 182.034 223.633 181.985L245.512 175.179L238.607 148.783C238.565 148.624 238.66 148.462 238.819 148.421Z" fill="#333333"/>
<path fill-rule="evenodd" clip-rule="evenodd" d="M157.195 201.931C157.277 201.939 157.336 202.012 157.328 202.093L155.042 225.616C155.034 225.697 154.962 225.757 154.88 225.749C154.798 225.741 154.739 225.668 154.747 225.587L157.033 202.064C157.041 201.983 157.113 201.923 157.195 201.931Z" fill="#333333"/>
<path fill-rule="evenodd" clip-rule="evenodd" d="M188.784 255.696C188.829 255.538 188.993 255.446 189.15 255.49L215.814 262.975C215.972 263.019 216.064 263.183 216.02 263.341C215.976 263.499 215.812 263.591 215.654 263.547L188.99 256.062C188.832 256.018 188.74 255.854 188.784 255.696Z" fill="#333333"/>
<path fill-rule="evenodd" clip-rule="evenodd" d="M232.201 223.825C232.201 223.825 232.201 223.825 232.201 223.825L232.202 223.826L232.204 223.833C232.206 223.84 232.209 223.85 232.213 223.864C232.222 223.892 232.235 223.934 232.254 223.989C232.29 224.1 232.347 224.264 232.427 224.474C232.585 224.896 232.834 225.504 233.192 226.244C233.908 227.725 235.061 229.732 236.806 231.834C240.293 236.034 246.148 240.616 255.627 242.118C255.789 242.144 255.9 242.296 255.874 242.458C255.849 242.62 255.697 242.73 255.535 242.705C245.892 241.177 239.915 236.508 236.35 232.214C234.568 230.068 233.391 228.018 232.658 226.503C232.291 225.745 232.035 225.12 231.871 224.684C231.789 224.465 231.729 224.294 231.69 224.177C231.671 224.118 231.656 224.072 231.646 224.041C231.642 224.026 231.638 224.014 231.635 224.006L231.633 223.996L231.632 223.993L231.632 223.992C231.631 223.992 231.631 223.992 231.916 223.908L231.631 223.992C231.585 223.835 231.675 223.67 231.833 223.623C231.99 223.577 232.155 223.667 232.201 223.825Z" fill="#333333"/>
<path fill-rule="evenodd" clip-rule="evenodd" d="M182.977 225.181C183.111 225.276 183.142 225.461 183.047 225.595C177.845 232.937 170.825 237.82 165.115 240.865C162.258 242.389 159.726 243.455 157.907 244.14C156.997 244.483 156.266 244.731 155.761 244.893C155.508 244.974 155.312 245.034 155.179 245.074C155.112 245.093 155.061 245.108 155.027 245.118C155.01 245.123 154.996 245.127 154.987 245.129L154.977 245.132L154.974 245.133C154.973 245.133 154.973 245.133 154.894 244.847L154.973 245.133C154.815 245.177 154.652 245.084 154.608 244.926C154.565 244.768 154.657 244.604 154.816 244.56L154.818 244.57C154.816 244.56 154.816 244.56 154.816 244.56L154.816 244.56L154.818 244.56L154.827 244.557C154.835 244.555 154.847 244.552 154.864 244.547C154.896 244.538 154.945 244.523 155.01 244.504C155.139 244.466 155.331 244.407 155.579 244.328C156.076 244.168 156.798 243.924 157.698 243.585C159.497 242.907 162.005 241.851 164.835 240.341C170.497 237.321 177.432 232.492 182.563 225.251C182.658 225.117 182.843 225.086 182.977 225.181Z" fill="#333333"/>
<path d="M160.506 233.62C161.261 233.62 161.872 233.009 161.872 232.254C161.872 231.499 161.261 230.888 160.506 230.888C159.752 230.888 159.14 231.499 159.14 232.254C159.14 233.009 159.752 233.62 160.506 233.62Z" fill="#333333"/>
<path d="M248.603 231.244C249.358 231.244 249.969 230.633 249.969 229.878C249.969 229.123 249.358 228.512 248.603 228.512C247.849 228.512 247.237 229.123 247.237 229.878C247.237 230.633 247.849 231.244 248.603 231.244Z" fill="#333333"/>
<path fill-rule="evenodd" clip-rule="evenodd" d="M250.619 199.448C250.645 199.61 250.534 199.762 250.373 199.788C241.381 201.23 235.907 201.574 232.675 201.555C231.059 201.546 230.001 201.446 229.341 201.346C229.011 201.297 228.781 201.247 228.629 201.208C228.554 201.189 228.498 201.173 228.459 201.16C228.44 201.154 228.425 201.149 228.414 201.145C228.409 201.143 228.404 201.142 228.401 201.141L228.396 201.139L228.395 201.138L228.394 201.138C228.393 201.138 228.393 201.138 228.502 200.861L228.393 201.138C228.24 201.078 228.165 200.905 228.225 200.753C228.285 200.601 228.456 200.525 228.608 200.584L228.612 200.585C228.617 200.587 228.626 200.59 228.639 200.594C228.666 200.603 228.711 200.616 228.776 200.633C228.906 200.666 229.117 200.712 229.43 200.759C230.055 200.854 231.085 200.952 232.679 200.961C235.868 200.98 241.307 200.641 250.278 199.202C250.44 199.176 250.593 199.286 250.619 199.448Z" fill="#333333"/>
<path d="M226.156 181.14L229.333 201.01L226.304 200.713L226.156 181.14Z" fill="#333333"/>
<path d="M238.775 114.642C238.775 114.642 239.874 116.038 240.794 119.899C241.715 123.76 246.02 124.443 248.069 124.235C250.118 124.027 255.522 128.215 256.888 128.452C258.253 128.69 251.959 115.771 238.775 114.642Z" fill="#DD3E00"/>
<path fill-rule="evenodd" clip-rule="evenodd" d="M95.2384 157.202C95.3203 157.2 95.3887 157.264 95.391 157.346L95.2426 157.351L95.0942 157.355C95.0919 157.273 95.1564 157.204 95.2384 157.202ZM95.2426 157.351C95.0942 157.355 95.0942 157.355 95.0942 157.355L95.0999 157.555C95.1037 157.686 95.1093 157.878 95.1165 158.123C95.131 158.612 95.1519 159.313 95.1782 160.156C95.2306 161.844 95.3039 164.105 95.3874 166.4C95.4709 168.694 95.5647 171.023 95.658 172.845C95.7047 173.756 95.7512 174.541 95.7964 175.133C95.819 175.428 95.8414 175.676 95.8633 175.868C95.8847 176.056 95.907 176.201 95.932 176.283C95.9559 176.362 96.0389 176.406 96.1174 176.382C96.1958 176.358 96.2399 176.275 96.216 176.196C96.2001 176.145 96.1802 176.026 96.1583 175.835C96.137 175.648 96.115 175.404 96.0925 175.11C96.0476 174.522 96.0011 173.74 95.9545 172.83C95.8613 171.01 95.7677 168.683 95.6842 166.389C95.6007 164.095 95.5274 161.834 95.4749 160.147C95.4487 159.303 95.4277 158.603 95.4133 158.114C95.4061 157.869 95.4005 157.677 95.3967 157.547L95.391 157.346C95.391 157.346 95.391 157.346 95.2426 157.351Z" fill="#333333"/>
<path fill-rule="evenodd" clip-rule="evenodd" d="M245.581 175.317C245.615 175.156 245.773 175.054 245.933 175.088L253.059 176.603C253.22 176.637 253.322 176.794 253.288 176.955C253.254 177.115 253.096 177.218 252.936 177.184L245.81 175.669C245.65 175.635 245.547 175.477 245.581 175.317Z" fill="#333333"/>
<path fill-rule="evenodd" clip-rule="evenodd" d="M206.012 167.289C206.083 167.249 206.174 167.275 206.214 167.347C206.881 168.548 208.298 170.997 209.549 173.147C210.174 174.222 210.758 175.221 211.185 175.952C211.399 176.317 211.573 176.616 211.694 176.822L211.883 177.145C211.883 177.145 211.883 177.145 211.755 177.22C211.627 177.295 211.627 177.295 211.627 177.295L211.438 176.973C211.317 176.766 211.142 176.467 210.929 176.102C210.501 175.371 209.918 174.371 209.292 173.296C208.042 171.147 206.623 168.695 205.954 167.491C205.914 167.419 205.94 167.329 206.012 167.289ZM211.83 177.348C211.76 177.39 211.669 177.366 211.627 177.295L211.755 177.22L211.883 177.145C211.925 177.216 211.901 177.307 211.83 177.348Z" fill="#333333"/>
<path fill-rule="evenodd" clip-rule="evenodd" d="M215.131 169.592C215.21 169.571 215.292 169.618 215.313 169.697C216.279 173.295 216.638 175.428 216.754 176.664C216.812 177.282 216.81 177.679 216.792 177.924C216.783 178.047 216.77 178.132 216.758 178.189C216.753 178.217 216.747 178.239 216.743 178.254C216.741 178.262 216.739 178.268 216.737 178.273L216.735 178.279L216.734 178.281L216.734 178.282L216.734 178.283C216.734 178.283 216.733 178.283 216.595 178.23L216.733 178.283C216.704 178.36 216.618 178.398 216.541 178.368C216.466 178.339 216.428 178.255 216.456 178.179C216.456 178.179 216.456 178.179 216.456 178.179M216.456 178.179C216.456 178.178 216.456 178.176 216.457 178.173C216.459 178.165 216.463 178.152 216.467 178.13C216.476 178.087 216.487 178.015 216.496 177.902C216.512 177.678 216.515 177.298 216.458 176.692C216.344 175.478 215.99 173.363 215.026 169.774C215.005 169.695 215.052 169.613 215.131 169.592" fill="#333333"/>
<path fill-rule="evenodd" clip-rule="evenodd" d="M217.514 191.534C217.58 191.583 217.595 191.675 217.546 191.742C217.366 191.989 217.213 192.415 217.123 192.972C217.034 193.524 217.009 194.191 217.073 194.908C217.201 196.343 217.684 197.961 218.701 199.255C218.752 199.319 218.741 199.412 218.676 199.463C218.612 199.514 218.518 199.503 218.468 199.438C217.406 198.088 216.909 196.41 216.777 194.934C216.711 194.196 216.737 193.504 216.83 192.924C216.923 192.349 217.086 191.869 217.306 191.567C217.355 191.5 217.448 191.486 217.514 191.534Z" fill="#333333"/>
<path fill-rule="evenodd" clip-rule="evenodd" d="M46.5677 177.643C46.6292 177.589 46.723 177.595 46.7772 177.656L46.6659 177.754L46.5546 177.853C46.5004 177.791 46.5062 177.697 46.5677 177.643ZM46.6659 177.754C46.5546 177.853 46.5545 177.853 46.5546 177.853L46.5983 177.902C46.6274 177.935 46.6707 177.985 46.7277 178.05C46.8417 178.18 47.0107 178.373 47.2302 178.626C47.6691 179.13 48.3101 179.872 49.1182 180.817C50.7345 182.707 53.0192 185.414 55.6926 188.678C61.0397 195.207 67.9405 203.965 74.158 212.885C80.3863 221.821 91.5517 234.475 104.472 245.72C117.39 256.962 132.079 266.812 145.357 270.117C145.437 270.137 145.517 270.088 145.537 270.009C145.557 269.929 145.508 269.849 145.429 269.829C132.221 266.541 117.575 256.729 104.667 245.496C91.7626 234.265 80.6143 221.629 74.4016 212.716C68.178 203.786 61.2719 195.022 55.9223 188.49C53.2474 185.224 50.9613 182.515 49.3439 180.624C48.5352 179.678 47.8936 178.936 47.4542 178.431C47.2345 178.178 47.0653 177.985 46.951 177.854C46.8939 177.789 46.8504 177.739 46.8213 177.706L46.7772 177.656C46.7771 177.656 46.7772 177.656 46.6659 177.754Z" fill="#A8E580"/>
<path fill-rule="evenodd" clip-rule="evenodd" d="M46.381 177.547C46.4134 177.472 46.5007 177.437 46.576 177.47C49.1585 178.58 52.639 180.86 56.7466 183.989C60.8569 187.121 65.6038 191.111 70.7209 195.649C80.9553 204.724 92.6758 215.997 103.754 226.992C114.832 237.988 125.269 248.707 132.936 256.678C136.769 260.664 139.911 263.962 142.093 266.264C143.185 267.415 144.037 268.317 144.616 268.931C144.905 269.238 145.127 269.473 145.276 269.631L145.497 269.868L145.5 269.87C145.501 269.871 145.501 269.871 145.393 269.973C145.285 270.075 145.284 270.074 145.284 270.074L145.228 270.014C145.19 269.974 145.134 269.914 145.059 269.835C144.91 269.676 144.689 269.441 144.4 269.134C143.821 268.52 142.969 267.619 141.878 266.468C139.696 264.167 136.555 260.869 132.722 256.884C125.056 248.914 114.621 238.196 103.545 227.203C92.4683 216.209 80.7523 204.941 70.524 195.871C65.4097 191.336 60.6689 187.351 56.5667 184.226C52.462 181.098 49.0057 178.837 46.4588 177.742C46.3834 177.71 46.3486 177.623 46.381 177.547ZM145.494 270.081C145.435 270.137 145.341 270.134 145.285 270.075L145.393 269.973L145.501 269.871C145.557 269.931 145.554 270.025 145.494 270.081Z" fill="#A8E580"/>
<path fill-rule="evenodd" clip-rule="evenodd" d="M213.068 129.468C213.131 129.521 213.139 129.614 213.086 129.677L208.216 135.439C208.163 135.501 208.07 135.509 208.007 135.456C207.944 135.403 207.937 135.31 207.99 135.247L212.859 129.485C212.912 129.423 213.006 129.415 213.068 129.468Z" fill="#DD3E00"/>
<path fill-rule="evenodd" clip-rule="evenodd" d="M244.898 209.539C244.961 209.591 244.969 209.685 244.916 209.748L240.076 215.51C240.024 215.572 239.93 215.58 239.867 215.528C239.805 215.475 239.796 215.381 239.849 215.319L244.689 209.557C244.742 209.494 244.835 209.486 244.898 209.539Z" fill="#DD3E00"/>
<path fill-rule="evenodd" clip-rule="evenodd" d="M184.095 154.9C184.153 154.842 184.247 154.841 184.305 154.899L189.65 160.185C189.708 160.243 189.709 160.337 189.651 160.395C189.593 160.454 189.499 160.454 189.441 160.397L184.096 155.11C184.038 155.052 184.037 154.958 184.095 154.9Z" fill="#DD3E00"/>
<path d="M172.302 113.15C172.302 113.15 183.688 122.715 200.985 120.743C218.014 118.799 223.335 111.226 223.335 111.226L217.545 110.335C217.545 110.335 206.778 116.601 194.285 115.611C182.326 114.655 178.843 112.014 178.843 112.014L172.302 113.15Z" fill="#DD3E00"/>
<path fill-rule="evenodd" clip-rule="evenodd" d="M178.987 111.897C179.018 112.058 178.913 112.214 178.752 112.245L168.73 114.185C168.569 114.217 168.413 114.111 168.382 113.95C168.351 113.789 168.456 113.633 168.617 113.602L178.639 111.662C178.8 111.631 178.956 111.736 178.987 111.897Z" fill="#333333"/>
<path fill-rule="evenodd" clip-rule="evenodd" d="M216.798 110.445C216.82 110.282 216.969 110.168 217.132 110.19L217.093 110.484L217.054 110.778C216.891 110.757 216.777 110.607 216.798 110.445ZM217.093 110.484C217.054 110.778 217.054 110.778 217.054 110.778L217.088 110.783C217.11 110.786 217.144 110.791 217.188 110.797C217.277 110.809 217.409 110.827 217.579 110.851C217.921 110.898 218.418 110.969 219.04 111.061C220.285 111.244 222.033 111.512 224.043 111.85C228.064 112.525 233.126 113.48 237.306 114.596C237.465 114.639 237.628 114.544 237.67 114.386C237.712 114.227 237.618 114.065 237.46 114.022C233.251 112.899 228.168 111.941 224.141 111.264C222.127 110.925 220.375 110.657 219.127 110.473C218.502 110.381 218.004 110.31 217.662 110.262C217.49 110.238 217.358 110.22 217.269 110.208C217.224 110.202 217.19 110.197 217.167 110.194L217.132 110.19C217.132 110.19 217.132 110.19 217.093 110.484Z" fill="#333333"/>
<path fill-rule="evenodd" clip-rule="evenodd" d="M187.727 81.2844C187.809 81.285 187.875 81.352 187.874 81.434L187.863 82.8596C187.862 82.9416 187.795 83.0076 187.713 83.0069C187.631 83.0063 187.565 82.9393 187.566 82.8573L187.577 81.4317C187.578 81.3497 187.645 81.2837 187.727 81.2844Z" fill="#333333"/>
<path fill-rule="evenodd" clip-rule="evenodd" d="M186.866 81.2775C186.948 81.2782 187.014 81.3452 187.013 81.4272L187.002 82.8528C187.001 82.9348 186.934 83.0007 186.852 83.0001C186.77 82.9995 186.704 82.9324 186.705 82.8504L186.716 81.4249C186.717 81.3429 186.784 81.2769 186.866 81.2775Z" fill="#333333"/>
<path fill-rule="evenodd" clip-rule="evenodd" d="M161.054 211.834C161.112 211.776 161.206 211.776 161.264 211.834L166.609 217.15C166.667 217.208 166.667 217.302 166.609 217.36C166.552 217.418 166.458 217.419 166.399 217.361L161.055 212.044C160.997 211.987 160.996 211.893 161.054 211.834Z" fill="#DD3E00"/>
<path fill-rule="evenodd" clip-rule="evenodd" d="M198.575 147.756C198.593 147.676 198.672 147.625 198.752 147.642L202.998 148.563C203.078 148.58 203.129 148.659 203.111 148.739C203.094 148.819 203.015 148.87 202.935 148.853L198.689 147.932C198.609 147.915 198.558 147.836 198.575 147.756Z" fill="#DD3E00"/>
<path fill-rule="evenodd" clip-rule="evenodd" d="M189.736 185.021C189.774 185.093 189.747 185.183 189.674 185.222L184.538 187.954C184.465 187.992 184.375 187.965 184.337 187.893C184.298 187.82 184.326 187.73 184.398 187.692L189.535 184.959C189.607 184.921 189.697 184.948 189.736 185.021Z" fill="#DD3E00"/>
<path fill-rule="evenodd" clip-rule="evenodd" d="M189.171 206.565C189.203 206.49 189.29 206.454 189.365 206.486L195.126 208.921C195.201 208.953 195.237 209.041 195.205 209.116C195.173 209.192 195.086 209.227 195.01 209.195L189.25 206.76C189.174 206.728 189.139 206.641 189.171 206.565Z" fill="#DD3E00"/>
<path fill-rule="evenodd" clip-rule="evenodd" d="M233.074 161.627C233.14 161.677 233.153 161.77 233.104 161.835L228.561 167.894C228.512 167.96 228.419 167.973 228.353 167.924C228.288 167.875 228.274 167.781 228.323 167.716L232.866 161.657C232.916 161.591 233.009 161.578 233.074 161.627Z" fill="#DD3E00"/>
<path fill-rule="evenodd" clip-rule="evenodd" d="M185.831 132.584C185.846 132.665 185.793 132.742 185.712 132.757L179.031 133.974C178.951 133.989 178.873 133.936 178.859 133.855C178.844 133.774 178.897 133.697 178.978 133.682L185.659 132.464C185.739 132.45 185.817 132.503 185.831 132.584Z" fill="#DD3E00"/>
<path fill-rule="evenodd" clip-rule="evenodd" d="M230.526 134.306C230.606 134.292 230.683 134.346 230.697 134.427L231.617 139.862C231.631 139.943 231.576 140.02 231.496 140.033C231.415 140.047 231.338 139.993 231.324 139.912L230.404 134.477C230.39 134.396 230.445 134.319 230.526 134.306Z" fill="#DD3E00"/>
<path fill-rule="evenodd" clip-rule="evenodd" d="M261.559 161.615C261.632 161.654 261.659 161.743 261.621 161.816L258.889 166.954C258.851 167.026 258.761 167.054 258.688 167.015C258.616 166.977 258.589 166.887 258.627 166.815L261.359 161.676C261.397 161.604 261.487 161.577 261.559 161.615Z" fill="#DD3E00"/>
<path fill-rule="evenodd" clip-rule="evenodd" d="M263.18 177.728C263.227 177.661 263.32 177.645 263.387 177.693L266.415 179.831C266.482 179.878 266.498 179.971 266.451 180.038C266.404 180.105 266.311 180.121 266.244 180.074L263.215 177.935C263.148 177.888 263.132 177.795 263.18 177.728Z" fill="#DD3E00"/>
<path fill-rule="evenodd" clip-rule="evenodd" d="M247.853 183.429C247.934 183.441 247.99 183.517 247.978 183.598L247.384 187.548C247.372 187.629 247.296 187.685 247.215 187.673C247.134 187.66 247.078 187.585 247.091 187.504L247.685 183.554C247.697 183.473 247.772 183.417 247.853 183.429Z" fill="#DD3E00"/>
<path fill-rule="evenodd" clip-rule="evenodd" d="M236.454 187.189C236.476 187.268 236.43 187.35 236.351 187.372L232.105 188.56C232.026 188.582 231.944 188.536 231.922 188.457C231.9 188.378 231.946 188.296 232.025 188.274L236.271 187.086C236.35 187.064 236.432 187.11 236.454 187.189Z" fill="#DD3E00"/>
<path fill-rule="evenodd" clip-rule="evenodd" d="M217.324 210.468C217.382 210.526 217.382 210.62 217.324 210.678L212.781 215.222C212.723 215.28 212.629 215.28 212.571 215.222C212.513 215.164 212.513 215.07 212.571 215.012L217.114 210.468C217.172 210.41 217.266 210.41 217.324 210.468Z" fill="#DD3E00"/>
<path fill-rule="evenodd" clip-rule="evenodd" d="M190.374 218.119C190.389 218.2 190.336 218.277 190.256 218.292L185.386 219.213C185.306 219.228 185.228 219.175 185.213 219.095C185.198 219.014 185.251 218.937 185.331 218.921L190.201 218.001C190.281 217.985 190.359 218.038 190.374 218.119Z" fill="#DD3E00"/>
<path fill-rule="evenodd" clip-rule="evenodd" d="M248.327 141.03C248.368 140.959 248.459 140.935 248.53 140.976L254.29 144.332C254.361 144.374 254.385 144.465 254.343 144.536C254.302 144.606 254.211 144.63 254.14 144.589L248.38 141.233C248.309 141.192 248.285 141.101 248.327 141.03Z" fill="#DD3E00"/>
<path fill-rule="evenodd" clip-rule="evenodd" d="M240.686 127.399C240.726 127.471 240.701 127.561 240.63 127.602L236.384 130.007C236.313 130.048 236.222 130.023 236.182 129.951C236.141 129.88 236.166 129.789 236.238 129.749L240.484 127.343C240.555 127.303 240.645 127.328 240.686 127.399Z" fill="#DD3E00"/>
<path fill-rule="evenodd" clip-rule="evenodd" d="M227.01 119.152C227.079 119.197 227.097 119.289 227.051 119.358L224.617 123.011C224.571 123.079 224.479 123.097 224.411 123.052C224.343 123.006 224.324 122.914 224.37 122.846L226.804 119.193C226.85 119.125 226.942 119.106 227.01 119.152Z" fill="#DD3E00"/>
<path fill-rule="evenodd" clip-rule="evenodd" d="M218.409 143.691C218.49 143.676 218.567 143.729 218.582 143.81L220.096 152.007C220.111 152.088 220.058 152.165 219.977 152.18C219.897 152.195 219.819 152.142 219.804 152.061L218.29 143.864C218.275 143.783 218.328 143.706 218.409 143.691Z" fill="#DD3E00"/>
<path fill-rule="evenodd" clip-rule="evenodd" d="M184.87 169.215C184.928 169.273 184.928 169.367 184.87 169.425L181.841 172.454C181.783 172.512 181.689 172.512 181.631 172.454C181.573 172.396 181.573 172.302 181.631 172.244L184.66 169.215C184.718 169.157 184.812 169.157 184.87 169.215Z" fill="#DD3E00"/>
<path fill-rule="evenodd" clip-rule="evenodd" d="M176.331 155.224C176.406 155.256 176.442 155.344 176.409 155.419L174.598 159.666C174.566 159.742 174.479 159.777 174.403 159.744C174.328 159.712 174.293 159.625 174.325 159.55L176.136 155.302C176.168 155.227 176.256 155.192 176.331 155.224Z" fill="#DD3E00"/>
<path fill-rule="evenodd" clip-rule="evenodd" d="M199.278 190.411C199.358 190.391 199.438 190.44 199.458 190.519L201.269 197.796C201.289 197.875 201.241 197.956 201.161 197.976C201.082 197.996 201.001 197.947 200.981 197.868L199.17 190.591C199.15 190.512 199.199 190.431 199.278 190.411Z" fill="#DD3E00"/>
<path fill-rule="evenodd" clip-rule="evenodd" d="M177.875 196.791C177.941 196.84 177.955 196.933 177.907 196.999L173.661 202.761C173.612 202.827 173.519 202.841 173.453 202.792C173.387 202.744 173.373 202.651 173.422 202.585L177.668 196.823C177.716 196.757 177.809 196.743 177.875 196.791Z" fill="#DD3E00"/>
<path fill-rule="evenodd" clip-rule="evenodd" d="M98.7624 149.197C98.8202 149.255 98.8199 149.349 98.7617 149.407L94.1891 153.951C94.131 154.009 94.037 154.009 93.9792 153.951C93.9214 153.892 93.9217 153.798 93.9799 153.741L98.5525 149.197C98.6106 149.139 98.7046 149.139 98.7624 149.197Z" fill="#DD3E00"/>
<path fill-rule="evenodd" clip-rule="evenodd" d="M50.5557 272.705C50.5557 272.541 50.6886 272.408 50.8526 272.408H318.321C318.485 272.408 318.618 272.541 318.618 272.705C318.618 272.869 318.485 273.002 318.321 273.002H50.8526C50.6886 273.002 50.5557 272.869 50.5557 272.705Z" fill="#333333"/>
<path fill-rule="evenodd" clip-rule="evenodd" d="M89.0761 128.61C89.1471 128.584 89.2258 128.616 89.259 128.684C90.0169 130.225 91.5816 132.369 93.8043 133.788C96.0208 135.203 98.8907 135.897 102.284 134.551C102.36 134.521 102.447 134.558 102.477 134.635C102.507 134.711 102.47 134.797 102.394 134.828C98.8985 136.214 95.9289 135.497 93.6446 134.039C91.7594 132.835 90.3403 131.127 89.467 129.679C89.8438 131.777 90.021 134.514 89.4934 136.857C89.1866 138.219 88.639 139.459 87.7418 140.361C86.841 141.266 85.5988 141.817 83.9297 141.817C80.6129 141.817 78.6425 140.456 77.2819 138.774C76.6048 137.937 76.0799 137.022 75.6152 136.164C75.529 136.005 75.445 135.848 75.3626 135.694C75.1591 135.314 74.9653 134.952 74.7715 134.619C75.1489 136.714 75.0129 139.787 74.1991 142.473C73.2673 145.549 71.4161 148.203 68.3412 148.203C65.8998 148.203 63.9561 146.702 62.5267 144.86C61.6101 143.679 60.8968 142.348 60.3909 141.156C60.4033 141.38 60.4082 141.61 60.4055 141.845C60.3937 142.867 60.2388 143.99 59.9284 145.034C59.6184 146.077 59.1506 147.051 58.507 147.766C57.8609 148.485 57.0343 148.945 56.0189 148.945C54.4155 148.945 53.3707 148.145 52.7143 147.153C52.062 146.167 51.7899 144.99 51.7142 144.208C51.7063 144.126 51.7661 144.054 51.8477 144.046C51.9293 144.038 52.0018 144.098 52.0097 144.179C52.0825 144.931 52.3449 146.056 52.9619 146.989C53.5748 147.915 54.5343 148.648 56.0189 148.648C56.9335 148.648 57.6843 148.237 58.2862 147.568C58.8906 146.896 59.3414 145.967 59.6438 144.949C59.9458 143.933 60.0971 142.838 60.1086 141.841C60.1167 141.133 60.0541 140.48 59.928 139.945C59.8555 139.73 59.7915 139.526 59.7362 139.334C59.7144 139.258 59.7556 139.179 59.83 139.153C59.9044 139.127 59.9862 139.164 60.0162 139.236C60.0935 139.424 60.1593 139.634 60.2137 139.863C60.6907 141.268 61.5446 143.11 62.7613 144.678C64.165 146.487 66.0319 147.906 68.3412 147.906C71.2048 147.906 72.9909 145.437 73.9149 142.387C74.8363 139.346 74.8697 135.812 74.2858 133.841C74.2651 133.771 74.298 133.697 74.3634 133.665C74.4288 133.633 74.5075 133.653 74.5494 133.713C74.9188 134.236 75.2632 134.879 75.628 135.561C75.7096 135.713 75.7921 135.867 75.8763 136.023C76.3394 136.877 76.8537 137.772 77.5128 138.587C78.8246 140.209 80.7141 141.52 83.9297 141.52C85.5267 141.52 86.6909 140.996 87.5314 140.151C88.3755 139.303 88.9042 138.121 89.2037 136.792C89.8032 134.13 89.4734 130.925 88.9812 128.783C88.9643 128.709 89.0051 128.635 89.0761 128.61Z" fill="#FFB000"/>
</svg>
