<svg width="50" height="50" viewBox="0 0 50 50" fill="none" xmlns="http://www.w3.org/2000/svg">
<g clip-path="url(#clip0)">
<path d="M45.3999 38.9657C44.6438 40.7125 43.7488 42.3205 42.7118 43.7989C41.2982 45.8142 40.1408 47.2093 39.2489 47.9839C37.8662 49.2555 36.3848 49.9067 34.7984 49.9437C33.6596 49.9437 32.2862 49.6197 30.6874 48.9623C29.0835 48.308 27.6095 47.9839 26.2617 47.9839C24.8481 47.9839 23.3321 48.308 21.7106 48.9623C20.0865 49.6197 18.7783 49.9623 17.778 49.9962C16.2567 50.061 14.7404 49.3913 13.2269 47.9839C12.2609 47.1414 11.0526 45.697 9.60509 43.6507C8.05206 41.4656 6.77525 38.9317 5.77497 36.0429C4.70371 32.9226 4.16669 29.9011 4.16669 26.9759C4.16669 23.6251 4.89074 20.7351 6.341 18.3132C7.48078 16.3679 8.99709 14.8334 10.8949 13.7069C12.7926 12.5804 14.8432 12.0063 17.0515 11.9696C18.2598 11.9696 19.8443 12.3433 21.8133 13.0779C23.7769 13.8149 25.0376 14.1886 25.5904 14.1886C26.0036 14.1886 27.4042 13.7516 29.7785 12.8804C32.0238 12.0724 33.9188 11.7378 35.4712 11.8696C39.6779 12.2091 42.8383 13.8674 44.9401 16.8549C41.1778 19.1345 39.3168 22.3273 39.3538 26.4232C39.3878 29.6135 40.5452 32.2683 42.8198 34.3763C43.8506 35.3547 45.0018 36.1108 46.2826 36.6478C46.0049 37.4534 45.7117 38.225 45.3999 38.9657ZM35.7521 1.00077C35.7521 3.50134 34.8385 5.83612 33.0176 7.99717C30.8202 10.5662 28.1622 12.0507 25.2799 11.8165C25.2432 11.5165 25.2219 11.2008 25.2219 10.869C25.2219 8.46845 26.2669 5.89939 28.1227 3.79884C29.0492 2.73529 30.2276 1.85096 31.6565 1.14552C33.0824 0.450603 34.4312 0.0662987 35.6996 0.000488281C35.7367 0.334776 35.7521 0.669084 35.7521 1.00074V1.00077Z" fill="black"/>
</g>
<defs>
<clipPath id="clip0">
<rect width="50" height="50" fill="white"/>
</clipPath>
</defs>
</svg>
