<svg width="36" height="36" viewBox="0 0 36 36" fill="none" xmlns="http://www.w3.org/2000/svg">
<rect x="2" y="2" width="32" height="32" rx="12" fill="#6AAF3F" stroke="white" stroke-width="3"/>
<path fill-rule="evenodd" clip-rule="evenodd" d="M22.9866 12.7167C23.0233 12.7808 23.0874 12.8266 23.1699 12.8266C25.3699 12.8266 27.1666 14.6213 27.1666 16.8188V22.2578C27.1666 24.4553 25.3699 26.25 23.1699 26.25H12.8299C10.6208 26.25 8.83325 24.4553 8.83325 22.2578V16.8188C8.83325 14.6213 10.6208 12.8266 12.8299 12.8266C12.9033 12.8266 12.9766 12.79 13.0041 12.7167L13.0591 12.6068C13.0907 12.5403 13.1231 12.472 13.156 12.4027C13.3905 11.9087 13.65 11.3622 13.8108 11.0411C14.2324 10.217 14.9474 9.75916 15.8366 9.75H20.1541C21.0433 9.75916 21.7674 10.217 22.1891 11.0411C22.3335 11.3295 22.5534 11.7941 22.7654 12.2419C22.8092 12.3343 22.8526 12.426 22.8949 12.5153L22.9866 12.7167ZM22.3173 16.2328C22.3173 16.6906 22.684 17.0569 23.1423 17.0569C23.6007 17.0569 23.9765 16.6906 23.9765 16.2328C23.9765 15.775 23.6007 15.3996 23.1423 15.3996C22.684 15.3996 22.3173 15.775 22.3173 16.2328ZM16.4141 17.6521C16.8449 17.2217 17.4041 16.9928 17.9999 16.9928C18.5957 16.9928 19.1549 17.2217 19.5766 17.6429C19.9982 18.0641 20.2274 18.6226 20.2274 19.2178C20.2182 20.4448 19.2282 21.4428 17.9999 21.4428C17.4041 21.4428 16.8449 21.2139 16.4232 20.7927C16.0016 20.3715 15.7724 19.813 15.7724 19.2178V19.2087C15.7632 18.6318 15.9924 18.0733 16.4141 17.6521ZM20.5391 21.7633C19.8883 22.4134 18.9899 22.8163 17.9999 22.8163C17.0374 22.8163 16.1391 22.4409 15.4516 21.7633C14.7733 21.0766 14.3974 20.1792 14.3974 19.2178C14.3883 18.2655 14.7641 17.3682 15.4424 16.6815C16.1299 15.9947 17.0374 15.6193 17.9999 15.6193C18.9624 15.6193 19.8699 15.9947 20.5483 16.6723C21.2266 17.359 21.6024 18.2655 21.6024 19.2178C21.5933 20.2159 21.1899 21.1132 20.5391 21.7633Z" fill="white"/>
</svg>
