<svg width="24" height="24" viewBox="0 0 24 24" fill="none" xmlns="http://www.w3.org/2000/svg">
<path d="M9.14683 8.1006L11.0686 6.17881V16.345C11.0686 16.5919 11.1667 16.8287 11.3413 17.0033C11.5159 17.1779 11.7527 17.276 11.9996 17.276C12.2466 17.276 12.4834 17.1779 12.658 17.0033C12.8326 16.8287 12.9307 16.5919 12.9307 16.345V6.17881L14.8524 8.1006C14.9388 8.18744 15.0415 8.25638 15.1545 8.30349C15.2676 8.35059 15.3888 8.37492 15.5113 8.37508C15.6338 8.37525 15.7551 8.35125 15.8683 8.30446C15.9815 8.25766 16.0843 8.189 16.1709 8.10239C16.2575 8.01578 16.3262 7.91294 16.373 7.79975C16.4198 7.68656 16.4438 7.56526 16.4436 7.44278C16.4434 7.3203 16.4191 7.19906 16.372 7.08599C16.3249 6.97293 16.2559 6.87028 16.1691 6.78391L12.658 3.27271C12.5715 3.18625 12.4689 3.11767 12.3559 3.07088C12.243 3.02408 12.1219 3 11.9996 3C11.8774 3 11.7563 3.02408 11.6433 3.07088C11.5304 3.11767 11.4277 3.18625 11.3413 3.27271L7.83015 6.78391C7.74331 6.87028 7.67436 6.97293 7.62726 7.08599C7.58016 7.19906 7.55583 7.3203 7.55566 7.44278C7.5555 7.56526 7.5795 7.68656 7.62629 7.79975C7.67309 7.91294 7.74175 8.01578 7.82836 8.10239C7.91496 8.189 8.0178 8.25766 8.13099 8.30446C8.24418 8.35125 8.36549 8.37525 8.48796 8.37508C8.61044 8.37492 8.73168 8.35059 8.84474 8.30349C8.9578 8.25638 9.06046 8.18744 9.14683 8.1006Z" fill="white"/>
<path d="M20.069 11.0688C19.822 11.0688 19.5852 11.1669 19.4106 11.3415C19.236 11.5161 19.1379 11.753 19.1379 11.9999V19.1379H4.86207V11.9999C4.86207 11.753 4.76398 11.5161 4.58938 11.3415C4.41477 11.1669 4.17796 11.0688 3.93103 11.0688C3.68411 11.0688 3.4473 11.1669 3.27269 11.3415C3.09809 11.5161 3 11.753 3 11.9999V19.4482C3 19.8598 3.16348 20.2545 3.45449 20.5455C3.74549 20.8365 4.14018 21 4.55172 21H19.4483C19.8598 21 20.2545 20.8365 20.5455 20.5455C20.8365 20.2545 21 19.8598 21 19.4482V11.9999C21 11.753 20.9019 11.5161 20.7273 11.3415C20.5527 11.1669 20.3159 11.0688 20.069 11.0688Z" fill="white"/>
</svg>
