<svg width="48" height="48" viewBox="0 0 48 48" fill="none" xmlns="http://www.w3.org/2000/svg">
<g clip-path="url(#clip0)">
<path d="M47.532 24.5527C47.532 22.9213 47.3997 21.281 47.1175 19.676H24.48V28.918H37.4434C36.9055 31.8987 35.177 34.5355 32.6461 36.211V42.2077H40.3801C44.9217 38.0277 47.532 31.8546 47.532 24.5527Z" fill="#4285F4"/>
<path d="M24.48 48.0016C30.9529 48.0016 36.4116 45.8764 40.3888 42.2078L32.6549 36.2111C30.5031 37.675 27.7252 38.5039 24.4888 38.5039C18.2275 38.5039 12.9187 34.2798 11.0139 28.6006H3.03296V34.7825C7.10718 42.8868 15.4056 48.0016 24.48 48.0016Z" fill="#34A853"/>
<path d="M11.0051 28.6007C9.99973 25.62 9.99973 22.3923 11.0051 19.4116V13.2297H3.03298C-0.371021 20.0113 -0.371021 28.001 3.03298 34.7826L11.0051 28.6007Z" fill="#FBBC04"/>
<path d="M24.48 9.49932C27.9016 9.44641 31.2086 10.7339 33.6866 13.0973L40.5387 6.24523C36.2 2.17101 30.4414 -0.068932 24.48 0.00161733C15.4055 0.00161733 7.10718 5.11644 3.03296 13.2296L11.005 19.4115C12.901 13.7235 18.2187 9.49932 24.48 9.49932Z" fill="#EA4335"/>
</g>
<defs>
<clipPath id="clip0">
<rect width="48" height="48" fill="white"/>
</clipPath>
</defs>
</svg>
