<svg width="20" height="20" viewBox="0 0 20 20" fill="none" xmlns="http://www.w3.org/2000/svg">
<rect width="20" height="20" rx="5" fill="#ABABAB"/>
<path d="M9.875 15.75C10.3582 15.75 10.75 15.3582 10.75 14.875C10.75 14.3918 10.3582 14 9.875 14C9.39175 14 9 14.3918 9 14.875C9 15.3582 9.39175 15.75 9.875 15.75Z" fill="#181725"/>
<path d="M10.4995 9.44823L10.4994 9.44825C9.82801 9.67034 9.3706 10.2706 9.3706 10.9469V12.5039C9.3706 12.839 9.65876 13.1 10 13.1C10.3412 13.1 10.6294 12.839 10.6294 12.5039V10.9475C10.6294 10.7835 10.7405 10.6312 10.9142 10.5743L10.9144 10.5742C12.1354 10.1701 13.1 8.96513 13.1 7.81138C13.1 6.20026 11.7035 4.9 10 4.9C8.29646 4.9 6.9 6.20026 6.9 7.81138C6.9 8.14648 7.18816 8.4075 7.5294 8.4075C7.87065 8.4075 8.15881 8.14648 8.15881 7.81138C8.15881 6.86912 8.97818 6.09224 10 6.09224C11.0218 6.09224 11.8412 6.86912 11.8412 7.81138C11.8412 8.08891 11.711 8.43138 11.473 8.74114C11.2361 9.04949 10.8994 9.31621 10.4995 9.44823Z" fill="#181725" stroke="#ABABAB" stroke-width="0.2" stroke-linejoin="round"/>
</svg>
