<svg width="40" height="40" viewBox="0 0 40 40" fill="none" xmlns="http://www.w3.org/2000/svg">
<rect width="40" height="40" rx="14" fill="#EDF6F3"/>
<g clip-path="url(#clip0_287:1063)">
<path d="M31.1258 20.5583C31.1258 23.4886 29.2203 27.5382 26.9163 29.7504C25.8946 30.7329 24.794 31.3528 23.7463 31.3528C23.0842 31.3528 22.4237 31.2464 21.8555 31.0749C21.077 30.8392 20.249 30.8392 19.4705 31.0749C18.9023 31.2464 18.2419 31.3528 17.5797 31.3528C16.4821 31.3528 15.3257 30.6718 14.2627 29.6065C12.0252 27.366 10.2002 23.4257 10.2002 20.5583C10.2002 16.3277 12.7309 13.7717 15.1106 13.1547C16.2505 12.8592 17.5732 13.0496 18.6414 13.3275C19.7461 13.6154 20.8942 13.6636 22.0129 13.472C22.2386 13.4333 22.4624 13.3851 22.6845 13.3275C23.7528 13.0496 25.0748 12.8592 26.2153 13.1547C28.5951 13.7717 31.1258 16.3277 31.1258 20.5583Z" fill="#F94848"/>
<path d="M26.9172 29.7502C24.0898 30.2498 21.912 30.1114 20.2711 29.7141C17.5916 29.0652 15.5983 26.8052 15.2661 24.0684C14.434 17.2139 18.9127 15.2183 18.9127 15.2183C20.2253 15.8147 21.7013 15.4963 21.7013 15.4963C20.7594 14.555 22.0139 13.472 22.0139 13.472C20.8952 13.6636 19.747 13.6154 18.6424 13.3275C17.5742 13.0496 16.2516 12.8592 15.1116 13.1547C12.7319 13.7717 10.2012 16.3277 10.2012 20.5583C10.2012 24.7883 14.1726 31.3528 17.5806 31.3528C18.2428 31.3528 18.9032 31.2464 19.4714 31.0749C20.25 30.8392 21.0779 30.8392 21.8565 31.0749C22.4247 31.2464 23.0851 31.3528 23.7473 31.3528C24.795 31.3528 25.8955 30.7329 26.9173 29.7504C26.9172 29.7503 26.9173 29.7504 26.9172 29.7502Z" fill="#E23D3D"/>
<path d="M32.1526 7.26191C32.1526 7.26191 31.565 11.3579 28.4702 12.5502C25.5117 13.6901 22.8746 10.6082 21.7929 10.8509C21.7442 10.8609 21.6989 10.8785 21.6566 10.9038C21.6549 10.9044 21.6543 10.905 21.6543 10.905L21.6549 10.9027C21.6913 10.7922 22.8776 7.25849 25.9243 7.02695C29.019 6.79184 30.703 8.20206 32.1526 7.26191Z" fill="#C7F492"/>
<path d="M32.1517 7.26191C32.1517 7.26191 30.2714 9.5535 27.6273 9.5535C25.3022 9.5535 22.4471 10.5982 21.792 10.8509C21.7132 10.8809 21.6668 10.8997 21.6557 10.9038C21.6539 10.9044 21.6533 10.905 21.6533 10.905L21.6539 10.9027C21.6903 10.7922 22.8767 7.25849 25.9233 7.02695C29.018 6.79184 30.7021 8.20206 32.1517 7.26191Z" fill="#A3E261"/>
<path d="M29.0964 18.6347C28.9809 17.4724 28.2775 16.5908 27.5255 16.6656C26.7734 16.7403 26.2574 17.7431 26.3729 18.9054C26.4884 20.0677 27.1917 20.9494 27.9438 20.8746C28.6959 20.7999 29.2119 19.797 29.0964 18.6347Z" fill="#FC8181"/>
<path d="M22.8552 14.9164C22.8552 15.3976 22.0996 15.7984 21.0966 15.8894C20.9568 15.9023 20.8122 15.9088 20.6641 15.9088C20.5096 15.9088 20.3592 15.9018 20.214 15.8883C19.2204 15.7937 18.4736 15.3947 18.4736 14.9164H22.8552Z" fill="#E23D3D"/>
<path d="M22.3353 10.8532L20.7283 13.294C20.8487 13.7888 20.9527 14.3341 21.0203 14.9164C21.0573 15.2307 21.0838 15.5557 21.0961 15.8894C20.9563 15.9023 20.8118 15.9088 20.6637 15.9088C20.5092 15.9088 20.3588 15.9017 20.2136 15.8882C20.2007 15.5545 20.1719 15.2301 20.1325 14.9164C19.8446 12.6348 18.9644 10.9543 18.9538 10.9355C18.8398 10.7205 18.9215 10.4537 19.1366 10.3397C19.3516 10.2251 19.6184 10.3068 19.7323 10.5219C19.7582 10.5712 20.0819 11.19 20.4087 12.1771L21.5997 10.3685C21.7331 10.1652 22.0069 10.1094 22.2096 10.2434C22.4129 10.3768 22.4693 10.65 22.3353 10.8532Z" fill="#B25719"/>
</g>
<defs>
<clipPath id="clip0_287:1063">
<rect width="24.3528" height="24.3528" fill="white" transform="translate(9 7)"/>
</clipPath>
</defs>
</svg>
