<svg width="36" height="43" viewBox="0 0 36 43" fill="none" xmlns="http://www.w3.org/2000/svg">
<path d="M33.3154 15.2331C30.9662 12.3052 28.1796 10.9673 24.7645 10.615C24.2094 10.5579 24.2865 10.55 24.1393 10.55C22.3432 10.55 20.7552 10.7371 19.1661 11.1361C19.0248 10.2686 18.7876 9.44285 18.4583 8.66107C22.2807 8.98145 25.6377 6.14758 26.1489 2.25811C26.2228 1.69596 25.951 1.14561 25.4674 0.878399C21.7351 -1.18404 17.0792 0.518674 15.4518 4.59157C14.3458 3.62993 13.0044 2.78616 11.394 2.03881C10.7332 1.73217 9.95728 2.03779 9.66093 2.72154C9.36457 3.40529 9.65994 4.20818 10.3208 4.51482C13.8684 6.16114 15.8609 8.27472 16.4851 11.0889C11.877 10.0691 7.54783 10.5332 4.0609 13.7271C1.8938 15.6949 0.578389 18.2606 0.141314 21.0644C-0.184792 23.1716 0.0446049 26.7412 0.922362 29.7739C1.78619 32.9177 3.28239 35.8257 5.37368 38.4223C5.97877 39.1657 6.73179 40.0908 7.64044 40.8431C11.8066 44.259 15.644 42.7485 17.9341 42.125C18.6054 42.0415 24.0571 44.9043 28.6296 40.6208C33.2792 36.2416 35.8662 29.9767 35.9985 23.4085C36.0422 20.3207 35.1395 17.5701 33.3154 15.2331Z" fill="white"/>
</svg>
