<svg width="24" height="24" viewBox="0 0 24 24" fill="none" xmlns="http://www.w3.org/2000/svg">
<path d="M18.8088 9.021C18.3573 9.021 17.7592 9.011 17.0146 9.011C15.1987 9.011 13.7055 7.508 13.7055 5.675V2.459C13.7055 2.206 13.5036 2 13.253 2H7.96363C5.49517 2 3.5 4.026 3.5 6.509V17.284C3.5 19.889 5.59022 22 8.16958 22H16.0463C18.5058 22 20.5 19.987 20.5 17.502V9.471C20.5 9.217 20.299 9.012 20.0475 9.013C19.6247 9.016 19.1177 9.021 18.8088 9.021Z" fill="#ABABAB"/>
<path d="M16.0842 2.56737C15.7852 2.25637 15.2632 2.47037 15.2632 2.90137V5.53837C15.2632 6.64437 16.1742 7.55437 17.2802 7.55437C17.9772 7.56237 18.9452 7.56437 19.7672 7.56237C20.1882 7.56137 20.4022 7.05837 20.1102 6.75437C19.0552 5.65737 17.1662 3.69137 16.0842 2.56737Z" fill="#ABABAB"/>
<path fill-rule="evenodd" clip-rule="evenodd" d="M8.97398 11.3874H12.359C12.77 11.3874 13.104 11.0544 13.104 10.6434C13.104 10.2324 12.77 9.89844 12.359 9.89844H8.97398C8.56298 9.89844 8.22998 10.2324 8.22998 10.6434C8.22998 11.0544 8.56298 11.3874 8.97398 11.3874ZM8.97408 16.3816H14.4181C14.8291 16.3816 15.1631 16.0486 15.1631 15.6376C15.1631 15.2266 14.8291 14.8926 14.4181 14.8926H8.97408C8.56308 14.8926 8.23008 15.2266 8.23008 15.6376C8.23008 16.0486 8.56308 16.3816 8.97408 16.3816Z" fill="#181725"/>
</svg>
