<svg width="41" height="34" viewBox="0 0 41 34" fill="none" xmlns="http://www.w3.org/2000/svg">
<path d="M41 13.9644V15.1787C41 16.1846 40.2352 17.0001 39.2917 17.0001H38.7222L36.8635 30.8723C36.623 32.667 35.1815 34 33.4812 34H7.5188C5.81851 34 4.37696 32.667 4.13644 30.8723L2.27778 17.0001H1.70833C0.764835 17.0001 0 16.1846 0 15.1787V13.9644C0 12.9585 0.764835 12.143 1.70833 12.143H6.5017L14.1024 1.0004C14.8423 -0.0842531 16.2668 -0.324149 17.2842 0.464752C18.3016 1.25365 18.5265 2.77249 17.7866 3.85722L12.1346 12.143H28.8654L23.2134 3.85714C22.4735 2.77249 22.6985 1.25358 23.7159 0.464676C24.7331 -0.324225 26.1578 -0.0844049 26.8977 1.00032L34.4983 12.143H39.2917C40.2352 12.143 41 12.9585 41 13.9644ZM22.2083 27.3215V18.8215C22.2083 17.8156 21.4435 17.0001 20.5 17.0001C19.5565 17.0001 18.7917 17.8156 18.7917 18.8215V27.3215C18.7917 28.3274 19.5565 29.1429 20.5 29.1429C21.4435 29.1429 22.2083 28.3274 22.2083 27.3215ZM30.1806 27.3215V18.8215C30.1806 17.8156 29.4157 17.0001 28.4722 17.0001C27.5287 17.0001 26.7639 17.8156 26.7639 18.8215V27.3215C26.7639 28.3274 27.5287 29.1429 28.4722 29.1429C29.4157 29.1429 30.1806 28.3274 30.1806 27.3215ZM14.2361 27.3215V18.8215C14.2361 17.8156 13.4713 17.0001 12.5278 17.0001C11.5843 17.0001 10.8194 17.8156 10.8194 18.8215V27.3215C10.8194 28.3274 11.5843 29.1429 12.5278 29.1429C13.4713 29.1429 14.2361 28.3274 14.2361 27.3215Z" fill="white"/>
</svg>
