<svg width="22" height="22" viewBox="0 0 22 22" fill="none" xmlns="http://www.w3.org/2000/svg">
<path d="M20.1663 14.6118C20.1663 17.1693 18.113 19.241 15.5555 19.2502H15.5463H6.46218C3.91384 19.2502 1.83301 17.1877 1.83301 14.6302V14.621C1.83301 14.621 1.83851 10.5638 1.84584 8.52333C1.84676 8.14016 2.28676 7.92566 2.58651 8.164C4.76451 9.89191 8.65943 13.0425 8.70801 13.0837C9.35884 13.6053 10.1838 13.8996 11.0272 13.8996C11.8705 13.8996 12.6955 13.6053 13.3463 13.0737C13.3949 13.0416 17.2028 9.98541 19.4138 8.22908C19.7144 7.98983 20.1563 8.20433 20.1572 8.58658C20.1663 10.6115 20.1663 14.6118 20.1663 14.6118Z" fill="white"/>
<path d="M19.6858 5.2008C18.892 3.7048 17.33 2.74963 15.6103 2.74963H6.46199C4.74232 2.74963 3.18032 3.7048 2.38649 5.2008C2.20865 5.53538 2.29299 5.95247 2.58907 6.18897L9.39532 11.6331C9.87199 12.0181 10.4495 12.2096 11.027 12.2096C11.0307 12.2096 11.0334 12.2096 11.0362 12.2096C11.0389 12.2096 11.0426 12.2096 11.0453 12.2096C11.6228 12.2096 12.2003 12.0181 12.677 11.6331L19.4832 6.18897C19.7793 5.95247 19.8637 5.53538 19.6858 5.2008Z" fill="white"/>
</svg>
