<svg width="185" height="289" viewBox="0 0 185 289" fill="none" xmlns="http://www.w3.org/2000/svg">
<path d="M58.5212 288.505H34.0996V283.185L42.6633 274.004C43.7421 272.849 44.7213 271.785 45.6009 270.812C46.4805 269.838 47.2356 268.89 47.8663 267.966C48.497 267.042 48.9866 266.102 49.3351 265.145C49.6836 264.188 49.8579 263.157 49.8579 262.051C49.8579 260.831 49.4844 259.882 48.7376 259.206C48.0074 258.529 47.0199 258.191 45.7752 258.191C44.464 258.191 43.2027 258.513 41.9912 259.156C40.7796 259.799 39.51 260.715 38.1823 261.903L34 256.978C34.7468 256.302 35.5269 255.659 36.3401 255.048C37.1533 254.421 38.0495 253.869 39.0287 253.39C40.0079 252.912 41.0867 252.532 42.265 252.252C43.4434 251.955 44.7628 251.806 46.2233 251.806C47.9659 251.806 49.5259 252.046 50.9034 252.524C52.2975 253.003 53.4842 253.687 54.4634 254.578C55.4426 255.452 56.1894 256.516 56.7039 257.77C57.235 259.024 57.5005 260.435 57.5005 262.002C57.5005 263.421 57.2516 264.782 56.7537 266.085C56.2558 267.372 55.5753 268.642 54.7123 269.896C53.8493 271.133 52.8452 272.371 51.7001 273.608C50.5715 274.829 49.36 276.074 48.0655 277.345L43.684 281.725V282.071H58.5212V288.505Z" fill="white"/>
<path d="M71.1167 273.459L74.4277 269.253L82.2197 260.839H90.7834L79.7302 272.841L91.4556 288.505H82.6927L74.6766 277.295L71.4154 279.893V288.505H63.8226V250H71.4154V267.174L71.0171 273.459H71.1167Z" fill="white"/>
<path d="M94.8152 253.687C94.8152 251.229 96.1927 250 98.9477 250C101.703 250 103.08 251.229 103.08 253.687C103.08 254.859 102.732 255.774 102.035 256.434C101.354 257.077 100.325 257.399 98.9477 257.399C96.1927 257.399 94.8152 256.162 94.8152 253.687ZM102.732 288.505H95.1388V260.839H102.732V288.505Z" fill="white"/>
<path d="M118.016 288.505H110.423V250H118.016V288.505Z" fill="white"/>
<path d="M131.756 274.622C131.756 277.361 132.205 279.431 133.101 280.834C134.014 282.236 135.491 282.937 137.532 282.937C139.557 282.937 141.009 282.244 141.889 280.859C142.785 279.456 143.233 277.378 143.233 274.622C143.233 271.884 142.785 269.83 141.889 268.461C140.992 267.091 139.524 266.407 137.482 266.407C135.457 266.407 133.997 267.091 133.101 268.461C132.205 269.813 131.756 271.867 131.756 274.622ZM151 274.622C151 279.126 149.805 282.648 147.415 285.189C145.025 287.73 141.698 289 137.432 289C134.76 289 132.404 288.423 130.362 287.268C128.321 286.096 126.753 284.422 125.657 282.244C124.562 280.067 124.014 277.526 124.014 274.622C124.014 270.102 125.201 266.588 127.574 264.081C129.947 261.573 133.283 260.319 137.582 260.319C140.254 260.319 142.611 260.897 144.652 262.051C146.693 263.206 148.262 264.864 149.357 267.025C150.452 269.187 151 271.719 151 274.622Z" fill="white"/>
<path fill-rule="evenodd" clip-rule="evenodd" d="M46.6681 12.3472C75.5397 -4.38553 111.027 -4.09306 139.628 13.1133C167.947 30.6701 185.159 62.0039 184.999 95.7102C184.34 129.195 165.884 160.672 142.814 185.004C129.499 199.112 114.603 211.586 98.4317 222.173C97.5978 222.719 96.0641 223.618 94.7609 224.368C93.3351 225.189 91.5873 225.212 90.1409 224.428C88.7103 223.653 86.998 222.705 86.1721 222.173C61.4833 206.265 41.5372 186.295 23.9488 162.569C9.23139 142.764 0.869961 118.836 1.53763e-05 94.036C-0.0191058 60.265 17.7966 29.08 46.6681 12.3472Z" fill="white"/>
<path d="M54.8895 127.548V105.888C54.8895 105.437 54.5229 105.071 54.0706 105.071H50.4441C49.9919 105.071 49.6252 105.437 49.6252 105.888V149.586C49.6252 151.842 51.4584 153.67 53.7196 153.67H131.513C133.775 153.67 135.608 151.842 135.608 149.586V105.888C135.608 105.437 135.241 105.071 134.789 105.071H130.943C130.491 105.071 130.124 105.437 130.124 105.888V127.548C130.124 128.675 129.208 129.59 128.077 129.59H56.9367C55.806 129.59 54.8895 128.675 54.8895 127.548Z" fill="#72B841"/>
<path d="M53.3707 71.7843C53.9695 70.1894 55.4977 69.1324 57.2052 69.1324H63.4441C66.0346 69.1324 67.9741 71.5019 67.4557 74.0336L62.522 98.1289C62.1327 100.03 60.4559 101.396 58.5104 101.396H48.1601C45.3022 101.396 43.3236 98.5492 44.3257 95.8796L53.3707 71.7843Z" fill="#86BF4B"/>
<path d="M131.459 72.1767C130.856 70.5901 129.332 69.5408 127.63 69.5408H121.392C118.797 69.5408 116.857 71.9176 117.382 74.452L122.294 98.1389C122.688 100.035 124.362 101.396 126.304 101.396H136.636C139.501 101.396 141.481 98.5357 140.465 95.8635L131.459 72.1767Z" fill="#86BF4B"/>
<path d="M110.474 72.901C110.123 70.956 108.426 69.5408 106.444 69.5408H99.9862C97.725 69.5408 95.8918 71.3693 95.8918 73.6248V96.9032C95.8918 99.1587 97.725 100.987 99.9862 100.987H110.647C113.199 100.987 115.129 98.6843 114.677 96.1794L110.474 72.901Z" fill="#86BF4B"/>
<path d="M74.3494 72.901C74.7006 70.956 76.3976 69.5408 78.379 69.5408H84.8372C87.0985 69.5408 88.9316 71.3693 88.9316 73.6248V96.9032C88.9316 99.1587 87.0985 100.987 84.8372 100.987H74.1761C71.6244 100.987 69.6943 98.6843 70.1465 96.1794L74.3494 72.901Z" fill="#86BF4B"/>
<path d="M50.0347 60.5563C50.0347 59.4285 50.9512 58.5143 52.0819 58.5143H133.56C134.691 58.5143 135.608 59.4285 135.608 60.5563V63.8234C135.608 64.9512 134.691 65.8654 133.56 65.8654H52.0819C50.9512 65.8654 50.0347 64.9512 50.0347 63.8234V60.5563Z" fill="#86BF4B"/>
</svg>
